<svg width="421" height="1080" viewBox="0 0 421 1080" fill="none" xmlns="http://www.w3.org/2000/svg">
<g clip-path="url(#clip0_734_8992)">
<path d="M255.958 592.686L278.34 565.555C278.757 565.049 279.271 564.63 279.85 564.323C280.429 564.016 281.063 563.826 281.715 563.764C282.368 563.703 283.026 563.77 283.652 563.964C284.279 564.157 284.861 564.473 285.365 564.892C285.87 565.311 286.288 565.825 286.594 566.406C286.901 566.986 287.09 567.622 287.152 568.276C287.213 568.93 287.146 569.59 286.952 570.218C286.759 570.845 286.445 571.429 286.027 571.935L263.645 599.048L255.958 592.686Z" fill="#2C92F8"/>
<path d="M223.261 567.168L245.643 540.073C246.059 539.566 246.571 539.145 247.15 538.836C247.729 538.527 248.362 538.336 249.015 538.273C249.667 538.209 250.326 538.276 250.953 538.468C251.58 538.66 252.163 538.974 252.668 539.392C253.175 539.809 253.595 540.323 253.903 540.904C254.211 541.485 254.401 542.121 254.462 542.775C254.524 543.43 254.456 544.09 254.261 544.718C254.067 545.347 253.75 545.93 253.33 546.435L230.966 573.566L223.261 567.168Z" fill="#2C92F8"/>
<path d="M170.078 672.18C170.849 672.707 171.649 673.192 172.474 673.631C174.806 674.738 177.473 674.911 179.928 674.115C181.627 673.576 183.151 672.592 184.344 671.266L188.581 666.517C191.62 663.166 194.963 659.438 198.52 655.478V656.087L190.905 649.152L183.307 642.217H183.915L173.957 653.184L169.649 657.879C168.449 659.192 167.616 660.799 167.236 662.539C166.683 665.068 167.111 667.715 168.434 669.94C168.949 670.724 169.51 671.478 170.114 672.197C169.347 671.624 168.693 670.913 168.183 670.101C166.698 667.841 166.165 665.084 166.699 662.431C167.061 660.573 167.913 658.847 169.166 657.431C170.489 655.944 171.919 654.367 173.403 652.683L183.361 641.626L183.647 641.303L183.968 641.608L191.584 648.525L199.164 655.46L199.485 655.747L199.199 656.069L189.171 667.036L184.862 671.732C183.578 673.123 181.94 674.139 180.125 674.67C177.546 675.449 174.765 675.179 172.384 673.918C171.51 673.494 170.727 672.904 170.078 672.18Z" fill="#263238"/>
<path d="M255.958 592.686C256.163 592.81 256.36 592.948 256.547 593.098L258.121 594.317L263.823 598.85H263.448L273.781 586.109L280.323 578.135L283.899 573.852L285.687 571.648C286.263 570.976 286.625 570.145 286.723 569.265C286.819 568.52 286.728 567.764 286.46 567.063C286.191 566.363 285.754 565.74 285.186 565.25C284.632 564.777 283.973 564.442 283.264 564.274C282.556 564.106 281.817 564.109 281.11 564.283C280.444 564.455 279.831 564.787 279.322 565.25C278.793 565.756 278.303 566.301 277.857 566.881L275.068 570.25L265.325 581.862L258.639 589.729L256.851 591.88C256.632 592.153 256.393 592.411 256.136 592.65C256.29 592.382 256.47 592.13 256.673 591.897L258.46 589.747C260.051 587.758 262.214 585.034 264.878 581.737L274.549 569.802L277.356 566.361C277.838 565.733 278.357 565.135 278.911 564.569C279.729 563.811 280.763 563.327 281.868 563.185C282.973 563.042 284.095 563.248 285.078 563.775C286.061 564.301 286.856 565.121 287.353 566.121C287.849 567.121 288.023 568.251 287.85 569.354C287.715 570.402 287.287 571.389 286.616 572.203L284.828 574.39L281.253 578.655L274.657 586.593L264.127 599.137L263.948 599.352L263.752 599.173L258.103 594.317L256.673 593.026C256.421 592.943 256.181 592.829 255.958 592.686Z" fill="#263238"/>
<path d="M223.261 567.168C223.472 567.29 223.67 567.434 223.851 567.598C224.28 567.921 224.798 568.315 225.424 568.817L231.127 573.351H230.751L241.102 560.61L247.627 552.635L251.202 548.352L252.99 546.148C253.555 545.462 253.915 544.63 254.027 543.747C254.115 543.001 254.019 542.245 253.748 541.545C253.477 540.846 253.038 540.223 252.471 539.733C251.918 539.257 251.259 538.922 250.55 538.757C249.84 538.592 249.101 538.6 248.395 538.783C247.732 538.952 247.12 539.278 246.608 539.733C246.085 540.245 245.601 540.796 245.16 541.381L242.353 544.732L232.61 556.362L225.924 564.229L224.137 566.38C223.927 566.656 223.687 566.909 223.422 567.132C223.422 567.132 223.583 566.882 223.958 566.398L225.656 564.229L232.074 556.219L241.745 544.302L244.57 540.862C245.041 540.225 245.561 539.626 246.125 539.07C246.759 538.512 247.521 538.118 248.342 537.923C249.18 537.705 250.059 537.694 250.903 537.89C251.746 538.087 252.53 538.485 253.186 539.052C253.849 539.644 254.359 540.389 254.67 541.223C254.982 542.056 255.086 542.953 254.974 543.836C254.839 544.884 254.411 545.871 253.741 546.686C253.115 547.42 252.525 548.155 251.953 548.89L248.378 553.155L241.799 561.093L231.252 573.637L231.073 573.834L230.876 573.673C228.534 571.63 226.639 570 225.245 568.799L223.797 567.527C223.404 567.347 223.243 567.168 223.261 567.168Z" fill="#263238"/>
<path d="M227.587 654.332L227.284 654.672L226.372 655.622C225.888 656.148 225.362 656.634 224.799 657.074L223.726 657.952L222.421 658.848C220.142 660.431 217.625 661.641 214.967 662.432C210.953 663.625 206.72 663.885 202.591 663.192C198.462 662.5 194.545 660.873 191.137 658.436C189.081 656.984 187.132 655.3 185.005 653.651C182.759 651.989 180.648 650.149 178.695 648.15C174.454 643.606 171.871 637.757 171.365 631.556C170.77 624.69 172.717 617.846 176.836 612.328V612.883C174.929 611.206 173.722 608.871 173.457 606.342C173.319 605.028 173.444 603.7 173.825 602.436C174.205 601.171 174.834 599.995 175.674 598.977C177.232 597.097 179.422 595.853 181.831 595.477C184.241 595.101 186.704 595.619 188.759 596.934L188.205 597.024L213.286 565.503L220.58 556.31L220.848 555.951L221.205 556.238C240.87 572.796 259.354 588.261 275.372 601.719L275.676 601.97L275.426 602.256L242.336 641.878V641.573C243.473 643.021 244.178 644.763 244.369 646.596C244.561 648.429 244.231 650.28 243.417 651.933C242.604 653.586 241.341 654.974 239.773 655.938C238.206 656.902 236.398 657.401 234.559 657.378C232.631 657.344 230.759 656.719 229.196 655.586C228.802 655.299 228.426 654.988 228.07 654.655L227.695 654.314C227.695 654.314 228.231 654.744 229.268 655.479C230.858 656.535 232.724 657.096 234.631 657.092C236.134 657.086 237.615 656.72 238.949 656.025C240.283 655.33 241.432 654.326 242.3 653.096C243.446 651.537 244.071 649.656 244.088 647.72C244.113 645.569 243.4 643.474 242.068 641.788L241.942 641.627L242.068 641.465L274.961 601.683V602.221L220.616 556.919H221.241L213.948 566.094L188.92 597.544L188.688 597.848L188.366 597.633C186.492 596.417 184.239 595.928 182.031 596.258C179.822 596.588 177.81 597.714 176.371 599.425C174.848 601.271 174.105 603.641 174.303 606.029C174.5 608.416 175.62 610.632 177.425 612.202L177.694 612.453L177.479 612.74C173.67 617.854 171.769 624.145 172.106 630.519C172.442 636.892 174.995 642.946 179.32 647.63C181.253 649.58 183.333 651.377 185.542 653.006C187.651 654.672 189.617 656.393 191.62 657.826C196.088 661.03 201.413 662.815 206.905 662.949C212.397 663.083 217.802 661.561 222.421 658.579C222.886 658.274 223.333 657.988 223.744 657.701L224.817 656.841C225.395 656.411 225.944 655.945 226.461 655.443L227.409 654.529C227.528 654.386 227.587 654.32 227.587 654.332Z" fill="#263238"/>
<path d="M14.1933 991.21C14.183 987.63 14.6949 984.068 15.7129 980.637C25.8847 946.589 50.3936 948.381 70.0938 949.761C88.4531 951.087 100.001 951.141 105.686 935.962C113.194 915.874 105.901 907.613 94.853 895.087C81.6957 880.177 65.3207 861.648 71.9708 816.669C75.421 793.373 87.7023 755.741 126.638 709.669C140.423 693.239 155.617 678.051 172.045 664.277L177.622 671.23C176.764 671.929 92.1894 740.724 80.784 817.977C74.7417 858.835 88.9716 874.945 101.521 889.173C112.783 901.932 123.42 913.975 114.035 939.098C105.722 961.283 86.4688 959.904 69.4681 958.667C49.5713 957.233 32.3918 955.997 24.2579 983.2C15.1051 1013.84 63.5867 1054.14 92.4754 1078.18C102.79 1086.78 110.263 1092.74 114.142 1097.51L108.779 1104.25C105.204 1101.27 96.2653 1093 86.7727 1085.04C57.2941 1060.56 14.1933 1024.68 14.1933 991.21Z" fill="#2C92F8"/>
<path d="M84.5741 864.891C84.5741 864.891 84.2344 864.533 83.7875 863.816C83.1235 862.811 82.5263 861.764 81.9999 860.68C80.2514 857.098 78.9543 853.312 78.1385 849.408C77.3379 845.508 77.0317 841.522 77.2268 837.545C77.2896 836.345 77.4149 835.149 77.6022 833.961C77.6396 833.519 77.742 833.084 77.9061 832.671C78.0491 832.671 77.9061 834.571 77.9061 837.581C77.8668 845.444 79.4746 853.228 82.6256 860.429C83.8769 863.171 84.7886 864.82 84.5741 864.891Z" fill="white"/>
<path d="M111.55 917.29C111.514 916.315 111.55 915.339 111.657 914.369C111.724 909.687 110.155 905.13 107.224 901.485C106.544 900.785 105.916 900.037 105.347 899.245C106.253 899.656 107.053 900.269 107.688 901.037C109.352 902.806 110.621 904.91 111.41 907.208C112.199 909.507 112.49 911.948 112.265 914.369C112.257 915.385 112.012 916.386 111.55 917.29Z" fill="white"/>
<path d="M27.118 974.365C27.2841 972.958 27.7019 971.592 28.3515 970.333C29.7794 967.221 31.8062 964.423 34.3156 962.098C36.825 959.773 39.7676 957.968 42.9746 956.786C44.2745 956.24 45.6606 955.931 47.0684 955.872C47.0684 956.015 45.5488 956.373 43.207 957.377C40.1601 958.689 37.3558 960.506 34.9122 962.753C32.4816 965.012 30.4559 967.673 28.9235 970.62C27.7437 972.878 27.261 974.419 27.118 974.365Z" fill="white"/>
<path d="M170.078 672.18C168.062 670.342 166.855 667.777 166.725 665.049C166.594 662.32 167.549 659.651 169.381 657.629L183.682 641.895L198.896 655.765L184.594 671.481C182.761 673.502 180.203 674.712 177.481 674.843C174.759 674.974 172.096 674.016 170.078 672.18Z" fill="#2C92F8"/>
<path d="M255.958 592.686L278.34 565.555C278.757 565.049 279.271 564.63 279.85 564.323C280.429 564.016 281.063 563.826 281.715 563.764C282.368 563.703 283.026 563.77 283.652 563.964C284.279 564.157 284.861 564.473 285.365 564.892C285.87 565.311 286.288 565.825 286.594 566.406C286.901 566.986 287.09 567.622 287.152 568.276C287.213 568.93 287.146 569.59 286.952 570.218C286.759 570.845 286.445 571.429 286.027 571.935L263.645 599.048L255.958 592.686Z" fill="white"/>
<path d="M223.261 567.168L245.643 540.073C246.059 539.566 246.571 539.145 247.15 538.836C247.729 538.527 248.362 538.336 249.015 538.273C249.667 538.209 250.326 538.276 250.953 538.468C251.58 538.66 252.163 538.974 252.668 539.392C253.175 539.809 253.595 540.323 253.903 540.904C254.211 541.485 254.401 542.121 254.462 542.775C254.524 543.43 254.456 544.09 254.261 544.718C254.067 545.347 253.75 545.93 253.33 546.435L230.966 573.566L223.261 567.168Z" fill="white"/>
<path d="M227.587 654.331L228.445 655.048C230.265 656.562 232.58 657.348 234.943 657.252C237.307 657.156 239.551 656.185 241.242 654.528C242.933 652.87 243.952 650.643 244.101 648.277C244.25 645.91 243.519 643.573 242.049 641.715L275.05 602.004L220.83 556.577L188.652 597.22C186.687 595.96 184.331 595.463 182.026 595.823C179.722 596.182 177.628 597.374 176.138 599.173C174.549 601.1 173.775 603.574 173.982 606.066C174.189 608.557 175.361 610.869 177.246 612.505C172.929 618.242 171.012 625.44 171.904 632.57C172.795 639.7 176.424 646.201 182.019 650.693L190.135 657.216C195.586 661.57 202.479 663.693 209.427 663.157C216.376 662.622 222.865 659.468 227.587 654.331Z" fill="#2C92F8"/>
<path d="M226.546 608.869L249.662 580.849L244.193 576.315L221.077 604.335L226.546 608.869Z" fill="#E0E0E0"/>
<path d="M227.587 654.331C226.843 653.89 226.137 653.386 225.477 652.825C224.137 651.822 222.242 650.335 219.918 648.471C215.252 644.762 208.906 639.511 201.952 633.651C194.998 627.791 188.83 622.577 184.164 618.616L178.801 614.065C178.117 613.526 177.482 612.926 176.906 612.273C177.651 612.714 178.357 613.217 179.016 613.778C180.357 614.781 182.252 616.269 184.576 618.132C189.241 621.842 195.588 627.092 202.452 632.952L220.329 647.987L225.692 652.557C226.378 653.087 227.013 653.681 227.587 654.331Z" fill="#263238"/>
<path d="M242.121 641.715C241.335 641.247 240.593 640.707 239.904 640.103C238.51 639.01 236.508 637.397 234.059 635.408C229.16 631.393 222.475 625.767 215.145 619.495C207.816 613.223 201.309 607.596 196.392 603.367C194.104 601.36 192.191 599.783 190.743 598.457C190.026 597.879 189.356 597.244 188.741 596.557C189.519 597.045 190.26 597.59 190.958 598.188C192.352 599.281 194.355 600.876 196.804 602.883C201.702 606.897 208.388 612.524 215.717 618.796L234.452 634.924L240.119 639.834C240.833 640.409 241.503 641.038 242.121 641.715Z" fill="#263238"/>
<path d="M104.363 215.543C104.365 207.752 105.204 199.983 106.866 192.372C110.334 176.567 115.429 164.184 122.401 154.74C118.295 142.947 116.057 130.581 115.769 118.094C114.678 77.4513 127.353 40.6615 163.768 -4.4431C168.606 -6.71297 173.725 -8.89921 179.124 -11.0018C144.068 32.4183 123.706 79.4225 124.671 117.861C124.929 127.68 126.474 137.422 129.266 146.838C140.17 136.354 154.418 131.068 171.723 131.14C190.69 131.14 199.289 139.311 203.15 146.085C208.638 155.672 207.887 168.79 201.202 180.294C193.818 192.982 181.34 200.526 167.808 200.472C162.258 200.385 156.8 199.037 151.846 196.529C146.891 194.02 142.569 190.418 139.205 185.993C134.156 179.397 129.868 172.249 126.423 164.686C114.582 186.319 110.638 211.414 115.268 235.649C122.83 273.837 136.345 305.734 155.437 330.446C170.266 349.788 189.469 365.322 211.461 375.765C233.454 386.209 257.608 391.264 281.933 390.514H282.094C326.16 388.31 369.207 362.523 391.767 324.783C411.342 292.061 416.705 250.128 406.873 206.726C400.759 179.757 386.261 143.056 351.884 121.427C314.844 98.131 268.883 104.439 247.52 123.667C232.271 137.376 237.777 163.646 242.157 184.774L243.587 191.727C248.092 214.432 291.193 306.558 291.318 306.917L283.989 308.87C283.47 307.383 239.476 216.797 234.845 193.465C234.416 191.243 233.934 188.95 233.433 186.602C228.553 163.306 222.475 134.168 241.531 117.019C255.332 104.618 275.247 97.7188 297.611 97.5934C318.396 97.4561 338.814 103.088 356.604 113.865C393.555 137.161 409.054 176.137 415.597 204.755C425.929 250.397 420.209 294.66 399.508 329.371C375.374 369.511 329.485 396.929 282.612 399.366C280.217 399.563 246.036 401.965 207.351 383.632C184.18 372.631 163.958 356.254 148.358 335.858C128.408 310.035 114.392 276.901 106.491 237.298C105.071 230.134 104.358 222.847 104.363 215.543ZM197.876 160.511C197.931 157.017 197.075 153.57 195.392 150.511C191.512 143.719 183.307 140.118 171.651 140.064C154.972 140.064 142.083 145.243 132.501 156.192C135.952 164.888 140.585 173.065 146.266 180.491C148.796 183.837 152.048 186.566 155.778 188.475C159.508 190.383 163.621 191.422 167.808 191.512C178.123 191.512 187.705 185.67 193.461 175.76C196.242 171.153 197.764 165.894 197.876 160.511Z" fill="#2C92F8"/>
<path d="M117.789 161.871C118.125 160.665 118.676 159.53 119.415 158.52C121.021 155.971 122.814 153.545 124.778 151.263C126.689 148.942 128.781 146.779 131.035 144.793C131.92 143.9 132.971 143.188 134.128 142.697C134.128 142.804 133.055 143.647 131.446 145.259C129.838 146.872 127.692 149.166 125.458 151.818C123.223 154.47 121.292 156.997 119.987 158.861C119.327 159.915 118.592 160.921 117.789 161.871Z" fill="#263238"/>
<path d="M123.009 171.263C123.086 169.866 123.432 168.497 124.028 167.231C125.304 164.125 127.033 161.226 129.159 158.629C131.261 156.021 133.661 153.67 136.309 151.623C137.377 150.707 138.584 149.969 139.885 149.436C139.885 149.544 138.669 150.44 136.756 152.107C134.268 154.284 131.983 156.683 129.927 159.275C127.85 161.819 126.085 164.604 124.672 167.571C123.528 169.758 123.152 171.299 123.009 171.263Z" fill="#263238"/>
<path d="M153.81 135.496C154.257 135.223 154.746 135.029 155.258 134.922C156.61 134.504 157.982 134.157 159.37 133.883C168.581 132.073 178.106 132.747 186.971 135.836C188.307 136.29 189.614 136.822 190.886 137.431C191.372 137.617 191.829 137.87 192.245 138.184C192.245 138.327 190.154 137.449 186.775 136.392C182.364 135.055 177.82 134.207 173.224 133.865C168.634 133.555 164.023 133.76 159.477 134.474C155.973 135.048 153.846 135.639 153.81 135.496Z" fill="white"/>
<path d="M121.811 113.184C121.358 111.787 121.105 110.333 121.06 108.865C120.469 101.796 121.477 94.6842 124.01 88.0601C124.466 86.6648 125.109 85.3384 125.923 84.1177C125.571 85.5304 125.129 86.9191 124.6 88.2751C123.521 91.5808 122.731 94.9746 122.24 98.4178C121.76 101.866 121.574 105.349 121.686 108.829C121.815 110.277 121.857 111.731 121.811 113.184Z" fill="white"/>
<path d="M181.108 360.247C179.718 359.521 178.411 358.643 177.211 357.631C171.209 353.028 165.778 347.722 161.033 341.826C159.99 340.655 159.085 339.368 158.334 337.991C159.451 339.043 160.49 340.175 161.444 341.378C163.357 343.528 166.056 346.449 169.185 349.531C172.313 352.613 175.334 355.23 177.533 357.093C178.8 358.056 179.995 359.11 181.108 360.247Z" fill="white"/>
<path d="M272.118 104.653C272.876 104.265 273.673 103.959 274.496 103.739C276.684 103.02 278.91 102.422 281.164 101.947C284.499 101.151 287.877 100.553 291.282 100.155C299.645 99.2164 308.097 99.4395 316.399 100.818C319.784 101.385 323.133 102.151 326.428 103.112C328.651 103.748 330.841 104.495 332.989 105.352C333.797 105.617 334.576 105.965 335.312 106.392C334.478 106.219 333.659 105.979 332.863 105.675C331.326 105.137 329.074 104.456 326.267 103.721C322.975 102.846 319.639 102.146 316.274 101.625C312.127 101.012 307.949 100.635 303.76 100.496C299.583 100.402 295.404 100.563 291.246 100.98C287.86 101.32 284.495 101.841 281.164 102.539C278.322 103.13 276.033 103.686 274.478 104.134C273.706 104.369 272.917 104.543 272.118 104.653Z" fill="white"/>
<path d="M352.367 115.477C350.666 115.029 349.052 114.296 347.594 113.309C345.993 112.571 344.525 111.572 343.25 110.352C344.951 110.811 346.564 111.55 348.023 112.538C349.617 113.281 351.083 114.273 352.367 115.477Z" fill="white"/>
<path d="M278.93 433.988L360.626 418.057C362.177 417.701 363.53 416.755 364.398 415.418C365.266 414.08 365.581 412.457 365.277 410.891C364.973 409.326 364.073 407.939 362.768 407.026C361.464 406.113 359.856 405.744 358.284 405.997L354.566 406.732L346.486 373.777C345.631 370.282 343.934 367.052 341.543 364.368C339.153 361.684 336.142 359.629 332.774 358.384L327.894 338.51C327.082 335.203 324.993 332.355 322.087 330.591C319.181 328.827 315.695 328.291 312.395 329.102L305.244 330.894L300.453 311.451C300.136 310.163 299.569 308.95 298.785 307.881C298 306.812 297.013 305.909 295.88 305.222C294.747 304.536 293.49 304.08 292.182 303.88C290.873 303.681 289.538 303.742 288.252 304.059C286.967 304.377 285.757 304.945 284.691 305.732C283.624 306.518 282.723 307.508 282.038 308.644C281.354 309.779 280.899 311.039 280.7 312.351C280.501 313.663 280.561 315.001 280.878 316.29L285.651 335.751L280.056 337.131C276.757 337.945 273.915 340.038 272.155 342.952C270.395 345.865 269.861 349.359 270.671 352.667L275.64 372.899H275.801C273.54 375.55 271.94 378.702 271.135 382.096C270.33 385.489 270.342 389.026 271.171 392.414L278.322 421.659L276.534 422C274.983 422.356 273.63 423.302 272.763 424.64C271.895 425.977 271.58 427.6 271.884 429.166C272.188 430.732 273.087 432.118 274.392 433.031C275.697 433.944 277.305 434.313 278.876 434.06L278.93 433.988Z" fill="#2C92F8"/>
<path d="M278.5 422.304C278.5 422.071 295.412 418.236 316.363 413.738C337.315 409.241 354.369 405.764 354.423 406.015C354.476 406.266 337.529 410.083 316.56 414.599C295.591 419.114 278.554 422.555 278.5 422.304Z" fill="#263238"/>
<path d="M275.854 372.826C275.854 372.593 288.529 369.242 304.278 365.192C320.028 361.142 332.881 358.186 332.881 358.419C332.881 358.651 320.206 362.002 304.421 366.052C288.636 370.102 275.854 373.059 275.854 372.826Z" fill="#263238"/>
<path d="M285.651 335.714C288.75 334.4 291.989 333.444 295.304 332.865C298.55 332.007 301.846 331.349 305.172 330.894C302.064 332.199 298.82 333.149 295.501 333.725C292.26 334.584 288.97 335.248 285.651 335.714Z" fill="#263238"/>
<path d="M328.072 353.383C327.947 353.383 327.661 351.466 327.018 348.384C326.696 346.842 326.285 345.015 325.73 343.008C325.177 340.848 324.361 338.766 323.299 336.807C322.398 334.818 320.774 333.248 318.759 332.417C316.997 332.014 315.172 331.978 313.396 332.309C310.303 332.704 308.408 333.223 308.372 333.098C309.932 332.369 311.598 331.891 313.306 331.682C315.167 331.274 317.094 331.274 318.955 331.682C320.082 332.002 321.101 332.621 321.905 333.474C322.743 334.35 323.465 335.332 324.05 336.395C325.159 338.411 325.989 340.57 326.517 342.81C327.035 344.853 327.375 346.717 327.625 348.186C328.003 349.891 328.154 351.639 328.072 353.383Z" fill="white"/>
<path d="M349.757 400.512C349.498 399.975 349.323 399.401 349.238 398.81C348.97 397.717 348.595 396.104 348.166 394.115L344.912 378.596C344.328 375.784 343.378 373.061 342.088 370.496C341.009 368.418 339.512 366.588 337.69 365.12C335.968 363.809 333.978 362.897 331.862 362.45C332.46 362.358 333.071 362.4 333.65 362.576C335.247 362.97 336.749 363.683 338.065 364.672C340.015 366.13 341.626 367.995 342.785 370.138C344.171 372.746 345.176 375.54 345.77 378.435C347.075 384.528 348.041 390.029 348.773 394.043C349.131 396.033 349.399 397.627 349.578 398.792C349.7 399.357 349.76 399.934 349.757 400.512Z" fill="white"/>
<path d="M300.721 327.488C300.018 326.449 299.548 325.269 299.345 324.029C298.737 321.789 298.487 318.653 297.772 315.267C297.455 313.702 296.925 312.189 296.198 310.769C295.604 309.622 294.818 308.586 293.874 307.704C292.936 306.943 291.917 306.288 290.835 305.751C292.114 305.83 293.327 306.349 294.268 307.22C295.344 308.091 296.243 309.162 296.913 310.374C297.749 311.837 298.352 313.421 298.701 315.069C299.434 318.528 299.577 321.682 300.024 323.886C300.471 326.09 300.882 327.434 300.721 327.488Z" fill="white"/>
</g>
<defs>
<clipPath id="clip0_734_8992">
<rect width="1344" height="421" fill="white" transform="matrix(0 1 -1 0 421 -112)"/>
</clipPath>
</defs>
</svg>
