<svg width="27" height="29" viewBox="0 0 27 29" fill="none" xmlns="http://www.w3.org/2000/svg">
<g id="bell">
<path id="Vector" d="M24.3826 22.4186C23.6594 21.7261 23.0262 20.9322 22.5001 20.0583C21.9258 18.8521 21.5815 17.5347 21.4876 16.1836V12.2042C21.4926 10.082 20.7759 8.03097 19.4722 6.43637C18.1684 4.84177 16.3675 3.81339 14.4076 3.54444V2.50528C14.4076 2.22006 14.3021 1.94652 14.1143 1.74484C13.9266 1.54316 13.6719 1.42986 13.4063 1.42986C13.1408 1.42986 12.8861 1.54316 12.6984 1.74484C12.5106 1.94652 12.4051 2.22006 12.4051 2.50528V3.56056C10.4628 3.84889 8.68358 4.88348 7.39699 6.47272C6.11041 8.06196 5.40365 10.0982 5.4076 12.2042V16.1836C5.31366 17.5347 4.96943 18.8521 4.3951 20.0583C3.87826 20.9302 3.25524 21.724 2.5426 22.4186C2.4626 22.4941 2.39848 22.587 2.35451 22.6912C2.31054 22.7954 2.28773 22.9084 2.2876 23.0228V24.1183C2.2876 24.332 2.36662 24.5369 2.50727 24.6879C2.64792 24.839 2.83869 24.9239 3.0376 24.9239H23.8876C24.0865 24.9239 24.2773 24.839 24.4179 24.6879C24.5586 24.5369 24.6376 24.332 24.6376 24.1183V23.0228C24.6375 22.9084 24.6147 22.7954 24.5707 22.6912C24.5267 22.587 24.4626 22.4941 24.3826 22.4186ZM3.8476 23.3128C4.5454 22.5887 5.1598 21.7774 5.6776 20.8961C6.40106 19.4392 6.82317 17.8318 6.9151 16.1836V12.2042C6.88535 11.2601 7.03279 10.3192 7.34863 9.43762C7.66447 8.55601 8.14226 7.75169 8.75353 7.07254C9.36481 6.39339 10.0971 5.8533 10.9067 5.48444C11.7164 5.11558 12.5869 4.92549 13.4663 4.92549C14.3458 4.92549 15.2163 5.11558 16.026 5.48444C16.8356 5.8533 17.5679 6.39339 18.1792 7.07254C18.7904 7.75169 19.2682 8.55601 19.5841 9.43762C19.8999 10.3192 20.0473 11.2601 20.0176 12.2042V16.1836C20.1095 17.8318 20.5316 19.4392 21.2551 20.8961C21.7729 21.7774 22.3873 22.5887 23.0851 23.3128H3.8476Z" fill="white"/>
<path id="Vector_2" d="M13.5002 27.6144C13.9727 27.6028 14.4261 27.412 14.7802 27.0759C15.1343 26.7397 15.3663 26.2799 15.4352 25.7778H11.4902C11.5611 26.2936 11.804 26.7642 12.1737 27.102C12.5434 27.4399 13.0149 27.622 13.5002 27.6144Z" fill="white"/>
</g>
</svg>
