<svg width="517" height="392" viewBox="0 0 517 392" fill="none" xmlns="http://www.w3.org/2000/svg">
<path opacity="0.12" d="M232.044 207.357C227.731 206.179 227.65 200.646 227.65 200.646L231.785 201.469C231.559 203.433 231.646 205.42 232.044 207.357Z" fill="black"/>
<path d="M459.201 56.5417V289.096C459.201 292.544 457.83 295.852 455.388 298.29C452.947 300.728 449.636 302.098 446.183 302.098H94.3179C90.8807 302.077 87.5918 300.697 85.1704 298.261C82.749 295.824 81.3922 292.529 81.3965 289.096V56.5417C81.3922 53.1087 82.749 49.8137 85.1704 47.3772C87.5918 44.9407 90.8807 43.5609 94.3179 43.5396H446.183C447.892 43.5396 449.585 43.8759 451.165 44.5293C452.744 45.1827 454.179 46.1404 455.388 47.3478C456.597 48.5551 457.556 49.9885 458.21 51.566C458.864 53.1435 459.201 54.8342 459.201 56.5417Z" fill="#407BFF"/>
<path opacity="0.7" d="M459.201 56.5417V289.096C459.201 292.544 457.83 295.852 455.388 298.29C452.947 300.728 449.636 302.098 446.183 302.098H94.3179C90.8807 302.077 87.5918 300.697 85.1704 298.261C82.749 295.824 81.3922 292.529 81.3965 289.096V56.5417C81.3922 53.1087 82.749 49.8137 85.1704 47.3772C87.5918 44.9407 90.8807 43.5609 94.3179 43.5396H446.183C447.892 43.5396 449.585 43.8759 451.165 44.5293C452.744 45.1827 454.179 46.1404 455.388 47.3478C456.597 48.5551 457.556 49.9885 458.21 51.566C458.864 53.1435 459.201 54.8342 459.201 56.5417Z" fill="white" stroke="white" stroke-miterlimit="10"/>
<path d="M437.299 63.075C439.235 63.075 440.804 61.5077 440.804 59.5744C440.804 57.6411 439.235 56.0739 437.299 56.0739C435.364 56.0739 433.794 57.6411 433.794 59.5744C433.794 61.5077 435.364 63.075 437.299 63.075Z" fill="#407BFF"/>
<path d="M420.55 59.5744C420.553 60.2706 420.349 60.9521 419.964 61.5326C419.579 62.113 419.031 62.5663 418.388 62.8349C417.744 63.1036 417.036 63.1755 416.352 63.0416C415.668 62.9078 415.039 62.5741 414.545 62.083C414.051 61.5918 413.714 60.9652 413.577 60.2826C413.439 59.6 413.508 58.8921 413.774 58.2485C414.04 57.605 414.492 57.0548 415.071 56.6677C415.65 56.2805 416.332 56.0739 417.029 56.0739C417.959 56.0781 418.849 56.4477 419.508 57.1028C420.167 57.7579 420.541 58.6458 420.55 59.5744Z" fill="#407BFF"/>
<path d="M400.28 59.5744C400.283 60.2706 400.079 60.9521 399.694 61.5326C399.309 62.113 398.761 62.5663 398.118 62.8349C397.474 63.1036 396.766 63.1755 396.082 63.0416C395.398 62.9078 394.769 62.5741 394.275 62.083C393.781 61.5918 393.444 60.9652 393.307 60.2826C393.169 59.6 393.238 58.8921 393.504 58.2485C393.77 57.605 394.222 57.0548 394.801 56.6677C395.38 56.2805 396.062 56.0739 396.759 56.0739C397.689 56.0781 398.579 56.4477 399.238 57.1028C399.897 57.7579 400.271 58.6458 400.28 59.5744Z" fill="#407BFF"/>
<path d="M431.517 103.743V336.297C431.495 339.727 430.116 343.009 427.68 345.427C425.244 347.845 421.949 349.202 418.515 349.202H66.6335C63.199 349.202 59.9041 347.845 57.468 345.427C55.0319 343.009 53.6527 339.727 53.6313 336.297V103.743C53.6313 100.297 55.0007 96.9923 57.4386 94.5544C59.8765 92.1165 63.1836 90.7448 66.6335 90.7405H418.515C421.964 90.7448 425.272 92.1165 427.709 94.5544C430.147 96.9923 431.517 100.297 431.517 103.743Z" fill="#407BFF"/>
<path opacity="0.8" d="M431.517 103.743V336.297C431.495 339.727 430.116 343.009 427.68 345.427C425.244 347.845 421.949 349.202 418.515 349.202H66.6335C63.199 349.202 59.9041 347.845 57.468 345.427C55.0319 343.009 53.6527 339.727 53.6313 336.297V103.743C53.6313 100.297 55.0007 96.9923 57.4386 94.5544C59.8765 92.1165 63.1836 90.7448 66.6335 90.7405H418.515C421.964 90.7448 425.272 92.1165 427.709 94.5544C430.147 96.9923 431.517 100.297 431.517 103.743Z" fill="white"/>
<path d="M431.534 118.036H347.238V330.781H431.534V118.036Z" fill="#407BFF"/>
<path opacity="0.2" d="M431.534 118.036H347.238V330.781H431.534V118.036Z" fill="black"/>
<path d="M431.534 181.933H347.238V184.643H431.534V181.933Z" fill="#FAFAFA"/>
<path d="M431.534 248.703H347.238V251.413H431.534V248.703Z" fill="#FAFAFA"/>
<path d="M431.534 314.487H347.238V317.197H431.534V314.487Z" fill="#FAFAFA"/>
<path d="M383.999 200.549V232.329L408.032 216.439L383.999 200.549Z" fill="#FAFAFA"/>
<path d="M383.999 267.044V298.839L408.032 282.95L383.999 267.044Z" fill="#FAFAFA"/>
<path d="M383.999 132.877V164.672L408.032 148.766L383.999 132.877Z" fill="#FAFAFA"/>
<path d="M177.225 248.703C177.225 248.703 155.678 280.789 148.959 287.161C148.959 287.161 112.844 290.387 97.9845 280.24L94.2212 289.451C94.2212 289.451 128.527 308.809 151.77 304.083C175.012 299.356 192.149 254.542 192.149 254.542L177.225 248.703Z" fill="#B55B52"/>
<path d="M281.936 229.619C281.936 229.619 302.529 235.249 315.37 236.33C315.37 236.33 325.061 213.858 326.676 193.452L333.977 193.855C333.977 193.855 340.696 233.603 323.074 249.703C310.896 260.85 270.258 240.201 270.258 240.201L281.936 229.619Z" fill="#B55B52"/>
<path d="M223.984 141.959C223.984 141.959 196.074 139.265 193.183 167.673C191.586 185.303 194.44 203.051 201.485 219.294C201.485 219.294 218.363 253.606 238.827 248.831C259.292 244.056 276.639 232.99 273.021 214.471C269.403 195.952 262.667 196.726 262.91 170.915C263.152 145.105 238.908 130.118 223.984 141.959Z" fill="#263238"/>
<path d="M254.447 182.643C251.523 196.887 245.014 202.566 231.834 201.469C231.607 203.433 231.695 205.42 232.093 207.357C232.421 209.678 233.497 211.829 235.158 213.485C236.819 215.141 238.975 216.212 241.299 216.536C252.605 218.488 246.419 233.022 246.419 233.022L235.113 238.572L220.237 230.006L208.931 217.955H212.888C212.888 217.955 220.544 206.389 212.888 186.918C211.214 185.939 209.803 184.569 208.776 182.925C207.749 181.281 207.137 179.413 206.993 177.481C206.67 171.028 213.34 170.641 215.86 173.061C215.86 173.061 227.344 168.06 225.632 148.734C225.632 148.734 236.938 157.22 251.475 154.751C251.458 154.864 257.354 168.383 254.447 182.643Z" fill="#B55B52"/>
<path d="M244.061 170.786L244.206 180.756C245.008 181.064 245.867 181.198 246.725 181.148C247.583 181.098 248.421 180.865 249.181 180.465L244.061 170.786Z" fill="#A02724"/>
<path d="M228.765 159.574C228.669 159.596 228.57 159.596 228.474 159.574C228.413 159.536 228.359 159.487 228.317 159.428C228.274 159.369 228.244 159.303 228.227 159.232C228.211 159.162 228.208 159.089 228.22 159.017C228.232 158.946 228.258 158.878 228.297 158.816C229.048 157.671 230.171 156.82 231.477 156.406C232.784 155.991 234.193 156.039 235.468 156.542C235.537 156.563 235.601 156.599 235.656 156.646C235.71 156.693 235.755 156.751 235.787 156.816C235.818 156.881 235.837 156.951 235.84 157.023C235.844 157.096 235.832 157.168 235.807 157.235C235.759 157.372 235.66 157.484 235.53 157.547C235.4 157.611 235.25 157.62 235.113 157.574C234.075 157.149 232.921 157.097 231.849 157.426C230.777 157.756 229.852 158.447 229.233 159.381C229.177 159.448 229.104 159.501 229.023 159.535C228.941 159.569 228.853 159.582 228.765 159.574Z" fill="#263238"/>
<path d="M253.767 162.656C253.625 162.657 253.487 162.605 253.38 162.511C251.765 161.043 248.954 162.124 248.922 162.14C248.785 162.188 248.634 162.181 248.502 162.121C248.37 162.061 248.265 161.952 248.211 161.817C248.185 161.75 248.173 161.677 248.176 161.605C248.178 161.532 248.194 161.461 248.225 161.395C248.255 161.329 248.297 161.27 248.351 161.22C248.404 161.171 248.466 161.133 248.534 161.108C248.664 161.108 252.072 159.769 254.139 161.704C254.242 161.807 254.299 161.946 254.299 162.092C254.299 162.237 254.242 162.376 254.139 162.479C254.041 162.581 253.909 162.644 253.767 162.656Z" fill="#263238"/>
<path d="M239.813 185.514C237.932 185.593 236.064 185.175 234.397 184.303C232.729 183.43 231.322 182.135 230.315 180.546C230.287 180.453 230.292 180.353 230.329 180.264C230.367 180.174 230.434 180.1 230.52 180.054C230.605 180.009 230.704 179.994 230.8 180.013C230.895 180.032 230.981 180.084 231.042 180.159C231.982 181.616 233.287 182.802 234.829 183.597C236.371 184.393 238.095 184.77 239.829 184.692C239.936 184.692 240.038 184.734 240.114 184.81C240.19 184.885 240.232 184.988 240.232 185.095C240.232 185.206 240.188 185.313 240.109 185.392C240.031 185.47 239.924 185.514 239.813 185.514Z" fill="#263238"/>
<path d="M236.921 169.076C236.921 170.27 236.324 171.238 235.516 171.27C234.708 171.302 234.03 170.35 233.998 169.157C233.965 167.963 234.579 166.995 235.387 166.963C236.194 166.93 236.889 167.882 236.921 169.076Z" fill="#263238"/>
<path d="M251.281 169.205C251.281 170.383 250.683 171.367 249.875 171.399C249.068 171.431 248.389 170.48 248.341 169.286C248.292 168.092 248.939 167.124 249.746 167.092C250.554 167.06 251.248 168.011 251.281 169.205Z" fill="#263238"/>
<path d="M235.161 167.012L238.827 165.963C238.827 165.963 238.165 167.931 235.161 167.012Z" fill="#263238"/>
<path d="M249.746 167.092L252.443 166.705C252.332 166.952 252.159 167.168 251.942 167.331C251.725 167.494 251.47 167.599 251.201 167.638C250.932 167.677 250.658 167.647 250.404 167.551C250.149 167.456 249.923 167.298 249.746 167.092Z" fill="#263238"/>
<path d="M288.914 228.973L276.267 256.784L269.548 254.349C269.548 254.349 270.226 304.841 264.702 330.781H198.965L195.185 261.866L191.745 269.061L167.518 255.478C167.518 255.478 174.221 228.054 184.687 223.214C189.678 220.908 200.322 219.133 211.273 217.988C221.25 216.859 231.291 216.385 241.331 216.568C241.331 216.568 242.365 216.568 244.19 216.568C259.864 217.154 275.182 221.403 288.914 228.973Z" fill="#407BFF"/>
<path d="M326.677 193.451C324.183 189.91 322.527 185.851 321.831 181.578C321.149 176.979 321.576 172.284 323.075 167.882L336.126 167.431L337.741 178.836C338.38 184.129 337.052 189.473 334.01 193.854L326.677 193.451Z" fill="#B55B52"/>
<path d="M97.9844 280.24L91.1846 268.125L82.9149 265.253L77.0356 276.223L82.285 283.418C82.285 283.418 89.214 289.29 94.2211 289.451L97.9844 280.24Z" fill="#B55B52"/>
<path d="M244.109 216.568C243.996 233.958 233.11 253.01 233.11 253.01C223.419 243.669 213.728 223.634 211.192 217.956C221.17 216.827 231.21 216.352 241.25 216.536C241.25 216.536 242.349 216.504 244.109 216.568Z" fill="#B55B52"/>
<path opacity="0.12" d="M191.729 269.06L195.12 250.396L195.185 261.882L191.729 269.06Z" fill="black"/>
<path opacity="0.12" d="M276.299 256.785L265.445 248.703L269.58 254.349L276.299 256.785Z" fill="black"/>
<path d="M213.001 214.18H207.428V246.96H213.001V214.18Z" fill="#FAFAFA"/>
<path d="M199.95 214.18H194.378V246.96H199.95V214.18Z" fill="#FAFAFA"/>
<path d="M228.559 238.093C231.95 223.808 223.105 209.482 208.802 206.094C194.499 202.707 180.155 211.542 176.763 225.827C173.372 240.112 182.217 254.439 196.52 257.826C210.823 261.213 225.167 252.378 228.559 238.093Z" stroke="#FAFAFA" stroke-width="0.996895" stroke-miterlimit="10"/>
<path d="M431.518 103.743V118.035H53.5679V103.743C53.5679 100.297 54.9372 96.9923 57.3751 94.5544C59.813 92.1165 63.1201 90.7448 66.57 90.7405H418.516C421.966 90.7448 425.273 92.1165 427.711 94.5544C430.149 96.9923 431.518 100.297 431.518 103.743Z" fill="#407BFF"/>
<path d="M431.517 330.781V336.298C431.495 339.728 430.116 343.01 427.68 345.428C425.244 347.846 421.949 349.203 418.515 349.203H66.6335C63.199 349.203 59.9041 347.846 57.468 345.428C55.0319 343.01 53.6527 339.728 53.6313 336.298V330.781H431.517Z" fill="#407BFF"/>
<path d="M128.253 111.47H73.046C71.4595 111.47 69.9378 110.842 68.8145 109.723C67.6912 108.604 67.058 107.086 67.0537 105.502C67.0537 103.914 67.685 102.392 68.8088 101.27C69.9326 100.147 71.4567 99.5168 73.046 99.5168H128.253C129.039 99.5168 129.819 99.6716 130.546 99.9724C131.273 100.273 131.933 100.714 132.49 101.27C133.046 101.826 133.488 102.485 133.789 103.211C134.09 103.938 134.245 104.716 134.245 105.502C134.241 107.086 133.607 108.604 132.484 109.723C131.361 110.842 129.839 111.47 128.253 111.47Z" stroke="white" stroke-width="0.5" stroke-miterlimit="10"/>
<path d="M158.23 111.47H150.154C148.569 111.47 147.049 110.842 145.929 109.722C144.808 108.603 144.178 107.085 144.178 105.502C144.178 103.917 144.807 102.397 145.928 101.275C147.048 100.154 148.568 99.5211 150.154 99.5168H158.23C159.819 99.5168 161.344 100.147 162.467 101.27C163.591 102.392 164.223 103.914 164.223 105.502C164.218 107.086 163.585 108.604 162.462 109.723C161.338 110.842 159.817 111.47 158.23 111.47Z" stroke="white" stroke-width="0.5" stroke-miterlimit="10"/>
<path d="M315.015 125.376H86.7267C73.3105 125.376 62.4346 136.238 62.4346 149.638V300.372C62.4346 313.772 73.3105 324.634 86.7267 324.634H315.015C328.431 324.634 339.307 313.772 339.307 300.372V149.638C339.307 136.238 328.431 125.376 315.015 125.376Z" stroke="white" stroke-width="0.5" stroke-miterlimit="10"/>
<path d="M147.489 142.572H49.917C42.5577 142.572 36.5918 148.531 36.5918 155.881V190.596C36.5918 197.946 42.5577 203.905 49.917 203.905H147.489C154.849 203.905 160.815 197.946 160.815 190.596V155.881C160.815 148.531 154.849 142.572 147.489 142.572Z" fill="#407BFF"/>
<path d="M165.563 153.041V193.371C165.574 194.747 165.312 196.113 164.793 197.388C164.274 198.664 163.507 199.824 162.538 200.803C161.568 201.782 160.415 202.56 159.143 203.092C157.872 203.624 156.508 203.9 155.129 203.905H117.706C106.4 207.808 113.474 223.44 113.716 224.005C111.563 223.269 109.549 222.178 107.756 220.778C99.6805 214.326 100.811 203.921 100.811 203.921H51.7583C48.9782 203.921 46.312 202.818 44.3461 200.854C42.3803 198.891 41.2759 196.228 41.2759 193.451V153.122C41.2759 150.345 42.3803 147.682 44.3461 145.719C46.312 143.756 48.9782 142.653 51.7583 142.653H155.129C157.888 142.661 160.532 143.757 162.486 145.703C164.44 147.648 165.546 150.286 165.563 153.041Z" fill="#407BFF"/>
<path opacity="0.2" d="M160.798 153.041V193.37C160.809 194.754 160.545 196.126 160.021 197.407C159.496 198.687 158.723 199.851 157.745 200.831C156.766 201.811 155.603 202.587 154.323 203.115C153.042 203.642 151.669 203.911 150.284 203.904H112.941C104.671 206.743 106.222 215.842 107.756 220.762C99.6804 214.309 100.811 203.904 100.811 203.904H47.0581C45.6823 203.904 44.32 203.633 43.0491 203.107C41.7782 202.581 40.6237 201.809 39.6516 200.837C38.6795 199.864 37.9089 198.71 37.3839 197.44C36.8588 196.17 36.5897 194.809 36.5918 193.435V153.106C36.5897 151.731 36.8588 150.37 37.3839 149.1C37.9089 147.83 38.6795 146.676 39.6516 145.704C40.6237 144.731 41.7782 143.96 43.0491 143.433C44.32 142.907 45.6823 142.636 47.0581 142.636H150.284C151.658 142.63 153.02 142.894 154.293 143.413C155.565 143.933 156.722 144.697 157.699 145.664C158.675 146.63 159.451 147.779 159.983 149.044C160.515 150.31 160.792 151.668 160.798 153.041Z" fill="white"/>
<path d="M151.123 152.316H45.6201V157.897H151.123V152.316Z" fill="#407BFF"/>
<path d="M151.123 162.559H45.6201V168.14H151.123V162.559Z" fill="#407BFF"/>
<path d="M151.123 172.819H45.6201V178.401H151.123V172.819Z" fill="#407BFF"/>
<path opacity="0.1" d="M151.123 152.316H45.6201V157.897H151.123V152.316Z" fill="black"/>
<path opacity="0.1" d="M151.123 162.559H45.6201V168.14H151.123V162.559Z" fill="black"/>
<path opacity="0.1" d="M151.123 172.819H45.6201V178.401H151.123V172.819Z" fill="black"/>
</svg>
