<svg width="182" height="160" viewBox="0 0 182 160" fill="none" xmlns="http://www.w3.org/2000/svg">
<path d="M67.9995 144.98C100.573 144.98 126.98 118.574 126.98 86C126.98 53.4263 100.573 27.02 67.9995 27.02C35.4258 27.02 9.01953 53.4263 9.01953 86C9.01953 118.574 35.4258 144.98 67.9995 144.98Z" fill="white"/>
<path d="M67.9996 145.48C56.2355 145.48 44.7357 141.992 34.9542 135.456C25.1728 128.92 17.5491 119.631 13.0472 108.762C8.5453 97.8935 7.3674 85.9341 9.66245 74.3961C11.9575 62.8581 17.6224 52.2598 25.9408 43.9413C34.2593 35.6229 44.8576 29.958 56.3956 27.6629C67.9336 25.3679 79.893 26.5458 90.7616 31.0477C101.63 35.5496 110.92 43.1733 117.455 52.9547C123.991 62.7362 127.48 74.236 127.48 86C127.464 101.77 121.192 116.89 110.041 128.041C98.8895 139.192 83.7698 145.464 67.9996 145.48ZM67.9996 27.48C56.435 27.48 45.1301 30.9088 35.514 37.3329C25.8979 43.757 18.4023 52.888 13.9749 63.5715C9.54753 74.255 8.3871 86.0113 10.6403 97.3542C12.8935 108.697 18.4593 119.117 26.6338 127.298C34.8084 135.478 45.2248 141.051 56.5662 143.311C67.9076 145.572 79.6647 144.42 90.3512 140C101.038 135.58 110.174 128.091 116.604 118.479C123.035 108.867 126.472 97.5646 126.48 86C126.464 70.4951 120.297 55.6297 109.334 44.666C98.37 33.7023 83.5045 27.5359 67.9996 27.5201V27.48Z" fill="#2C92F8"/>
<path d="M67.9999 153.62C54.6259 153.62 41.5523 149.654 30.4323 142.224C19.3122 134.794 10.6452 124.233 5.52718 111.877C0.409178 99.521 -0.929919 85.9249 1.67921 72.8079C4.28835 59.6909 10.7285 47.6422 20.1853 38.1853C29.6422 28.7285 41.6909 22.2883 54.8079 19.6792C67.9249 17.0701 81.521 18.4092 93.877 23.5272C106.233 28.6452 116.794 37.3122 124.224 48.4323C131.654 59.5523 135.62 72.6259 135.62 85.9999C135.601 103.928 128.471 121.117 115.794 133.794C103.117 146.471 85.9282 153.601 67.9999 153.62ZM67.9999 20.3799C55.0215 20.3799 42.3345 24.2285 31.5434 31.4389C20.7522 38.6493 12.3416 48.8977 7.37494 60.8882C2.40832 72.8787 1.10881 86.0727 3.64078 98.8017C6.17274 111.531 12.4224 123.223 21.5996 132.4C30.7767 141.577 42.469 147.827 55.1981 150.359C67.9271 152.891 81.1211 151.592 93.1116 146.625C105.102 141.658 115.351 133.248 122.561 122.456C129.771 111.665 133.62 98.9783 133.62 85.9999C133.601 68.6021 126.682 51.9221 114.38 39.62C102.078 27.3179 85.3977 20.3984 67.9999 20.3799Z" fill="#2C92F8"/>
<path d="M75.0798 70.5701C86.4298 93.3101 100.79 117.9 114 121.63C126.57 125.18 150.51 94.1301 158 85.9401C160.71 82.9401 138.25 66.5001 134.82 69.0801C128.37 73.9501 116.82 87.0801 114.82 86.7001C112.82 86.3201 96.2898 70.8801 81.3298 57.9401C72.3298 50.1001 67.2198 54.8201 75.0798 70.5701Z" fill="#F7A9A0"/>
<path d="M154.9 90C157.71 87.67 172.17 74.15 174.75 70.12C177.33 66.09 183.94 53.96 181.06 51.66C178.18 49.36 175.96 52.77 175.96 52.77C175.96 52.77 177.96 47.2 174.82 45.16C171.68 43.12 168.43 48.51 168.43 48.51C168.43 48.51 170.04 42.65 166.79 40.83C163.54 39.01 161.16 45 161.16 45C161.16 45 162.88 39.71 159.57 39.34C155.57 38.89 153.52 49.01 150.33 53.24C149.6 54.24 134.26 71.68 134.26 71.68L154.9 90Z" fill="#F7A9A0"/>
<path d="M161.37 44.4601C159.83 51.8901 157.86 54.8801 152.67 60.2601C152.57 60.3601 152.67 60.5401 152.82 60.4401C158.38 55.6301 161.38 52.2401 161.74 44.5201C161.75 44.1401 161.45 44.1101 161.37 44.4601Z" fill="#263238"/>
<path d="M168.54 47.8901C166.26 55.4701 164.16 58.7301 159.14 64.7601C159.07 64.8501 159.2 64.9801 159.28 64.9001C164.71 59.3901 167.62 55.9001 168.91 48.0701C169 47.7101 168.65 47.5401 168.54 47.8901Z" fill="#263238"/>
<path d="M175.69 53.0002C172.95 60.1802 170.81 63.8502 165.18 69.0802C165.151 69.104 165.132 69.1385 165.129 69.176C165.125 69.2135 165.136 69.251 165.16 69.2802C165.184 69.3093 165.218 69.3278 165.256 69.3316C165.293 69.3353 165.331 69.324 165.36 69.3002C171.62 64.5202 174.36 59.9602 175.9 53.1002C176 52.6802 175.86 52.5902 175.69 53.0002Z" fill="#263238"/>
<path d="M130.39 76.0701C130.39 76.0701 131.05 66.5801 132.25 62.4701C133.45 58.3601 143.59 44.7201 146.67 46.7401C150.67 49.3501 146.34 58.3801 143.67 62.5301C143.67 62.5301 152.85 68.5301 151.17 75.7001C149.49 82.8701 130.39 76.0701 130.39 76.0701Z" fill="#F7A9A0"/>
<path d="M147.52 47.81C149.42 52.81 145.52 58.02 143.25 62.24C143.213 62.3005 143.191 62.3689 143.187 62.4395C143.182 62.5101 143.194 62.5807 143.223 62.6455C143.251 62.7103 143.295 62.7672 143.35 62.8115C143.405 62.8558 143.47 62.8862 143.54 62.9C147.22 65.68 151.6 70.68 151.41 75.54C151.41 75.5692 151.421 75.5972 151.442 75.6178C151.462 75.6384 151.49 75.65 151.52 75.65C151.549 75.65 151.577 75.6384 151.597 75.6178C151.618 75.5972 151.63 75.5692 151.63 75.54C152.54 70.35 148.63 65.09 144.42 62.3C146.84 58.01 150.5 52.61 147.57 47.76L147.52 47.81Z" fill="#263238"/>
<path d="M129.249 70.6301L153.499 97.4401C153.499 97.4401 126.709 126.25 114.499 122.93C102.289 119.61 78.6194 86.7301 71.6094 65.4401C66.7494 50.7201 75.9194 52.3501 84.3094 59.7001C92.6994 67.0501 114.679 85.2901 115.659 85.0501C116.639 84.8101 129.249 70.6301 129.249 70.6301Z" fill="#2C92F8"/>
<path opacity="0.1" d="M121.76 122.14C119.469 123.135 116.931 123.41 114.48 122.93C102.25 119.61 78.5999 86.73 71.5899 65.44C68.5899 56.31 70.9599 53.44 75.2099 54.39C86.5799 71 112.85 109.18 121.76 122.14Z" fill="black"/>
<path d="M145.37 101.64C141.85 97.94 128.01 82.28 125.25 78.69C125.06 78.44 125.17 78.26 125.41 78.49C136.21 89.33 142.24 97.69 145.51 101.49C145.59 101.59 145.45 101.74 145.37 101.64Z" fill="#263238"/>
<path d="M104.57 134.35C92.7932 141.778 79.0048 145.376 65.1003 144.649C51.1958 143.922 37.8578 138.906 26.9199 130.29C30.5999 111.15 39.6499 78.4901 58.3899 56.9701C63.6199 50.9701 77.8699 52.7201 79.5299 55.1301C90.7199 71.3801 100.64 113.77 104.57 134.35Z" fill="#2C92F8"/>
<path d="M101.18 145.48L143.38 147.98L154.9 88.72L112.7 86.22L101.18 145.48Z" fill="#A6A6A6"/>
<path d="M103.26 145.6L145.46 148.1L156.98 88.8501L114.78 86.3401L103.26 145.6Z" fill="#C7C7C7"/>
<path d="M135.81 114.94C135.63 116.043 135.053 117.043 134.187 117.75C133.321 118.458 132.227 118.824 131.11 118.78C130.583 118.757 130.067 118.623 129.597 118.386C129.126 118.149 128.711 117.815 128.379 117.406C128.047 116.996 127.806 116.521 127.672 116.012C127.537 115.502 127.513 114.97 127.6 114.45C127.784 113.347 128.363 112.348 129.23 111.641C130.097 110.935 131.192 110.568 132.31 110.61C132.837 110.631 133.353 110.764 133.824 111C134.295 111.237 134.71 111.571 135.042 111.981C135.373 112.391 135.613 112.867 135.746 113.378C135.878 113.888 135.9 114.421 135.81 114.94Z" fill="white"/>
<path d="M49.1701 69.64C40.2701 88 21.4801 129.64 30.4201 136.98C45.1101 148.98 77.1301 156.27 86.9701 157.46C91.2201 157.97 100.61 126.12 96.3801 124.36C91.3101 122.25 60.0501 115.82 59.6601 114.42C59.2701 113.02 61.2501 91.86 60.3101 75.7C59.1401 55.64 52.8901 62 49.1701 69.64Z" fill="#F7A9A0"/>
<path d="M81.3096 124.85C81.3096 124.85 92.9996 119.11 100.82 115.72C105.18 113.82 112.95 111.25 116.82 111.32C122.56 111.43 146.52 115.57 145.64 121.4C144.84 126.68 124.71 120.51 124.71 120.51C124.71 120.51 145.58 124.94 143.45 131.12C141.32 137.3 119.51 127.3 119.51 127.3C119.51 127.3 140.84 132.3 137.64 138.36C135.22 142.91 114.95 134.97 114.95 134.97C114.95 134.97 133.26 139.42 130.95 144.21C128.42 149.5 109.25 143.35 109.25 143.35C101.39 154.54 93.3596 157.24 86.9696 157.46C85.4796 157.51 81.3096 124.85 81.3096 124.85Z" fill="#F7A9A0"/>
<path d="M118.55 118.76C134.16 120.85 141.18 126.66 140.96 126.54C135.82 123.79 127.18 121.33 124.76 120.68C122.34 120.03 120.94 119.5 118.52 118.85C118.46 118.83 118.49 118.75 118.55 118.76Z" fill="#263238"/>
<path d="M115.06 127.22C121.416 127.781 127.62 129.474 133.38 132.22C133.6 132.34 133.5 132.4 133.26 132.32C130.2 131.41 118.13 128.06 115.04 127.32C115 127.28 115 127.22 115.06 127.22Z" fill="#263238"/>
<path d="M111.57 134.31C116.485 134.846 121.256 136.294 125.64 138.58C125.86 138.69 125.7 138.78 125.46 138.71C120.81 137.2 117.17 135.98 111.54 134.47C111.45 134.45 111.47 134.29 111.57 134.31Z" fill="#263238"/>
<path d="M86.5901 121.38L76.1901 159.38C76.1901 159.38 33.2501 145 28.5601 135.55C23.8701 126.1 43.0301 77.7499 49.5601 67.4199C56.0901 57.0899 59.4001 60.2899 60.9301 70.5199C62.4601 80.7499 59.9301 113.86 60.2401 114.42C60.5501 114.98 86.5901 121.38 86.5901 121.38Z" fill="#2C92F8"/>
<path d="M60.6103 98.9201C60.7303 96.4468 60.837 93.9734 60.9303 91.5001C60.9303 90.2201 61.0203 88.9301 61.0803 87.6501L61.1703 85.8701C61.1703 85.5801 61.2303 85.2801 61.2303 84.9901C61.2047 84.5945 61.2351 84.1972 61.3203 83.8101C61.3203 83.7401 61.4303 83.7401 61.4403 83.8101C61.4403 84.4801 61.5703 84.1901 61.5303 84.7101C61.5103 85.0965 61.5103 85.4837 61.5303 85.8701C61.5303 86.4601 61.5303 87.0501 61.5303 87.6401C61.5303 88.8601 61.5303 90.0701 61.5303 91.2801C61.5303 91.4401 61.5303 91.6001 61.5303 91.7601C61.5351 91.7169 61.5351 91.6733 61.5303 91.6301C61.7503 90.2801 61.9803 88.9301 62.2103 87.5801C62.2103 87.5201 62.3103 87.5801 62.3103 87.5801C62.2303 88.9401 62.1103 90.3001 61.9103 91.6501C61.7903 92.4301 61.6203 93.2101 61.4603 93.9801C61.4603 95.6001 61.3903 97.2201 61.3303 98.8401C61.1403 103.84 60.9303 108.91 60.3303 113.9C62.5503 114.48 64.8003 114.97 67.0103 115.56C69.2203 116.15 71.4603 116.77 73.6703 117.39C75.8803 118.01 78.1103 118.62 80.3103 119.28L83.4603 120.28C84.6003 120.64 85.7103 121.12 86.8503 121.45C86.9703 121.45 86.9003 121.65 86.7803 121.62C85.5903 121.3 84.3603 121.14 83.1603 120.85C81.9603 120.56 81.0503 120.35 80.0003 120.08C77.7703 119.51 75.5503 118.9 73.3203 118.3C71.0903 117.7 68.8803 117.09 66.6603 116.46C64.4403 115.83 62.2803 115.09 60.0703 114.46C60.0362 114.453 60.0044 114.438 59.9781 114.415C59.9517 114.392 59.9318 114.363 59.9203 114.33C59.8704 114.311 59.828 114.276 59.7992 114.231C59.7704 114.186 59.7568 114.133 59.7603 114.08C60.0003 109 60.3603 104 60.6103 98.9201Z" fill="#263238"/>
<path d="M72.6102 138.07C73.3902 135.31 76.6101 124.3 77.6101 121.63C77.6101 121.63 77.7002 121.63 77.6902 121.63C77.2302 124.37 74.3602 135.33 73.5802 138.09C72.1549 143.647 70.4256 149.122 68.4001 154.49C68.4001 154.58 68.2002 154.56 68.2202 154.49C69.3302 148.91 71.0602 143.51 72.6102 138.07Z" fill="#263238"/>
<path d="M74.5403 73.1701C74.5403 73.1701 61.1203 62.8901 53.3703 64.1001L47.4903 70.7601C47.4903 70.7601 45.4103 71.7601 44.5703 70.4401C42.5003 67.2501 41.1703 59.0701 47.5703 52.8901C53.4503 47.2201 66.8503 46.6101 75.9603 47.8901C84.7203 49.1001 89.9603 53.5201 88.0703 59.3701C86.1803 65.2201 74.5403 73.1701 74.5403 73.1701Z" fill="#2C92F8"/>
<path opacity="0.1" d="M75.0802 70.47C75.0802 70.47 83.9702 62.34 84.4702 58.1C84.9702 53.86 76.2502 50.92 70.7402 50.02C62.2002 48.63 56.6502 49.84 52.5602 54.8C48.4702 59.76 75.0802 70.47 75.0802 70.47Z" fill="black"/>
<path d="M75.0795 70.47C75.0795 70.47 63.4795 55.35 51.2695 55.2L53.3695 64.1C53.3695 64.1 60.5395 63.25 74.5395 73.17L75.0795 70.47Z" fill="#2C92F8"/>
<path d="M50.1602 64.66C52.3239 64.2163 54.5579 64.2436 56.7102 64.74C58.8598 65.1659 60.9535 65.8369 62.9501 66.74C64.9589 67.6302 66.9065 68.6524 68.7802 69.8L71.5401 71.61L74.2302 73.5399L74.5302 73.75L74.8202 73.56C76.9232 72.1331 78.9278 70.5663 80.8202 68.8699C81.774 68.0361 82.6757 67.1444 83.5201 66.2C84.3748 65.2731 85.1414 64.2688 85.8102 63.2C84.1991 65.1298 82.3778 66.8739 80.3802 68.3999C79.3802 69.1799 78.3802 69.92 77.3802 70.64C76.3802 71.36 75.3202 72.09 74.2802 72.75H74.8601L72.1602 70.75C71.2402 70.12 70.2902 69.5099 69.3502 68.8999C68.4102 68.2899 67.3502 67.7799 66.4102 67.2599C65.4702 66.7399 64.4102 66.2599 63.3302 65.8699C61.2433 65.0105 59.0558 64.4191 56.8202 64.11C56.2602 64.02 55.7002 64 55.1402 63.95C54.5802 63.9 54.0101 63.95 53.4501 63.95C52.3203 63.9917 51.2066 64.232 50.1602 64.66Z" fill="#263238"/>
<path d="M47.4902 70.7601C49.712 68.7857 51.6864 66.5494 53.3702 64.1001C52.2546 65.079 51.2056 66.1314 50.2302 67.2501C49.2367 68.3553 48.3212 69.5281 47.4902 70.7601Z" fill="#263238"/>
<path d="M69.5502 67.2202C68.9489 71.0196 68.6779 74.864 68.7402 78.7102C68.7402 81.3902 70.0902 90.9702 73.0602 90.5402C76.0302 90.1102 71.0002 84.0002 70.0002 79.0002C69.0002 74.0002 70.2402 70.2002 70.3302 67.1602L69.5502 67.2202Z" fill="#2C92F8"/>
<g opacity="0.1">
<path d="M69.5502 67.2202C68.9489 71.0196 68.6779 74.864 68.7402 78.7102C68.7402 81.3902 70.0902 90.9702 73.0602 90.5402C76.0302 90.1102 71.0002 84.0002 70.0002 79.0002C69.0002 74.0002 70.2402 70.2002 70.3302 67.1602L69.5502 67.2202Z" fill="black"/>
</g>
<path d="M80.4197 66.27C81.5486 69.5682 82.3917 72.9573 82.9397 76.4C83.3397 78.8 83.6697 87.57 80.9397 87.65C78.2097 87.73 81.7697 81.52 81.8697 76.86C81.9697 72.2 80.2697 69.03 79.7197 66.33L80.4197 66.27Z" fill="#2C92F8"/>
<g opacity="0.1">
<path d="M80.4197 66.27C81.5486 69.5682 82.3917 72.9573 82.9397 76.4C83.3397 78.8 83.6697 87.57 80.9397 87.65C78.2097 87.73 81.7697 81.52 81.8697 76.86C81.9697 72.2 80.2697 69.03 79.7197 66.33L80.4197 66.27Z" fill="black"/>
</g>
<path d="M57.8798 32.3901C58.0004 34.5357 57.9268 36.6878 57.6598 38.8201C57.2298 40.4801 53.5098 42.2101 53.5098 42.2101C53.5098 42.2101 57.7498 43.7201 58.9598 43.4301C60.1698 43.1401 62.1098 40.0501 62.1098 40.0501C62.1098 40.0501 60.3198 45.0001 58.5998 45.2601C57.5198 45.4201 61.2198 45.4601 61.2198 45.4601C62.444 45.3735 63.5937 44.8396 64.4498 43.9601C65.7098 42.5401 57.8798 32.3901 57.8798 32.3901Z" fill="#263238"/>
<path d="M77.3797 67.16C72.8697 68.37 64.8797 61.65 61.6397 56.16C61.4197 55.78 61.8997 51.7 62.2397 46.71C62.4297 43.71 62.5797 40.31 62.4897 37.22L81.9997 41.34C81.0046 45.2327 80.4874 49.2322 80.4597 53.25C80.478 53.6743 80.5349 54.096 80.6297 54.51C80.6297 54.57 80.6297 54.64 80.6297 54.72C81.1297 57.12 81.7397 66 77.3797 67.16Z" fill="#F7A9A0"/>
<path d="M80.4604 53.2399C80.4792 53.6096 80.526 53.9773 80.6004 54.3399C71.0004 52.9999 65.4304 47.9999 62.4004 43.7799C62.5004 41.5899 62.5604 39.3199 62.5004 37.1899L82.0004 41.3399C81.0081 45.2298 80.4909 49.2256 80.4604 53.2399Z" fill="#263238"/>
<path d="M57.6298 15.55C56.1698 22.55 61.6298 42.02 66.8698 45.98C74.5098 51.72 86.1198 51.27 90.7698 42.29C95.2698 33.59 87.7698 8.39002 81.9498 4.88002C73.3998 -0.279984 59.7898 5.16001 57.6298 15.55Z" fill="#F7A9A0"/>
<path d="M75.4199 25.8501C75.4199 25.8501 75.3299 25.9401 75.3499 25.9901C75.7499 27.2901 75.9899 28.8501 74.9199 29.6101C74.9199 29.6101 74.9199 29.7001 74.9199 29.6801C76.3499 29.0801 75.9999 27.0001 75.4199 25.8501Z" fill="#263238"/>
<path d="M73.8694 24.8C71.7194 25.22 72.7094 29.49 74.7094 29.1C76.7094 28.71 75.6794 24.45 73.8694 24.8Z" fill="#263238"/>
<path d="M83.3203 23.5701C83.3203 23.5701 83.4403 23.5701 83.4503 23.6601C83.7103 24.9901 84.2403 26.4801 85.5403 26.6601C85.5403 26.6601 85.5403 26.7301 85.5403 26.7401C84.0003 26.8501 83.3603 24.8701 83.3203 23.5701Z" fill="#263238"/>
<path d="M84.1803 21.9101C86.2703 21.2501 87.4303 25.4901 85.4903 26.0901C83.5503 26.6901 82.4303 22.4601 84.1803 21.9101Z" fill="#263238"/>
<path d="M71.7298 23.2401C72.2563 22.9379 72.7639 22.6039 73.2498 22.2401C73.8298 21.8601 74.3298 21.6201 74.6098 20.9601C74.671 20.7641 74.6648 20.5533 74.5924 20.3613C74.5199 20.1692 74.3852 20.0068 74.2098 19.9001C73.8336 19.7396 73.4215 19.6819 73.0156 19.7328C72.6098 19.7838 72.2247 19.9416 71.8998 20.1901C71.1611 20.5926 70.6033 21.2612 70.3398 22.0601C70.2866 22.2451 70.2878 22.4416 70.3435 22.6259C70.3991 22.8103 70.5068 22.9746 70.6536 23.0992C70.8004 23.2238 70.98 23.3034 71.1709 23.3284C71.3619 23.3534 71.5559 23.3227 71.7298 23.2401Z" fill="#263238"/>
<path d="M85.3297 19.3801C84.7197 19.3801 84.1397 19.3801 83.5297 19.3801C82.8923 19.4514 82.2492 19.3108 81.6997 18.9801C81.5493 18.8426 81.4483 18.6595 81.4122 18.4589C81.3761 18.2584 81.4068 18.0515 81.4997 17.8701C81.7382 17.5373 82.0617 17.2746 82.4363 17.1093C82.8109 16.9439 83.223 16.8821 83.6297 16.9301C84.4688 16.8921 85.291 17.1745 85.9297 17.7201C86.0512 17.8547 86.1338 18.0198 86.1687 18.1977C86.2037 18.3756 86.1895 18.5597 86.1279 18.7302C86.0663 18.9008 85.9594 19.0513 85.8188 19.1658C85.6782 19.2803 85.5091 19.3544 85.3297 19.3801Z" fill="#263238"/>
<path d="M77.7402 38.1C78.1302 38.34 78.5402 38.6899 79.0302 38.6199C79.5228 38.4952 79.983 38.2668 80.3802 37.95C80.3802 37.95 80.4702 37.9499 80.4502 38.0099C80.3229 38.3145 80.1151 38.5787 79.8491 38.7742C79.5831 38.9698 79.2689 39.0893 78.9402 39.1199C78.6534 39.1107 78.3756 39.0177 78.1411 38.8524C77.9065 38.6872 77.7255 38.4569 77.6202 38.19C77.5902 38.12 77.6802 38.07 77.7402 38.1Z" fill="#263238"/>
<path d="M78.2096 33.8101C78.6664 34.2558 79.2105 34.6023 79.8077 34.8277C80.4048 35.0532 81.0421 35.1527 81.6796 35.1201C82.2373 35.0948 82.789 34.9939 83.3196 34.8201C83.4222 34.7911 83.5225 34.7543 83.6196 34.7101L83.8996 34.6001C83.9677 34.5702 84.0242 34.5188 84.0603 34.4538C84.0964 34.3888 84.1102 34.3137 84.0996 34.2401C84.0996 34.2401 84.0996 34.1501 84.0496 34.1101V33.9901C83.8396 32.9901 83.3796 31.4401 83.3796 31.4401C83.7996 31.5401 85.8996 31.9501 85.7396 31.4401C84.4496 27.0901 83.0196 22.2501 80.8196 18.2001C80.8076 18.1696 80.7841 18.1451 80.7541 18.1319C80.7241 18.1188 80.6901 18.1181 80.6596 18.1301C80.6291 18.142 80.6046 18.1656 80.5914 18.1956C80.5783 18.2256 80.5776 18.2596 80.5896 18.2901C81.6596 22.5201 83.4696 26.5301 84.5896 30.7601C83.844 30.6015 83.08 30.5476 82.3196 30.6001C82.1796 30.6801 83.2596 33.5401 83.3196 34.0101C83.3231 34.0265 83.3231 34.0436 83.3196 34.0601C82.5042 34.3381 81.641 34.4486 80.7818 34.3851C79.9227 34.3215 79.0852 34.0851 78.3196 33.6901C78.1896 33.6101 78.0996 33.7301 78.2096 33.8101Z" fill="#263238"/>
<path d="M82.61 34.61C82.1786 35.4482 81.5422 36.1638 80.76 36.69C80.3221 36.9576 79.8121 37.0833 79.3 37.05C78.18 37 78 36 78 35.12C78.0249 34.6554 78.1055 34.1954 78.24 33.75C79.567 34.4973 81.0988 34.7987 82.61 34.61Z" fill="#263238"/>
<path d="M80.76 36.69C80.3221 36.9576 79.8121 37.0833 79.3 37.05C78.18 37 78 36 78 35.12C78.5696 35.0329 79.152 35.1405 79.6528 35.4254C80.1537 35.7103 80.5438 36.1559 80.76 36.69Z" fill="#FF9CBD"/>
<path d="M60.2503 33.5401C63.6403 31.8801 63.2503 19.5401 63.2503 19.5401L65.1203 26.0001C66.5581 24.2726 67.6176 22.2626 68.2303 20.1001C68.5651 17.8775 68.2599 15.6055 67.3503 13.5501C67.3503 13.5501 72.0503 16.9801 76.8203 17.3701C78.5803 17.5101 90.9303 15.2201 90.8203 14.4601C90.4103 12.1701 84.0603 4.8701 80.5703 3.3101C76.5703 1.5201 71.0203 0.0901031 64.1503 4.2401C57.2803 8.3901 56.2003 13.4901 55.7703 17.3701C55.3403 21.2501 59.0003 34.1501 60.2503 33.5401Z" fill="#263238"/>
<path d="M63.3302 31.27C63.3302 31.27 58.1602 25.39 55.4402 27.27C52.7202 29.15 57.1202 38.05 60.6602 38.94C61.1065 39.0838 61.5772 39.1359 62.0441 39.0932C62.511 39.0506 62.9645 38.914 63.3773 38.6917C63.7901 38.4694 64.1537 38.166 64.4464 37.7997C64.739 37.4334 64.9546 37.0117 65.0802 36.56L63.3302 31.27Z" fill="#F7A9A0"/>
<path d="M56.7598 29.82C56.7598 29.82 56.7598 29.9 56.7598 29.91C59.2498 30.61 60.7598 32.68 61.8798 34.91C61.7154 34.6862 61.5043 34.5009 61.261 34.367C61.0177 34.2332 60.7482 34.154 60.4712 34.1349C60.1942 34.1159 59.9163 34.1575 59.657 34.2568C59.3977 34.3561 59.1632 34.5108 58.9698 34.71C58.9098 34.76 58.9698 34.85 59.0498 34.83C59.4531 34.649 59.9027 34.5979 60.3363 34.684C60.77 34.77 61.1661 34.9888 61.4698 35.31C61.9748 35.822 62.4209 36.3888 62.7998 37C62.9398 37.2 63.3098 37 63.1998 36.8V36.75C62.8998 33.75 60.0598 29.76 56.7598 29.82Z" fill="#263238"/>
<path d="M73.3798 1.34003C70.6654 0.634429 67.8622 0.331201 65.0597 0.44004C61.9297 0.61004 52.4297 3.12004 50.4797 5.44004C48.5297 7.76004 49.5797 16.98 49.7597 18.32C49.9397 19.66 51.9998 27.58 55.2698 28.99C58.5398 30.4 56.2698 16.7 60.0698 11.34C63.8698 5.98003 73.3798 1.34003 73.3798 1.34003Z" fill="#2C92F8"/>
<path opacity="0.1" d="M73.38 1.34995C73.38 1.34995 63.83 6.00994 60.07 11.3499C56.31 16.6899 58.53 30.3999 55.26 28.9999C53.83 28.3799 52.97 27.2299 52.05 25.1899C51.93 21.0899 52.41 14.6099 54.95 9.71994C57.32 5.13994 62.31 2.12993 67.95 0.429932C69.7828 0.582075 71.5993 0.889865 73.38 1.34995Z" fill="black"/>
<path d="M57.5397 37.0002C57.1397 33.3102 59.0497 22.9102 61.8997 16.6202C64.7497 10.3302 75.5597 4.99015 77.1697 4.79015C81.0797 4.30015 82.5997 5.23015 83.1697 4.79015C83.7397 4.35015 79.1697 2.16017 77.9997 1.71017C76.8297 1.26017 73.5797 0.250165 71.9097 0.600165C70.2397 0.950165 59.9997 3.84016 57.0697 9.00016C54.1397 14.1602 51.0697 27.4802 52.6097 30.4802C52.9897 31.2002 54.0897 31.4802 54.6097 32.4802C55.2897 33.8202 55.8897 35.4002 56.4997 36.3202C56.9997 37.0002 57.5797 37.3002 57.5397 37.0002Z" fill="#2C92F8"/>
<path d="M62.3403 13.9399C61.352 13.5598 60.3984 13.0947 59.4904 12.5499C58.5592 12.0194 57.6933 11.3817 56.9104 10.6499C56.9104 10.5999 56.7704 10.6499 56.8204 10.7299C57.5083 11.5934 58.3284 12.3426 59.2504 12.9499C60.1694 13.5263 61.1861 13.9296 62.2504 14.1399C62.4104 14.1599 62.4403 13.9999 62.3403 13.9399Z" fill="#263238"/>
<path d="M56.8399 33.3501C56.6899 33.1101 56.4799 32.91 56.3099 32.68C56.1096 32.4196 55.9386 32.1379 55.7999 31.84C55.615 31.2532 55.3703 30.6869 55.0699 30.15C54.7535 29.7612 54.3946 29.409 53.9999 29.1001C53.5209 28.7832 53.1673 28.3094 52.9999 27.76C52.9999 27.68 52.8599 27.7 52.8799 27.76C53.0699 28.86 53.9599 29.51 54.6099 30.34C54.9432 30.9151 55.2276 31.5172 55.4599 32.14C55.7131 32.7087 56.145 33.1791 56.6899 33.48C56.7799 33.53 56.8999 33.4401 56.8399 33.3501Z" fill="#263238"/>
<path d="M57.3796 29.2001C56.9596 28.8401 56.5196 28.5401 56.1296 28.2001C55.77 27.8157 55.436 27.4082 55.1296 26.9801C54.8196 26.5601 54.5396 26.1201 54.2296 25.7001C53.9196 25.2801 53.4496 24.7001 53.1096 24.2101C53.1096 24.1401 52.9696 24.2101 53.0196 24.2901C53.3696 24.8301 53.6196 25.4301 53.9496 25.9801C54.253 26.4516 54.587 26.9025 54.9496 27.3301C55.2736 27.7489 55.6388 28.1342 56.0396 28.4801C56.4371 28.8444 56.9027 29.1265 57.4096 29.3101C57.4096 29.3101 57.4096 29.2201 57.3796 29.2001Z" fill="#263238"/>
<path d="M58.0497 25.4C57.1672 24.8948 56.3623 24.265 55.6597 23.53C54.9797 22.81 54.3397 22.04 53.7197 21.28C53.7197 21.22 53.5797 21.28 53.6097 21.34C54.0975 22.2479 54.6881 23.0968 55.3697 23.87C55.7129 24.243 56.0951 24.5782 56.5097 24.87C56.9748 25.1485 57.4717 25.3701 57.9897 25.53C58.0497 25.54 58.1097 25.44 58.0497 25.4Z" fill="#263238"/>
<path d="M58.86 21.74C58.4333 21.547 58.0466 21.2757 57.72 20.94C57.3333 20.5933 56.9533 20.2333 56.58 19.86C56.23 19.5 55.86 19.16 55.51 18.8C55.1268 18.4657 54.8199 18.0531 54.61 17.59C54.6053 17.5793 54.5976 17.5701 54.5879 17.5638C54.5781 17.5574 54.5667 17.554 54.555 17.554C54.5433 17.554 54.5319 17.5574 54.5221 17.5638C54.5124 17.5701 54.5047 17.5793 54.5 17.59C54.6267 18.0818 54.8549 18.5416 55.17 18.94C55.4948 19.3949 55.8595 19.82 56.26 20.21C56.6499 20.593 57.0641 20.9504 57.5 21.28C57.8692 21.6071 58.33 21.813 58.82 21.87C58.91 21.9 59 21.77 58.86 21.74Z" fill="#263238"/>
<path d="M59.1102 17.2299C58.7102 16.9599 58.3202 16.6899 57.9402 16.3899C57.5602 16.0899 57.2102 15.7799 56.8602 15.4599C56.5102 15.1399 56.1002 14.7899 55.7502 14.4599C55.7002 14.3999 55.6202 14.4599 55.6602 14.5399C55.932 14.9629 56.2363 15.3641 56.5703 15.7399C56.9143 16.0937 57.2782 16.4275 57.6602 16.7399C58.0387 17.0555 58.4398 17.3429 58.8602 17.5999C59.2591 17.8888 59.7111 18.0961 60.1902 18.2099C60.208 18.2145 60.2268 18.2129 60.2435 18.2053C60.2602 18.1978 60.2738 18.1847 60.282 18.1683C60.2902 18.1519 60.2925 18.1331 60.2885 18.1152C60.2846 18.0973 60.2746 18.0813 60.2602 18.0699C59.9054 17.7529 59.5202 17.4715 59.1102 17.2299Z" fill="#263238"/>
<path d="M64.7402 11.3599C64.3002 10.9799 63.8702 10.6099 63.4002 10.2699C62.9164 9.9263 62.4121 9.61238 61.8902 9.32994C60.89 8.74726 59.8264 8.28089 58.7202 7.93994C58.6602 7.93994 58.6002 8.00994 58.6702 8.04994C60.6702 9.20994 62.6702 10.2799 64.6702 11.4599C64.6835 11.4692 64.6999 11.4729 64.7158 11.47C64.7317 11.4672 64.7459 11.4582 64.7552 11.4449C64.7645 11.4317 64.7681 11.4153 64.7653 11.3993C64.7625 11.3834 64.7535 11.3692 64.7402 11.3599Z" fill="#263238"/>
<path d="M66.3694 7.84999C65.9233 7.47982 65.4369 7.16113 64.9194 6.89998C63.8227 6.38713 62.6723 5.99807 61.4894 5.73999C61.4194 5.73999 61.3694 5.81999 61.4894 5.84999C62.5494 6.30999 63.6094 6.73998 64.6394 7.25998C65.1509 7.50546 65.6484 7.77922 66.1294 8.07999C66.6094 8.38999 67.0094 8.79999 67.4794 9.07999C67.4794 9.07999 67.5694 9.07999 67.5494 9.01999C67.2338 8.55874 66.8333 8.16169 66.3694 7.84999Z" fill="#263238"/>
<path d="M69.1395 5.87004C68.7248 5.48718 68.2686 5.15177 67.7795 4.87004C66.8695 4.34447 65.8745 3.98234 64.8395 3.80005C64.7695 3.80005 64.7495 3.89005 64.8395 3.91005C65.8231 4.28189 66.7732 4.73687 67.6795 5.27005C68.1295 5.54005 68.5695 5.83005 69.0195 6.11005C69.4695 6.39005 69.8595 6.78005 70.3195 7.02005C70.3195 7.02005 70.3895 7.02004 70.3695 6.95004C69.9928 6.55382 69.5811 6.19236 69.1395 5.87004Z" fill="#263238"/>
<path d="M71 3.64999C70.56 3.40999 70.11 3.2 69.66 2.98C69.2228 2.75236 68.7544 2.59062 68.27 2.5C68.254 2.5 68.2388 2.50633 68.2275 2.51758C68.2163 2.52883 68.21 2.54408 68.21 2.56C68.21 2.57591 68.2163 2.59118 68.2275 2.60243C68.2388 2.61368 68.254 2.62 68.27 2.62C69.12 3.08 69.97 3.55 70.81 4.03C71.5591 4.51674 72.2532 5.0834 72.88 5.72V5.67C72.467 4.82546 71.8127 4.12245 71 3.64999Z" fill="#263238"/>
<path d="M73.6099 2.57001C72.7857 2.04574 71.8695 1.68264 70.9099 1.5C70.8399 1.5 70.8099 1.6 70.9099 1.62C71.8042 1.91373 72.6501 2.33835 73.4199 2.88C74.1946 3.41042 74.9089 4.02408 75.5499 4.71001C75.5499 4.71001 75.6499 4.71001 75.6299 4.71001C75.1365 3.84606 74.444 3.1124 73.6099 2.57001Z" fill="#263238"/>
<path d="M77.4803 3.53999C77.3546 3.36779 77.2176 3.20411 77.0703 3.05C76.7685 2.73445 76.4332 2.45279 76.0703 2.21001C75.3288 1.73016 74.5416 1.32484 73.7203 1C73.6403 1 73.6003 1.08 73.7203 1.11C74.5122 1.44583 75.2609 1.87557 75.9503 2.39C76.302 2.64013 76.6361 2.91411 76.9503 3.21001C77.0903 3.36001 77.2303 3.51 77.3603 3.67C77.4802 3.83446 77.6141 3.98836 77.7603 4.13C77.7603 4.13 77.8703 4.13001 77.8503 4.07001C77.7638 3.87028 77.638 3.69001 77.4803 3.53999Z" fill="#263238"/>
<path d="M79.6999 3.34001C79.4441 3.09081 79.1736 2.85707 78.89 2.64001C78.6034 2.42845 78.3064 2.23154 77.9999 2.05002C77.6799 1.87002 77.3599 1.70001 77.0499 1.51001C76.9699 1.51001 76.9099 1.57001 76.9899 1.62001C77.3114 1.79877 77.6159 2.0063 77.8999 2.24002L78.7199 2.87001L79.5399 3.51001C79.7993 3.74682 80.0732 3.96725 80.3599 4.17001C80.4099 4.17001 80.4599 4.17002 80.4299 4.10002C80.2181 3.81823 79.973 3.56304 79.6999 3.34001Z" fill="#263238"/>
</svg>
