<svg width="202" height="123" viewBox="0 0 202 123" fill="none" xmlns="http://www.w3.org/2000/svg">
<g clip-path="url(#clip0_1020_11936)">
<path d="M47.0006 75C49.0006 80.2 54.5006 82.5 57.0006 83L13.5 82.5L3 83V85.5L6.5 99.5C9.16667 102.833 15.1 110.5 17.5 114.5C19.9 118.5 31.8333 121.833 37.5 123H87.5L187.5 121.5L194 118.5L200 109.5L198 98.5L195.5 93.5L184.5 89H177.5L181.5 80.5V72L177.5 64.5L168 55H154V48L146 28L133.5 13.5L114.5 3.5H93L65 13.5L45.5006 43C45.1672 51.5 45.0006 69.8 47.0006 75Z" fill="white" stroke="white"/>
<path d="M81.4411 62C77.9411 69 78.4411 72.5 81.4411 72.5C84.4411 72.5 84.4414 69 81.4411 62Z" fill="#2C92F8" stroke="#2C92F8"/>
<path fill-rule="evenodd" clip-rule="evenodd" d="M37.1987 122.897C42.668 122.816 53.584 120.97 59.5179 116.197C59.8943 115.893 60.2537 115.601 60.5974 115.318C65.3849 110.09 71.0621 103.568 76.1442 97.0852C73.2993 99.3391 68.4545 103.25 61.3778 109.12C48.3583 119.921 31.9909 118.804 20.4593 112.472C11.234 107.407 6.94373 94.2235 5.95179 88.2647V84.168H69.5801C65.4302 83.8425 61.1026 83.4433 57.068 83.0373L45.3833 82.3059H38.2665L29.6321 62.5465L31.4622 57.8644L25.8054 55.6485L23.5919 61.3116L28.2689 63.1439L36.6423 82.3059H24.875L14.9845 59.6729L25.1606 45.1178L25.3815 44.802L25.2514 44.4392L21.2434 33.2613L23.3861 28.7132L17.892 26.1189L15.3006 31.6196L19.843 33.7648L23.7208 44.58L13.526 59.1612L13.2865 59.5031L13.4539 59.8867L23.2508 82.3059H0C0 93.0719 4.03673 103.398 11.2221 111.01C18.144 118.344 27.4418 122.582 37.1987 122.883V122.897ZM41.225 64.5881C41.2118 64.4213 41.201 64.2626 41.1929 64.1144L41.1872 64.206C41.0095 62.3469 40.9185 60.4624 40.9185 58.5571C40.9185 26.2172 67.1049 0 99.4068 0C129.611 0 154.468 22.922 157.569 52.3391C158.47 52.2363 159.386 52.1834 160.314 52.1834C173.559 52.1834 184.296 62.9331 184.296 76.1929C184.296 80.2687 183.282 84.1069 181.492 87.4692C182.403 87.3224 183.338 87.2472 184.29 87.2472C194.071 87.2472 202 95.2506 202 105.124C202 114.996 194.071 123 184.29 123C183.656 123 183.029 122.966 182.411 122.9H55.4231C55.8516 122.784 56.3069 122.66 56.7897 122.528C60.2827 121.574 71.2065 120.716 79.2443 120.22C104.783 120.333 157.016 120.101 187.481 119.921C191.821 118.307 200.129 112.845 198.641 103.907C196.781 92.7338 183.018 90.4992 177.438 92.7338C173.324 94.3806 171.211 95.9441 170.517 96.6651C173.783 92.9587 179.963 84.0563 179.67 76.7195C179.298 67.4089 174.09 59.2155 165.162 56.981C158.02 55.1934 153.506 57.7258 152.143 59.2155C153.878 52.2639 152.366 33.9651 132.427 16.3867C107.504 -5.58645 74.7693 9.31055 69.5615 14.1521C69.1427 14.5417 68.6539 14.9841 68.1086 15.478L68.1078 15.4787C61.8733 21.1232 48.2385 33.4668 46.8703 49.9049C46.4044 55.5025 46.2668 59.8591 46.5602 63.3167L46.4984 63.3122C46.7463 67.2845 48.0607 75.9747 51.3342 78.9541C53.1093 80.5696 54.746 81.4553 56.0309 81.9074C54.7051 81.7048 53.1249 81.3234 51.5083 80.7141L51.8036 80.7499C50.9332 80.5123 48.4386 79.2997 45.4281 76.3553C43.1478 74.1252 41.9823 69.8877 41.4827 66.7229C41.3841 66.0153 41.2981 65.3039 41.225 64.5881Z" fill="white"/>
<path d="M100.033 78.1627C97.9614 78.1627 94.7369 79.8066 95.0899 80L100.033 79.9033L104.858 80C105.093 79.8066 102.104 78.1627 100.033 78.1627Z" fill="white"/>
<path d="M100.084 72.4213C92.9615 72.4213 89.1085 77.1294 87.7074 79.426C90.1593 78.0481 96.063 75.5218 100.084 75.5218C104.054 75.5218 109.152 78.2012 111.176 79.426C109.424 77.0528 106.505 72.4213 100.084 72.4213Z" fill="black"/>
<path d="M79.6497 35.4495C79.7431 33.9797 78.2483 31.8897 78.015 32.0045C77.8981 32.0045 73.9285 38.6648 69.8419 40.617C65.9095 42.4955 63.4198 42.9136 60.5011 42.5691C59.6814 42.4724 55.4807 40.9615 57.5824 42.9136C59.2493 44.462 62.4309 44.7461 63.7371 44.8628L63.7705 44.8658C76.1469 44.2916 79.5329 37.2868 79.6497 35.4495Z" fill="black"/>
<path d="M79.6497 35.4495C79.7431 33.9797 78.2483 31.8897 78.015 32.0045C77.8981 32.0045 73.9285 38.6648 69.8419 40.617C65.9095 42.4955 63.4198 42.9136 60.5011 42.5691C59.6814 42.4724 55.4807 40.9615 57.5824 42.9136C59.2493 44.462 62.4309 44.7461 63.7371 44.8628L63.7705 44.8658C76.1469 44.2916 79.5329 37.2868 79.6497 35.4495Z" fill="black"/>
<path d="M79.6497 35.4495C79.7431 33.9797 78.2483 31.8897 78.015 32.0045C77.8981 32.0045 73.9285 38.6648 69.8419 40.617C65.9095 42.4955 63.4198 42.9136 60.5011 42.5691C59.6814 42.4724 55.4807 40.9615 57.5824 42.9136C59.2493 44.462 62.4309 44.7461 63.7371 44.8628L63.7705 44.8658C76.1469 44.2916 79.5329 37.2868 79.6497 35.4495Z" fill="black"/>
<path d="M119.353 35.4483C119.26 33.979 120.754 31.8897 120.988 32.0045C121.104 32.0045 125.074 38.6625 129.16 40.6139C133.092 42.4918 135.581 42.9098 138.499 42.5654C139.319 42.4687 143.519 40.9583 141.418 42.9098C139.751 44.4576 136.57 44.7416 135.264 44.8583L135.23 44.8612C122.855 44.2873 119.47 37.285 119.353 35.4483Z" fill="black"/>
<path d="M119.353 35.4483C119.26 33.979 120.754 31.8897 120.988 32.0045C121.104 32.0045 125.074 38.6625 129.16 40.6139C133.092 42.4918 135.581 42.9098 138.499 42.5654C139.319 42.4687 143.519 40.9583 141.418 42.9098C139.751 44.4576 136.57 44.7416 135.264 44.8583L135.23 44.8612C122.855 44.2873 119.47 37.285 119.353 35.4483Z" fill="black"/>
<path d="M119.353 35.4483C119.26 33.979 120.754 31.8897 120.988 32.0045C121.104 32.0045 125.074 38.6625 129.16 40.6139C133.092 42.4918 135.581 42.9098 138.499 42.5654C139.319 42.4687 143.519 40.9583 141.418 42.9098C139.751 44.4576 136.57 44.7416 135.264 44.8583L135.23 44.8612C122.855 44.2873 119.47 37.285 119.353 35.4483Z" fill="black"/>
<path d="M81.5192 55.1962C81.5192 61.5382 76.2918 66.6794 69.8434 66.6794C63.395 66.6794 58.1676 61.5382 58.1676 55.1962C61.5 51.5 66.5 48.7656 72.5 44.8628C78 46 81.5192 48.8541 81.5192 55.1962Z" fill="#404040"/>
<path d="M140.5 54C140.5 60.342 135.605 66.9091 129.157 66.9091C122.708 66.9091 117.481 61.7679 117.481 55.4258C117.481 49.0838 123.313 44.8583 126.5 44.8583C133.5 48.7656 134.5 49.5 140.5 54Z" fill="#404040"/>
<path d="M79.6511 52.555C79.6511 54.6479 77.926 56.3445 75.7981 56.3445C73.6701 56.3445 71.9451 54.6479 71.9451 52.555C71.9451 50.4622 73.6701 48.7656 75.7981 48.7656C77.926 48.7656 79.6511 50.4622 79.6511 52.555Z" fill="white"/>
<path d="M127.055 52.555C127.055 54.6479 125.33 56.3445 123.202 56.3445C121.074 56.3445 119.349 54.6479 119.349 52.555C119.349 50.4622 121.074 48.7656 123.202 48.7656C125.33 48.7656 127.055 50.4622 127.055 52.555Z" fill="white"/>
<path d="M73.8132 57.378C73.8132 58.4561 72.9245 59.3301 71.8283 59.3301C70.7321 59.3301 69.8434 58.4561 69.8434 57.378C69.8434 56.2998 70.7321 55.4258 71.8283 55.4258C72.9245 55.4258 73.8132 56.2998 73.8132 57.378Z" fill="white"/>
<path d="M129.157 57.378C129.157 58.4561 128.268 59.3301 127.172 59.3301C126.075 59.3301 125.187 58.4561 125.187 57.378C125.187 56.2998 126.075 55.4258 127.172 55.4258C128.268 55.4258 129.157 56.2998 129.157 57.378Z" fill="white"/>
</g>
<defs>
<clipPath id="clip0_1020_11936">
<rect width="202" height="123" fill="white"/>
</clipPath>
</defs>
</svg>
