<svg width="206" height="206" viewBox="0 0 206 206" fill="none" xmlns="http://www.w3.org/2000/svg">
<path d="M174.502 36.2887C161.167 30.0497 146.909 25.5154 132.002 22.9336C130.171 26.2434 128.033 30.6952 126.558 34.2366C110.712 31.8535 95.0118 31.8535 79.4573 34.2366C77.9829 30.6952 75.7956 26.2434 73.9485 22.9336C59.0259 25.5154 44.7514 30.0663 31.4167 36.3217C4.52035 76.9655 -2.7708 116.6 0.874785 155.671C18.7138 168.993 36.002 177.086 52.9984 182.381C57.1949 176.606 60.9377 170.466 64.1619 163.996C58.0212 161.662 52.1397 158.783 46.5824 155.44C48.0567 154.348 49.4988 153.206 50.8921 152.031C84.7878 167.885 121.616 167.885 155.107 152.031C156.517 153.206 157.959 154.348 159.417 155.44C153.843 158.799 147.946 161.679 141.805 164.012C145.029 170.466 148.756 176.622 152.968 182.398C169.981 177.102 187.285 169.01 205.124 155.671C209.402 110.378 197.817 71.1072 174.502 36.2887ZM68.7798 131.643C58.6046 131.643 50.2602 122.144 50.2602 110.576C50.2602 99.0085 58.4264 89.493 68.7798 89.493C79.1334 89.493 87.4775 98.9918 87.2994 110.576C87.3155 122.144 79.1334 131.643 68.7798 131.643ZM137.22 131.643C127.044 131.643 118.7 122.144 118.7 110.576C118.7 99.0085 126.866 89.493 137.22 89.493C147.573 89.493 155.917 98.9918 155.739 110.576C155.739 122.144 147.573 131.643 137.22 131.643Z" fill="#2C92F8"/>
</svg>
