<svg width="48" height="48" viewBox="0 0 48 48" fill="none" xmlns="http://www.w3.org/2000/svg">
<path d="M25.9981 18H37.0021L25.9981 7.00199V18ZM12.0001 4.00199H28.0021L40.0021 16.002V40.002C40.0017 40.5271 39.8978 41.0471 39.6965 41.5321C39.4952 42.0171 39.2003 42.4578 38.8287 42.8288C38.457 43.1999 38.016 43.4941 37.5306 43.6947C37.0453 43.8953 36.5252 43.9984 36.0001 43.998H12.0001C9.78007 43.998 7.99807 42.198 7.99807 40.002V7.99799C7.99648 7.47228 8.09895 6.95145 8.29958 6.46552C8.50021 5.9796 8.79503 5.53819 9.16705 5.16673C9.53906 4.79527 9.98092 4.50111 10.4671 4.30121C10.9534 4.10131 11.4744 3.99962 12.0001 4.00199ZM30.0001 36V31.998H12.0001V36H30.0001ZM36.0001 28.002V24H12.0001V28.002H36.0001Z" fill="#95999F"/>
</svg>
