<svg width="46" height="46" viewBox="0 0 46 46" fill="none" xmlns="http://www.w3.org/2000/svg">
<rect width="46" height="46" fill="#1C1A1A"/>
<g id="Login /Signup Dark" clip-path="url(#clip0_0_1)">
<rect width="1920" height="1080" transform="translate(-1113 -741)" fill="#393A3F"/>
<rect id="right side (texts)" x="-333" y="-741" width="1140" height="1081" fill="#1D2025"/>
<g id="google button">
<g id="google button_2">
<rect id="google button_3" x="-139.5" y="-10.5" width="597" height="67" rx="8.5" fill="#F8F8F8" stroke="#8C8C8C" stroke-width="3"/>
</g>
<g id="flat-color-icons:google">
<path id="Vector" d="M41.794 19.2462H40.2502V19.1666H23.0002V26.8333H33.8322C32.2519 31.2963 28.0055 34.5 23.0002 34.5C16.6493 34.5 11.5002 29.3509 11.5002 23C11.5002 16.6491 16.6493 11.5 23.0002 11.5C25.9317 11.5 28.5987 12.6059 30.6295 14.4124L36.0507 8.99106C32.6276 5.80077 28.0487 3.83331 23.0002 3.83331C12.4154 3.83331 3.8335 12.4152 3.8335 23C3.8335 33.5848 12.4154 42.1666 23.0002 42.1666C33.585 42.1666 42.1668 33.5848 42.1668 23C42.1668 21.7149 42.0346 20.4604 41.794 19.2462Z" fill="#FFC107"/>
<path id="Vector_2" d="M6.04346 14.0789L12.3407 18.6971C14.0446 14.4785 18.1712 11.5 23.0002 11.5C25.9317 11.5 28.5988 12.6059 30.6295 14.4124L36.0508 8.99106C32.6276 5.80077 28.0487 3.83331 23.0002 3.83331C15.6383 3.83331 9.25387 7.9896 6.04346 14.0789Z" fill="#FF3D00"/>
<path id="Vector_3" d="M23.0001 42.1667C27.9509 42.1667 32.4493 40.272 35.8504 37.191L29.9183 32.1712C27.9294 33.6839 25.499 34.502 23.0001 34.5C18.0149 34.5 13.7819 31.3212 12.1873 26.8851L5.93701 31.7007C9.1091 37.9078 15.551 42.1667 23.0001 42.1667Z" fill="#4CAF50"/>
<path id="Vector_4" d="M41.7939 19.2462H40.25V19.1667H23V26.8334H33.832C33.0761 28.9574 31.7145 30.8135 29.9153 32.1722L29.9182 32.1703L35.8503 37.1901C35.4305 37.5715 42.1667 32.5834 42.1667 23C42.1667 21.7149 42.0344 20.4604 41.7939 19.2462Z" fill="#1976D2"/>
</g>
</g>
</g>
<defs>
<clipPath id="clip0_0_1">
<rect width="1920" height="1080" fill="white" transform="translate(-1113 -741)"/>
</clipPath>
</defs>
</svg>
