<svg width="32" height="32" viewBox="0 0 32 32" fill="none" xmlns="http://www.w3.org/2000/svg">
<g id="icon">
<path id="Vector" d="M16.0002 10.668C16.7005 10.6679 17.3939 10.8057 18.0408 11.0736C18.6878 11.3415 19.2757 11.7342 19.7708 12.2294C20.266 12.7245 20.6587 13.3124 20.9266 13.9594C21.1945 14.6063 21.3324 15.2997 21.3322 16C21.3324 16.7002 21.1945 17.3936 20.9266 18.0406C20.6587 18.6876 20.266 19.2754 19.7708 19.7706C19.2757 20.2657 18.6878 20.6585 18.0408 20.9264C17.3939 21.1943 16.7005 21.3321 16.0002 21.332C15.3 21.3321 14.6066 21.1943 13.9596 20.9264C13.3126 20.6585 12.7248 20.2657 12.2296 19.7706C11.7345 19.2754 11.3417 18.6876 11.0738 18.0406C10.8059 17.3936 10.6681 16.7002 10.6682 16C10.6681 15.2997 10.8059 14.6063 11.0738 13.9594C11.3417 13.3124 11.7345 12.7245 12.2296 12.2294C12.7248 11.7342 13.3126 11.3415 13.9596 11.0736C14.6066 10.8057 15.3 10.6679 16.0002 10.668ZM16.0002 13.332C15.3053 13.351 14.6452 13.6404 14.1604 14.1387C13.6755 14.637 13.4043 15.3048 13.4043 16C13.4043 16.6952 13.6755 17.363 14.1604 17.8612C14.6452 18.3595 15.3053 18.649 16.0002 18.668C16.6952 18.649 17.3553 18.3595 17.8401 17.8612C18.3249 17.363 18.5962 16.6952 18.5962 16C18.5962 15.3048 18.3249 14.637 17.8401 14.1387C17.3553 13.6404 16.6952 13.351 16.0002 13.332ZM13.3322 29.332C13.1732 29.333 13.0189 29.2772 12.8973 29.1748C12.7756 29.0723 12.6944 28.9299 12.6682 28.773L12.1722 25.238C11.3322 24.906 10.6132 24.453 9.92222 23.922L6.60222 25.266C6.4534 25.3218 6.28959 25.323 6.13997 25.2694C5.99034 25.2157 5.86463 25.1107 5.78522 24.973L3.12122 20.359C3.03912 20.2221 3.01006 20.0599 3.03955 19.9031C3.06904 19.7462 3.15502 19.6057 3.28122 19.508L6.09422 17.293L6.00022 16L6.09422 14.668L3.28122 12.492C3.15502 12.3943 3.06904 12.2537 3.03955 12.0969C3.01006 11.94 3.03912 11.7778 3.12122 11.641L5.78522 7.02698C5.86265 6.88732 5.98824 6.78058 6.13856 6.72667C6.28888 6.67276 6.45367 6.67536 6.60222 6.73398L9.92222 8.06598C10.6132 7.54598 11.3322 7.09398 12.1722 6.76198L12.6682 3.22698C12.6944 3.07008 12.7756 2.92763 12.8973 2.82518C13.0189 2.72274 13.1732 2.66701 13.3322 2.66798H18.6682C19.0002 2.66798 19.2812 2.90598 19.3322 3.22698L19.8282 6.76198C20.6682 7.09398 21.3872 7.54698 22.0782 8.06598L25.3982 6.73398C25.5468 6.67536 25.7116 6.67276 25.8619 6.72667C26.0122 6.78058 26.1378 6.88732 26.2152 7.02698L28.8792 11.641C28.9613 11.7778 28.9904 11.94 28.9609 12.0969C28.9314 12.2537 28.8454 12.3943 28.7192 12.492L25.9062 14.668L26.0002 16L25.9062 17.332L28.7192 19.508C28.9732 19.707 29.0552 20.066 28.8792 20.359L26.2152 24.973C26.1378 25.1126 26.0122 25.2194 25.8619 25.2733C25.7116 25.3272 25.5468 25.3246 25.3982 25.266L22.0782 23.934C21.3872 24.454 20.6682 24.906 19.8282 25.238L19.3322 28.773C19.3061 28.9299 19.2249 29.0723 19.1032 29.1748C18.9815 29.2772 18.8273 29.333 18.6682 29.332H13.3322ZM15.0002 5.33198L14.5082 8.81198C12.937 9.14058 11.5168 9.9752 10.4652 11.188L7.25422 9.79998L6.25422 11.534L9.06622 13.601C8.53516 15.1555 8.53516 16.8424 9.06622 18.397L6.23822 20.48L7.23822 22.215L10.4802 20.828C11.5249 22.0274 12.9343 22.8509 14.4922 23.172L14.9882 26.668H17.0122L17.5082 23.188C19.0651 22.8547 20.4725 22.0268 21.5202 20.828L24.7622 22.215L25.7622 20.48L22.9342 18.414C23.4654 16.854 23.4654 15.162 22.9342 13.602L25.7462 11.535L24.7462 9.80098L21.5362 11.187C20.4873 9.97377 19.0646 9.14388 17.4922 8.82798L17.0002 5.33198H15.0002Z" fill="white" fill-opacity="0.7"/>
</g>
</svg>
