<svg width="32" height="32" viewBox="0 0 32 32" fill="none" xmlns="http://www.w3.org/2000/svg">
<g id="icon">
<path id="Vector" d="M14.6679 29.3317C14.4927 29.332 14.3192 29.2977 14.1572 29.2309C13.9953 29.1641 13.8481 29.0661 13.724 28.9424C13.6 28.8187 13.5015 28.6718 13.4342 28.5101C13.3669 28.3483 13.3322 28.1749 13.3319 27.9997V18.6677H6.6679C6.41646 18.667 6.1703 18.5955 5.95757 18.4614C5.74484 18.3274 5.57411 18.1362 5.4649 17.9097C5.35597 17.6835 5.31319 17.4311 5.3415 17.1816C5.36981 16.9322 5.46805 16.6958 5.6249 16.4997L16.2929 3.16772C16.6479 2.72672 17.2429 2.55472 17.7769 2.74172C18.3089 2.92972 18.6679 3.43372 18.6679 3.99972V13.3317H25.3319C25.8439 13.3317 26.3119 13.6287 26.5349 14.0897C26.7579 14.5497 26.6949 15.0977 26.3749 15.4997L15.7069 28.8317C15.4489 29.1557 15.0619 29.3317 14.6679 29.3317ZM9.4409 15.9997H14.6679C15.4019 15.9997 15.9999 16.5977 15.9999 17.3317V24.1987L22.5589 15.9997H17.3319C16.9788 15.9992 16.6403 15.8587 16.3906 15.609C16.1409 15.3593 16.0004 15.0208 15.9999 14.6677V7.80072L9.4409 15.9997Z" fill="white" fill-opacity="0.7"/>
</g>
</svg>
