<svg width="217" height="165" viewBox="0 0 217 165" fill="none" xmlns="http://www.w3.org/2000/svg">
<g clip-path="url(#clip0_279_3420)">
<path d="M45.942 128.972C68.099 128.972 86.0608 111.011 86.0608 88.8536C86.0608 66.6967 68.099 48.7349 45.942 48.7349C23.785 48.7349 5.82318 66.6967 5.82318 88.8536C5.82318 111.011 23.785 128.972 45.942 128.972Z" fill="white"/>
<path d="M92.2928 47.1768H0.370178V86.127H92.2928V47.1768Z" fill="#263143"/>
<path d="M109.911 122.921C143.734 122.921 171.153 95.502 171.153 61.6788C171.153 27.8556 143.734 0.436523 109.911 0.436523C76.0876 0.436523 48.6685 27.8556 48.6685 61.6788C48.6685 95.502 76.0876 122.921 109.911 122.921Z" fill="white"/>
<path d="M173.687 105.233C187.555 105.233 198.797 93.9911 198.797 80.1231C198.797 66.255 187.555 55.0127 173.687 55.0127C159.818 55.0127 148.576 66.255 148.576 80.1231C148.576 93.9911 159.818 105.233 173.687 105.233Z" fill="white"/>
<path d="M198.791 129.076C209.033 129.076 217.335 120.706 217.335 110.38C217.335 100.055 209.033 91.6841 198.791 91.6841C188.55 91.6841 180.248 100.055 180.248 110.38C180.248 120.706 188.55 129.076 198.791 129.076Z" fill="white"/>
<path d="M199.017 93.917H44.7734V128.972H199.017V93.917Z" fill="white"/>
<path d="M65.8067 86.127H47.8296L46.3315 75.8107L47.3303 67.2138C47.4967 66.0675 48.2291 65.9071 49.8271 74.4352C51.425 82.9633 61.146 85.7831 65.8067 86.127Z" fill="#263143"/>
<path d="M20.6243 62.757L19.805 62.1836L19.4831 62.6435L19.7081 63.1579L20.6243 62.757ZM31.5303 47.1769L32.3496 47.7504L32.6464 47.3263L32.4715 46.8391L31.5303 47.1769ZM24.1266 26.5523L20.6433 33.937L28.028 37.4203L31.5113 30.0357L24.1266 26.5523ZM32.4465 87.2844L21.5404 62.3562L19.7081 63.1579L30.6142 88.086L32.4465 87.2844ZM21.4435 63.3305L32.3496 47.7504L30.7111 46.6035L19.805 62.1836L21.4435 63.3305ZM32.4715 46.8391L27.0185 31.6485L25.1361 32.3242L30.5892 47.5148L32.4715 46.8391Z" fill="white"/>
<path d="M32.3322 58.2467L29.3569 65.8503L36.9605 68.8256L39.9358 61.222L32.3322 58.2467ZM46.4686 88.0635L35.5625 63.1353L33.7302 63.937L44.6363 88.8651L46.4686 88.0635Z" fill="white"/>
<path d="M68.1437 121.961C61.7861 127.069 49.9669 128.972 44.384 128.972L46.3315 131.309C49.4476 129.751 57.1154 128.972 61.5222 128.972C66.1962 128.972 73.4669 118.975 76.7128 113.782L76.7042 113.795C76.4206 114.221 74.8595 116.565 68.1437 121.961Z" fill="#263143"/>
<path d="M27.2459 118.067C17.5862 112.769 13.094 98.9809 12.0553 92.7489V88.4644H82.1658L64.2487 80.6743C55.2901 76.7792 53.3426 71.3263 54.9006 52.6301C56.4586 33.934 73.2072 20.3013 78.6603 15.2378C84.1133 10.1742 118.39 -5.40587 144.486 17.5748C165.364 35.9593 166.948 55.0969 165.13 62.3676C166.558 60.8096 171.284 58.161 178.762 60.0306C188.111 62.3676 193.564 70.9367 193.953 80.6743C194.26 88.3476 187.79 97.6586 184.369 101.534C185.097 100.78 187.309 99.1457 191.616 97.4229C197.459 95.0859 211.87 97.4229 213.818 109.108C215.376 118.456 206.677 124.169 202.133 125.857C158.119 126.116 70.7144 126.48 73.2072 125.857C75.7 125.233 84.373 108.199 88.3978 99.7599C86.8398 100.928 80.9973 105.525 70.0912 114.561C56.4586 125.857 39.3205 124.688 27.2459 118.067Z" fill="#263143"/>
<path d="M53.3904 80.2934C50.2382 77.2141 49.1205 70.4753 48.9557 67.4909C48.7371 70.9992 48.3008 78.0937 48.3045 78.4053C48.3081 78.7169 52.2463 82.3843 54.215 84.1791L60.0663 84.8896C59.1544 84.6406 56.5427 83.3727 53.3904 80.2934Z" fill="#263143"/>
<path d="M59.964 80.6742C55.9132 76.6233 54.9005 69.1189 54.9005 65.873L59.185 66.6521L85.6712 87.6852H78.2707L66.5856 85.7377C66.0663 85.7377 64.0149 84.725 59.964 80.6742Z" fill="#263143"/>
<path d="M64.0974 126.56L86.5331 125.244L100.755 90.4978C101.069 81.6268 101.355 66.6013 99.9912 77.4679C98.6272 88.3345 75.4936 114.723 64.0974 126.56Z" fill="#263143"/>
<path d="M65.2873 128.583C69.8575 127.336 86.5801 126.246 94.3702 125.856L95.4089 120.403L73.0774 123.519L63.7293 127.025L58.0166 130.53C58.5359 130.401 60.7172 129.829 65.2873 128.583Z" fill="#263143"/>
<path d="M54.9005 86.127C68.8872 87.756 97.4775 90.5255 99.9457 88.5706C102.414 86.6157 70.944 86.127 54.9005 86.127Z" fill="#263143"/>
<path d="M59.5746 83.011C56.147 79.895 54.7708 70.8066 54.5111 66.6519L59.9641 67.0414L70.0912 83.011V86.5165H66.9752C65.9365 86.6463 63.0023 86.127 59.5746 83.011Z" fill="#263143"/>
<path d="M61.305 147.543V160.983H59.945V153.903C59.945 152.53 59.985 151.203 60.065 149.923L57.325 157.403H55.825L53.045 149.923C53.1384 151.163 53.185 152.483 53.185 153.883V160.983H51.845V147.543H53.525L56.565 155.963L59.605 147.543H61.305ZM71.5316 150.543C71.5316 149.277 70.8716 148.643 69.5516 148.643C68.2449 148.643 67.5916 149.277 67.5916 150.543V157.983C67.5916 159.263 68.2449 159.903 69.5516 159.903C70.8716 159.903 71.5316 159.263 71.5316 157.983V150.543ZM66.1716 150.523C66.1716 149.577 66.4583 148.81 67.0316 148.223C67.6049 147.637 68.4449 147.343 69.5516 147.343C70.6716 147.343 71.5183 147.637 72.0916 148.223C72.6649 148.81 72.9516 149.577 72.9516 150.523V158.023C72.9516 158.97 72.6649 159.737 72.0916 160.323C71.5183 160.897 70.6716 161.183 69.5516 161.183C68.4316 161.183 67.5849 160.897 67.0116 160.323C66.4516 159.737 66.1716 158.97 66.1716 158.023V150.523ZM77.6122 150.283C77.6122 148.39 78.8122 147.443 81.2122 147.443C81.9855 147.443 82.7589 147.55 83.5322 147.763V149.083C82.7455 148.857 81.9589 148.743 81.1722 148.743C80.3855 148.743 79.8322 148.883 79.5122 149.163C79.1922 149.43 79.0322 149.83 79.0322 150.363V158.183C79.0322 158.703 79.1922 159.103 79.5122 159.383C79.8455 159.65 80.4189 159.783 81.2322 159.783C82.0589 159.783 82.8389 159.677 83.5722 159.463V160.763C82.9055 160.977 82.1189 161.083 81.2122 161.083C78.8122 161.083 77.6122 160.137 77.6122 158.243V150.283ZM93.6833 147.543H95.1233V160.983H93.6833V155.023H89.4033V160.983H87.9833V147.543H89.4033V153.763H93.6833V147.543ZM105.806 160.983L104.986 157.223H101.386L100.566 160.983H99.1456L102.186 147.543H104.186L107.226 160.983H105.806ZM101.646 155.983H104.706L103.166 148.923L101.646 155.983ZM117.144 150.283C117.144 148.39 118.344 147.443 120.744 147.443C121.518 147.443 122.291 147.55 123.064 147.763V149.083C122.278 148.857 121.491 148.743 120.704 148.743C119.918 148.743 119.364 148.883 119.044 149.163C118.724 149.43 118.564 149.83 118.564 150.363V158.183C118.564 158.703 118.724 159.103 119.044 159.383C119.378 159.65 119.951 159.783 120.764 159.783C121.591 159.783 122.371 159.677 123.104 159.463V160.763C122.438 160.977 121.651 161.083 120.744 161.083C118.344 161.083 117.144 160.137 117.144 158.243V150.283ZM127.515 147.543H128.935V159.743H133.015V160.983H127.515V147.543ZM141.948 150.543C141.948 149.277 141.288 148.643 139.968 148.643C138.661 148.643 138.008 149.277 138.008 150.543V157.983C138.008 159.263 138.661 159.903 139.968 159.903C141.288 159.903 141.948 159.263 141.948 157.983V150.543ZM136.588 150.523C136.588 149.577 136.875 148.81 137.448 148.223C138.021 147.637 138.861 147.343 139.968 147.343C141.088 147.343 141.935 147.637 142.508 148.223C143.081 148.81 143.368 149.577 143.368 150.523V158.023C143.368 158.97 143.081 159.737 142.508 160.323C141.935 160.897 141.088 161.183 139.968 161.183C138.848 161.183 138.001 160.897 137.428 160.323C136.868 159.737 136.588 158.97 136.588 158.023V150.523ZM153.469 147.543H154.889V158.023C154.889 158.97 154.602 159.737 154.029 160.323C153.469 160.897 152.629 161.183 151.509 161.183C150.389 161.183 149.542 160.897 148.969 160.323C148.409 159.737 148.129 158.97 148.129 158.023V147.543H149.549V157.983C149.549 159.263 150.202 159.903 151.509 159.903C152.815 159.903 153.469 159.263 153.469 157.983V147.543ZM165.185 150.583C165.185 149.383 164.552 148.783 163.285 148.783H161.265V159.723H163.285C164.552 159.723 165.185 159.11 165.185 157.883V150.583ZM159.845 147.543H163.365C164.432 147.543 165.238 147.817 165.785 148.363C166.332 148.91 166.605 149.643 166.605 150.563V157.923C166.605 158.87 166.338 159.617 165.805 160.163C165.272 160.71 164.472 160.983 163.405 160.983H159.845V147.543Z" fill="white"/>
</g>
<defs>
<clipPath id="clip0_279_3420">
<rect width="217" height="165" fill="white"/>
</clipPath>
</defs>
</svg>
