<svg width="32" height="32" viewBox="0 0 32 32" fill="none" xmlns="http://www.w3.org/2000/svg">
<g id="icon">
<path id="Vector" d="M16 5.33203C17.3968 5.35908 18.7273 5.93294 19.7055 6.93031C20.6837 7.92769 21.2317 9.26899 21.2317 10.666C21.2317 12.0631 20.6837 13.4044 19.7055 14.4017C18.7273 15.3991 17.3968 15.973 16 16C14.6033 15.973 13.2728 15.3991 12.2946 14.4017C11.3163 13.4044 10.7683 12.0631 10.7683 10.666C10.7683 9.26899 11.3163 7.92769 12.2946 6.93031C13.2728 5.93294 14.6033 5.35908 16 5.33203ZM16 8.00003C15.293 8.00003 14.6149 8.28091 14.1149 8.78088C13.6149 9.28086 13.334 9.95896 13.334 10.666C13.334 11.3731 13.6149 12.0512 14.1149 12.5512C14.6149 13.0511 15.293 13.332 16 13.332C16.7071 13.332 17.3852 13.0511 17.8852 12.5512C18.3852 12.0512 18.666 11.3731 18.666 10.666C18.666 9.95896 18.3852 9.28086 17.8852 8.78088C17.3852 8.28091 16.7071 8.00003 16 8.00003ZM16 17.332C19.559 17.332 26.668 19.105 26.668 22.668V26.668H5.33203V22.668C5.33203 19.105 12.442 17.332 16 17.332ZM16 19.867C12.04 19.867 7.86703 21.812 7.86703 22.668V24.133H24.133V22.668C24.133 21.813 19.961 19.867 16 19.867Z" fill="white" fill-opacity="0.7"/>
</g>
</svg>
