<svg width="1920" height="1080" viewBox="0 0 1920 1080" fill="none" xmlns="http://www.w3.org/2000/svg">
<g clip-path="url(#clip0_104_813)">
<rect width="1920" height="1080" fill="white"/>
<rect width="1920" height="1080" fill="#1D2025"/>
<g opacity="0.8" filter="url(#filter0_f_104_813)">
<ellipse cx="224.5" cy="85.5" rx="304.5" ry="180.5" fill="#333CFF" fill-opacity="0.3"/>
</g>
<g filter="url(#filter1_f_104_813)">
<ellipse cx="1509.5" cy="984" rx="609.5" ry="265" fill="#3360FF" fill-opacity="0.1"/>
</g>
<path d="M230.653 111.03C225.115 111.557 224.694 112.145 224.369 120.976C224.368 120.983 224.364 120.989 224.358 120.993C224.353 120.998 224.346 121 224.339 121C224.332 121 224.326 120.998 224.32 120.993C224.315 120.989 224.311 120.983 224.309 120.976C223.983 112.145 223.562 111.557 218.024 111.03C218.017 111.028 218.011 111.025 218.007 111.019C218.002 111.014 218 111.007 218 111C218 110.993 218.002 110.986 218.007 110.981C218.011 110.975 218.017 110.972 218.024 110.97C223.562 110.443 223.983 109.855 224.309 101.024C224.311 101.017 224.315 101.011 224.32 101.007C224.326 101.002 224.332 101 224.339 101C224.346 101 224.353 101.002 224.358 101.007C224.364 101.011 224.368 101.017 224.369 101.024C224.694 109.855 225.115 110.443 230.653 110.97C230.66 110.972 230.666 110.975 230.67 110.981C230.675 110.986 230.677 110.993 230.677 111C230.677 111.007 230.675 111.014 230.67 111.019C230.666 111.025 230.66 111.028 230.653 111.03Z" fill="white"/>
<path d="M1422.05 978.346C1416.61 977.198 1416.03 977.634 1413.09 985.967C1413.08 985.973 1413.08 985.977 1413.07 985.98C1413.06 985.982 1413.06 985.983 1413.05 985.98C1413.04 985.978 1413.04 985.974 1413.03 985.968C1413.03 985.963 1413.03 985.956 1413.03 985.949C1415.35 977.422 1415.12 976.736 1409.99 974.581C1409.99 974.577 1409.98 974.572 1409.98 974.566C1409.98 974.559 1409.98 974.552 1409.98 974.545C1409.98 974.539 1409.99 974.533 1409.99 974.529C1410 974.525 1410.01 974.523 1410.01 974.524C1415.46 975.671 1416.03 975.236 1418.98 966.904C1418.98 966.898 1418.99 966.893 1418.99 966.891C1419 966.888 1419.01 966.888 1419.01 966.89C1419.02 966.892 1419.03 966.896 1419.03 966.902C1419.03 966.908 1419.04 966.915 1419.04 966.921C1416.71 975.448 1416.94 976.134 1422.07 978.289C1422.07 978.292 1422.08 978.298 1422.08 978.304C1422.08 978.311 1422.08 978.318 1422.08 978.325C1422.08 978.331 1422.08 978.337 1422.07 978.341C1422.06 978.345 1422.06 978.347 1422.05 978.346Z" fill="white"/>
<path d="M1221.07 845.13C1223.09 839.946 1222.76 839.306 1215.01 835.046C1215.01 835.042 1215 835.036 1215 835.029C1215 835.022 1215 835.015 1215.01 835.009C1215.01 835.003 1215.01 834.998 1215.02 834.995C1215.03 834.992 1215.03 834.991 1215.04 834.993C1223.08 838.67 1223.79 838.558 1226.75 833.848C1226.76 833.843 1226.76 833.839 1226.77 833.838C1226.77 833.836 1226.78 833.837 1226.79 833.84C1226.79 833.843 1226.8 833.849 1226.8 833.855C1226.81 833.861 1226.81 833.868 1226.8 833.875C1224.79 839.059 1225.12 839.699 1232.86 843.96C1232.87 843.965 1232.87 843.971 1232.87 843.978C1232.88 843.984 1232.88 843.991 1232.87 843.998C1232.87 844.004 1232.86 844.009 1232.86 844.012C1232.85 844.015 1232.84 844.015 1232.84 844.014C1224.8 840.335 1224.09 840.447 1221.13 845.157C1221.12 845.162 1221.12 845.166 1221.11 845.167C1221.1 845.169 1221.1 845.168 1221.09 845.165C1221.08 845.162 1221.08 845.156 1221.08 845.15C1221.07 845.144 1221.07 845.137 1221.07 845.13Z" fill="white"/>
<path d="M284.653 215.03C279.115 215.557 278.694 216.145 278.369 224.976C278.368 224.983 278.364 224.989 278.358 224.993C278.353 224.998 278.346 225 278.339 225C278.332 225 278.326 224.998 278.32 224.993C278.315 224.989 278.311 224.983 278.309 224.976C277.983 216.145 277.562 215.557 272.024 215.03C272.017 215.028 272.011 215.025 272.007 215.019C272.002 215.014 272 215.007 272 215C272 214.993 272.002 214.986 272.007 214.981C272.011 214.975 272.017 214.972 272.024 214.97C277.562 214.443 277.983 213.855 278.309 205.024C278.311 205.017 278.315 205.011 278.32 205.007C278.326 205.002 278.332 205 278.339 205C278.346 205 278.353 205.002 278.358 205.007C278.364 205.011 278.368 205.017 278.369 205.024C278.694 213.855 279.115 214.443 284.653 214.97C284.66 214.972 284.666 214.975 284.67 214.981C284.675 214.986 284.677 214.993 284.677 215C284.677 215.007 284.675 215.014 284.67 215.019C284.666 215.025 284.66 215.028 284.653 215.03Z" fill="white"/>
<path d="M1659.77 1007.31C1654.33 1006.16 1653.75 1006.6 1650.81 1014.93C1650.81 1014.94 1650.8 1014.94 1650.8 1014.95C1650.79 1014.95 1650.78 1014.95 1650.78 1014.95C1650.77 1014.94 1650.76 1014.94 1650.76 1014.93C1650.75 1014.93 1650.75 1014.92 1650.75 1014.91C1653.07 1006.39 1652.85 1005.7 1647.72 1003.55C1647.71 1003.54 1647.71 1003.54 1647.71 1003.53C1647.7 1003.52 1647.7 1003.52 1647.71 1003.51C1647.71 1003.5 1647.71 1003.5 1647.72 1003.49C1647.72 1003.49 1647.73 1003.49 1647.74 1003.49C1653.18 1004.64 1653.76 1004.2 1656.7 995.869C1656.71 995.863 1656.71 995.858 1656.72 995.856C1656.72 995.853 1656.73 995.853 1656.74 995.855C1656.74 995.857 1656.75 995.862 1656.75 995.867C1656.76 995.873 1656.76 995.88 1656.76 995.887C1654.44 1004.41 1654.66 1005.1 1659.79 1007.25C1659.8 1007.26 1659.8 1007.26 1659.81 1007.27C1659.81 1007.28 1659.81 1007.28 1659.81 1007.29C1659.8 1007.3 1659.8 1007.3 1659.79 1007.31C1659.79 1007.31 1659.78 1007.31 1659.77 1007.31Z" fill="white"/>
<path d="M96.6532 28.0301C91.1149 28.5574 90.694 29.1449 90.3694 37.9763C90.3677 37.9831 90.3639 37.9891 90.3584 37.9934C90.353 37.9977 90.3462 38 90.3393 38C90.3324 38 90.3256 37.9977 90.3202 37.9934C90.3147 37.9891 90.3109 37.9831 90.3092 37.9763C89.9828 29.1449 89.562 28.5574 84.0237 28.0301C84.0169 28.0284 84.0109 28.0246 84.0066 28.0191C84.0023 28.0137 84 28.0069 84 28C84 27.9931 84.0023 27.9863 84.0066 27.9809C84.0109 27.9754 84.0169 27.9716 84.0237 27.9699C89.562 27.4426 89.9828 26.8551 90.3092 18.0237C90.3109 18.0169 90.3147 18.0109 90.3202 18.0066C90.3256 18.0023 90.3324 18 90.3393 18C90.3462 18 90.353 18.0023 90.3584 18.0066C90.3639 18.0109 90.3677 18.0169 90.3694 18.0237C90.694 26.8551 91.1149 27.4426 96.6532 27.9699C96.6599 27.9716 96.666 27.9754 96.6702 27.9809C96.6745 27.9863 96.6769 27.9931 96.6769 28C96.6769 28.0069 96.6745 28.0137 96.6702 28.0191C96.666 28.0246 96.6599 28.0284 96.6532 28.0301Z" fill="white"/>
<path d="M1538.1 780.346C1532.66 779.198 1532.08 779.634 1529.14 787.967C1529.13 787.973 1529.13 787.977 1529.12 787.98C1529.12 787.982 1529.11 787.983 1529.1 787.98C1529.1 787.978 1529.09 787.974 1529.09 787.968C1529.08 787.963 1529.08 787.956 1529.08 787.949C1531.4 779.422 1531.18 778.736 1526.05 776.581C1526.04 776.577 1526.04 776.572 1526.03 776.566C1526.03 776.559 1526.03 776.552 1526.03 776.545C1526.03 776.539 1526.04 776.533 1526.04 776.529C1526.05 776.525 1526.06 776.523 1526.06 776.524C1531.51 777.671 1532.08 777.236 1535.03 768.904C1535.03 768.898 1535.04 768.893 1535.04 768.891C1535.05 768.888 1535.06 768.888 1535.06 768.89C1535.07 768.892 1535.08 768.896 1535.08 768.902C1535.08 768.908 1535.09 768.915 1535.09 768.921C1532.76 777.448 1532.99 778.134 1538.12 780.289C1538.13 780.292 1538.13 780.298 1538.13 780.304C1538.13 780.311 1538.13 780.318 1538.13 780.325C1538.13 780.331 1538.13 780.337 1538.12 780.341C1538.12 780.345 1538.11 780.347 1538.1 780.346Z" fill="white"/>
<path d="M1600.92 1023.78C1602.93 1018.6 1602.6 1017.96 1594.86 1013.7C1594.85 1013.7 1594.85 1013.69 1594.85 1013.68C1594.84 1013.68 1594.85 1013.67 1594.85 1013.66C1594.85 1013.66 1594.86 1013.65 1594.86 1013.65C1594.87 1013.65 1594.88 1013.65 1594.88 1013.65C1602.92 1017.32 1603.63 1017.21 1606.59 1012.5C1606.6 1012.5 1606.6 1012.49 1606.61 1012.49C1606.62 1012.49 1606.62 1012.49 1606.63 1012.49C1606.64 1012.5 1606.64 1012.5 1606.64 1012.51C1606.65 1012.52 1606.65 1012.52 1606.65 1012.53C1604.63 1017.71 1604.96 1018.35 1612.71 1022.61C1612.71 1022.62 1612.72 1022.62 1612.72 1022.63C1612.72 1022.64 1612.72 1022.65 1612.71 1022.65C1612.71 1022.66 1612.71 1022.66 1612.7 1022.67C1612.69 1022.67 1612.69 1022.67 1612.68 1022.67C1604.64 1018.99 1603.93 1019.1 1600.97 1023.81C1600.97 1023.82 1600.96 1023.82 1600.95 1023.82C1600.95 1023.82 1600.94 1023.82 1600.93 1023.82C1600.93 1023.82 1600.92 1023.81 1600.92 1023.8C1600.92 1023.8 1600.92 1023.79 1600.92 1023.78Z" fill="white"/>
<path d="M62.9711 143.523C56.4183 143.918 55.9203 144.359 55.5362 150.982C55.5342 150.987 55.5297 150.992 55.5232 150.995C55.5168 150.998 55.5088 151 55.5006 151C55.4924 151 55.4844 150.998 55.4779 150.995C55.4715 150.992 55.4669 150.987 55.465 150.982C55.0788 144.359 54.5809 143.918 48.028 143.523C48.02 143.521 48.0129 143.518 48.0078 143.514C48.0028 143.51 48 143.505 48 143.5C48 143.495 48.0028 143.49 48.0078 143.486C48.0129 143.482 48.02 143.479 48.028 143.477C54.5809 143.082 55.0788 142.641 55.465 136.018C55.4669 136.013 55.4715 136.008 55.4779 136.005C55.4844 136.002 55.4924 136 55.5006 136C55.5088 136 55.5168 136.002 55.5232 136.005C55.5297 136.008 55.5342 136.013 55.5362 136.018C55.9203 142.641 56.4183 143.082 62.9711 143.477C62.9791 143.479 62.9862 143.482 62.9913 143.486C62.9964 143.49 62.9991 143.495 62.9991 143.5C62.9991 143.505 62.9964 143.51 62.9913 143.514C62.9862 143.518 62.9791 143.521 62.9711 143.523Z" fill="white"/>
<path d="M1471.52 880.545C1465.15 878.969 1464.54 879.241 1462.2 885.449C1462.2 885.454 1462.19 885.456 1462.18 885.458C1462.18 885.459 1462.17 885.458 1462.16 885.456C1462.15 885.453 1462.14 885.449 1462.14 885.444C1462.13 885.439 1462.13 885.433 1462.13 885.428C1463.74 878.991 1463.39 878.422 1457.26 876.09C1457.25 876.087 1457.24 876.082 1457.24 876.077C1457.24 876.071 1457.23 876.066 1457.24 876.061C1457.24 876.056 1457.24 876.052 1457.25 876.049C1457.25 876.047 1457.26 876.046 1457.27 876.047C1463.64 877.623 1464.25 877.351 1466.59 871.144C1466.6 871.14 1466.6 871.137 1466.61 871.136C1466.62 871.135 1466.62 871.135 1466.63 871.138C1466.64 871.14 1466.65 871.144 1466.65 871.149C1466.66 871.154 1466.66 871.16 1466.66 871.165C1465.05 877.602 1465.4 878.171 1471.53 880.502C1471.54 880.506 1471.55 880.511 1471.55 880.516C1471.55 880.522 1471.55 880.527 1471.55 880.532C1471.55 880.537 1471.55 880.541 1471.54 880.544C1471.53 880.546 1471.53 880.547 1471.52 880.545Z" fill="white"/>
<path d="M1267.41 680.735C1270 674.703 1269.83 674.06 1264.09 670.74C1264.09 670.736 1264.08 670.73 1264.08 670.723C1264.08 670.716 1264.09 670.708 1264.09 670.7C1264.09 670.693 1264.1 670.687 1264.1 670.682C1264.11 670.678 1264.12 670.676 1264.12 670.677C1270.21 673.309 1270.83 673.062 1274.13 667.386C1274.13 667.379 1274.14 667.374 1274.14 667.371C1274.15 667.369 1274.16 667.369 1274.16 667.371C1274.17 667.373 1274.17 667.378 1274.17 667.384C1274.17 667.391 1274.17 667.398 1274.17 667.406C1271.58 673.438 1271.75 674.08 1277.49 677.402C1277.49 677.406 1277.5 677.412 1277.5 677.42C1277.5 677.427 1277.49 677.435 1277.49 677.442C1277.49 677.449 1277.48 677.456 1277.47 677.46C1277.47 677.464 1277.46 677.466 1277.46 677.466C1271.37 674.832 1270.75 675.079 1267.45 680.755C1267.45 680.761 1267.44 680.767 1267.44 680.769C1267.43 680.772 1267.42 680.772 1267.42 680.77C1267.41 680.767 1267.41 680.763 1267.41 680.756C1267.41 680.75 1267.41 680.742 1267.41 680.735Z" fill="white"/>
<path d="M161.971 232.523C155.418 232.918 154.92 233.359 154.536 239.982C154.534 239.987 154.53 239.992 154.523 239.995C154.517 239.998 154.509 240 154.501 240C154.492 240 154.484 239.998 154.478 239.995C154.471 239.992 154.467 239.987 154.465 239.982C154.079 233.359 153.581 232.918 147.028 232.523C147.02 232.521 147.013 232.518 147.008 232.514C147.003 232.51 147 232.505 147 232.5C147 232.495 147.003 232.49 147.008 232.486C147.013 232.482 147.02 232.479 147.028 232.477C153.581 232.082 154.079 231.641 154.465 225.018C154.467 225.013 154.471 225.008 154.478 225.005C154.484 225.002 154.492 225 154.501 225C154.509 225 154.517 225.002 154.523 225.005C154.53 225.008 154.534 225.013 154.536 225.018C154.92 231.641 155.418 232.082 161.971 232.477C161.979 232.479 161.986 232.482 161.991 232.486C161.996 232.49 161.999 232.495 161.999 232.5C161.999 232.505 161.996 232.51 161.991 232.514C161.986 232.518 161.979 232.521 161.971 232.523Z" fill="white"/>
<path d="M1537.46 987.434C1531.08 985.858 1530.48 986.13 1528.14 992.338C1528.13 992.342 1528.13 992.345 1528.12 992.346C1528.11 992.347 1528.1 992.347 1528.1 992.344C1528.09 992.342 1528.08 992.338 1528.08 992.333C1528.07 992.328 1528.07 992.322 1528.07 992.317C1529.67 985.879 1529.33 985.31 1523.19 982.979C1523.19 982.976 1523.18 982.971 1523.18 982.965C1523.17 982.96 1523.17 982.954 1523.17 982.949C1523.17 982.944 1523.18 982.94 1523.18 982.938C1523.19 982.935 1523.2 982.935 1523.21 982.936C1529.58 984.512 1530.19 984.24 1532.53 978.033C1532.53 978.028 1532.54 978.026 1532.54 978.024C1532.55 978.023 1532.56 978.024 1532.57 978.026C1532.58 978.029 1532.58 978.033 1532.59 978.038C1532.59 978.043 1532.6 978.049 1532.6 978.054C1530.99 984.491 1531.33 985.06 1537.47 987.391C1537.48 987.395 1537.48 987.399 1537.49 987.405C1537.49 987.41 1537.49 987.416 1537.49 987.421C1537.49 987.426 1537.48 987.43 1537.48 987.432C1537.47 987.435 1537.46 987.435 1537.46 987.434Z" fill="white"/>
<path d="M327.971 136.523C321.418 136.918 320.92 137.359 320.536 143.982C320.534 143.987 320.53 143.992 320.523 143.995C320.517 143.998 320.509 144 320.501 144C320.492 144 320.484 143.998 320.478 143.995C320.471 143.992 320.467 143.987 320.465 143.982C320.079 137.359 319.581 136.918 313.028 136.523C313.02 136.521 313.013 136.518 313.008 136.514C313.003 136.51 313 136.505 313 136.5C313 136.495 313.003 136.49 313.008 136.486C313.013 136.482 313.02 136.479 313.028 136.477C319.581 136.082 320.079 135.641 320.465 129.018C320.467 129.013 320.471 129.008 320.478 129.005C320.484 129.002 320.492 129 320.501 129C320.509 129 320.517 129.002 320.523 129.005C320.53 129.008 320.534 129.013 320.536 129.018C320.92 135.641 321.418 136.082 327.971 136.477C327.979 136.479 327.986 136.482 327.991 136.486C327.996 136.49 327.999 136.495 327.999 136.5C327.999 136.505 327.996 136.51 327.991 136.514C327.986 136.518 327.979 136.521 327.971 136.523Z" fill="white"/>
<path d="M1724.53 945.288C1718.15 943.712 1717.55 943.984 1715.21 950.192C1715.2 950.196 1715.2 950.199 1715.19 950.2C1715.18 950.202 1715.17 950.201 1715.17 950.198C1715.16 950.196 1715.15 950.192 1715.15 950.187C1715.14 950.182 1715.14 950.176 1715.14 950.171C1716.74 943.733 1716.4 943.164 1710.26 940.833C1710.26 940.83 1710.25 940.825 1710.25 940.819C1710.24 940.814 1710.24 940.808 1710.24 940.803C1710.25 940.798 1710.25 940.794 1710.26 940.792C1710.26 940.79 1710.27 940.789 1710.28 940.79C1716.65 942.366 1717.26 942.094 1719.6 935.887C1719.6 935.883 1719.61 935.88 1719.62 935.879C1719.62 935.877 1719.63 935.878 1719.64 935.881C1719.65 935.883 1719.65 935.887 1719.66 935.892C1719.66 935.897 1719.67 935.903 1719.67 935.908C1718.06 942.345 1718.4 942.914 1724.54 945.245C1724.55 945.249 1724.55 945.254 1724.56 945.259C1724.56 945.264 1724.56 945.27 1724.56 945.275C1724.56 945.28 1724.55 945.284 1724.55 945.286C1724.54 945.289 1724.54 945.289 1724.53 945.288Z" fill="white"/>
<path d="M395.958 27.0331C386.347 27.6132 385.616 28.2594 385.053 37.974C385.05 37.9814 385.044 37.988 385.034 37.9927C385.025 37.9974 385.013 38 385.001 38C384.989 38 384.977 37.9974 384.968 37.9927C384.958 37.988 384.952 37.9814 384.949 37.974C384.382 28.2594 383.652 27.6132 374.041 27.0331C374.029 27.0313 374.019 27.027 374.012 27.021C374.004 27.0151 374 27.0076 374 27C374 26.9924 374.004 26.985 374.012 26.979C374.019 26.973 374.029 26.9687 374.041 26.9669C383.652 26.3868 384.382 25.7406 384.949 16.0261C384.952 16.0186 384.958 16.012 384.968 16.0073C384.977 16.0026 384.989 16 385.001 16C385.013 16 385.025 16.0026 385.034 16.0073C385.044 16.012 385.05 16.0186 385.053 16.0261C385.616 25.7406 386.347 26.3868 395.958 26.9669C395.969 26.9687 395.98 26.973 395.987 26.979C395.995 26.985 395.999 26.9924 395.999 27C395.999 27.0076 395.995 27.0151 395.987 27.021C395.98 27.027 395.969 27.0313 395.958 27.0331Z" fill="white"/>
<path d="M1822.06 861.046C1812.72 858.734 1811.83 859.134 1808.39 868.238C1808.39 868.245 1808.38 868.249 1808.37 868.251C1808.36 868.252 1808.35 868.251 1808.34 868.248C1808.32 868.244 1808.31 868.238 1808.31 868.231C1808.3 868.224 1808.29 868.215 1808.29 868.207C1810.65 858.766 1810.14 857.931 1801.14 854.512C1801.13 854.507 1801.12 854.5 1801.12 854.492C1801.11 854.484 1801.11 854.476 1801.11 854.468C1801.12 854.461 1801.12 854.455 1801.13 854.452C1801.14 854.448 1801.15 854.447 1801.16 854.449C1810.51 856.76 1811.4 856.361 1814.84 847.257C1814.84 847.251 1814.85 847.247 1814.86 847.245C1814.87 847.244 1814.88 847.245 1814.89 847.248C1814.91 847.252 1814.92 847.258 1814.92 847.265C1814.93 847.272 1814.94 847.281 1814.94 847.289C1812.58 856.729 1813.08 857.564 1822.08 860.983C1822.09 860.988 1822.1 860.995 1822.11 861.003C1822.11 861.011 1822.11 861.019 1822.11 861.027C1822.11 861.034 1822.1 861.04 1822.1 861.043C1822.09 861.047 1822.08 861.048 1822.06 861.046Z" fill="white"/>
<path d="M1221.82 1030.55C1225.62 1021.7 1225.37 1020.76 1216.94 1015.89C1216.94 1015.89 1216.93 1015.88 1216.93 1015.87C1216.93 1015.86 1216.94 1015.84 1216.94 1015.83C1216.95 1015.82 1216.96 1015.81 1216.96 1015.81C1216.97 1015.8 1216.98 1015.8 1216.99 1015.8C1225.92 1019.66 1226.83 1019.3 1231.67 1010.97C1231.67 1010.96 1231.68 1010.95 1231.69 1010.95C1231.7 1010.95 1231.71 1010.95 1231.71 1010.95C1231.72 1010.95 1231.73 1010.96 1231.73 1010.97C1231.73 1010.98 1231.73 1010.99 1231.72 1011C1227.92 1019.85 1228.17 1020.79 1236.6 1025.66C1236.6 1025.67 1236.6 1025.68 1236.6 1025.69C1236.6 1025.7 1236.6 1025.71 1236.6 1025.72C1236.59 1025.73 1236.58 1025.74 1236.57 1025.75C1236.57 1025.75 1236.56 1025.76 1236.55 1025.76C1227.62 1021.89 1226.71 1022.25 1221.87 1030.58C1221.87 1030.59 1221.86 1030.6 1221.85 1030.6C1221.84 1030.6 1221.83 1030.6 1221.83 1030.6C1221.82 1030.6 1221.81 1030.59 1221.81 1030.58C1221.81 1030.57 1221.81 1030.56 1221.82 1030.55Z" fill="white"/>
<path d="M223.946 182.544C211.276 183.308 210.313 184.16 209.571 196.966C209.567 196.975 209.558 196.984 209.546 196.99C209.533 196.997 209.518 197 209.502 197C209.486 197 209.471 196.997 209.458 196.99C209.446 196.984 209.437 196.975 209.433 196.966C208.687 184.16 207.724 183.308 195.054 182.544C195.039 182.541 195.025 182.536 195.015 182.528C195.005 182.52 195 182.51 195 182.5C195 182.49 195.005 182.48 195.015 182.472C195.025 182.464 195.039 182.459 195.054 182.456C207.724 181.692 208.687 180.84 209.433 168.034C209.437 168.025 209.446 168.016 209.458 168.01C209.471 168.003 209.486 168 209.502 168C209.518 168 209.533 168.003 209.546 168.01C209.558 168.016 209.567 168.025 209.571 168.034C210.313 180.84 211.276 181.692 223.946 182.456C223.961 182.459 223.975 182.464 223.985 182.472C223.995 182.48 224 182.49 224 182.5C224 182.51 223.995 182.52 223.985 182.528C223.975 182.536 223.961 182.541 223.946 182.544Z" fill="white"/>
<path d="M1611.51 958.204C1599.19 955.157 1598.02 955.683 1593.49 967.685C1593.49 967.693 1593.47 967.698 1593.46 967.701C1593.45 967.703 1593.43 967.702 1593.42 967.697C1593.4 967.692 1593.39 967.684 1593.38 967.675C1593.37 967.665 1593.36 967.654 1593.36 967.644C1596.47 955.198 1595.8 954.098 1583.93 949.591C1583.92 949.584 1583.91 949.574 1583.9 949.564C1583.9 949.553 1583.89 949.542 1583.9 949.533C1583.9 949.523 1583.91 949.515 1583.92 949.511C1583.93 949.506 1583.95 949.505 1583.96 949.507C1596.28 952.555 1597.46 952.028 1601.99 940.028C1601.99 940.02 1602 940.014 1602.02 940.012C1602.03 940.009 1602.05 940.011 1602.06 940.016C1602.08 940.02 1602.09 940.028 1602.1 940.038C1602.11 940.047 1602.12 940.058 1602.12 940.069C1599.01 952.513 1599.67 953.614 1611.54 958.121C1611.55 958.127 1611.56 958.137 1611.57 958.147C1611.58 958.158 1611.58 958.169 1611.58 958.178C1611.57 958.188 1611.57 958.196 1611.55 958.2C1611.54 958.205 1611.53 958.206 1611.51 958.204Z" fill="white"/>
<path d="M142.981 43.015C138.613 43.2787 138.281 43.5725 138.024 47.9882C138.023 47.9915 138.02 47.9945 138.016 47.9967C138.011 47.9988 138.006 48 138.001 48C137.995 48 137.99 47.9988 137.986 47.9967C137.981 47.9945 137.978 47.9915 137.977 47.9882C137.719 43.5725 137.387 43.2787 133.019 43.015C133.013 43.0142 133.009 43.0123 133.005 43.0096C133.002 43.0068 133 43.0035 133 43C133 42.9965 133.002 42.9932 133.005 42.9904C133.009 42.9877 133.013 42.9858 133.019 42.985C137.387 42.7213 137.719 42.4275 137.977 38.0118C137.978 38.0085 137.981 38.0055 137.986 38.0033C137.99 38.0012 137.995 38 138.001 38C138.006 38 138.011 38.0012 138.016 38.0033C138.02 38.0055 138.023 38.0085 138.024 38.0118C138.281 42.4275 138.613 42.7213 142.981 42.985C142.987 42.9858 142.991 42.9877 142.995 42.9904C142.998 42.9932 143 42.9965 143 43C143 43.0035 142.998 43.0068 142.995 43.0096C142.991 43.0123 142.987 43.0142 142.981 43.015Z" fill="white"/>
<path d="M1577.86 808.461C1573.61 807.411 1573.2 807.592 1571.64 811.73C1571.64 811.733 1571.63 811.735 1571.63 811.736C1571.63 811.737 1571.62 811.736 1571.61 811.735C1571.61 811.733 1571.6 811.73 1571.6 811.727C1571.6 811.724 1571.6 811.72 1571.6 811.716C1572.67 807.425 1572.44 807.045 1568.35 805.491C1568.34 805.489 1568.34 805.486 1568.33 805.482C1568.33 805.478 1568.33 805.475 1568.33 805.471C1568.33 805.468 1568.34 805.465 1568.34 805.464C1568.34 805.462 1568.35 805.462 1568.35 805.462C1572.6 806.513 1573.01 806.332 1574.57 802.194C1574.57 802.191 1574.58 802.189 1574.58 802.188C1574.59 802.187 1574.59 802.188 1574.6 802.189C1574.6 802.191 1574.61 802.194 1574.61 802.197C1574.61 802.2 1574.61 802.204 1574.62 802.208C1573.54 806.499 1573.77 806.878 1577.86 808.433C1577.87 808.435 1577.87 808.438 1577.88 808.442C1577.88 808.445 1577.88 808.449 1577.88 808.452C1577.88 808.456 1577.87 808.458 1577.87 808.46C1577.87 808.462 1577.86 808.462 1577.86 808.461Z" fill="white"/>
<path d="M1321.24 797.38C1322.96 793.359 1322.85 792.931 1319.02 790.717C1319.02 790.715 1319.02 790.711 1319.02 790.706C1319.02 790.701 1319.02 790.696 1319.02 790.691C1319.02 790.686 1319.03 790.682 1319.03 790.679C1319.04 790.676 1319.04 790.675 1319.04 790.675C1323.1 792.43 1323.51 792.265 1325.71 788.481C1325.72 788.476 1325.72 788.473 1325.72 788.471C1325.73 788.469 1325.73 788.469 1325.74 788.471C1325.74 788.472 1325.74 788.476 1325.74 788.48C1325.74 788.484 1325.74 788.489 1325.74 788.494C1324.01 792.515 1324.13 792.944 1327.95 795.159C1327.96 795.161 1327.96 795.165 1327.96 795.17C1327.96 795.175 1327.96 795.18 1327.95 795.185C1327.95 795.19 1327.95 795.194 1327.94 795.197C1327.94 795.2 1327.94 795.201 1327.93 795.201C1323.87 793.445 1323.46 793.61 1321.26 797.394C1321.26 797.398 1321.26 797.402 1321.25 797.404C1321.25 797.405 1321.24 797.405 1321.24 797.404C1321.24 797.402 1321.24 797.399 1321.24 797.395C1321.23 797.391 1321.23 797.386 1321.24 797.38Z" fill="white"/>
<path d="M93.9813 313.015C89.6125 313.279 89.2805 313.572 89.0244 317.988C89.0231 317.992 89.0201 317.995 89.0158 317.997C89.0115 317.999 89.0062 318 89.0007 318C88.9952 318 88.9899 317.999 88.9856 317.997C88.9813 317.995 88.9782 317.992 88.977 317.988C88.7195 313.572 88.3875 313.279 84.0187 313.015C84.0134 313.014 84.0086 313.012 84.0052 313.01C84.0018 313.007 84 313.003 84 313C84 312.997 84.0018 312.993 84.0052 312.99C84.0086 312.988 84.0134 312.986 84.0187 312.985C88.3875 312.721 88.7195 312.428 88.977 308.012C88.9782 308.008 88.9813 308.005 88.9856 308.003C88.9899 308.001 88.9952 308 89.0007 308C89.0062 308 89.0115 308.001 89.0158 308.003C89.0201 308.005 89.0231 308.008 89.0244 308.012C89.2805 312.428 89.6125 312.721 93.9813 312.985C93.9866 312.986 93.9914 312.988 93.9948 312.99C93.9982 312.993 94 312.997 94 313C94 313.003 93.9982 313.007 93.9948 313.01C93.9914 313.012 93.9866 313.014 93.9813 313.015Z" fill="white"/>
<path d="M1448.56 1044C1444.31 1042.95 1443.91 1043.13 1442.35 1047.27C1442.34 1047.27 1442.34 1047.27 1442.34 1047.27C1442.33 1047.27 1442.33 1047.27 1442.32 1047.27C1442.32 1047.27 1442.31 1047.27 1442.31 1047.26C1442.3 1047.26 1442.3 1047.26 1442.3 1047.25C1443.37 1042.96 1443.14 1042.58 1439.05 1041.03C1439.05 1041.02 1439.04 1041.02 1439.04 1041.02C1439.04 1041.01 1439.04 1041.01 1439.04 1041.01C1439.04 1041 1439.04 1041 1439.05 1041C1439.05 1041 1439.05 1041 1439.06 1041C1443.31 1042.05 1443.71 1041.87 1445.28 1037.73C1445.28 1037.73 1445.28 1037.72 1445.29 1037.72C1445.29 1037.72 1445.3 1037.72 1445.3 1037.73C1445.31 1037.73 1445.31 1037.73 1445.32 1037.73C1445.32 1037.74 1445.32 1037.74 1445.32 1037.74C1444.25 1042.03 1444.48 1042.41 1448.57 1043.97C1448.57 1043.97 1448.58 1043.97 1448.58 1043.98C1448.58 1043.98 1448.58 1043.98 1448.58 1043.99C1448.58 1043.99 1448.58 1043.99 1448.58 1044C1448.57 1044 1448.57 1044 1448.56 1044Z" fill="white"/>
<path d="M438.968 119.526C431.541 119.974 430.977 120.473 430.541 127.98C430.539 127.986 430.534 127.991 430.527 127.994C430.519 127.998 430.51 128 430.501 128C430.492 128 430.483 127.998 430.475 127.994C430.468 127.991 430.463 127.986 430.461 127.98C430.023 120.473 429.459 119.974 422.032 119.526C422.023 119.524 422.015 119.521 422.009 119.516C422.003 119.512 422 119.506 422 119.5C422 119.494 422.003 119.488 422.009 119.484C422.015 119.479 422.023 119.476 422.032 119.474C429.459 119.026 430.023 118.527 430.461 111.02C430.463 111.014 430.468 111.009 430.475 111.006C430.483 111.002 430.492 111 430.501 111C430.51 111 430.519 111.002 430.527 111.006C430.534 111.009 430.539 111.014 430.541 111.02C430.977 118.527 431.541 119.026 438.968 119.474C438.977 119.476 438.985 119.479 438.991 119.484C438.997 119.488 439 119.494 439 119.5C439 119.506 438.997 119.512 438.991 119.516C438.985 119.521 438.977 119.524 438.968 119.526Z" fill="white"/>
<path d="M1835.54 962.155C1828.32 960.369 1827.63 960.677 1824.98 967.713C1824.98 967.717 1824.97 967.721 1824.96 967.722C1824.95 967.723 1824.94 967.723 1824.94 967.72C1824.93 967.717 1824.92 967.712 1824.91 967.707C1824.91 967.701 1824.9 967.695 1824.9 967.689C1826.72 960.393 1826.33 959.748 1819.38 957.106C1819.37 957.102 1819.36 957.096 1819.36 957.09C1819.35 957.084 1819.35 957.078 1819.36 957.072C1819.36 957.066 1819.36 957.062 1819.37 957.059C1819.38 957.056 1819.38 957.056 1819.39 957.057C1826.62 958.843 1827.3 958.535 1829.96 951.5C1829.96 951.495 1829.97 951.492 1829.98 951.491C1829.99 951.489 1829.99 951.49 1830 951.493C1830.01 951.496 1830.02 951.5 1830.03 951.506C1830.03 951.512 1830.04 951.518 1830.04 951.524C1828.21 958.819 1828.6 959.464 1835.56 962.106C1835.57 962.11 1835.57 962.116 1835.58 962.122C1835.58 962.128 1835.58 962.134 1835.58 962.14C1835.58 962.146 1835.58 962.15 1835.57 962.153C1835.56 962.156 1835.55 962.156 1835.54 962.155Z" fill="white"/>
<path d="M1842.98 78.015C1838.61 78.2787 1838.28 78.5725 1838.02 82.9882C1838.02 82.9915 1838.02 82.9945 1838.02 82.9967C1838.01 82.9988 1838.01 83 1838 83C1837.99 83 1837.99 82.9988 1837.99 82.9967C1837.98 82.9945 1837.98 82.9915 1837.98 82.9882C1837.72 78.5725 1837.39 78.2787 1833.02 78.015C1833.01 78.0142 1833.01 78.0123 1833.01 78.0096C1833 78.0068 1833 78.0035 1833 78C1833 77.9965 1833 77.9932 1833.01 77.9904C1833.01 77.9877 1833.01 77.9858 1833.02 77.985C1837.39 77.7213 1837.72 77.4275 1837.98 73.0118C1837.98 73.0085 1837.98 73.0055 1837.99 73.0033C1837.99 73.0012 1837.99 73 1838 73C1838.01 73 1838.01 73.0012 1838.02 73.0033C1838.02 73.0055 1838.02 73.0085 1838.02 73.0118C1838.28 77.4275 1838.61 77.7213 1842.98 77.985C1842.99 77.9858 1842.99 77.9877 1842.99 77.9904C1843 77.9932 1843 77.9965 1843 78C1843 78.0035 1843 78.0068 1842.99 78.0096C1842.99 78.0123 1842.99 78.0142 1842.98 78.015Z" fill="white"/>
<path d="M1597.98 408.015C1593.61 408.279 1593.28 408.572 1593.02 412.988C1593.02 412.992 1593.02 412.995 1593.02 412.997C1593.01 412.999 1593.01 413 1593 413C1592.99 413 1592.99 412.999 1592.99 412.997C1592.98 412.995 1592.98 412.992 1592.98 412.988C1592.72 408.572 1592.39 408.279 1588.02 408.015C1588.01 408.014 1588.01 408.012 1588.01 408.01C1588 408.007 1588 408.003 1588 408C1588 407.997 1588 407.993 1588.01 407.99C1588.01 407.988 1588.01 407.986 1588.02 407.985C1592.39 407.721 1592.72 407.428 1592.98 403.012C1592.98 403.008 1592.98 403.005 1592.99 403.003C1592.99 403.001 1592.99 403 1593 403C1593.01 403 1593.01 403.001 1593.02 403.003C1593.02 403.005 1593.02 403.008 1593.02 403.012C1593.28 407.428 1593.61 407.721 1597.98 407.985C1597.99 407.986 1597.99 407.988 1597.99 407.99C1598 407.993 1598 407.997 1598 408C1598 408.003 1598 408.007 1597.99 408.01C1597.99 408.012 1597.99 408.014 1597.98 408.015Z" fill="white"/>
<path d="M1814.98 261.015C1810.61 261.279 1810.28 261.572 1810.02 265.988C1810.02 265.992 1810.02 265.995 1810.02 265.997C1810.01 265.999 1810.01 266 1810 266C1809.99 266 1809.99 265.999 1809.99 265.997C1809.98 265.995 1809.98 265.992 1809.98 265.988C1809.72 261.572 1809.39 261.279 1805.02 261.015C1805.01 261.014 1805.01 261.012 1805.01 261.01C1805 261.007 1805 261.003 1805 261C1805 260.997 1805 260.993 1805.01 260.99C1805.01 260.988 1805.01 260.986 1805.02 260.985C1809.39 260.721 1809.72 260.428 1809.98 256.012C1809.98 256.008 1809.98 256.005 1809.99 256.003C1809.99 256.001 1809.99 256 1810 256C1810.01 256 1810.01 256.001 1810.02 256.003C1810.02 256.005 1810.02 256.008 1810.02 256.012C1810.28 260.428 1810.61 260.721 1814.98 260.985C1814.99 260.986 1814.99 260.988 1814.99 260.99C1815 260.993 1815 260.997 1815 261C1815 261.003 1815 261.007 1814.99 261.01C1814.99 261.012 1814.99 261.014 1814.98 261.015Z" fill="white"/>
<path d="M1570.99 47.5075C1568.81 47.6394 1568.64 47.7862 1568.51 49.9941C1568.51 49.9958 1568.51 49.9973 1568.51 49.9983C1568.51 49.9994 1568.5 50 1568.5 50C1568.5 50 1568.49 49.9994 1568.49 49.9983C1568.49 49.9973 1568.49 49.9958 1568.49 49.9941C1568.36 47.7862 1568.19 47.6394 1566.01 47.5075C1566.01 47.5071 1566 47.5061 1566 47.5048C1566 47.5034 1566 47.5017 1566 47.5C1566 47.4983 1566 47.4966 1566 47.4952C1566 47.4939 1566.01 47.4929 1566.01 47.4925C1568.19 47.3606 1568.36 47.2138 1568.49 45.0059C1568.49 45.0042 1568.49 45.0027 1568.49 45.0017C1568.49 45.0006 1568.5 45 1568.5 45C1568.5 45 1568.51 45.0006 1568.51 45.0017C1568.51 45.0027 1568.51 45.0042 1568.51 45.0059C1568.64 47.2138 1568.81 47.3606 1570.99 47.4925C1570.99 47.4929 1571 47.4939 1571 47.4952C1571 47.4966 1571 47.4983 1571 47.5C1571 47.5017 1571 47.5034 1571 47.5048C1571 47.5061 1570.99 47.5071 1570.99 47.5075Z" fill="white"/>
<path d="M1600.99 62.5075C1598.81 62.6394 1598.64 62.7862 1598.51 64.9941C1598.51 64.9958 1598.51 64.9973 1598.51 64.9983C1598.51 64.9994 1598.5 65 1598.5 65C1598.5 65 1598.49 64.9994 1598.49 64.9983C1598.49 64.9973 1598.49 64.9958 1598.49 64.9941C1598.36 62.7862 1598.19 62.6394 1596.01 62.5075C1596.01 62.5071 1596 62.5061 1596 62.5048C1596 62.5034 1596 62.5017 1596 62.5C1596 62.4983 1596 62.4966 1596 62.4952C1596 62.4939 1596.01 62.4929 1596.01 62.4925C1598.19 62.3606 1598.36 62.2138 1598.49 60.0059C1598.49 60.0042 1598.49 60.0027 1598.49 60.0017C1598.49 60.0006 1598.5 60 1598.5 60C1598.5 60 1598.51 60.0006 1598.51 60.0017C1598.51 60.0027 1598.51 60.0042 1598.51 60.0059C1598.64 62.2138 1598.81 62.3606 1600.99 62.4925C1600.99 62.4929 1601 62.4939 1601 62.4952C1601 62.4966 1601 62.4983 1601 62.5C1601 62.5017 1601 62.5034 1601 62.5048C1601 62.5061 1600.99 62.5071 1600.99 62.5075Z" fill="white"/>
<path d="M749.99 415.508C747.806 415.639 747.64 415.786 747.512 417.994C747.511 417.996 747.51 417.997 747.508 417.998C747.506 417.999 747.503 418 747.5 418C747.497 418 747.495 417.999 747.493 417.998C747.49 417.997 747.489 417.996 747.488 417.994C747.36 415.786 747.194 415.639 745.009 415.508C745.007 415.507 745.004 415.506 745.003 415.505C745.001 415.503 745 415.502 745 415.5C745 415.498 745.001 415.497 745.003 415.495C745.004 415.494 745.007 415.493 745.009 415.492C747.194 415.361 747.36 415.214 747.488 413.006C747.489 413.004 747.49 413.003 747.493 413.002C747.495 413.001 747.497 413 747.5 413C747.503 413 747.506 413.001 747.508 413.002C747.51 413.003 747.511 413.004 747.512 413.006C747.64 415.214 747.806 415.361 749.99 415.492C749.993 415.493 749.995 415.494 749.997 415.495C749.999 415.497 750 415.498 750 415.5C750 415.502 749.999 415.503 749.997 415.505C749.995 415.506 749.993 415.507 749.99 415.508Z" fill="white"/>
<path d="M899.99 537.508C897.806 537.639 897.64 537.786 897.512 539.994C897.511 539.996 897.51 539.997 897.508 539.998C897.506 539.999 897.503 540 897.5 540C897.497 540 897.495 539.999 897.493 539.998C897.49 539.997 897.489 539.996 897.488 539.994C897.36 537.786 897.194 537.639 895.009 537.508C895.007 537.507 895.004 537.506 895.003 537.505C895.001 537.503 895 537.502 895 537.5C895 537.498 895.001 537.497 895.003 537.495C895.004 537.494 895.007 537.493 895.009 537.492C897.194 537.361 897.36 537.214 897.488 535.006C897.489 535.004 897.49 535.003 897.493 535.002C897.495 535.001 897.497 535 897.5 535C897.503 535 897.506 535.001 897.508 535.002C897.51 535.003 897.511 535.004 897.512 535.006C897.64 537.214 897.806 537.361 899.99 537.492C899.993 537.493 899.995 537.494 899.997 537.495C899.999 537.497 900 537.498 900 537.5C900 537.502 899.999 537.503 899.997 537.505C899.995 537.506 899.993 537.507 899.99 537.508Z" fill="white"/>
<path d="M1020.99 480.511C1017.93 480.695 1017.7 480.901 1017.52 483.992C1017.52 483.994 1017.51 483.996 1017.51 483.998C1017.51 483.999 1017.5 484 1017.5 484C1017.5 484 1017.49 483.999 1017.49 483.998C1017.49 483.996 1017.48 483.994 1017.48 483.992C1017.3 480.901 1017.07 480.695 1014.01 480.511C1014.01 480.51 1014.01 480.509 1014 480.507C1014 480.505 1014 480.502 1014 480.5C1014 480.498 1014 480.495 1014 480.493C1014.01 480.491 1014.01 480.49 1014.01 480.489C1017.07 480.305 1017.3 480.099 1017.48 477.008C1017.48 477.006 1017.49 477.004 1017.49 477.002C1017.49 477.001 1017.5 477 1017.5 477C1017.5 477 1017.51 477.001 1017.51 477.002C1017.51 477.004 1017.52 477.006 1017.52 477.008C1017.7 480.099 1017.93 480.305 1020.99 480.489C1020.99 480.49 1020.99 480.491 1021 480.493C1021 480.495 1021 480.498 1021 480.5C1021 480.502 1021 480.505 1021 480.507C1020.99 480.509 1020.99 480.51 1020.99 480.511Z" fill="white"/>
<path d="M714.424 593C712.478 593.467 712.136 593.846 711.712 596C711.29 593.846 710.948 593.467 709 593C710.946 592.533 711.288 592.154 711.712 590C712.136 592.154 712.478 592.533 714.424 593Z" fill="white"/>
<path d="M1193.42 281C1191.48 281.467 1191.14 281.846 1190.71 284C1190.29 281.846 1189.95 281.467 1188 281C1189.95 280.533 1190.29 280.154 1190.71 278C1191.14 280.154 1191.48 280.533 1193.42 281Z" fill="white"/>
<path d="M188.327 500.015C185.557 500.279 185.347 500.572 185.185 504.988C185.184 504.992 185.182 504.995 185.179 504.997C185.176 504.999 185.173 505 185.17 505C185.166 505 185.163 504.999 185.16 504.997C185.157 504.995 185.155 504.992 185.155 504.988C184.991 500.572 184.781 500.279 182.012 500.015C182.008 500.014 182.005 500.012 182.003 500.01C182.001 500.007 182 500.003 182 500C182 499.997 182.001 499.993 182.003 499.99C182.005 499.988 182.008 499.986 182.012 499.985C184.781 499.721 184.991 499.428 185.155 495.012C185.155 495.008 185.157 495.005 185.16 495.003C185.163 495.001 185.166 495 185.17 495C185.173 495 185.176 495.001 185.179 495.003C185.182 495.005 185.184 495.008 185.185 495.012C185.347 499.428 185.557 499.721 188.327 499.985C188.33 499.986 188.333 499.988 188.335 499.99C188.337 499.993 188.338 499.997 188.338 500C188.338 500.003 188.337 500.007 188.335 500.01C188.333 500.012 188.33 500.014 188.327 500.015Z" fill="white"/>
<path d="M291.327 660.015C288.557 660.279 288.347 660.572 288.185 664.988C288.184 664.992 288.182 664.995 288.179 664.997C288.176 664.999 288.173 665 288.17 665C288.166 665 288.163 664.999 288.16 664.997C288.157 664.995 288.155 664.992 288.155 664.988C287.991 660.572 287.781 660.279 285.012 660.015C285.008 660.014 285.005 660.012 285.003 660.01C285.001 660.007 285 660.003 285 660C285 659.997 285.001 659.993 285.003 659.99C285.005 659.988 285.008 659.986 285.012 659.985C287.781 659.721 287.991 659.428 288.155 655.012C288.155 655.008 288.157 655.005 288.16 655.003C288.163 655.001 288.166 655 288.17 655C288.173 655 288.176 655.001 288.179 655.003C288.182 655.005 288.184 655.008 288.185 655.012C288.347 659.428 288.557 659.721 291.327 659.985C291.33 659.986 291.333 659.988 291.335 659.99C291.337 659.993 291.338 659.997 291.338 660C291.338 660.003 291.337 660.007 291.335 660.01C291.333 660.012 291.33 660.014 291.327 660.015Z" fill="white"/>
<path d="M404.656 955.001C400.116 956.09 399.318 956.975 398.328 962C397.342 956.975 396.544 956.09 392 955.001C396.54 953.91 397.338 953.026 398.328 948C399.318 953.026 400.116 953.91 404.656 955.001Z" fill="white"/>
<path d="M696.327 835.015C693.557 835.279 693.347 835.572 693.185 839.988C693.184 839.992 693.182 839.995 693.179 839.997C693.176 839.999 693.173 840 693.17 840C693.166 840 693.163 839.999 693.16 839.997C693.157 839.995 693.155 839.992 693.155 839.988C692.991 835.572 692.781 835.279 690.012 835.015C690.008 835.014 690.005 835.012 690.003 835.01C690.001 835.007 690 835.003 690 835C690 834.997 690.001 834.993 690.003 834.99C690.005 834.988 690.008 834.986 690.012 834.985C692.781 834.721 692.991 834.428 693.155 830.012C693.155 830.008 693.157 830.005 693.16 830.003C693.163 830.001 693.166 830 693.17 830C693.173 830 693.176 830.001 693.179 830.003C693.182 830.005 693.184 830.008 693.185 830.012C693.347 834.428 693.557 834.721 696.327 834.985C696.33 834.986 696.333 834.988 696.335 834.99C696.337 834.993 696.338 834.997 696.338 835C696.338 835.003 696.337 835.007 696.335 835.01C696.333 835.012 696.33 835.014 696.327 835.015Z" fill="white"/>
<path d="M993.977 1008.02C988.735 1008.33 988.336 1008.69 988.029 1013.99C988.027 1013.99 988.024 1013.99 988.019 1014C988.013 1014 988.007 1014 988 1014C987.994 1014 987.988 1014 987.982 1014C987.977 1013.99 987.974 1013.99 987.972 1013.99C987.663 1008.69 987.265 1008.33 982.022 1008.02C982.016 1008.02 982.01 1008.01 982.006 1008.01C982.002 1008.01 982 1008 982 1008C982 1008 982.002 1007.99 982.006 1007.99C982.01 1007.99 982.016 1007.98 982.022 1007.98C987.265 1007.67 987.663 1007.31 987.972 1002.01C987.974 1002.01 987.977 1002.01 987.982 1002C987.988 1002 987.994 1002 988 1002C988.007 1002 988.013 1002 988.019 1002C988.024 1002.01 988.027 1002.01 988.029 1002.01C988.336 1007.31 988.735 1007.67 993.977 1007.98C993.983 1007.98 993.989 1007.99 993.993 1007.99C993.997 1007.99 993.999 1008 993.999 1008C993.999 1008 993.997 1008.01 993.993 1008.01C993.989 1008.01 993.983 1008.02 993.977 1008.02Z" fill="white"/>
<path d="M1804.76 673.526C1800.05 673.974 1799.69 674.473 1799.41 681.98C1799.41 681.986 1799.41 681.991 1799.4 681.994C1799.4 681.998 1799.39 682 1799.39 682C1799.38 682 1799.38 681.998 1799.37 681.994C1799.37 681.991 1799.36 681.986 1799.36 681.98C1799.09 674.473 1798.73 673.974 1794.02 673.526C1794.01 673.524 1794.01 673.521 1794.01 673.516C1794 673.512 1794 673.506 1794 673.5C1794 673.494 1794 673.488 1794.01 673.484C1794.01 673.479 1794.01 673.476 1794.02 673.474C1798.73 673.026 1799.09 672.527 1799.36 665.02C1799.36 665.014 1799.37 665.009 1799.37 665.006C1799.38 665.002 1799.38 665 1799.39 665C1799.39 665 1799.4 665.002 1799.4 665.006C1799.41 665.009 1799.41 665.014 1799.41 665.02C1799.69 672.527 1800.05 673.026 1804.76 673.474C1804.76 673.476 1804.77 673.479 1804.77 673.484C1804.77 673.488 1804.78 673.494 1804.78 673.5C1804.78 673.506 1804.77 673.512 1804.77 673.516C1804.77 673.521 1804.76 673.524 1804.76 673.526Z" fill="white"/>
<path d="M1681.04 121C1677.8 121.779 1677.23 122.411 1676.52 126C1675.82 122.411 1675.25 121.779 1672 121C1675.24 120.221 1675.81 119.59 1676.52 116C1677.23 119.59 1677.8 120.221 1681.04 121Z" fill="white"/>
<path d="M1336.98 74.018C1331.73 74.3345 1331.34 74.687 1331.03 79.9858C1331.03 79.9898 1331.02 79.9934 1331.02 79.996C1331.01 79.9986 1331.01 80 1331 80C1330.99 80 1330.99 79.9986 1330.98 79.996C1330.98 79.9934 1330.97 79.9898 1330.97 79.9858C1330.66 74.687 1330.26 74.3345 1325.02 74.018C1325.02 74.0171 1325.01 74.0148 1325.01 74.0115C1325 74.0082 1325 74.0042 1325 74C1325 73.9958 1325 73.9918 1325.01 73.9885C1325.01 73.9852 1325.02 73.9829 1325.02 73.982C1330.26 73.6655 1330.66 73.313 1330.97 68.0142C1330.97 68.0102 1330.98 68.0066 1330.98 68.004C1330.99 68.0014 1330.99 68 1331 68C1331.01 68 1331.01 68.0014 1331.02 68.004C1331.02 68.0066 1331.03 68.0102 1331.03 68.0142C1331.34 73.313 1331.73 73.6655 1336.98 73.982C1336.98 73.9829 1336.99 73.9852 1336.99 73.9885C1337 73.9918 1337 73.9958 1337 74C1337 74.0042 1337 74.0082 1336.99 74.0115C1336.99 74.0148 1336.98 74.0171 1336.98 74.018Z" fill="white"/>
<path d="M477.981 633.015C473.612 633.279 473.28 633.572 473.024 637.988C473.023 637.992 473.02 637.995 473.015 637.997C473.011 637.999 473.006 638 473 638C472.995 638 472.99 637.999 472.985 637.997C472.981 637.995 472.978 637.992 472.977 637.988C472.719 633.572 472.387 633.279 468.019 633.015C468.013 633.014 468.009 633.012 468.005 633.01C468.002 633.007 468 633.003 468 633C468 632.997 468.002 632.993 468.005 632.99C468.009 632.988 468.013 632.986 468.019 632.985C472.387 632.721 472.719 632.428 472.977 628.012C472.978 628.008 472.981 628.005 472.985 628.003C472.99 628.001 472.995 628 473 628C473.006 628 473.011 628.001 473.015 628.003C473.02 628.005 473.023 628.008 473.024 628.012C473.28 632.428 473.612 632.721 477.981 632.985C477.986 632.986 477.991 632.988 477.994 632.99C477.998 632.993 477.999 632.997 477.999 633C477.999 633.003 477.998 633.007 477.994 633.01C477.991 633.012 477.986 633.014 477.981 633.015Z" fill="white"/>
<path fill-rule="evenodd" clip-rule="evenodd" d="M330.428 1217.37C564.281 1333.42 813.759 1306.78 887.654 1157.86C961.548 1008.95 831.876 794.164 598.024 678.118C364.171 562.073 114.692 588.716 40.7978 737.628C-33.0967 886.539 96.5751 1101.33 330.428 1217.37ZM330.617 1216.99C561.689 1331.66 808.828 1304.07 882.618 1155.37C956.408 1006.66 828.906 793.165 597.835 678.499C366.763 563.834 119.623 591.426 45.8332 740.126C-27.9569 888.827 99.5451 1102.33 330.617 1216.99Z" fill="white" fill-opacity="0.6"/>
<path d="M1350.96 863.03C1342.22 863.557 1341.56 864.145 1341.05 872.976C1341.05 872.983 1341.04 872.989 1341.03 872.993C1341.02 872.998 1341.01 873 1341 873C1340.99 873 1340.98 872.998 1340.97 872.993C1340.96 872.989 1340.96 872.983 1340.95 872.976C1340.44 864.145 1339.77 863.557 1331.04 863.03C1331.03 863.028 1331.02 863.025 1331.01 863.019C1331 863.014 1331 863.007 1331 863C1331 862.993 1331 862.986 1331.01 862.981C1331.02 862.975 1331.03 862.972 1331.04 862.97C1339.77 862.443 1340.44 861.855 1340.95 853.024C1340.96 853.017 1340.96 853.011 1340.97 853.007C1340.98 853.002 1340.99 853 1341 853C1341.01 853 1341.02 853.002 1341.03 853.007C1341.04 853.011 1341.05 853.017 1341.05 853.024C1341.56 861.855 1342.22 862.443 1350.96 862.97C1350.97 862.972 1350.98 862.975 1350.99 862.981C1351 862.986 1351 862.993 1351 863C1351 863.007 1351 863.014 1350.99 863.019C1350.98 863.025 1350.97 863.028 1350.96 863.03Z" fill="white"/>
<path d="M1245.98 944.015C1241.61 944.279 1241.28 944.572 1241.02 948.988C1241.02 948.992 1241.02 948.995 1241.02 948.997C1241.01 948.999 1241.01 949 1241 949C1240.99 949 1240.99 948.999 1240.99 948.997C1240.98 948.995 1240.98 948.992 1240.98 948.988C1240.72 944.572 1240.39 944.279 1236.02 944.015C1236.01 944.014 1236.01 944.012 1236.01 944.01C1236 944.007 1236 944.003 1236 944C1236 943.997 1236 943.993 1236.01 943.99C1236.01 943.988 1236.01 943.986 1236.02 943.985C1240.39 943.721 1240.72 943.428 1240.98 939.012C1240.98 939.008 1240.98 939.005 1240.99 939.003C1240.99 939.001 1240.99 939 1241 939C1241.01 939 1241.01 939.001 1241.02 939.003C1241.02 939.005 1241.02 939.008 1241.02 939.012C1241.28 943.428 1241.61 943.721 1245.98 943.985C1245.99 943.986 1245.99 943.988 1245.99 943.99C1246 943.993 1246 943.997 1246 944C1246 944.003 1246 944.007 1245.99 944.01C1245.99 944.012 1245.99 944.014 1245.98 944.015Z" fill="white"/>
<path d="M1344.33 331.015C1341.56 331.279 1341.35 331.572 1341.18 335.988C1341.18 335.992 1341.18 335.995 1341.18 335.997C1341.18 335.999 1341.17 336 1341.17 336C1341.17 336 1341.16 335.999 1341.16 335.997C1341.16 335.995 1341.16 335.992 1341.15 335.988C1340.99 331.572 1340.78 331.279 1338.01 331.015C1338.01 331.014 1338.01 331.012 1338 331.01C1338 331.007 1338 331.003 1338 331C1338 330.997 1338 330.993 1338 330.99C1338.01 330.988 1338.01 330.986 1338.01 330.985C1340.78 330.721 1340.99 330.428 1341.15 326.012C1341.16 326.008 1341.16 326.005 1341.16 326.003C1341.16 326.001 1341.17 326 1341.17 326C1341.17 326 1341.18 326.001 1341.18 326.003C1341.18 326.005 1341.18 326.008 1341.18 326.012C1341.35 330.428 1341.56 330.721 1344.33 330.985C1344.33 330.986 1344.33 330.988 1344.34 330.99C1344.34 330.993 1344.34 330.997 1344.34 331C1344.34 331.003 1344.34 331.007 1344.34 331.01C1344.33 331.012 1344.33 331.014 1344.33 331.015Z" fill="white"/>
<path fill-rule="evenodd" clip-rule="evenodd" d="M1640.11 127.579C1840.1 149.518 2011.57 82.0446 2023.11 -23.126C2034.65 -128.296 1881.88 -231.339 1681.89 -253.277C1481.9 -275.215 1310.43 -207.742 1298.89 -102.572C1287.35 2.5986 1440.12 105.641 1640.11 127.579ZM1640.14 127.31C1837.75 148.988 2007.28 81.4235 2018.8 -23.5984C2030.32 -128.62 1879.47 -231.331 1681.86 -253.008C1484.25 -274.686 1314.72 -207.122 1303.2 -102.1C1291.68 2.92231 1442.53 105.633 1640.14 127.31Z" fill="white" fill-opacity="0.6"/>
</g>
<defs>
<filter id="filter0_f_104_813" x="-473" y="-488" width="1395" height="1147" filterUnits="userSpaceOnUse" color-interpolation-filters="sRGB">
<feFlood flood-opacity="0" result="BackgroundImageFix"/>
<feBlend mode="normal" in="SourceGraphic" in2="BackgroundImageFix" result="shape"/>
<feGaussianBlur stdDeviation="196.5" result="effect1_foregroundBlur_104_813"/>
</filter>
<filter id="filter1_f_104_813" x="507" y="326" width="2005" height="1316" filterUnits="userSpaceOnUse" color-interpolation-filters="sRGB">
<feFlood flood-opacity="0" result="BackgroundImageFix"/>
<feBlend mode="normal" in="SourceGraphic" in2="BackgroundImageFix" result="shape"/>
<feGaussianBlur stdDeviation="196.5" result="effect1_foregroundBlur_104_813"/>
</filter>
<clipPath id="clip0_104_813">
<rect width="1920" height="1080" fill="white"/>
</clipPath>
</defs>
</svg>
