<svg width="15" height="15" viewBox="0 0 26 26" fill="white" xmlns="http://www.w3.org/2000/svg">
<path d="M11.1209 14.8788C11.6679 15.3988 11.6679 16.2538 11.1209 16.7728C10.6009 17.2928 9.74595 17.2928 9.22695 16.7728C6.62495 14.1718 6.62495 9.94483 9.22695 7.34783L13.9449 2.62483C15.197 1.37726 16.8925 0.676758 18.6599 0.676758C20.4274 0.676758 22.1229 1.37726 23.3749 2.62483C24.6225 3.87687 25.323 5.57233 25.323 7.33983C25.323 9.10732 24.6225 10.8028 23.3749 12.0548L21.3869 14.0388C21.4027 12.9398 21.2215 11.8469 20.8519 10.8118L21.4799 10.1718C21.8539 9.8023 22.1508 9.36224 22.3534 8.87714C22.556 8.39204 22.6604 7.87155 22.6604 7.34583C22.6604 6.82011 22.556 6.29961 22.3534 5.81451C22.1508 5.32941 21.8539 4.88935 21.4799 4.51983C21.1104 4.14588 20.6704 3.84899 20.1853 3.64636C19.7002 3.44373 19.1797 3.3394 18.6539 3.3394C18.1282 3.3394 17.6077 3.44373 17.1226 3.64636C16.6375 3.84899 16.1975 4.14588 15.8279 4.51983L11.1209 9.22683C10.747 9.59635 10.4501 10.0364 10.2475 10.5215C10.0449 11.0066 9.94052 11.5271 9.94052 12.0528C9.94052 12.5785 10.0449 13.099 10.2475 13.5841C10.4501 14.0692 10.747 14.5093 11.1209 14.8788ZM14.8789 9.22683C15.3989 8.70683 16.2539 8.70683 16.7729 9.22683C19.3749 11.8278 19.3749 16.0548 16.7729 18.6518L12.0549 23.3748C10.8029 24.6224 9.10745 25.3229 7.33995 25.3229C5.57245 25.3229 3.877 24.6224 2.62495 23.3748C1.37738 22.1228 0.67688 20.4273 0.67688 18.6598C0.67688 16.8923 1.37738 15.1969 2.62495 13.9448L4.61295 11.9608C4.59824 13.0633 4.77938 14.1597 5.14795 15.1988L4.51995 15.8288C4.14615 16.1983 3.84939 16.6383 3.64685 17.1233C3.44432 17.6083 3.34003 18.1287 3.34003 18.6543C3.34003 19.1799 3.44432 19.7003 3.64685 20.1853C3.84939 20.6703 4.14615 21.1103 4.51995 21.4798C4.88947 21.8538 5.32953 22.1507 5.81463 22.3533C6.29974 22.5559 6.82023 22.6603 7.34595 22.6603C7.87167 22.6603 8.39216 22.5559 8.87726 22.3533C9.36236 22.1507 9.80243 21.8538 10.1719 21.4798L14.8789 16.7728C15.2529 16.4033 15.5498 15.9632 15.7524 15.4781C15.955 14.993 16.0594 14.4725 16.0594 13.9468C16.0594 13.4211 15.955 12.9006 15.7524 12.4155C15.5498 11.9304 15.2529 11.4903 14.8789 11.1208C14.7496 10.9993 14.6464 10.8526 14.576 10.6898C14.5055 10.5269 14.4691 10.3513 14.4691 10.1738C14.4691 9.99635 14.5055 9.82076 14.576 9.65788C14.6464 9.49501 14.7496 9.34831 14.8789 9.22683Z" fill="white"/>
</svg>
