<svg width="166" height="166" viewBox="0 0 166 166" fill="none" xmlns="http://www.w3.org/2000/svg">
<g style="mix-blend-mode:lighten" clip-path="url(#clip0_609_9267)">
<path d="M64.5371 129.44V143H62.7371V136.58C62.7371 135.207 62.8038 133.867 62.9371 132.56L60.4171 139.44H58.6771L56.1571 132.56C56.2904 133.8 56.3571 135.133 56.3571 136.56V143H54.5771V129.44H56.6771L59.5571 137.48L62.4371 129.44H64.5371ZM74.2785 132.6C74.2785 131.507 73.6985 130.96 72.5385 130.96C71.3785 130.96 70.7985 131.507 70.7985 132.6V139.84C70.7985 140.947 71.3785 141.5 72.5385 141.5C73.6985 141.5 74.2785 140.947 74.2785 139.84V132.6ZM68.9185 132.54C68.9185 131.54 69.2185 130.74 69.8185 130.14C70.4318 129.54 71.3318 129.24 72.5185 129.24C73.7185 129.24 74.6252 129.547 75.2385 130.16C75.8518 130.76 76.1585 131.553 76.1585 132.54V139.92C76.1585 140.907 75.8518 141.7 75.2385 142.3C74.6252 142.9 73.7252 143.2 72.5385 143.2C71.3518 143.2 70.4518 142.9 69.8385 142.3C69.2252 141.7 68.9185 140.907 68.9185 139.92V132.54ZM80.3349 132.34C80.3349 131.393 80.6549 130.66 81.2949 130.14C81.9349 129.607 82.9016 129.34 84.1949 129.34C85.0483 129.34 85.8349 129.44 86.5549 129.64V131.38C85.7683 131.153 84.9949 131.04 84.2349 131.04C83.4749 131.04 82.9483 131.16 82.6549 131.4C82.3749 131.64 82.2349 132 82.2349 132.48V139.98C82.2349 140.447 82.3816 140.8 82.6749 141.04C82.9683 141.28 83.5083 141.4 84.2949 141.4C85.0816 141.4 85.8549 141.293 86.6149 141.08V142.78C85.9216 142.993 85.1083 143.1 84.1749 143.1C81.6149 143.1 80.3349 142.1 80.3349 140.1V132.34ZM96.3432 129.44H98.2632V143H96.3432V137.18H92.5232V143H90.6232V129.44H92.5232V135.5H96.3432V129.44ZM108.54 143L107.8 139.4H104.44L103.7 143H101.86L104.82 129.44H107.46L110.38 143H108.54ZM104.76 137.78H107.46L106.1 131.2L104.76 137.78ZM57.1212 154.34C57.1212 153.393 57.4412 152.66 58.0812 152.14C58.7212 151.607 59.6879 151.34 60.9812 151.34C61.8346 151.34 62.6212 151.44 63.3412 151.64V153.38C62.5546 153.153 61.7812 153.04 61.0212 153.04C60.2612 153.04 59.7346 153.16 59.4412 153.4C59.1612 153.64 59.0212 154 59.0212 154.48V161.98C59.0212 162.447 59.1679 162.8 59.4612 163.04C59.7546 163.28 60.2946 163.4 61.0812 163.4C61.8679 163.4 62.6412 163.293 63.4012 163.08V164.78C62.7079 164.993 61.8946 165.1 60.9612 165.1C58.4012 165.1 57.1212 164.1 57.1212 162.1V154.34ZM67.4095 151.44H69.3095V163.38H73.2695V165H67.4095V151.44ZM81.8766 154.6C81.8766 153.507 81.2966 152.96 80.1366 152.96C78.9766 152.96 78.3966 153.507 78.3966 154.6V161.84C78.3966 162.947 78.9766 163.5 80.1366 163.5C81.2966 163.5 81.8766 162.947 81.8766 161.84V154.6ZM76.5166 154.54C76.5166 153.54 76.8166 152.74 77.4166 152.14C78.0299 151.54 78.9299 151.24 80.1166 151.24C81.3166 151.24 82.2232 151.547 82.8366 152.16C83.4499 152.76 83.7566 153.553 83.7566 154.54V161.92C83.7566 162.907 83.4499 163.7 82.8366 164.3C82.2232 164.9 81.3232 165.2 80.1366 165.2C78.9499 165.2 78.0499 164.9 77.4366 164.3C76.8232 163.7 76.5166 162.907 76.5166 161.92V154.54ZM93.353 151.44H95.233V161.92C95.233 162.907 94.9263 163.7 94.313 164.3C93.713 164.9 92.8196 165.2 91.633 165.2C90.4463 165.2 89.5463 164.9 88.933 164.3C88.333 163.7 88.033 162.907 88.033 161.92V151.44H89.913V161.84C89.913 162.947 90.4863 163.5 91.633 163.5C92.7796 163.5 93.353 162.947 93.353 161.84V151.44ZM105.026 154.54C105.026 153.527 104.499 153.02 103.446 153.02H101.586V163.36H103.446C104.499 163.36 105.026 162.833 105.026 161.78V154.54ZM99.7056 151.44H103.626C104.692 151.44 105.506 151.707 106.066 152.24C106.626 152.773 106.906 153.52 106.906 154.48V161.88C106.906 162.853 106.639 163.62 106.106 164.18C105.586 164.727 104.786 165 103.706 165H99.7056V151.44Z" fill="white"/>
<path fill-rule="evenodd" clip-rule="evenodd" d="M40.9338 113.429C44.2237 113.38 50.7898 112.271 54.3592 109.403C54.5857 109.221 54.8018 109.045 55.0086 108.875C57.8883 105.735 61.3033 101.816 64.3603 97.921C62.649 99.2752 59.7347 101.625 55.478 105.152C47.6465 111.641 37.8012 110.97 30.8647 107.166C25.3156 104.123 22.7349 96.2017 22.1382 92.6215V90.1602H60.4118C57.9156 89.9647 55.3124 89.7248 52.8855 89.4809L45.857 89.0414H41.5761L36.3824 77.1698L37.4832 74.3567L34.0805 73.0254L32.749 76.4278L35.5624 77.5287L40.5991 89.0414H33.5209L27.5716 75.4433L33.6927 66.6984L33.8255 66.5087L33.7473 66.2907L31.3364 59.5749L32.6253 56.8424L29.3205 55.2837L27.7617 58.5886L30.494 59.8774L32.8266 66.3753L26.6943 75.1358L26.5502 75.3412L26.6509 75.5717L32.5439 89.0414H18.5581C18.5581 95.5098 20.9863 101.714 25.3084 106.287C29.4721 110.693 35.0648 113.24 40.9338 113.421V113.429ZM43.3557 78.3964C43.3477 78.2962 43.3413 78.2009 43.3364 78.1118L43.333 78.1668C43.2261 77.0499 43.1714 75.9176 43.1714 74.7729C43.1714 55.3427 58.923 39.5912 78.3531 39.5912C96.5217 39.5912 111.474 53.3629 113.339 71.0371C113.881 70.9753 114.432 70.9435 114.99 70.9435C122.957 70.9435 129.415 77.402 129.415 85.3687C129.415 87.8175 128.805 90.1235 127.729 92.1436C128.277 92.0554 128.839 92.0102 129.412 92.0102C135.295 92.0102 140.065 96.8188 140.065 102.751C140.065 108.682 135.295 113.491 129.412 113.491C129.03 113.491 128.653 113.47 128.282 113.431H51.8961C52.1539 113.361 52.4277 113.286 52.7182 113.207C54.8193 112.634 61.3901 112.118 66.225 111.821C81.5868 111.888 113.006 111.749 131.332 111.641C133.942 110.671 138.939 107.389 138.044 102.019C136.926 95.3066 128.647 93.9641 125.29 95.3066C122.816 96.2961 121.545 97.2354 121.127 97.6686C123.092 95.4418 126.809 90.0931 126.633 85.6851C126.409 80.0912 123.276 75.1685 117.906 73.826C113.61 72.7519 110.895 74.2735 110.075 75.1685C111.119 70.9919 110.209 59.9978 98.2156 49.4365C83.2239 36.2348 63.5332 45.185 60.4006 48.0939C60.1487 48.328 59.8547 48.5938 59.5267 48.8905L59.5262 48.8909C55.776 52.2822 47.5745 59.6984 46.7515 69.5746C46.4712 72.9376 46.3884 75.5552 46.5649 77.6325L46.5277 77.6298C46.6769 80.0164 47.4675 85.2376 49.4366 87.0276C50.5043 87.9983 51.4889 88.5304 52.2617 88.802C51.4642 88.6803 50.5137 88.4512 49.5413 88.0851L49.7189 88.1066C49.1953 87.9638 47.6948 87.2353 45.884 85.4662C44.5123 84.1264 43.8112 81.5805 43.5107 79.679C43.4514 79.2539 43.3997 78.8265 43.3557 78.3964Z" fill="white"/>
</g>
<defs>
<clipPath id="clip0_609_9267">
<rect width="165.564" height="166" fill="white"/>
</clipPath>
</defs>
</svg>
