<svg width="103" height="103" viewBox="0 0 103 103" fill="none" xmlns="http://www.w3.org/2000/svg">
<path d="M72.9561 81.544H30.0437V21.4564H72.9561M72.9561 4.29401H30.0437C28.9153 4.28955 27.7971 4.50841 26.7536 4.938C25.7101 5.36758 24.7619 5.99939 23.9637 6.79704C23.1654 7.59468 22.5329 8.54238 22.1026 9.58556C21.6722 10.6287 21.4525 11.7467 21.4561 12.8752V90.1252C21.4574 92.4018 22.3628 94.5847 23.9732 96.1939C25.5836 97.8031 27.7671 98.7068 30.0437 98.7064H72.9561C75.2327 98.7068 77.4163 97.8031 79.0267 96.1939C80.6371 94.5847 81.5424 92.4018 81.5437 90.1252V12.8752C81.5437 11.7478 81.3215 10.6314 80.8899 9.58983C80.4583 8.5483 79.8256 7.60203 79.0281 6.80511C78.2306 6.00819 77.2838 5.37623 76.242 4.94537C75.2001 4.5145 74.0835 4.29317 72.9561 4.29401Z" fill="#6A6F77"/>
</svg>
