<svg width="57" height="37" viewBox="0 0 57 37" fill="none" xmlns="http://www.w3.org/2000/svg">
<path d="M10.5371 0.439999V14H8.73711V7.58C8.73711 6.20667 8.80378 4.86667 8.93711 3.56L6.41711 10.44H4.67711L2.15711 3.56C2.29044 4.8 2.35711 6.13333 2.35711 7.56V14H0.577109V0.439999H2.67711L5.55711 8.48L8.43711 0.439999H10.5371ZM20.2785 3.6C20.2785 2.50667 19.6985 1.96 18.5385 1.96C17.3785 1.96 16.7985 2.50667 16.7985 3.6V10.84C16.7985 11.9467 17.3785 12.5 18.5385 12.5C19.6985 12.5 20.2785 11.9467 20.2785 10.84V3.6ZM14.9185 3.54C14.9185 2.54 15.2185 1.74 15.8185 1.14C16.4318 0.54 17.3318 0.24 18.5185 0.24C19.7185 0.24 20.6252 0.546666 21.2385 1.16C21.8518 1.76 22.1585 2.55333 22.1585 3.54V10.92C22.1585 11.9067 21.8518 12.7 21.2385 13.3C20.6252 13.9 19.7252 14.2 18.5385 14.2C17.3518 14.2 16.4518 13.9 15.8385 13.3C15.2252 12.7 14.9185 11.9067 14.9185 10.92V3.54ZM26.3349 3.34C26.3349 2.39333 26.6549 1.66 27.2949 1.14C27.9349 0.606666 28.9016 0.339999 30.1949 0.339999C31.0483 0.339999 31.8349 0.439999 32.5549 0.639999V2.38C31.7683 2.15333 30.9949 2.04 30.2349 2.04C29.4749 2.04 28.9483 2.16 28.6549 2.4C28.3749 2.64 28.2349 3 28.2349 3.48V10.98C28.2349 11.4467 28.3816 11.8 28.6749 12.04C28.9683 12.28 29.5083 12.4 30.2949 12.4C31.0816 12.4 31.8549 12.2933 32.6149 12.08V13.78C31.9216 13.9933 31.1083 14.1 30.1749 14.1C27.6149 14.1 26.3349 13.1 26.3349 11.1V3.34ZM42.3432 0.439999H44.2632V14H42.3432V8.18H38.5232V14H36.6232V0.439999H38.5232V6.5H42.3432V0.439999ZM54.5404 14L53.8004 10.4H50.4404L49.7004 14H47.8604L50.8204 0.439999H53.4604L56.3804 14H54.5404ZM50.7604 8.78H53.4604L52.1004 2.2L50.7604 8.78ZM3.12125 25.34C3.12125 24.3933 3.44125 23.66 4.08125 23.14C4.72125 22.6067 5.68792 22.34 6.98125 22.34C7.83458 22.34 8.62125 22.44 9.34125 22.64V24.38C8.55458 24.1533 7.78125 24.04 7.02125 24.04C6.26125 24.04 5.73458 24.16 5.44125 24.4C5.16125 24.64 5.02125 25 5.02125 25.48V32.98C5.02125 33.4467 5.16792 33.8 5.46125 34.04C5.75458 34.28 6.29458 34.4 7.08125 34.4C7.86792 34.4 8.64125 34.2933 9.40125 34.08V35.78C8.70792 35.9933 7.89458 36.1 6.96125 36.1C4.40125 36.1 3.12125 35.1 3.12125 33.1V25.34ZM13.4095 22.44H15.3095V34.38H19.2695V36H13.4095V22.44ZM27.8766 25.6C27.8766 24.5067 27.2966 23.96 26.1366 23.96C24.9766 23.96 24.3966 24.5067 24.3966 25.6V32.84C24.3966 33.9467 24.9766 34.5 26.1366 34.5C27.2966 34.5 27.8766 33.9467 27.8766 32.84V25.6ZM22.5166 25.54C22.5166 24.54 22.8166 23.74 23.4166 23.14C24.0299 22.54 24.9299 22.24 26.1166 22.24C27.3166 22.24 28.2232 22.5467 28.8366 23.16C29.4499 23.76 29.7566 24.5533 29.7566 25.54V32.92C29.7566 33.9067 29.4499 34.7 28.8366 35.3C28.2232 35.9 27.3232 36.2 26.1366 36.2C24.9499 36.2 24.0499 35.9 23.4366 35.3C22.8232 34.7 22.5166 33.9067 22.5166 32.92V25.54ZM39.353 22.44H41.233V32.92C41.233 33.9067 40.9263 34.7 40.313 35.3C39.713 35.9 38.8196 36.2 37.633 36.2C36.4463 36.2 35.5463 35.9 34.933 35.3C34.333 34.7 34.033 33.9067 34.033 32.92V22.44H35.913V32.84C35.913 33.9467 36.4863 34.5 37.633 34.5C38.7796 34.5 39.353 33.9467 39.353 32.84V22.44ZM51.0256 25.54C51.0256 24.5267 50.499 24.02 49.4456 24.02H47.5856V34.36H49.4456C50.499 34.36 51.0256 33.8333 51.0256 32.78V25.54ZM45.7056 22.44H49.6256C50.6923 22.44 51.5056 22.7067 52.0656 23.24C52.6256 23.7733 52.9056 24.52 52.9056 25.48V32.88C52.9056 33.8533 52.639 34.62 52.1056 35.18C51.5856 35.7267 50.7856 36 49.7056 36H45.7056V22.44Z" fill="white"/>
</svg>
