<svg width="484" height="484" viewBox="0 0 484 484" fill="none" xmlns="http://www.w3.org/2000/svg">
<rect width="484" height="484" fill="#1C1A1A"/>
<rect width="1920" height="1080" transform="translate(-1249 -298)" fill="#1D2025"/>
<path d="M107.33 225C104.886 225.016 102.494 224.295 100.459 222.929C98.4253 221.563 96.8429 219.614 95.9157 217.334C94.9885 215.055 94.759 212.547 95.2566 210.135C95.7542 207.722 96.9561 205.515 98.7079 203.796C136.748 165.506 188.304 144 242.057 144C295.81 144 347.367 165.506 385.407 203.796C386.546 204.945 387.45 206.309 388.066 207.809C388.683 209.31 389 210.918 389 212.543C389 214.167 388.683 215.776 388.066 217.276C387.45 218.777 386.546 220.141 385.407 221.289C384.267 222.438 382.915 223.349 381.427 223.97C379.938 224.592 378.343 224.912 376.732 224.912C375.12 224.912 373.525 224.592 372.037 223.97C370.548 223.349 369.196 222.438 368.056 221.289C334.611 187.631 289.286 168.727 242.031 168.727C194.776 168.727 149.451 187.631 116.006 221.289C114.874 222.454 113.525 223.382 112.036 224.019C110.547 224.656 108.948 224.989 107.33 225Z" fill="white"/>
<path d="M149.304 266C146.867 266.001 144.486 265.279 142.461 263.926C140.436 262.573 138.858 260.649 137.929 258.4C137 256.15 136.761 253.676 137.242 251.291C137.723 248.905 138.902 246.716 140.631 245.001C167.63 218.105 204.207 203 242.341 203C280.475 203 317.053 218.105 344.052 245.001C346.058 247.338 347.107 250.345 346.991 253.421C346.875 256.497 345.602 259.417 343.426 261.597C341.25 263.777 338.331 265.057 335.251 265.182C332.171 265.308 329.158 264.269 326.811 262.273C304.412 239.951 274.063 227.415 242.42 227.415C210.778 227.415 180.428 239.951 158.029 262.273C156.898 263.445 155.543 264.379 154.045 265.019C152.546 265.659 150.934 265.993 149.304 266Z" fill="white"/>
<path d="M191.234 307.999C188.815 308.026 186.444 307.317 184.426 305.963C182.408 304.609 180.837 302.672 179.914 300.404C178.992 298.135 178.761 295.638 179.251 293.234C179.741 290.831 180.93 288.632 182.664 286.92C198.428 270.962 219.788 262 242.057 262C264.326 262 285.686 270.962 301.45 286.92C302.576 288.062 303.468 289.418 304.077 290.91C304.686 292.402 305 294.001 305 295.615C305 297.23 304.686 298.829 304.077 300.321C303.468 301.813 302.576 303.169 301.45 304.31C300.325 305.452 298.989 306.358 297.518 306.976C296.048 307.594 294.472 307.912 292.88 307.912C291.288 307.912 289.712 307.594 288.242 306.976C286.772 306.358 285.435 305.452 284.31 304.31C278.763 298.678 272.176 294.21 264.926 291.161C257.676 288.112 249.905 286.543 242.057 286.543C234.209 286.543 226.438 288.112 219.188 291.161C211.938 294.21 205.351 298.678 199.804 304.31C197.533 306.631 194.456 307.955 191.234 307.999Z" fill="white"/>
<path d="M242.033 2.28886e-06C194.167 -0.00657948 147.375 14.1817 107.573 40.7705C67.7711 67.3592 36.7482 105.154 18.4276 149.375C0.107097 193.596 -4.68811 242.257 4.64845 289.204C13.985 336.15 37.0339 379.273 70.8802 413.12C104.727 446.966 147.85 470.015 194.796 479.352C241.743 488.688 290.404 483.893 334.625 465.572C378.846 447.252 416.641 416.229 443.23 376.427C469.818 336.625 484.007 289.833 484 241.967C483.921 177.817 458.402 116.318 413.042 70.9579C367.682 25.5976 306.183 0.0792587 242.033 2.28886e-06ZM33.3117 242.1C33.2585 201.553 45.0242 161.869 67.1695 127.903C89.3148 93.9377 120.88 67.1628 158.002 50.854C195.125 34.5452 236.196 29.4097 276.192 36.0757C316.188 42.7417 353.373 60.9201 383.2 88.3872L88.3208 383.133C52.9255 344.697 33.2881 294.351 33.3117 242.1ZM242.033 450.821C195.083 450.849 149.51 434.966 112.747 405.763L405.596 112.913C429.933 143.653 445.111 180.631 449.39 219.603C453.669 258.576 446.876 297.966 429.79 333.254C412.703 368.542 386.016 398.299 352.789 419.112C319.561 439.924 281.141 450.949 241.934 450.921L242.033 450.821Z" fill="#2C92F8"/>
<path d="M254.012 334.97C256.392 337.347 258.014 340.376 258.672 343.674C259.329 346.973 258.994 350.392 257.708 353.5C256.422 356.608 254.243 359.264 251.447 361.133C248.651 363.002 245.363 364 242 364C238.637 364 235.349 363.002 232.553 361.133C229.757 359.264 227.578 356.608 226.292 353.5C225.006 350.392 224.671 346.973 225.329 343.674C225.986 340.376 227.608 337.347 229.988 334.97C233.175 331.788 237.496 330 242 330C246.504 330 250.825 331.788 254.012 334.97Z" fill="white"/>
</svg>
