<svg width="522" height="278" viewBox="0 0 522 278" fill="none" xmlns="http://www.w3.org/2000/svg">
<path d="M225.07 138.088L238.455 203.249L41.0746 243.021L0.920898 47.5562L18.7248 43.9687C18.7248 43.9687 31.5609 44.9517 37.539 53.682C42.8982 61.4463 39.6001 72.7795 38.8233 75.2363L38.6862 75.6407C36.9814 80.6838 36.6472 86.0825 37.7171 91.2941C38.787 96.5057 41.2233 101.347 44.7811 105.33C48.3389 109.313 52.8929 112.299 57.9851 113.987C63.0774 115.674 68.5285 116.005 73.7906 114.944C79.0526 113.884 83.9401 111.471 87.9617 107.947C91.9833 104.422 94.9973 99.9118 96.7008 94.8683C98.4042 89.8247 98.737 84.4259 97.6658 79.2146C96.5945 74.0033 94.157 69.1631 90.5981 65.1806C90.4858 65.0991 90.3901 64.9973 90.3162 64.8804C88.6205 62.9615 81.1134 53.8056 82.9563 44.5504C85.0573 34.212 96.462 28.3247 96.462 28.3247L198.363 7.79196L209.332 61.1853C209.332 61.1853 208.32 73.902 199.528 79.8378C191.688 85.1455 180.241 81.86 177.765 81.1098L177.356 80.9739C172.254 79.2511 166.778 78.9164 161.5 80.0047C156.897 80.9285 152.571 82.8896 148.856 85.736C145.142 88.5824 142.139 92.2377 140.081 96.4184C138.023 100.599 136.964 105.193 136.987 109.844C137.01 114.496 138.114 119.079 140.214 123.24C142.314 127.4 145.353 131.026 149.095 133.836C152.837 136.646 157.183 138.565 161.794 139.444C166.406 140.323 171.16 140.139 175.689 138.905C180.217 137.671 184.397 135.421 187.906 132.33L188.209 132.051C190.151 130.39 199.392 122.936 208.741 124.781C219.121 126.774 225.07 138.088 225.07 138.088Z" fill="#2C92F8"/>
<path d="M521.217 88.873L457.345 277.841L431.818 269.378C430.169 268.134 421.423 261.321 420.709 251.863C419.996 242.405 428.562 234.323 430.482 232.562L430.823 232.286C434.872 228.772 437.9 224.251 439.595 219.19C441.074 214.788 441.511 210.108 440.872 205.512C440.233 200.916 438.536 196.527 435.912 192.685C433.287 188.842 429.806 185.649 425.736 183.352C421.666 181.054 417.118 179.715 412.442 179.436C407.767 179.158 403.089 179.948 398.77 181.745C394.452 183.543 390.609 186.3 387.539 189.803C384.468 193.307 382.252 197.463 381.062 201.95C379.871 206.436 379.739 211.134 380.675 215.68L380.779 216.104C381.266 218.581 383.125 230.222 376.849 237.342C370.574 244.462 359.479 244.719 357.333 244.704L266.444 214.571L287.738 151.569C287.738 151.569 288.32 138.831 280.325 131.877C273.204 125.705 261.45 127.546 258.874 128.004L258.471 128.095C253.866 129.066 249.096 128.971 244.534 127.816C239.972 126.661 235.741 124.478 232.172 121.437C228.602 118.396 225.789 114.58 223.954 110.285C222.119 105.991 221.31 101.334 221.59 96.6795C221.871 92.0245 223.234 87.4966 225.572 83.4489C227.91 79.4013 231.161 75.9434 235.071 73.3449C238.981 70.7463 243.444 69.0774 248.112 68.4683C252.78 67.8592 257.527 68.3264 261.983 69.8334C267.093 71.5116 271.658 74.5106 275.207 78.5206C275.279 78.6413 275.367 78.7528 275.467 78.8528C277.189 80.7353 285.449 89.2319 294.955 88.5312C305.56 87.7642 312.839 77.2472 312.839 77.2472L330.278 25.6518L521.217 88.873Z" fill="#BBCDF4"/>
</svg>
