<svg width="520" height="579" viewBox="0 0 520 579" fill="none" xmlns="http://www.w3.org/2000/svg">
<path d="M288 429.71C298.864 429.71 307.67 420.903 307.67 410.04C307.67 399.176 298.864 390.37 288 390.37C277.137 390.37 268.33 399.176 268.33 410.04C268.33 420.903 277.137 429.71 288 429.71Z" fill="#EBEBEB" fill-opacity="0.14"/>
<path d="M295.16 398.37C295.207 399.315 294.951 400.25 294.43 401.04C293.901 401.852 293.161 402.505 292.29 402.93C291.394 403.381 290.358 403.467 289.4 403.17C288.489 402.887 287.708 402.288 287.2 401.48C287.903 401.984 288.709 402.326 289.56 402.48C289.96 402.555 290.37 402.555 290.77 402.48C291.168 402.422 291.554 402.297 291.91 402.11C292.1 402.02 292.28 401.92 292.46 401.82C292.64 401.72 292.82 401.59 292.98 401.46C293.312 401.205 293.617 400.917 293.89 400.6C294.451 399.944 294.882 399.187 295.16 398.37Z" fill="#C7C7C7"/>
<path d="M288.08 399.5C287.996 398.845 288.14 398.18 288.49 397.62C288.847 397.04 289.36 396.572 289.97 396.27C290.611 395.952 291.35 395.898 292.03 396.12C292.663 396.338 293.188 396.788 293.5 397.38C293.002 397.072 292.448 396.865 291.87 396.77C291.348 396.712 290.821 396.806 290.35 397.04C289.317 397.554 288.509 398.429 288.08 399.5Z" fill="#C7C7C7"/>
<path d="M288 419.28C288.242 419.88 288.259 420.548 288.05 421.16C287.836 421.791 287.44 422.345 286.91 422.75C286.638 422.962 286.326 423.118 285.993 423.207C285.66 423.297 285.312 423.318 284.97 423.27C284.328 423.185 283.739 422.864 283.32 422.37C283.861 422.549 284.431 422.627 285 422.6C285.506 422.565 285.99 422.38 286.39 422.07C286.799 421.747 287.138 421.346 287.39 420.89C287.688 420.394 287.894 419.849 288 419.28Z" fill="#C7C7C7"/>
<path d="M283.92 421.52C283.813 421.319 283.745 421.1 283.723 420.873C283.701 420.646 283.724 420.418 283.79 420.2C283.922 419.741 284.199 419.337 284.58 419.05C284.777 418.895 285.005 418.783 285.247 418.721C285.49 418.659 285.743 418.649 285.99 418.69C286.215 418.731 286.429 418.817 286.62 418.942C286.81 419.067 286.974 419.23 287.1 419.42C286.722 419.345 286.334 419.328 285.95 419.37C285.64 419.41 285.345 419.534 285.1 419.73C284.524 420.183 284.11 420.811 283.92 421.52Z" fill="#C7C7C7"/>
<path d="M280.91 401.59C281.084 401.751 281.223 401.946 281.319 402.163C281.415 402.379 281.467 402.613 281.47 402.85C281.474 403.107 281.426 403.363 281.33 403.601C281.234 403.84 281.091 404.057 280.91 404.24C280.725 404.428 280.499 404.571 280.249 404.656C279.999 404.741 279.732 404.767 279.47 404.73C279 404.686 278.561 404.477 278.23 404.14C278.642 404.152 279.054 404.125 279.46 404.06C279.777 404.01 280.07 403.863 280.3 403.64C280.537 403.4 280.709 403.104 280.8 402.78C280.902 402.392 280.939 401.99 280.91 401.59Z" fill="#C7C7C7"/>
<path d="M278.47 403.5C278.327 403.402 278.209 403.273 278.124 403.122C278.039 402.971 277.99 402.803 277.98 402.63C277.973 402.445 278.003 402.261 278.071 402.089C278.138 401.917 278.24 401.761 278.37 401.63C278.507 401.49 278.676 401.386 278.863 401.327C279.049 401.268 279.248 401.255 279.44 401.29C279.609 401.313 279.771 401.37 279.917 401.458C280.063 401.545 280.19 401.662 280.29 401.8C280.01 401.833 279.733 401.887 279.46 401.96C279.277 402.006 279.11 402.103 278.98 402.24C278.836 402.381 278.723 402.552 278.65 402.74C278.556 402.984 278.495 403.24 278.47 403.5Z" fill="#C7C7C7"/>
<path d="M294.58 422.32C294.466 422.529 294.311 422.712 294.123 422.858C293.936 423.004 293.72 423.11 293.49 423.17C293.243 423.245 292.984 423.268 292.728 423.239C292.471 423.21 292.224 423.128 292 423C291.772 422.867 291.578 422.683 291.432 422.463C291.286 422.243 291.193 421.992 291.16 421.73C291.098 421.261 291.197 420.785 291.44 420.38C291.523 420.783 291.65 421.175 291.82 421.55C291.939 421.848 292.153 422.098 292.43 422.26C292.717 422.435 293.044 422.531 293.38 422.54C293.79 422.536 294.196 422.461 294.58 422.32Z" fill="#C7C7C7"/>
<path d="M292.13 420.43C292.189 420.267 292.284 420.12 292.409 420C292.534 419.881 292.685 419.792 292.85 419.74C293.032 419.68 293.224 419.66 293.413 419.681C293.603 419.702 293.786 419.763 293.95 419.86C294.125 419.964 294.272 420.11 294.376 420.284C294.481 420.459 294.541 420.657 294.55 420.86C294.568 421.03 294.551 421.201 294.501 421.364C294.451 421.527 294.37 421.679 294.26 421.81C294.153 421.547 294.033 421.29 293.9 421.04C293.808 420.874 293.674 420.736 293.51 420.64C293.336 420.542 293.147 420.474 292.95 420.44C292.679 420.398 292.403 420.395 292.13 420.43Z" fill="#C7C7C7"/>
<path d="M301.32 408.48C301.36 408.958 301.209 409.433 300.9 409.8C300.557 410.188 300.077 410.429 299.56 410.47C299.296 410.485 299.032 410.439 298.787 410.337C298.543 410.235 298.325 410.079 298.15 409.88C297.834 409.529 297.648 409.081 297.62 408.61C297.927 408.894 298.262 409.145 298.62 409.36C298.89 409.536 299.208 409.624 299.53 409.61C299.864 409.587 300.188 409.48 300.47 409.3C300.796 409.074 301.083 408.797 301.32 408.48Z" fill="#C7C7C7"/>
<path d="M298.23 408.29C298.182 408.119 298.175 407.938 298.212 407.764C298.249 407.59 298.327 407.427 298.44 407.29C298.559 407.137 298.71 407.012 298.883 406.923C299.056 406.835 299.246 406.786 299.44 406.78C299.631 406.772 299.822 406.81 299.995 406.89C300.169 406.97 300.322 407.09 300.44 407.24C300.55 407.369 300.632 407.519 300.681 407.68C300.731 407.842 300.748 408.012 300.73 408.18C300.499 408.016 300.255 407.873 300 407.75C299.834 407.663 299.647 407.625 299.46 407.64C299.259 407.65 299.061 407.701 298.88 407.79C298.643 407.929 298.425 408.097 298.23 408.29Z" fill="#C7C7C7"/>
<path d="M275.26 412.94C275.282 413.175 275.256 413.413 275.183 413.638C275.111 413.863 274.994 414.071 274.84 414.25C274.673 414.446 274.469 414.607 274.238 414.722C274.008 414.837 273.757 414.904 273.5 414.92C273.235 414.937 272.971 414.893 272.726 414.79C272.481 414.688 272.264 414.53 272.09 414.33C271.777 413.981 271.591 413.537 271.56 413.07C271.869 413.351 272.204 413.602 272.56 413.82C272.83 413.994 273.149 414.078 273.47 414.06C273.804 414.04 274.127 413.937 274.41 413.76C274.735 413.534 275.022 413.257 275.26 412.94Z" fill="#C7C7C7"/>
<path d="M272.17 412.74C272.124 412.568 272.118 412.388 272.155 412.215C272.191 412.041 272.269 411.878 272.38 411.74C272.501 411.589 272.653 411.465 272.825 411.377C272.998 411.289 273.187 411.239 273.38 411.23C273.571 411.222 273.76 411.258 273.934 411.336C274.108 411.414 274.26 411.532 274.38 411.68C274.489 411.809 274.57 411.959 274.62 412.121C274.67 412.282 274.687 412.452 274.67 412.62C274.437 412.463 274.193 412.323 273.94 412.2C273.775 412.11 273.588 412.068 273.4 412.08C273.203 412.093 273.009 412.144 272.83 412.23C272.588 412.368 272.366 412.54 272.17 412.74Z" fill="#C7C7C7"/>
<g opacity="0.4">
<path d="M68.4204 336.92C68.3881 344.511 69.8386 352.035 72.6904 359.07C75.5804 366 80.1504 372.14 86.0704 376C87.5142 376.957 89.0402 377.783 90.6304 378.47C92.1932 379.115 93.8138 379.611 95.4704 379.95C98.6989 380.616 102.024 380.663 105.27 380.09C111.71 378.98 117.65 375.79 122.91 371.59C123.23 371.32 123.59 371.05 123.91 370.8L124.65 370.09C125.13 369.59 125.65 369.09 126.07 368.56C127.03 367.467 127.903 366.3 128.68 365.07C130.382 362.411 131.838 359.603 133.03 356.68C135.625 350.231 137.754 343.604 139.4 336.85C142.97 322.85 145.81 308.02 149.19 292.96C150.03 289.187 150.927 285.4 151.88 281.6C152.8 277.79 153.82 273.97 154.88 270.12C157.036 262.112 159.804 254.283 163.16 246.7C164.08 244.7 165.09 242.7 166.29 240.63C166.88 239.63 167.55 238.56 168.29 237.54C169.03 236.52 169.75 235.54 170.54 234.65C173.565 231.131 177.07 228.054 180.95 225.51C188.29 220.58 195.83 217.51 203.07 214.39C210.31 211.27 217.45 208.39 224.2 204.94C230.883 201.587 237.166 197.491 242.93 192.73C248.507 188.057 253.263 182.483 257 176.24C260.68 170.05 263.36 163.3 264.13 156.73C264.551 153.597 264.507 150.42 264 147.3C263.519 144.51 262.5 141.841 261 139.44C259.658 137.318 257.893 135.495 255.814 134.086C253.736 132.676 251.389 131.711 248.92 131.25C246.401 130.758 243.821 130.657 241.27 130.95C238.532 131.289 235.846 131.961 233.27 132.95C232.6 133.2 231.94 133.48 231.27 133.76L228.91 134.76C227.35 135.46 225.8 136.19 224.29 136.97C221.29 138.52 218.29 140.19 215.38 142.06C209.55 145.75 203.82 150.22 197.44 155.06C190.751 160.208 183.692 164.857 176.32 168.97C168.636 173.076 160.576 176.434 152.25 179C151.25 179.34 150.19 179.61 149.16 179.91L146.39 180.7C144.86 181.15 143.31 181.64 141.77 182.17C138.7 183.25 135.66 184.48 132.7 185.85C120.87 191.37 110.53 199.11 103.17 209.17C99.3636 214.299 96.2157 219.886 93.8004 225.8C92.501 228.893 91.4021 232.066 90.5104 235.3C89.5513 238.65 88.7702 242.048 88.1704 245.48C87.5704 248.97 87.1004 252.55 86.8104 256.19C86.6604 257.9 86.5504 260.13 86.4104 262.19C86.2704 264.25 86.0604 266.3 85.8204 268.34C84.8644 276.406 83.344 284.396 81.2704 292.25C79.2704 300.02 76.7904 307.54 74.2704 314.93C73.0004 318.63 71.7304 322.3 70.6004 325.93C69.3835 329.479 68.6502 333.175 68.4204 336.92ZM65.4204 336.92C65.4309 334.875 65.6386 332.835 66.0404 330.83C66.3904 328.83 66.8504 326.94 67.3004 325.04C68.2004 321.23 69.1704 317.47 69.9704 313.69C70.7704 309.91 71.4804 306.14 71.9704 302.35C72.4604 298.56 72.7804 294.76 72.9704 290.97C73.2412 283.457 72.7588 275.936 71.5304 268.52C71.2504 266.68 70.8904 264.86 70.5304 263.05C70.1704 261.24 69.7404 259.56 69.3204 257.41C68.4658 253.268 67.8415 249.081 67.4504 244.87C66.6018 236.117 67.0093 227.288 68.6604 218.65C70.4175 209.622 73.7048 200.96 78.3804 193.04C83.1703 185.096 89.1651 177.944 96.1504 171.84C102.998 165.843 110.624 160.798 118.82 156.84C122.853 154.863 127.008 153.146 131.26 151.7C133.38 150.95 135.54 150.3 137.74 149.7L143.08 148.27C149.637 146.482 156.03 144.14 162.19 141.27C168.582 138.22 174.754 134.728 180.66 130.82C187.01 126.82 193.88 122.15 201.5 118.1C205.323 116.044 209.252 114.191 213.27 112.55C215.27 111.72 217.27 110.97 219.37 110.25L222.45 109.25C223.62 108.9 224.8 108.56 225.99 108.25C230.869 107.01 235.899 106.468 240.93 106.64C246.153 106.806 251.307 107.882 256.16 109.82C261.114 111.813 265.614 114.785 269.39 118.56C273.12 122.283 276.011 126.759 277.87 131.69C279.617 136.353 280.476 141.301 280.4 146.28C280.348 150.917 279.62 155.522 278.24 159.95C275.565 168.119 271.487 175.76 266.19 182.53C263.676 185.832 260.94 188.959 258 191.89C255.077 194.768 251.989 197.472 248.75 199.99C235.86 209.99 221.22 216.63 207.99 224.36C201.39 228.18 195.1 232.36 190.33 237.18C188.095 239.429 186.195 241.989 184.69 244.78C184.35 245.447 184.04 246.113 183.76 246.78C183.49 247.43 183.24 248.09 182.99 248.78C182.5 250.22 182.05 251.78 181.64 253.44C180.83 256.73 180.2 260.28 179.64 263.9C179.08 267.52 178.58 271.23 178.07 274.97L176.59 286.31C176.09 290.12 175.59 293.96 174.99 297.82C172.63 313.22 169.63 328.93 163.99 344.57C161.15 352.699 157.357 360.463 152.69 367.7C151.42 369.56 150.1 371.4 148.63 373.2C147.158 375.044 145.561 376.784 143.85 378.41C142.088 380.111 140.195 381.673 138.19 383.08C137.167 383.803 136.106 384.471 135.01 385.08L133.33 385.98C132.79 386.26 132.33 386.46 131.8 386.7C127.741 388.585 123.489 390.027 119.12 391C114.675 391.983 110.112 392.319 105.57 392C101.055 391.678 96.629 390.575 92.4904 388.74C90.469 387.842 88.5342 386.761 86.7104 385.51C84.9352 384.296 83.2629 382.938 81.7104 381.45C75.8379 375.598 71.5056 368.384 69.1004 360.45C66.7317 352.856 65.4918 344.955 65.4204 337V336.92Z" fill="#EBEBEB" fill-opacity="0.14"/>
<path d="M194.32 370.37C198.457 362.476 201.534 354.07 203.47 345.37C205.56 336.7 206.89 327.85 208.19 318.9C208.88 314.43 209.5 309.9 210.32 305.37C211.086 300.711 212.121 296.1 213.42 291.56C214.798 286.667 216.78 281.964 219.32 277.56C222.259 272.539 226.292 268.246 231.12 265C232.41 264.15 233.8 263.44 235.12 262.68C236.44 261.92 237.98 261.44 239.44 260.87C240.9 260.3 242.44 259.97 243.9 259.59C245.36 259.21 246.9 259.04 248.39 258.79C254.134 258.027 259.958 258.104 265.68 259.02C271.292 259.914 276.772 261.492 282 263.72C286.897 265.837 291.609 268.355 296.09 271.25C304.226 276.639 311.96 282.611 319.23 289.12L329.47 298.12C331.14 299.59 332.83 300.99 334.47 302.4L336.96 304.49L339.45 306.49C342.686 309.081 346.05 311.507 349.53 313.76C352.819 315.91 356.285 317.777 359.89 319.34C363.722 320.904 367.684 322.129 371.73 323C375.95 324 380.35 324.74 384.86 325.4C393.86 326.73 403.26 327.57 412.77 328.67L419.92 329.56C422.33 329.91 424.72 330.27 427.14 330.71C432.051 331.532 436.892 332.728 441.62 334.29C446.567 335.889 451.226 338.269 455.42 341.34C459.66 344.52 463.121 348.624 465.54 353.34C466.696 355.617 467.627 358.002 468.32 360.46L469.22 364.09C469.47 365.29 469.63 366.45 469.84 367.64C470.545 372.395 470.816 377.205 470.65 382.01C470.409 386.847 469.699 391.65 468.53 396.35C468.21 397.52 467.97 398.72 467.59 399.87L466.47 403.34C465.61 405.61 464.74 407.89 463.71 410.09C459.583 418.959 454.161 427.166 447.62 434.44C444.4 438.111 440.968 441.591 437.34 444.86C433.76 448.19 429.94 451.22 426.06 454.17C424.06 455.59 422.14 457.08 420.11 458.42L417.11 460.48L414.04 462.48C409.913 465.067 405.7 467.5 401.4 469.78C399.25 470.91 397.08 472 394.91 473.1C392.74 474.2 390.52 475.18 388.31 476.17C386.1 477.16 383.88 478.17 381.63 479.06C379.38 479.95 377.15 480.9 374.87 481.73L361.87 486.59C359.75 487.38 357.67 488.23 355.58 489.05L352.44 490.29L349.33 491.58C332.828 498.398 316.758 506.219 301.21 515C293.4 519.41 285.66 524 277.26 528.64C273.07 530.99 268.63 533.27 263.77 535.44C258.621 537.76 253.264 539.588 247.77 540.9C241.873 542.276 235.823 542.884 229.77 542.71C224.013 542.533 218.291 541.745 212.7 540.36C209.98 539.77 207.45 538.98 204.88 538.23C203.61 537.83 202.39 537.39 201.15 536.98C199.91 536.57 198.69 536.15 197.41 535.62L193.63 534.1L191.75 533.32L189.88 532.41C187.351 531.237 184.89 529.921 182.51 528.47C181.31 527.73 180.11 527.01 178.92 526.24L175.46 523.69L173.76 522.4C173.19 521.96 172.67 521.45 172.12 520.97L168.92 518.05C167.92 517.05 166.92 515.89 165.98 514.82L164.54 513.18C164.08 512.62 163.67 512.02 163.23 511.43C162.38 510.25 161.52 509.08 160.7 507.89C159.88 506.7 159.25 505.39 158.55 504.13C155.916 499.193 154.045 493.887 153 488.39L152.59 486.39C152.48 485.72 152.41 485.06 152.33 484.39C152.17 483.07 152 481.75 151.89 480.39C151.744 477.809 151.727 475.222 151.84 472.64C152.066 467.667 152.715 462.723 153.78 457.86C154.825 453.183 156.134 448.569 157.7 444.04C160.787 435.266 164.417 426.693 168.57 418.37C169.57 416.32 170.57 414.24 171.65 412.22C172.73 410.2 173.65 408.14 174.78 406.13C175.91 404.12 176.92 402.13 178 400.13L181.23 394.13L194.32 370.37ZM196.98 371.73C192.7 379.65 188.72 387.73 185.18 395.98L183.86 399.07L182.62 402.19C181.77 404.26 181.02 406.37 180.26 408.47C178.71 412.66 177.37 416.92 176.13 421.19C173.659 429.622 171.959 438.261 171.05 447C170.608 451.228 170.418 455.479 170.48 459.73C170.569 463.797 170.988 467.85 171.73 471.85C172 473.85 172.61 475.66 173.05 477.52L173.96 480.19C174.12 480.63 174.25 481.07 174.41 481.5L174.98 482.76C176.336 485.994 178.136 489.024 180.33 491.76C180.88 492.42 181.43 493.06 181.94 493.76L183.74 495.56C184.04 495.86 184.32 496.18 184.63 496.46L185.63 497.27C186.3 497.8 186.92 498.37 187.63 498.89L189.78 500.37C190.14 500.62 190.47 500.89 190.85 501.11L192.02 501.78L194.33 503.13L196.82 504.32C200.271 505.956 203.837 507.336 207.49 508.45C208.39 508.77 209.4 509.04 210.4 509.31C211.4 509.58 212.4 509.88 213.4 510.12C215.35 510.55 217.31 511.07 219.19 511.36C222.734 512.054 226.339 512.389 229.95 512.36C233.25 512.31 236.533 511.871 239.73 511.05C246.2 509.4 253.42 505.88 261.25 501.69C265.16 499.62 269.15 497.42 273.25 495.19C277.35 492.96 281.54 490.79 285.75 488.61C302.837 479.897 320.517 472.402 338.66 466.18L342 465L345.41 463.88C347.68 463.14 349.95 462.37 352.23 461.67L365.58 457.6C369.83 456.29 374.04 454.9 378.23 453.47L384.46 451.22C386.52 450.43 388.58 449.65 390.63 448.84C394.68 447.16 398.77 445.51 402.71 443.63L405.71 442.25L408.64 440.8C410.64 439.86 412.49 438.8 414.42 437.8C421.99 433.696 429.143 428.866 435.78 423.38C439.019 420.653 442.064 417.703 444.89 414.55C447.704 411.461 450.218 408.113 452.4 404.55C456.817 397.479 459.613 389.519 460.59 381.24C461.025 377.073 461.005 372.872 460.53 368.71C460.38 367.71 460.28 366.61 460.1 365.59L459.48 362.59C458.962 360.682 458.266 358.827 457.4 357.05C455.675 353.533 453.105 350.499 449.92 348.22C446.519 345.861 442.727 344.124 438.72 343.09C434.46 341.974 430.11 341.238 425.72 340.89C421.26 340.52 416.72 340.39 412.12 340.43C402.94 340.48 393.58 341.05 383.93 341.25C379.09 341.32 374.17 341.25 369.11 340.95C363.86 340.655 358.644 339.913 353.52 338.73C342.61 336.06 333.21 331.17 324.7 325.73C307.8 314.79 294.49 301.73 280.97 292.12C274.24 287.33 267.58 283.51 260.72 281.41C257.271 280.352 253.703 279.734 250.1 279.57C246.826 279.28 243.53 279.762 240.477 280.978C237.424 282.193 234.698 284.109 232.52 286.57C229.803 289.514 227.474 292.794 225.59 296.33C223.546 300.113 221.72 304.009 220.12 308C218.51 312.11 216.98 316.32 215.59 320.58C212.73 329.1 210.22 337.81 207.35 346.42C204.629 355.137 201.167 363.604 197 371.73H196.98Z" fill="#EBEBEB" fill-opacity="0.14"/>
<path d="M472.72 166.88C471.464 169.572 470.024 172.175 468.41 174.67C467.67 175.87 466.89 177 466.11 178.14C465.33 179.28 464.51 180.35 463.69 181.4C462.07 183.54 460.37 185.51 458.69 187.48C451.83 195.23 444.36 201.88 437.04 208.48L434.45 210.83L433.31 211.83L432.2 213C431.45 213.75 430.79 214.61 430.09 215.43C429.39 216.25 428.77 217.19 428.09 218.11C427.41 219.03 426.83 219.97 426.25 220.97C425.67 221.97 425.08 222.97 424.53 223.97C423.46 225.97 422.37 228.14 421.42 230.32C417.42 239.06 414.42 248.45 409.81 257.86C407.396 262.867 404.199 267.458 400.34 271.46C398.229 273.577 395.88 275.443 393.34 277.02C392.047 277.812 390.712 278.533 389.34 279.18C388.65 279.5 387.96 279.84 387.26 280.12L385.14 280.91C382.322 281.884 379.424 282.614 376.48 283.09C375 283.36 373.4 283.44 371.83 283.58C370.26 283.72 368.73 283.58 367.16 283.58C365.59 283.58 364.16 283.31 362.57 283.14C361.821 283.051 361.077 282.924 360.34 282.76L358.12 282.31L357.01 282.07L355.94 281.76L353.8 281.12C352.385 280.714 350.996 280.223 349.64 279.65C344.335 277.53 339.318 274.748 334.71 271.37C330.27 268.077 326.172 264.345 322.48 260.23C318.882 256.151 315.705 251.719 313 247C312.33 245.82 311.69 244.63 311.06 243.45C310.43 242.27 309.9 241 309.33 239.78C308.76 238.56 308.24 237.32 307.76 236.06C307.28 234.8 306.76 233.57 306.36 232.27C304.637 227.201 303.326 222 302.44 216.72C301.541 211.534 301.059 206.283 301 201.02C300.902 195.878 301.29 190.739 302.16 185.67C303.021 180.665 304.611 175.813 306.88 171.27C309.278 166.664 312.699 162.669 316.88 159.59C321.139 156.54 325.796 154.087 330.72 152.3C340.552 148.743 350.721 146.203 361.07 144.72C366.18 143.94 371.26 143.42 376.29 143.1C376.778 143.078 377.263 143.014 377.74 142.91L378.91 142.7C379.71 142.46 380.47 142.39 381.26 142.11L382.42 141.78C382.81 141.64 383.2 141.48 383.59 141.37C384.37 141.16 385.19 140.75 385.98 140.5C389.588 139.029 393.102 137.336 396.5 135.43L402.43 132.1L405.6 130.31L409 128.52C411.26 127.28 413.79 126.09 416.39 124.91C419.214 123.677 422.113 122.624 425.07 121.76C428.406 120.783 431.835 120.16 435.3 119.9C439.084 119.61 442.889 119.839 446.61 120.58L448.03 120.85L449.41 121.22C450.32 121.48 451.25 121.73 452.16 122.02C453.906 122.634 455.613 123.355 457.27 124.18L459.68 125.43L461.89 126.8C463.319 127.726 464.697 128.728 466.02 129.8C466.37 130.06 466.64 130.26 467.02 130.59C467.4 130.92 468.02 131.47 468.53 131.93C469.57 132.867 470.523 133.894 471.38 135C471.59 135.27 471.82 135.55 472.03 135.84L472.64 136.77C473.03 137.4 473.4 138.02 473.77 138.66C474.433 139.949 474.997 141.286 475.46 142.66C475.66 143.34 475.84 144.01 476.01 144.66C476.1 145 476.18 145.35 476.24 145.66L476.4 146.66C476.49 147.3 476.56 147.95 476.63 148.6C476.7 149.25 476.68 149.81 476.7 150.42C476.72 151.03 476.7 151.63 476.7 152.21L476.56 153.85C476.5 154.38 476.46 154.96 476.37 155.46L476.08 157C475.347 160.412 474.22 163.728 472.72 166.88Z" fill="#EBEBEB" fill-opacity="0.14"/>
<path d="M142.88 431.35C143.373 434.209 143.577 437.11 143.49 440.01C143.271 445.299 142.363 450.536 140.79 455.59C139.43 460.518 137.695 465.336 135.6 470C133.472 474.686 130.786 479.098 127.6 483.14C124.272 487.345 120.398 491.088 116.08 494.27C111.24 497.661 105.676 499.876 99.8302 500.74C96.7312 501.203 93.5855 501.267 90.4702 500.93C87.4611 500.594 84.5207 499.801 81.7502 498.58C79.2925 497.476 76.9924 496.05 74.9102 494.34C73.0475 492.782 71.2809 491.112 69.6202 489.34C68.7606 488.412 67.9874 487.408 67.3102 486.34C66.6728 485.219 66.1276 484.049 65.6802 482.84C64.8413 480.342 64.2583 477.766 63.9402 475.15C63.1948 469.712 63.1343 464.203 63.7602 458.75C64.3547 453.514 66.0593 448.465 68.7602 443.94C71.3735 439.651 74.8217 435.931 78.9002 433C83.1097 430.145 87.6409 427.795 92.4002 426C97.1402 424.12 101.73 422.35 106.09 420.29C110.45 418.23 114.67 415.94 119.98 414.29C121.398 413.841 122.854 413.527 124.33 413.35C126.051 413.118 127.797 413.145 129.51 413.43C131.809 413.873 133.952 414.907 135.73 416.43C136.172 416.817 136.593 417.228 136.99 417.66C137.36 418.08 137.73 418.51 138.08 418.96C138.694 419.791 139.245 420.667 139.73 421.58C140.18 422.416 140.58 423.278 140.93 424.16C141.23 424.96 141.57 425.84 141.78 426.61L142.13 427.82L142.42 428.99C142.61 429.84 142.74 430.58 142.88 431.35Z" fill="#EBEBEB" fill-opacity="0.14"/>
</g>
<g opacity="0.4">
<path d="M425.35 263.48C448.86 245.22 472.51 248.77 472.51 248.77C472.51 248.77 472.62 272.69 451.16 293.32C433.05 310.73 415.86 309.74 409.93 302.9C404 296.06 405.51 278.88 425.35 263.48Z" fill="#EBEBEB" fill-opacity="0.14"/>
<path d="M422.74 275.29C437.64 263.71 452.63 265.97 452.63 265.97C452.63 265.97 452.7 281.12 439.1 294.21C427.62 305.21 416.71 304.62 412.96 300.28C409.21 295.94 410.16 285.05 422.74 275.29Z" fill="white"/>
</g>
<path d="M433.53 281.54L431.75 280.12C431.629 280.023 431.527 279.904 431.452 279.768C431.376 279.633 431.329 279.483 431.311 279.329C431.293 279.175 431.306 279.019 431.349 278.87C431.392 278.721 431.464 278.581 431.56 278.46C431.657 278.339 431.777 278.238 431.913 278.164C432.049 278.089 432.199 278.043 432.353 278.026C432.507 278.009 432.663 278.023 432.812 278.067C432.961 278.11 433.099 278.183 433.22 278.28L435 279.7C435.121 279.796 435.221 279.915 435.296 280.05C435.37 280.186 435.417 280.334 435.433 280.487C435.45 280.641 435.436 280.796 435.393 280.944C435.35 281.092 435.277 281.23 435.18 281.35C435.085 281.471 434.966 281.572 434.831 281.648C434.697 281.723 434.548 281.771 434.395 281.788C434.241 281.806 434.086 281.793 433.938 281.751C433.789 281.708 433.651 281.636 433.53 281.54Z" fill="#EBEBEB" fill-opacity="0.14"/>
<path d="M413.46 299.85L412.22 297.94C412.05 297.678 411.99 297.36 412.054 297.055C412.117 296.749 412.3 296.481 412.56 296.31C412.69 296.224 412.836 296.165 412.988 296.135C413.141 296.106 413.299 296.107 413.451 296.138C413.603 296.17 413.748 296.232 413.877 296.319C414.005 296.407 414.115 296.519 414.2 296.65L415.44 298.56C415.61 298.823 415.668 299.142 415.602 299.447C415.537 299.753 415.353 300.02 415.09 300.19C414.829 300.36 414.51 300.42 414.205 300.356C413.9 300.293 413.632 300.111 413.46 299.85Z" fill="#EBEBEB" fill-opacity="0.14"/>
<path d="M425.18 277.91H423.95C423.795 277.905 423.643 277.869 423.502 277.805C423.36 277.741 423.233 277.649 423.127 277.536C423.022 277.423 422.939 277.29 422.885 277.145C422.83 276.999 422.805 276.845 422.81 276.69C422.815 276.535 422.851 276.382 422.915 276.241C422.979 276.1 423.071 275.973 423.184 275.867C423.297 275.761 423.43 275.679 423.576 275.624C423.721 275.57 423.875 275.545 424.03 275.55H425.25C425.405 275.554 425.557 275.588 425.698 275.651C425.839 275.714 425.967 275.805 426.073 275.917C426.179 276.03 426.261 276.162 426.316 276.307C426.37 276.451 426.396 276.605 426.39 276.76C426.386 276.915 426.352 277.068 426.289 277.209C426.226 277.351 426.136 277.479 426.024 277.586C425.911 277.692 425.779 277.776 425.634 277.832C425.489 277.887 425.335 277.914 425.18 277.91Z" fill="#EBEBEB" fill-opacity="0.14"/>
<path d="M436.5 292.7V291.48C436.504 291.325 436.539 291.173 436.602 291.032C436.665 290.891 436.755 290.764 436.868 290.658C436.98 290.552 437.112 290.469 437.257 290.414C437.402 290.36 437.556 290.335 437.71 290.34C437.865 290.344 438.018 290.378 438.16 290.441C438.301 290.504 438.429 290.594 438.536 290.707C438.643 290.819 438.726 290.951 438.782 291.096C438.838 291.241 438.864 291.395 438.86 291.55V292.78C438.856 292.934 438.822 293.087 438.759 293.228C438.696 293.369 438.605 293.496 438.493 293.602C438.38 293.708 438.248 293.791 438.103 293.845C437.959 293.9 437.805 293.925 437.65 293.92C437.494 293.916 437.341 293.881 437.198 293.818C437.056 293.754 436.928 293.663 436.821 293.55C436.714 293.436 436.631 293.303 436.575 293.157C436.52 293.011 436.495 292.856 436.5 292.7Z" fill="#EBEBEB" fill-opacity="0.14"/>
<path d="M410.43 293.06L410.29 291.85C410.256 291.545 410.34 291.238 410.527 290.994C410.713 290.75 410.987 290.587 411.29 290.54C411.603 290.506 411.917 290.598 412.162 290.795C412.407 290.991 412.565 291.277 412.6 291.59L412.73 292.8C412.767 293.104 412.683 293.411 412.496 293.654C412.309 293.898 412.034 294.058 411.73 294.1C411.576 294.118 411.421 294.105 411.272 294.063C411.123 294.02 410.984 293.948 410.863 293.852C410.742 293.755 410.642 293.635 410.567 293.499C410.493 293.363 410.446 293.214 410.43 293.06Z" fill="#EBEBEB" fill-opacity="0.14"/>
<path d="M430.28 303.72L429.14 304.17C428.996 304.227 428.842 304.254 428.686 304.251C428.531 304.248 428.378 304.214 428.236 304.152C428.094 304.09 427.966 304 427.858 303.888C427.751 303.777 427.667 303.645 427.61 303.5C427.554 303.356 427.526 303.201 427.529 303.046C427.532 302.891 427.566 302.738 427.628 302.596C427.69 302.454 427.78 302.325 427.892 302.218C428.004 302.111 428.136 302.026 428.28 301.97L429.42 301.53C429.711 301.415 430.035 301.42 430.322 301.544C430.608 301.667 430.834 301.9 430.95 302.19C431.008 302.334 431.037 302.489 431.034 302.644C431.032 302.8 430.999 302.953 430.936 303.096C430.874 303.238 430.784 303.367 430.671 303.474C430.558 303.581 430.426 303.665 430.28 303.72Z" fill="#EBEBEB" fill-opacity="0.14"/>
<path d="M426.182 303.832C433.652 302.998 439.032 296.267 438.198 288.796C437.364 281.326 430.632 275.946 423.162 276.78C415.692 277.614 410.312 284.346 411.146 291.816C411.98 299.287 418.712 304.666 426.182 303.832Z" fill="#EBEBEB" fill-opacity="0.14"/>
<path d="M418.84 282.86C418.876 283.515 419.125 284.14 419.55 284.64C419.974 285.159 420.53 285.553 421.16 285.78C421.81 286.018 422.526 285.996 423.16 285.72C423.763 285.453 424.252 284.982 424.54 284.39C424.1 284.801 423.574 285.108 423 285.29C422.731 285.369 422.45 285.399 422.17 285.38C421.89 285.371 421.613 285.317 421.35 285.22L420.95 285.06C420.82 284.99 420.69 284.93 420.57 284.85C420.323 284.7 420.092 284.526 419.88 284.33C419.439 283.915 419.085 283.415 418.84 282.86Z" fill="#C7C7C7"/>
<path d="M423.79 283.1C423.797 282.64 423.646 282.191 423.36 281.83C423.072 281.458 422.683 281.177 422.24 281.02C421.797 280.85 421.305 280.86 420.868 281.047C420.431 281.233 420.084 281.582 419.9 282.02C420.22 281.769 420.588 281.585 420.98 281.48C421.332 281.394 421.701 281.415 422.04 281.54C422.799 281.822 423.424 282.379 423.79 283.1Z" fill="#C7C7C7"/>
<path d="M429.42 291.87C429.297 292.302 429.336 292.765 429.53 293.17C429.717 293.59 430.032 293.94 430.43 294.17C430.632 294.297 430.858 294.381 431.093 294.417C431.329 294.453 431.57 294.441 431.8 294.38C432.238 294.272 432.619 294.004 432.87 293.63C432.511 293.796 432.125 293.897 431.73 293.93C431.378 293.94 431.03 293.846 430.73 293.66C430.414 293.478 430.138 293.233 429.92 292.94C429.689 292.617 429.52 292.254 429.42 291.87Z" fill="#C7C7C7"/>
<path d="M432.39 293.09C432.452 292.946 432.484 292.791 432.484 292.635C432.484 292.478 432.452 292.324 432.39 292.18C432.266 291.874 432.045 291.617 431.76 291.45C431.612 291.359 431.447 291.299 431.275 291.275C431.103 291.251 430.928 291.263 430.76 291.31C430.608 291.355 430.467 291.43 430.345 291.532C430.223 291.633 430.122 291.759 430.05 291.9C430.306 291.817 430.572 291.773 430.84 291.77C431.056 291.781 431.266 291.846 431.45 291.96C431.878 292.224 432.208 292.621 432.39 293.09Z" fill="#C7C7C7"/>
<path d="M433.93 288.32C433.823 288.444 433.742 288.589 433.692 288.745C433.643 288.902 433.625 289.067 433.64 289.23C433.656 289.407 433.708 289.579 433.792 289.735C433.877 289.891 433.991 290.029 434.13 290.14C434.269 290.25 434.431 290.328 434.604 290.368C434.777 290.408 434.957 290.409 435.13 290.37C435.447 290.301 435.729 290.124 435.93 289.87C435.651 289.893 435.37 289.893 435.09 289.87C434.863 289.866 434.645 289.785 434.47 289.64C434.291 289.494 434.154 289.305 434.07 289.09C433.982 288.843 433.935 288.583 433.93 288.32Z" fill="#C7C7C7"/>
<path d="M435.75 289.44C435.843 289.365 435.917 289.268 435.964 289.159C436.011 289.049 436.03 288.929 436.02 288.81C436.015 288.678 435.981 288.548 435.921 288.431C435.86 288.313 435.775 288.211 435.67 288.13C435.566 288.043 435.442 287.983 435.31 287.956C435.178 287.928 435.04 287.933 434.91 287.97C434.796 287.999 434.689 288.052 434.597 288.124C434.504 288.196 434.427 288.287 434.37 288.39C434.564 288.394 434.758 288.41 434.95 288.44C435.078 288.459 435.198 288.511 435.3 288.59C435.41 288.678 435.502 288.787 435.57 288.91C435.653 289.078 435.713 289.256 435.75 289.44Z" fill="#C7C7C7"/>
<path d="M414.94 286.39C414.943 286.555 414.979 286.718 415.046 286.87C415.113 287.021 415.21 287.157 415.33 287.27C415.464 287.394 415.622 287.489 415.794 287.55C415.966 287.61 416.149 287.634 416.33 287.62C416.513 287.612 416.691 287.562 416.85 287.473C417.01 287.385 417.147 287.26 417.25 287.11C417.437 286.845 417.529 286.524 417.51 286.2C417.328 286.414 417.128 286.612 416.91 286.79C416.735 286.927 416.523 287.011 416.3 287.03C416.069 287.042 415.838 286.993 415.63 286.89C415.375 286.762 415.142 286.593 414.94 286.39Z" fill="#C7C7C7"/>
<path d="M417.05 286C417.066 285.882 417.055 285.762 417.017 285.649C416.978 285.536 416.915 285.434 416.83 285.35C416.738 285.256 416.628 285.182 416.505 285.134C416.383 285.085 416.252 285.064 416.12 285.07C415.994 285.077 415.871 285.111 415.759 285.171C415.648 285.23 415.551 285.314 415.474 285.414C415.398 285.515 415.345 285.632 415.318 285.755C415.292 285.879 415.292 286.007 415.32 286.13C415.5 285.99 415.64 285.87 415.78 285.78C415.894 285.714 416.02 285.673 416.15 285.66C416.29 285.654 416.43 285.678 416.56 285.73C416.735 285.796 416.9 285.887 417.05 286Z" fill="#C7C7C7"/>
<path d="M423.56 294.73C423.049 295.03 422.461 295.172 421.869 295.138C421.277 295.104 420.709 294.895 420.236 294.539C419.763 294.182 419.406 293.693 419.21 293.134C419.014 292.574 418.988 291.969 419.136 291.395C419.284 290.821 419.598 290.304 420.04 289.909C420.481 289.513 421.03 289.257 421.616 289.173C422.203 289.089 422.801 289.181 423.336 289.436C423.871 289.692 424.317 290.101 424.62 290.61C424.822 290.95 424.955 291.326 425.011 291.718C425.067 292.109 425.045 292.507 424.947 292.89C424.848 293.273 424.675 293.633 424.437 293.949C424.199 294.264 423.901 294.53 423.56 294.73Z" fill="#DBDBDB"/>
<path d="M420.47 290.88C420.1 291.098 419.787 291.4 419.556 291.761C419.325 292.122 419.183 292.533 419.14 292.96C419.004 292.475 418.992 291.964 419.105 291.474C419.219 290.983 419.454 290.529 419.788 290.153C420.123 289.777 420.547 289.492 421.022 289.323C421.496 289.154 422.005 289.107 422.502 289.187C422.999 289.266 423.468 289.469 423.866 289.778C424.264 290.086 424.578 290.49 424.779 290.951C424.98 291.413 425.061 291.917 425.016 292.419C424.971 292.92 424.8 293.402 424.52 293.82C424.626 293.308 424.583 292.776 424.396 292.288C424.208 291.8 423.885 291.376 423.464 291.066C423.042 290.756 422.541 290.574 422.019 290.541C421.497 290.508 420.977 290.626 420.52 290.88H420.47Z" fill="#C7C7C7"/>
<path d="M418 293.1C418.077 293.896 418.394 294.649 418.91 295.26C419.443 295.886 420.133 296.359 420.91 296.63C421.694 296.94 422.566 296.94 423.35 296.63C424.066 296.285 424.647 295.712 425 295C424.477 295.533 423.831 295.931 423.12 296.16C422.95 296.214 422.776 296.254 422.6 296.28C422.424 296.3 422.246 296.3 422.07 296.28C421.728 296.269 421.39 296.202 421.07 296.08L420.57 295.88C420.41 295.79 420.25 295.72 420.1 295.62C419.787 295.432 419.496 295.21 419.23 294.96C418.702 294.427 418.284 293.795 418 293.1Z" fill="#C7C7C7"/>
<path d="M414.81 294.6C414.671 294.649 414.524 294.67 414.376 294.663C414.229 294.655 414.084 294.618 413.951 294.555C413.818 294.491 413.698 294.402 413.6 294.292C413.501 294.182 413.425 294.054 413.375 293.915C413.326 293.776 413.305 293.628 413.313 293.481C413.32 293.333 413.357 293.189 413.421 293.056C413.484 292.922 413.574 292.803 413.683 292.704C413.793 292.605 413.921 292.529 414.06 292.48C414.342 292.386 414.648 292.406 414.915 292.535C415.182 292.664 415.389 292.892 415.49 293.17C415.59 293.45 415.574 293.758 415.446 294.026C415.319 294.294 415.09 294.5 414.81 294.6Z" fill="#DBDBDB"/>
<path d="M414 293C413.849 293.053 413.713 293.142 413.604 293.258C413.494 293.375 413.414 293.516 413.37 293.67C413.345 293.422 413.405 293.172 413.539 292.961C413.673 292.751 413.875 292.592 414.11 292.51C414.392 292.416 414.698 292.436 414.965 292.565C415.232 292.694 415.438 292.922 415.54 293.2C415.611 293.4 415.623 293.617 415.575 293.824C415.528 294.031 415.422 294.221 415.27 294.37C415.365 294.132 415.365 293.868 415.27 293.63C415.229 293.505 415.163 293.39 415.076 293.29C414.99 293.191 414.884 293.11 414.766 293.051C414.648 292.992 414.52 292.958 414.388 292.949C414.257 292.94 414.125 292.958 414 293Z" fill="#C7C7C7"/>
<path d="M412.87 293.61C412.825 293.908 412.878 294.214 413.02 294.48C413.171 294.753 413.392 294.98 413.66 295.14C413.936 295.308 414.266 295.361 414.58 295.29C414.878 295.221 415.141 295.047 415.32 294.8C415.081 294.94 414.815 295.028 414.54 295.06C414.284 295.077 414.029 295.014 413.81 294.88C413.576 294.743 413.371 294.56 413.209 294.342C413.048 294.123 412.932 293.874 412.87 293.61Z" fill="#C7C7C7"/>
<path d="M423.29 301C422.978 301.053 422.657 301.012 422.368 300.883C422.079 300.753 421.835 300.541 421.667 300.273C421.498 300.005 421.413 299.692 421.423 299.376C421.432 299.059 421.535 298.753 421.718 298.495C421.902 298.237 422.158 298.039 422.454 297.927C422.75 297.814 423.073 297.792 423.382 297.864C423.69 297.935 423.971 298.096 424.188 298.327C424.405 298.558 424.548 298.847 424.6 299.16C424.636 299.367 424.63 299.579 424.584 299.784C424.537 299.988 424.45 300.182 424.329 300.353C424.207 300.524 424.052 300.669 423.874 300.78C423.696 300.891 423.497 300.966 423.29 301Z" fill="#DBDBDB"/>
<path d="M422.49 298.49C422.266 298.528 422.054 298.618 421.872 298.754C421.689 298.889 421.541 299.066 421.44 299.27C421.465 298.878 421.635 298.509 421.915 298.234C422.196 297.959 422.569 297.798 422.962 297.782C423.355 297.766 423.739 297.896 424.042 298.146C424.344 298.397 424.543 298.751 424.6 299.14C424.65 299.439 424.615 299.745 424.498 300.025C424.381 300.304 424.188 300.545 423.94 300.72C424.13 300.423 424.208 300.069 424.16 299.72C424.134 299.529 424.069 299.344 423.97 299.178C423.871 299.013 423.74 298.868 423.584 298.753C423.429 298.639 423.252 298.556 423.064 298.511C422.876 298.466 422.681 298.459 422.49 298.49Z" fill="#C7C7C7"/>
<path d="M420.83 299.11C420.722 299.519 420.739 299.951 420.88 300.35C421.017 300.758 421.263 301.121 421.59 301.4C421.927 301.688 422.357 301.845 422.8 301.84C423.228 301.821 423.636 301.659 423.96 301.38C423.601 301.548 423.206 301.627 422.81 301.61C422.44 301.575 422.09 301.425 421.81 301.18C421.515 300.93 421.276 300.62 421.11 300.27C420.936 299.907 420.841 299.512 420.83 299.11Z" fill="#C7C7C7"/>
<path d="M428.65 284.86C428.946 285.323 429.376 285.686 429.883 285.899C430.39 286.112 430.95 286.166 431.488 286.054C432.027 285.941 432.518 285.668 432.897 285.269C433.276 284.871 433.525 284.367 433.611 283.823C433.697 283.28 433.615 282.724 433.377 282.228C433.139 281.732 432.756 281.321 432.278 281.048C431.801 280.775 431.251 280.654 430.703 280.701C430.155 280.748 429.635 280.96 429.21 281.31C428.667 281.708 428.304 282.304 428.199 282.97C428.094 283.635 428.256 284.314 428.65 284.86Z" fill="#DBDBDB"/>
<path d="M432.37 282.52C432.592 282.797 432.74 283.126 432.799 283.476C432.859 283.826 432.828 284.185 432.71 284.52C433.072 284.093 433.278 283.555 433.295 282.996C433.311 282.436 433.137 281.888 432.8 281.44C432.338 280.953 431.702 280.667 431.03 280.645C430.358 280.622 429.705 280.865 429.21 281.32C428.826 281.624 428.53 282.025 428.354 282.483C428.178 282.94 428.128 283.437 428.21 283.92C428.332 283.33 428.654 282.8 429.12 282.42C429.566 282.005 430.157 281.783 430.766 281.801C431.375 281.82 431.951 282.078 432.37 282.52Z" fill="#C7C7C7"/>
<path d="M427.57 283.15C427.265 283.773 427.218 284.492 427.44 285.15C427.556 285.486 427.744 285.793 427.99 286.05C428.226 286.319 428.517 286.534 428.843 286.681C429.169 286.828 429.523 286.902 429.88 286.9C430.219 286.907 430.557 286.86 430.88 286.76C431.518 286.566 432.101 286.223 432.58 285.76C432.001 286.001 431.398 286.178 430.78 286.29C430.206 286.392 429.614 286.333 429.07 286.12C428.814 285.996 428.578 285.834 428.37 285.64C428.153 285.45 427.977 285.219 427.85 284.96C427.596 284.393 427.499 283.767 427.57 283.15Z" fill="#C7C7C7"/>
<path d="M155.675 6.07965C151.732 7.0261 151.039 7.79445 150.179 12.1583C149.323 7.79445 148.63 7.0261 144.684 6.07965C148.626 5.13219 149.319 4.36485 150.179 0C151.039 4.36485 151.732 5.13219 155.675 6.07965Z" fill="white"/>
<path d="M53.5452 272.346C49.6027 273.293 48.9096 274.061 48.0497 278.425C47.1938 274.061 46.5008 273.293 42.5542 272.346C46.4967 271.399 47.1898 270.631 48.0497 266.267C48.9096 270.631 49.6027 271.399 53.5452 272.346Z" fill="white"/>
<path d="M271.527 390.299C268.16 390.62 267.904 390.977 267.707 396.346C267.706 396.35 267.704 396.354 267.7 396.356C267.697 396.359 267.693 396.36 267.689 396.36C267.684 396.36 267.68 396.359 267.677 396.356C267.674 396.354 267.671 396.35 267.67 396.346C267.472 390.977 267.216 390.62 263.849 390.299C263.845 390.298 263.842 390.296 263.839 390.293C263.836 390.289 263.835 390.285 263.835 390.281C263.835 390.277 263.836 390.273 263.839 390.269C263.842 390.266 263.845 390.264 263.849 390.263C267.216 389.942 267.472 389.585 267.67 384.216C267.671 384.212 267.674 384.209 267.677 384.206C267.68 384.203 267.684 384.202 267.689 384.202C267.693 384.202 267.697 384.203 267.7 384.206C267.704 384.209 267.706 384.212 267.707 384.216C267.904 389.585 268.16 389.942 271.527 390.263C271.531 390.264 271.535 390.266 271.537 390.269C271.54 390.273 271.541 390.277 271.541 390.281C271.541 390.285 271.54 390.289 271.537 390.293C271.535 390.296 271.531 390.298 271.527 390.299Z" fill="white"/>
<path d="M464.844 291.817C461.477 292.138 461.221 292.495 461.024 297.864C461.023 297.868 461.021 297.871 461.017 297.874C461.014 297.877 461.01 297.878 461.006 297.878C461.001 297.878 460.997 297.877 460.994 297.874C460.991 297.871 460.988 297.868 460.987 297.864C460.789 292.495 460.533 292.138 457.166 291.817C457.162 291.816 457.158 291.814 457.156 291.811C457.153 291.807 457.152 291.803 457.152 291.799C457.152 291.795 457.153 291.791 457.156 291.787C457.158 291.784 457.162 291.782 457.166 291.781C460.533 291.46 460.789 291.103 460.987 285.734C460.988 285.73 460.991 285.726 460.994 285.724C460.997 285.721 461.001 285.72 461.006 285.72C461.01 285.72 461.014 285.721 461.017 285.724C461.021 285.726 461.023 285.73 461.024 285.734C461.221 291.103 461.477 291.46 464.844 291.781C464.848 291.782 464.852 291.784 464.854 291.787C464.857 291.791 464.858 291.795 464.858 291.799C464.858 291.803 464.857 291.807 464.854 291.811C464.852 291.814 464.848 291.816 464.844 291.817Z" fill="white"/>
<path d="M462.412 116.738C459.045 117.058 458.79 117.416 458.592 122.784C458.591 122.788 458.589 122.792 458.586 122.795C458.582 122.797 458.578 122.799 458.574 122.799C458.57 122.799 458.566 122.797 458.562 122.795C458.559 122.792 458.557 122.788 458.556 122.784C458.357 117.416 458.101 117.058 454.735 116.738C454.731 116.737 454.727 116.735 454.724 116.731C454.722 116.728 454.72 116.724 454.72 116.72C454.72 116.715 454.722 116.711 454.724 116.708C454.727 116.705 454.731 116.702 454.735 116.701C458.101 116.381 458.357 116.024 458.556 110.655C458.557 110.651 458.559 110.647 458.562 110.644C458.566 110.642 458.57 110.64 458.574 110.64C458.578 110.64 458.582 110.642 458.586 110.644C458.589 110.647 458.591 110.651 458.592 110.655C458.79 116.024 459.045 116.381 462.412 116.701C462.416 116.702 462.42 116.705 462.423 116.708C462.425 116.711 462.427 116.715 462.427 116.72C462.427 116.724 462.425 116.728 462.423 116.731C462.42 116.735 462.416 116.737 462.412 116.738Z" fill="white"/>
<path d="M216.394 345.314C211.083 345.634 210.679 345.991 210.368 351.36C210.366 351.364 210.362 351.368 210.357 351.371C210.352 351.373 210.346 351.375 210.339 351.375C210.332 351.375 210.326 351.373 210.321 351.371C210.315 351.368 210.312 351.364 210.31 351.36C209.997 345.991 209.593 345.634 204.282 345.314C204.276 345.313 204.27 345.31 204.266 345.307C204.262 345.304 204.259 345.3 204.259 345.295C204.259 345.291 204.262 345.287 204.266 345.284C204.27 345.281 204.276 345.278 204.282 345.277C209.593 344.957 209.997 344.599 210.31 339.231C210.312 339.227 210.315 339.223 210.321 339.22C210.326 339.218 210.332 339.216 210.339 339.216C210.346 339.216 210.352 339.218 210.357 339.22C210.362 339.223 210.366 339.227 210.368 339.231C210.679 344.599 211.083 344.957 216.394 345.277C216.401 345.278 216.406 345.281 216.411 345.284C216.415 345.287 216.417 345.291 216.417 345.295C216.417 345.3 216.415 345.304 216.411 345.307C216.406 345.31 216.401 345.313 216.394 345.314Z" fill="white"/>
<path d="M12.1349 105.795C6.82345 106.116 6.41982 106.473 6.10845 111.842C6.10689 111.846 6.1032 111.85 6.09797 111.852C6.09274 111.855 6.08627 111.856 6.07962 111.856C6.07296 111.856 6.0665 111.855 6.06127 111.852C6.05604 111.85 6.05235 111.846 6.05079 111.842C5.73777 106.473 5.33414 106.116 0.022715 105.795C0.0162422 105.794 0.0104801 105.792 0.00635999 105.789C0.00223989 105.785 0 105.781 0 105.777C0 105.773 0.00223989 105.769 0.00635999 105.766C0.0104801 105.762 0.0162422 105.76 0.022715 105.759C5.33414 105.438 5.73777 105.081 6.05079 99.7124C6.05235 99.7083 6.05604 99.7046 6.06127 99.702C6.0665 99.6994 6.07296 99.698 6.07962 99.698C6.08627 99.698 6.09274 99.6994 6.09797 99.702C6.1032 99.7046 6.10689 99.7083 6.10845 99.7124C6.41982 105.081 6.82345 105.438 12.1349 105.759C12.1413 105.76 12.1471 105.762 12.1512 105.766C12.1553 105.769 12.1576 105.773 12.1576 105.777C12.1576 105.781 12.1553 105.785 12.1512 105.789C12.1471 105.792 12.1413 105.794 12.1349 105.795Z" fill="white"/>
<path d="M396.337 269.932C391.026 270.253 390.622 270.61 390.311 275.979C390.309 275.983 390.305 275.987 390.3 275.989C390.295 275.992 390.288 275.993 390.282 275.993C390.275 275.993 390.269 275.992 390.263 275.989C390.258 275.987 390.254 275.983 390.253 275.979C389.94 270.61 389.536 270.253 384.225 269.932C384.218 269.931 384.213 269.929 384.209 269.926C384.204 269.922 384.202 269.918 384.202 269.914C384.202 269.91 384.204 269.906 384.209 269.902C384.213 269.899 384.218 269.897 384.225 269.896C389.536 269.575 389.94 269.218 390.253 263.849C390.254 263.845 390.258 263.842 390.263 263.839C390.269 263.836 390.275 263.835 390.282 263.835C390.288 263.835 390.295 263.836 390.3 263.839C390.305 263.842 390.309 263.845 390.311 263.849C390.622 269.218 391.026 269.575 396.337 269.896C396.343 269.897 396.349 269.899 396.353 269.902C396.357 269.906 396.36 269.91 396.36 269.914C396.36 269.918 396.357 269.922 396.353 269.926C396.349 269.929 396.343 269.931 396.337 269.932Z" fill="white"/>
<path d="M155.603 471.76C150.291 472.08 149.888 472.438 149.576 477.806C149.575 477.81 149.571 477.814 149.566 477.817C149.561 477.819 149.554 477.821 149.547 477.821C149.541 477.821 149.534 477.819 149.529 477.817C149.524 477.814 149.52 477.81 149.519 477.806C149.206 472.438 148.802 472.08 143.49 471.76C143.484 471.759 143.478 471.757 143.474 471.753C143.47 471.75 143.468 471.746 143.468 471.742C143.468 471.737 143.47 471.733 143.474 471.73C143.478 471.727 143.484 471.724 143.49 471.723C148.802 471.403 149.206 471.046 149.519 465.677C149.52 465.673 149.524 465.669 149.529 465.667C149.534 465.664 149.541 465.662 149.547 465.662C149.554 465.662 149.561 465.664 149.566 465.667C149.571 465.669 149.575 465.673 149.576 465.677C149.888 471.046 150.291 471.403 155.603 471.723C155.609 471.724 155.615 471.727 155.619 471.73C155.623 471.733 155.625 471.737 155.625 471.742C155.625 471.746 155.623 471.75 155.619 471.753C155.615 471.757 155.609 471.759 155.603 471.76Z" fill="white"/>
<path d="M144.66 192.119C139.349 192.44 138.945 192.797 138.634 198.166C138.632 198.17 138.629 198.173 138.623 198.176C138.618 198.179 138.612 198.18 138.605 198.18C138.598 198.18 138.592 198.179 138.587 198.176C138.581 198.173 138.578 198.17 138.576 198.166C138.263 192.797 137.86 192.44 132.548 192.119C132.542 192.118 132.536 192.116 132.532 192.113C132.528 192.109 132.525 192.105 132.525 192.101C132.525 192.097 132.528 192.093 132.532 192.089C132.536 192.086 132.542 192.084 132.548 192.083C137.86 191.762 138.263 191.405 138.576 186.036C138.578 186.032 138.581 186.028 138.587 186.026C138.592 186.023 138.598 186.022 138.605 186.022C138.612 186.022 138.618 186.023 138.623 186.026C138.629 186.028 138.632 186.032 138.634 186.036C138.945 191.405 139.349 191.762 144.66 192.083C144.667 192.084 144.672 192.086 144.677 192.089C144.681 192.093 144.683 192.097 144.683 192.101C144.683 192.105 144.681 192.109 144.677 192.113C144.672 192.116 144.667 192.118 144.66 192.119Z" fill="white"/>
<path d="M506.977 209.141C501.666 209.461 501.262 209.819 500.951 215.187C500.949 215.191 500.945 215.195 500.94 215.198C500.935 215.2 500.929 215.202 500.922 215.202C500.915 215.202 500.909 215.2 500.904 215.198C500.898 215.195 500.895 215.191 500.893 215.187C500.58 209.819 500.176 209.461 494.865 209.141C494.859 209.14 494.853 209.138 494.849 209.134C494.845 209.131 494.842 209.127 494.842 209.123C494.842 209.118 494.845 209.114 494.849 209.111C494.853 209.108 494.859 209.105 494.865 209.104C500.176 208.784 500.58 208.427 500.893 203.058C500.895 203.054 500.898 203.05 500.904 203.047C500.909 203.045 500.915 203.043 500.922 203.043C500.929 203.043 500.935 203.045 500.94 203.047C500.945 203.05 500.949 203.054 500.951 203.058C501.262 208.427 501.666 208.784 506.977 209.104C506.984 209.105 506.989 209.108 506.994 209.111C506.998 209.114 507 209.118 507 209.123C507 209.127 506.998 209.131 506.994 209.134C506.989 209.138 506.984 209.14 506.977 209.141Z" fill="white"/>
<path d="M499.682 465.681C494.371 466.001 493.967 466.359 493.656 471.727C493.654 471.731 493.651 471.735 493.645 471.738C493.64 471.74 493.634 471.742 493.627 471.742C493.62 471.742 493.614 471.74 493.609 471.738C493.603 471.735 493.6 471.731 493.598 471.727C493.285 466.359 492.882 466.001 487.57 465.681C487.564 465.68 487.558 465.677 487.554 465.674C487.55 465.671 487.547 465.667 487.547 465.663C487.547 465.658 487.55 465.654 487.554 465.651C487.558 465.648 487.564 465.645 487.57 465.644C492.882 465.324 493.285 464.966 493.598 459.598C493.6 459.594 493.603 459.59 493.609 459.587C493.614 459.585 493.62 459.583 493.627 459.583C493.634 459.583 493.64 459.585 493.645 459.587C493.651 459.59 493.654 459.594 493.656 459.598C493.967 464.966 494.371 465.324 499.682 465.644C499.689 465.645 499.694 465.648 499.699 465.651C499.703 465.654 499.705 465.658 499.705 465.663C499.705 465.667 499.703 465.671 499.699 465.674C499.694 465.677 499.689 465.68 499.682 465.681Z" fill="white"/>
<path d="M158.56 68.5006C153.696 69.6683 152.841 70.6162 151.78 76C150.724 70.6162 149.869 69.6683 145 68.5006C149.864 67.3317 150.719 66.385 151.78 61C152.841 66.385 153.696 67.3317 158.56 68.5006Z" fill="white"/>
<path d="M262.971 498.523C256.418 498.918 255.92 499.359 255.536 505.982C255.534 505.987 255.53 505.992 255.523 505.995C255.517 505.998 255.509 506 255.501 506C255.492 506 255.484 505.998 255.478 505.995C255.471 505.992 255.467 505.987 255.465 505.982C255.079 499.359 254.581 498.918 248.028 498.523C248.02 498.521 248.013 498.518 248.008 498.514C248.003 498.51 248 498.505 248 498.5C248 498.495 248.003 498.49 248.008 498.486C248.013 498.482 248.02 498.479 248.028 498.477C254.581 498.082 255.079 497.641 255.465 491.018C255.467 491.013 255.471 491.008 255.478 491.005C255.484 491.002 255.492 491 255.501 491C255.509 491 255.517 491.002 255.523 491.005C255.53 491.008 255.534 491.013 255.536 491.018C255.92 497.641 256.418 498.082 262.971 498.477C262.979 498.479 262.986 498.482 262.991 498.486C262.996 498.49 262.999 498.495 262.999 498.5C262.999 498.505 262.996 498.51 262.991 498.514C262.986 498.518 262.979 498.521 262.971 498.523Z" fill="white"/>
<path d="M433.971 168.523C427.418 168.918 426.92 169.359 426.536 175.982C426.534 175.987 426.53 175.992 426.523 175.995C426.517 175.998 426.509 176 426.501 176C426.492 176 426.484 175.998 426.478 175.995C426.471 175.992 426.467 175.987 426.465 175.982C426.079 169.359 425.581 168.918 419.028 168.523C419.02 168.521 419.013 168.518 419.008 168.514C419.003 168.51 419 168.505 419 168.5C419 168.495 419.003 168.49 419.008 168.486C419.013 168.482 419.02 168.479 419.028 168.477C425.581 168.082 426.079 167.641 426.465 161.018C426.467 161.013 426.471 161.008 426.478 161.005C426.484 161.002 426.492 161 426.501 161C426.509 161 426.517 161.002 426.523 161.005C426.53 161.008 426.534 161.013 426.536 161.018C426.92 167.641 427.418 168.082 433.971 168.477C433.979 168.479 433.986 168.482 433.991 168.486C433.996 168.49 433.999 168.495 433.999 168.5C433.999 168.505 433.996 168.51 433.991 168.514C433.986 168.518 433.979 168.521 433.971 168.523Z" fill="white"/>
<path d="M86.1302 417.67L93.8302 409.97C94.3575 409.446 94.7759 408.823 95.0615 408.136C95.347 407.45 95.4941 406.713 95.4941 405.97C95.4941 405.227 95.347 404.49 95.0615 403.804C94.7759 403.117 94.3575 402.494 93.8302 401.97C93.3054 401.444 92.6819 401.026 91.9955 400.742C91.3091 400.457 90.5733 400.31 89.8302 400.31C89.0871 400.31 88.3512 400.457 87.6649 400.742C86.9785 401.026 86.355 401.444 85.8302 401.97L78.1302 409.67C77.6029 410.194 77.1844 410.817 76.8989 411.504C76.6133 412.19 76.4663 412.927 76.4663 413.67C76.4663 414.414 76.6133 415.15 76.8989 415.836C77.1844 416.523 77.6029 417.146 78.1302 417.67C78.655 418.196 79.2785 418.614 79.9649 418.898C80.6512 419.183 81.3871 419.33 82.1302 419.33C82.8733 419.33 83.6091 419.183 84.2955 418.898C84.9819 418.614 85.6053 418.196 86.1302 417.67Z" fill="#EBEBEB" fill-opacity="0.14"/>
<path d="M191.31 494L196.2 484.27C196.871 482.932 196.984 481.382 196.513 479.961C196.043 478.539 195.027 477.363 193.69 476.69C193.028 476.356 192.306 476.156 191.566 476.102C190.826 476.048 190.083 476.14 189.379 476.373C188.675 476.606 188.024 476.976 187.463 477.461C186.902 477.946 186.442 478.537 186.11 479.2L181.22 488.93C180.886 489.592 180.686 490.314 180.632 491.054C180.577 491.793 180.669 492.537 180.903 493.241C181.136 493.945 181.505 494.596 181.991 495.157C182.476 495.718 183.067 496.178 183.73 496.51C184.392 496.844 185.114 497.043 185.854 497.098C186.593 497.152 187.336 497.06 188.04 496.827C188.745 496.594 189.396 496.224 189.957 495.739C190.518 495.254 190.978 494.663 191.31 494Z" fill="#EBEBEB" fill-opacity="0.14"/>
<path d="M123.89 395.93L129.68 395.1C131.162 394.887 132.5 394.094 133.398 392.896C134.296 391.698 134.682 390.192 134.47 388.71C134.366 387.975 134.118 387.269 133.74 386.63C133.363 385.992 132.863 385.434 132.269 384.989C131.675 384.544 131 384.221 130.281 384.037C129.562 383.854 128.814 383.814 128.08 383.92L122.29 384.75C121.556 384.854 120.849 385.102 120.211 385.48C119.572 385.858 119.014 386.358 118.57 386.951C118.125 387.545 117.801 388.22 117.618 388.939C117.434 389.658 117.394 390.406 117.5 391.14C117.713 392.622 118.506 393.959 119.704 394.857C120.902 395.755 122.408 396.141 123.89 395.93Z" fill="#EBEBEB" fill-opacity="0.14"/>
<path d="M77.9301 472.34L77.1001 466.55C76.9959 465.816 76.7478 465.109 76.3701 464.47C75.9924 463.832 75.4924 463.274 74.8988 462.829C74.3053 462.384 73.6297 462.061 72.911 461.877C72.1922 461.694 71.4443 461.654 70.7101 461.76C69.9769 461.864 69.2715 462.112 68.6342 462.489C67.997 462.866 67.4404 463.366 66.9964 463.958C66.5524 464.551 66.2296 465.225 66.0466 465.943C65.8637 466.66 65.824 467.407 65.9301 468.14L66.7501 473.94C66.9655 475.421 67.7587 476.756 68.9562 477.654C70.1538 478.552 71.6581 478.939 73.1401 478.73C74.6223 478.517 75.9593 477.724 76.8575 476.526C77.7556 475.328 78.1414 473.822 77.9301 472.34Z" fill="#EBEBEB" fill-opacity="0.14"/>
<path d="M202.11 463.62V450.8C202.11 449.607 201.143 448.64 199.95 448.64H192.98C191.787 448.64 190.82 449.607 190.82 450.8V463.62C190.82 464.813 191.787 465.78 192.98 465.78H199.95C201.143 465.78 202.11 464.813 202.11 463.62Z" fill="#EBEBEB" fill-opacity="0.14"/>
<path d="M113.41 521.42L119.06 522.93C119.776 523.122 120.524 523.171 121.259 523.073C121.994 522.976 122.703 522.735 123.345 522.363C123.986 521.992 124.549 521.497 124.999 520.908C125.45 520.319 125.78 519.647 125.97 518.93C126.162 518.213 126.211 517.465 126.114 516.729C126.017 515.993 125.775 515.284 125.404 514.641C125.032 513.999 124.538 513.435 123.949 512.984C123.36 512.532 122.687 512.202 121.97 512.01L116.32 510.5C115.603 510.308 114.855 510.259 114.119 510.356C113.383 510.453 112.674 510.695 112.031 511.066C111.389 511.438 110.825 511.932 110.374 512.521C109.922 513.11 109.592 513.783 109.4 514.5C109.018 515.949 109.226 517.491 109.977 518.787C110.729 520.084 111.963 521.031 113.41 521.42Z" fill="#EBEBEB" fill-opacity="0.14"/>
<path d="M132.97 519.9C168.946 519.9 198.11 490.736 198.11 454.76C198.11 418.784 168.946 389.62 132.97 389.62C96.9942 389.62 67.8301 418.784 67.8301 454.76C67.8301 490.736 96.9942 519.9 132.97 519.9Z" fill="#EBEBEB" fill-opacity="0.14"/>
<path d="M156.67 416.12C156.834 419.249 155.989 422.347 154.26 424.96C152.514 427.652 150.066 429.816 147.18 431.22C144.213 432.71 140.786 433 137.61 432.03C134.601 431.076 132.024 429.094 130.33 426.43C132.646 428.144 135.313 429.323 138.14 429.88C139.463 430.115 140.817 430.115 142.14 429.88C143.46 429.676 144.739 429.264 145.93 428.66C146.54 428.36 147.16 428.03 147.76 427.66C148.36 427.29 148.92 426.91 149.45 426.47C150.551 425.636 151.557 424.683 152.45 423.63C154.331 421.425 155.765 418.874 156.67 416.12Z" fill="#C7C7C7"/>
<path d="M133.25 419.87C132.961 417.698 133.442 415.494 134.61 413.64C135.781 411.713 137.482 410.165 139.51 409.18C140.555 408.654 141.694 408.34 142.861 408.256C144.028 408.172 145.2 408.32 146.31 408.69C148.406 409.402 150.149 410.891 151.18 412.85C149.531 411.831 147.695 411.151 145.78 410.85C144.062 410.647 142.322 410.957 140.78 411.74C137.351 413.426 134.668 416.322 133.25 419.87Z" fill="#C7C7C7"/>
<path d="M111.19 464.61C111.993 466.592 112.05 468.799 111.35 470.82C110.665 472.919 109.352 474.759 107.59 476.09C106.691 476.792 105.661 477.306 104.56 477.603C103.459 477.9 102.31 477.974 101.18 477.82C99.0529 477.526 97.1087 476.458 95.7202 474.82C97.5117 475.411 99.3951 475.676 101.28 475.6C102.949 475.479 104.544 474.863 105.86 473.83C107.258 472.774 108.434 471.452 109.32 469.94C110.251 468.287 110.884 466.482 111.19 464.61Z" fill="#C7C7C7"/>
<path d="M97.6999 472C97.3404 471.339 97.1164 470.613 97.0408 469.864C96.9653 469.116 97.0397 468.359 97.2599 467.64C97.694 466.118 98.6141 464.78 99.8799 463.83C100.528 463.317 101.278 462.947 102.079 462.744C102.88 462.541 103.715 462.509 104.53 462.65C105.277 462.779 105.99 463.058 106.626 463.47C107.262 463.883 107.808 464.42 108.23 465.05C106.979 464.805 105.698 464.748 104.43 464.88C103.397 465.03 102.422 465.447 101.6 466.09C99.6874 467.579 98.3171 469.656 97.6999 472Z" fill="#C7C7C7"/>
<path d="M87.83 450.11C88.4052 450.648 88.8664 451.296 89.1859 452.016C89.5055 452.736 89.6769 453.512 89.69 454.3C89.7048 455.151 89.5487 455.997 89.2309 456.787C88.9131 457.577 88.4402 458.296 87.84 458.9C87.2235 459.52 86.4726 459.989 85.6453 460.272C84.8181 460.555 83.9368 460.643 83.07 460.53C81.5164 460.356 80.0711 459.649 78.98 458.53C80.3242 458.581 81.6703 458.504 83 458.3C84.0556 458.143 85.0332 457.652 85.79 456.9C86.5687 456.11 87.1362 455.137 87.44 454.07C87.7895 452.781 87.9213 451.442 87.83 450.11Z" fill="#C7C7C7"/>
<path d="M79.7601 456.44C79.2864 456.117 78.8938 455.689 78.6128 455.19C78.3318 454.69 78.17 454.132 78.1401 453.56C78.0994 452.931 78.1935 452.3 78.4159 451.711C78.6384 451.121 78.9841 450.585 79.4301 450.14C79.8898 449.677 80.4543 449.332 81.0757 449.133C81.6971 448.935 82.3572 448.889 83.0001 449C83.5538 449.083 84.0856 449.275 84.5645 449.565C85.0435 449.855 85.46 450.238 85.7901 450.69C84.866 450.815 83.9508 450.998 83.0501 451.24C82.4466 451.392 81.8965 451.706 81.4601 452.15C80.9926 452.623 80.6223 453.184 80.3701 453.8C80.0423 454.646 79.8369 455.535 79.7601 456.44Z" fill="#C7C7C7"/>
<path d="M177.09 430.82C177.165 431.604 177.08 432.395 176.839 433.144C176.599 433.894 176.208 434.587 175.69 435.18C175.137 435.826 174.46 436.356 173.699 436.737C172.938 437.118 172.109 437.343 171.26 437.4C170.387 437.453 169.514 437.305 168.708 436.967C167.901 436.629 167.184 436.11 166.61 435.45C165.56 434.296 164.939 432.817 164.85 431.26C165.839 432.19 166.913 433.024 168.06 433.75C168.952 434.325 170 434.608 171.06 434.56C172.164 434.49 173.233 434.146 174.17 433.56C175.286 432.812 176.272 431.886 177.09 430.82Z" fill="#C7C7C7"/>
<path d="M166.85 430.19C166.711 429.633 166.703 429.052 166.826 428.492C166.95 427.931 167.201 427.407 167.56 426.96C167.948 426.464 168.436 426.057 168.993 425.764C169.55 425.47 170.162 425.299 170.79 425.26C171.44 425.214 172.091 425.328 172.687 425.591C173.283 425.854 173.806 426.259 174.21 426.77C174.577 427.197 174.854 427.693 175.026 428.229C175.198 428.765 175.26 429.329 175.21 429.89C174.438 429.361 173.629 428.886 172.79 428.47C172.24 428.182 171.62 428.054 171 428.1C170.337 428.14 169.688 428.31 169.09 428.6C168.272 429.021 167.518 429.556 166.85 430.19Z" fill="#C7C7C7"/>
<path d="M140.57 475.08C143.174 476.258 146.07 476.637 148.889 476.167C151.709 475.698 154.326 474.402 156.408 472.443C158.489 470.484 159.943 467.951 160.583 465.165C161.223 462.38 161.021 459.466 160.004 456.795C158.986 454.124 157.198 451.815 154.866 450.162C152.534 448.509 149.764 447.585 146.906 447.509C144.049 447.432 141.233 448.206 138.816 449.732C136.399 451.258 134.49 453.467 133.33 456.08C131.774 459.56 131.662 463.515 133.02 467.077C134.377 470.64 137.093 473.518 140.57 475.08Z" fill="#DBDBDB"/>
<path d="M153.19 455.11C155.065 455.947 156.714 457.216 158.004 458.814C159.294 460.411 160.187 462.291 160.61 464.3C161.001 461.918 160.786 459.475 159.984 457.198C159.182 454.921 157.82 452.882 156.022 451.271C154.225 449.659 152.05 448.527 149.699 447.978C147.348 447.428 144.897 447.48 142.571 448.129C140.246 448.777 138.121 450.001 136.393 451.687C134.666 453.373 133.39 455.467 132.686 457.777C131.981 460.086 131.87 462.535 132.361 464.899C132.853 467.262 133.933 469.464 135.5 471.3C134.688 468.893 134.594 466.303 135.228 463.844C135.863 461.385 137.199 459.163 139.074 457.45C140.949 455.737 143.282 454.607 145.789 454.197C148.295 453.786 150.867 454.114 153.19 455.14V455.11Z" fill="#C7C7C7"/>
<path d="M166.35 464.32C166.424 468.149 165.314 471.907 163.17 475.08C161 478.329 158.004 480.942 154.49 482.65C150.898 484.464 146.751 484.843 142.89 483.71C139.204 482.578 136.01 480.231 133.83 477.05C136.631 479.278 139.916 480.819 143.42 481.55C144.257 481.689 145.102 481.779 145.95 481.82C146.788 481.829 147.624 481.762 148.45 481.62C150.117 481.369 151.733 480.856 153.24 480.1C154.01 479.71 154.78 479.3 155.52 478.86C156.26 478.42 156.98 477.93 157.64 477.37C159.02 476.317 160.275 475.109 161.38 473.77C163.667 470.994 165.358 467.777 166.35 464.32Z" fill="#C7C7C7"/>
<path d="M182.12 469.8C183.159 470.048 184.247 469.981 185.248 469.61C186.249 469.238 187.116 468.578 187.741 467.712C188.366 466.847 188.72 465.815 188.758 464.748C188.795 463.681 188.516 462.627 187.954 461.72C187.392 460.812 186.573 460.092 185.601 459.65C184.629 459.208 183.548 459.065 182.495 459.239C181.441 459.412 180.463 459.895 179.685 460.625C178.906 461.355 178.361 462.3 178.12 463.34C177.796 464.727 178.035 466.186 178.785 467.397C179.535 468.608 180.734 469.472 182.12 469.8Z" fill="#DBDBDB"/>
<path d="M185.32 461.58C186.066 461.755 186.759 462.103 187.345 462.597C187.93 463.09 188.391 463.715 188.69 464.42C188.665 463.52 188.413 462.64 187.959 461.863C187.504 461.086 186.861 460.435 186.088 459.972C185.316 459.509 184.439 459.248 183.539 459.213C182.64 459.179 181.745 459.371 180.94 459.773C180.134 460.175 179.442 460.774 178.929 461.514C178.415 462.253 178.096 463.111 178.002 464.006C177.907 464.902 178.04 465.807 178.387 466.638C178.735 467.469 179.286 468.198 179.99 468.76C179.379 467.698 179.197 466.442 179.48 465.25C179.769 463.989 180.546 462.895 181.641 462.206C182.736 461.518 184.059 461.293 185.32 461.58Z" fill="#C7C7C7"/>
<path d="M190.79 464C191.165 465.402 191.07 466.888 190.52 468.23C189.973 469.611 189.052 470.813 187.86 471.7C186.641 472.637 185.109 473.07 183.58 472.91C182.126 472.742 180.781 472.057 179.79 470.98C180.995 471.53 182.306 471.809 183.63 471.8C184.858 471.757 186.042 471.327 187.01 470.57C188.046 469.782 188.914 468.795 189.563 467.667C190.212 466.538 190.629 465.292 190.79 464Z" fill="#C7C7C7"/>
<path d="M145.17 504.66C146.682 504.749 148.186 504.387 149.492 503.62C150.798 502.853 151.847 501.716 152.506 500.352C153.166 498.989 153.405 497.46 153.195 495.96C152.984 494.46 152.333 493.057 151.324 491.927C150.315 490.797 148.994 489.993 147.527 489.615C146.061 489.237 144.515 489.303 143.086 489.805C141.657 490.306 140.409 491.221 139.5 492.432C138.591 493.644 138.062 495.098 137.98 496.61C137.923 497.611 138.064 498.613 138.395 499.559C138.726 500.505 139.239 501.377 139.907 502.125C140.575 502.872 141.383 503.481 142.286 503.916C143.189 504.351 144.169 504.604 145.17 504.66Z" fill="#DBDBDB"/>
<path d="M147.63 492.38C148.717 492.437 149.776 492.752 150.718 493.297C151.66 493.843 152.459 494.605 153.05 495.52C152.795 494.265 152.227 493.094 151.4 492.116C150.573 491.138 149.512 490.384 148.316 489.924C147.121 489.465 145.828 489.314 144.559 489.486C143.29 489.658 142.084 490.147 141.054 490.909C140.024 491.67 139.202 492.679 138.665 493.842C138.128 495.005 137.892 496.284 137.981 497.562C138.069 498.84 138.478 500.075 139.17 501.153C139.862 502.231 140.815 503.118 141.94 503.73C140.821 502.393 140.256 500.68 140.36 498.94C140.406 498.032 140.631 497.141 141.021 496.32C141.411 495.499 141.96 494.762 142.635 494.153C143.31 493.544 144.099 493.074 144.956 492.769C145.813 492.465 146.722 492.333 147.63 492.38Z" fill="#C7C7C7"/>
<path d="M155.89 494.44C156.629 496.324 156.779 498.389 156.32 500.36C155.863 502.374 154.879 504.23 153.47 505.74C152.036 507.307 150.066 508.277 147.95 508.46C145.917 508.597 143.897 508.051 142.21 506.91C144.015 507.501 145.934 507.655 147.81 507.36C149.59 507.022 151.212 506.112 152.43 504.77C153.697 503.422 154.662 501.82 155.26 500.07C155.858 498.257 156.073 496.34 155.89 494.44Z" fill="#C7C7C7"/>
<path d="M111.09 430.87C107.64 436.14 100.02 437.26 94.0899 433.37C88.1599 429.48 86.0899 422.05 89.5499 416.78C93.0099 411.51 100.61 410.39 106.55 414.28C112.49 418.17 114.53 425.6 111.09 430.87Z" fill="#DBDBDB"/>
<path d="M92.1503 421.72C91.2559 423.145 90.7357 424.773 90.6378 426.453C90.54 428.133 90.8675 429.81 91.5903 431.33C87.5903 427.23 86.5903 421.24 89.5303 416.77C92.9703 411.51 100.59 410.39 106.53 414.28C108.524 415.51 110.149 417.253 111.237 419.328C112.324 421.402 112.833 423.731 112.71 426.07C111.82 423.333 110.006 420.989 107.58 419.44C102.2 415.92 95.2803 416.93 92.1503 421.72Z" fill="#C7C7C7"/>
<path d="M115.29 422.17C116.176 423.528 116.784 425.049 117.077 426.643C117.371 428.238 117.345 429.875 117 431.46C116.623 433.112 115.889 434.661 114.85 436C113.819 437.355 112.556 438.516 111.12 439.43C109.631 440.265 108 440.818 106.31 441.06C104.676 441.264 103.02 441.217 101.4 440.92C98.2684 440.372 95.311 439.091 92.77 437.18C95.66 438.021 98.6354 438.534 101.64 438.71C104.416 438.913 107.193 438.316 109.64 436.99C110.807 436.28 111.848 435.381 112.72 434.33C113.633 433.3 114.349 432.11 114.83 430.82C115.771 428.033 115.93 425.041 115.29 422.17Z" fill="#C7C7C7"/>
<path d="M413.317 491.469C426.407 479.116 427.005 458.49 414.652 445.399C402.299 432.308 381.672 431.711 368.582 444.064C355.491 456.417 354.894 477.043 367.247 490.134C379.6 503.224 400.226 503.822 413.317 491.469Z" fill="#455A64"/>
<path d="M360.62 479.75C363.436 476.88 366.685 474.47 370.25 472.61C376.46 469.25 393.72 464.74 401.5 459.99C412.44 453.32 413.36 446.99 413.04 443.81C409.95 440.977 406.345 438.764 402.42 437.29C401.87 440.64 399.64 451.13 381.25 459.29C371.75 463.52 362.25 461.97 358.97 461.45C357.747 467.582 358.32 473.936 360.62 479.75Z" fill="#37474F"/>
<path d="M375.31 496.39C381.872 499.966 389.461 501.184 396.812 499.839C404.163 498.494 410.83 494.668 415.7 489C413.782 488.143 411.767 487.522 409.7 487.15C400.79 485.73 391.51 490.69 388.16 492.94C384.427 495.59 379.868 496.814 375.31 496.39Z" fill="#37474F"/>
<path d="M362.94 484.47L363.41 485.23L363.85 485.9C364.19 486.41 364.53 486.9 364.85 487.39C365.17 487.88 365.52 488.25 365.85 488.66L366.24 489.12L366.69 489.63C366.84 489.8 366.99 489.97 367.15 490.13L367.71 490.71L368.27 491.27L368.77 491.74C369.14 492.08 369.52 492.41 369.9 492.74C371.97 493.19 374.66 492.74 378.49 490.82C384.21 488.03 390.12 481.95 401.19 476.93C408.032 473.892 415.578 472.799 423 473.77C424.24 467.153 423.394 460.315 420.58 454.2C418.5 454.29 411.89 455.78 398.58 468.68C394.453 472.802 389.913 476.488 385.03 479.68C373.38 487.03 366.19 485.68 363.14 484.47H362.94Z" fill="#37474F"/>
<path d="M392.49 449C393.19 450.27 395.25 450.48 397.1 449.47C398.95 448.46 399.87 446.6 399.18 445.33C398.49 444.06 396.42 443.86 394.57 444.87C392.72 445.88 391.8 447.68 392.49 449Z" fill="#263238"/>
<path d="M401.89 450.43C402.28 451.14 403.5 451.23 404.61 450.62C405.72 450.01 406.29 448.94 405.9 448.23C405.51 447.52 404.29 447.42 403.18 448.03C402.07 448.64 401.5 449.71 401.89 450.43Z" fill="#263238"/>
<path d="M380.35 492.58C380.95 493.67 382.74 493.83 384.35 492.94C385.96 492.05 386.79 490.46 386.2 489.37C385.61 488.28 383.81 488.13 382.2 489.01C380.59 489.89 379.76 491.5 380.35 492.58Z" fill="#263238"/>
<path d="M386.43 493.16C386.507 493.492 386.687 493.792 386.943 494.017C387.199 494.242 387.52 494.381 387.859 494.415C388.199 494.448 388.54 494.374 388.836 494.203C389.131 494.032 389.365 493.772 389.505 493.461C389.645 493.15 389.684 492.803 389.616 492.469C389.548 492.134 389.377 491.83 389.127 491.598C388.877 491.365 388.561 491.218 388.222 491.175C387.884 491.133 387.54 491.197 387.24 491.36C386.9 491.498 386.626 491.763 386.475 492.098C386.324 492.433 386.308 492.813 386.43 493.16Z" fill="#263238"/>
<path d="M387.12 490.06C387.267 490.235 387.474 490.348 387.701 490.376C387.927 490.404 388.156 490.344 388.34 490.21C388.83 489.94 389.07 489.44 388.88 489.1C388.732 488.924 388.523 488.811 388.295 488.783C388.067 488.755 387.836 488.815 387.65 488.95C387.17 489.22 386.93 489.72 387.12 490.06Z" fill="#263238"/>
<path d="M407.37 488.13C407.9 489.13 409.37 489.31 410.67 488.6C411.97 487.89 412.58 486.53 412.05 485.6C411.52 484.67 410.05 484.42 408.75 485.13C407.45 485.84 406.84 487.16 407.37 488.13Z" fill="#263238"/>
<path d="M406.18 483.78C406.278 484.022 406.448 484.228 406.666 484.372C406.885 484.515 407.141 484.589 407.402 484.584C407.664 484.578 407.917 484.493 408.129 484.341C408.341 484.188 408.501 483.975 408.59 483.729C408.678 483.483 408.689 483.216 408.622 482.963C408.555 482.711 408.413 482.485 408.215 482.315C408.016 482.145 407.771 482.039 407.511 482.011C407.252 481.984 406.99 482.035 406.76 482.16C406.469 482.298 406.245 482.547 406.136 482.85C406.027 483.154 406.043 483.488 406.18 483.78Z" fill="#263238"/>
<path d="M364.89 487.39C385.09 483.113 404.759 476.627 423.54 468.05C438.14 461.19 447.15 454.62 445.93 450.91C444.71 447.2 433.76 447.15 418.33 450.12C418.75 450.77 419.14 451.43 419.52 452.12C419.66 452.38 419.79 452.64 419.93 452.89C428.14 451.84 433.58 452.32 434.32 454.58C435.06 456.84 430.84 460.58 423.39 464.66C413.974 469.605 404.139 473.707 394 476.92C383.91 480.345 373.536 482.872 363 484.47C354.61 485.58 349 485.11 348.28 482.82C347.56 480.53 351.63 476.97 358.82 472.96C358.641 471.867 358.52 470.766 358.46 469.66C343.88 476.5 334.74 483.3 336 487C337.26 490.7 348.67 490.66 364.89 487.39Z" fill="#263238"/>
<path d="M366.73 489.62C376.468 487.533 386.091 484.943 395.56 481.86C404.994 478.841 414.266 475.34 423.34 471.37C443.62 462.37 456.57 453.2 454.88 447.94C453.19 442.68 437.6 442.79 416.24 447.24C416.55 447.63 416.86 448.03 417.16 448.44C435.1 445 447.96 445.19 449.41 449.7C450.86 454.21 440.34 462.04 423.47 469.82C414.259 473.997 404.813 477.637 395.18 480.72C385.516 483.867 375.676 486.445 365.71 488.44C347.56 491.96 334.52 491.79 333.06 487.24C331.6 482.69 341.86 475.11 358.34 467.44C358.34 466.93 358.34 466.44 358.4 465.91C338.54 474.76 325.92 483.81 327.59 489.01C329.26 494.21 345.12 494.16 366.73 489.62Z" fill="#37474F"/>
<path d="M255.958 314.555C266.009 311.123 271.375 300.194 267.944 290.143C264.512 280.092 253.583 274.726 243.532 278.157C233.481 281.589 228.115 292.518 231.547 302.569C234.978 312.62 245.907 317.986 255.958 314.555Z" fill="#EBEBEB" fill-opacity="0.14"/>
<path d="M268.16 301.93C266.369 300.377 264.344 299.114 262.16 298.19C258.35 296.51 247.98 294.67 243.16 292.24C236.41 288.84 235.57 285.17 235.61 283.24C237.289 281.425 239.302 279.951 241.54 278.9C242.02 280.84 243.83 286.9 255.04 290.9C260.83 292.9 266.37 291.58 268.25 291.12C269.26 294.657 269.229 298.41 268.16 301.93Z" fill="#DBDBDB"/>
<path d="M260.31 312.42C256.623 314.842 252.216 315.923 247.826 315.482C243.437 315.042 239.333 313.106 236.2 310C237.29 309.403 238.448 308.943 239.65 308.63C244.82 307.37 250.51 309.84 252.59 311.01C254.912 312.387 257.651 312.887 260.31 312.42Z" fill="#DBDBDB"/>
<path d="M267 304.82L266.76 305.28C266.69 305.43 266.61 305.56 266.53 305.7C266.357 306.02 266.177 306.33 265.99 306.63C265.82 306.9 265.64 307.16 265.46 307.42L265.25 307.71L265 308L264.75 308.32C264.657 308.44 264.557 308.56 264.45 308.68C264.343 308.8 264.243 308.92 264.15 309.04L263.87 309.34C263.67 309.56 263.47 309.77 263.26 309.98C262.07 310.35 260.46 310.19 258.12 309.26C254.62 307.89 250.86 304.59 244.12 302.17C239.964 300.714 235.488 300.427 231.18 301.34C230.137 297.509 230.312 293.448 231.68 289.72C232.9 289.67 236.86 290.23 245.28 297.19C247.906 299.41 250.75 301.356 253.77 303C260.98 306.77 265.14 305.65 266.88 304.78H267V304.82Z" fill="#DBDBDB"/>
<path d="M248.74 312.05C249.08 311.27 250.28 311.05 251.42 311.54C252.56 312.03 253.2 313.07 252.86 313.85C252.52 314.63 251.32 314.85 250.18 314.37C249.04 313.89 248.4 312.84 248.74 312.05Z" fill="#C7C7C7"/>
<path d="M254.18 310.68C254.37 310.24 255.08 310.13 255.77 310.43C256.46 310.73 256.85 311.32 256.66 311.76C256.47 312.2 255.75 312.32 255.07 312.02C254.39 311.72 254 311.13 254.18 310.68Z" fill="#C7C7C7"/>
<path d="M239.27 287.06C239.56 286.4 240.6 286.2 241.6 286.64C242.6 287.08 243.17 287.97 242.87 288.64C242.57 289.31 241.54 289.5 240.54 289.06C239.54 288.62 239 287.73 239.27 287.06Z" fill="#C7C7C7"/>
<path d="M242.81 286.4C242.926 286.216 243.109 286.085 243.32 286.034C243.532 285.984 243.754 286.018 243.94 286.13C244.145 286.193 244.318 286.331 244.424 286.517C244.53 286.703 244.561 286.922 244.51 287.13C244.368 287.27 244.188 287.363 243.992 287.4C243.796 287.436 243.594 287.413 243.411 287.333C243.228 287.254 243.074 287.121 242.967 286.953C242.86 286.785 242.805 286.589 242.81 286.39V286.4Z" fill="#C7C7C7"/>
<path d="M243.38 288.18C243.457 288.069 243.573 287.992 243.705 287.964C243.837 287.937 243.975 287.96 244.09 288.03C244.39 288.16 244.55 288.44 244.46 288.65C244.386 288.764 244.27 288.845 244.138 288.875C244.005 288.905 243.866 288.882 243.75 288.81C243.619 288.773 243.508 288.686 243.439 288.569C243.37 288.452 243.349 288.312 243.38 288.18Z" fill="#C7C7C7"/>
<path d="M255.38 288.23C255.421 287.889 255.568 287.569 255.8 287.316C256.032 287.063 256.338 286.889 256.675 286.819C257.011 286.75 257.361 286.787 257.675 286.927C257.988 287.066 258.251 287.301 258.424 287.597C258.597 287.894 258.673 288.237 258.641 288.579C258.609 288.921 258.47 289.245 258.244 289.503C258.018 289.762 257.717 289.944 257.382 290.022C257.048 290.1 256.697 290.072 256.38 289.94C256.023 289.841 255.719 289.608 255.533 289.288C255.346 288.969 255.291 288.589 255.38 288.23Z" fill="#C7C7C7"/>
<path d="M254.92 290.85C255.008 290.676 255.159 290.542 255.342 290.476C255.525 290.41 255.727 290.417 255.905 290.495C256.083 290.573 256.225 290.717 256.3 290.897C256.376 291.076 256.379 291.278 256.31 291.46C256.223 291.634 256.072 291.768 255.889 291.834C255.706 291.9 255.504 291.893 255.326 291.815C255.147 291.737 255.006 291.593 254.93 291.413C254.855 291.234 254.851 291.032 254.92 290.85Z" fill="#C7C7C7"/>
<path d="M121.898 180.48C131.757 176.532 136.55 165.339 132.602 155.48C128.655 145.62 117.462 140.828 107.602 144.775C97.7427 148.723 92.9501 159.915 96.8976 169.775C100.845 179.634 112.038 184.427 121.898 180.48Z" fill="#2C92F8"/>
<path opacity="0.1" d="M121.898 180.48C131.757 176.532 136.55 165.339 132.602 155.48C128.655 145.62 117.462 140.828 107.602 144.775C97.7427 148.723 92.9501 159.915 96.8976 169.775C100.845 179.634 112.038 184.427 121.898 180.48Z" fill="black"/>
<g opacity="0.1">
<path d="M133.16 168.22C131.368 166.668 129.343 165.406 127.16 164.48C123.34 162.8 113 161 108.17 158.54C101.42 155.13 100.58 151.46 100.62 149.54C102.301 147.722 104.318 146.248 106.56 145.2C107.04 147.14 108.84 153.2 120.05 157.2C125.84 159.2 131.38 157.87 133.26 157.41C134.267 160.948 134.232 164.701 133.16 168.22Z" fill="black"/>
<path d="M125.3 178.71C121.611 181.127 117.204 182.204 112.815 181.762C108.427 181.319 104.323 179.384 101.19 176.28C102.281 175.685 103.439 175.225 104.64 174.91C109.81 173.65 115.51 176.13 117.64 177.29C119.944 178.659 122.659 179.162 125.3 178.71Z" fill="black"/>
<path d="M132 171.11C131.928 171.271 131.848 171.427 131.76 171.58C131.69 171.72 131.62 171.86 131.54 172C131.36 172.31 131.18 172.62 130.99 172.92C130.8 173.22 130.65 173.46 130.46 173.72L130.25 174C130.176 174.111 130.096 174.218 130.01 174.32L129.77 174.64L129.47 175.01L129.16 175.36L128.89 175.67C128.69 175.89 128.48 176.1 128.27 176.3C127.07 176.66 125.47 176.5 123.12 175.58C119.63 174.21 115.86 170.91 109.12 168.48C104.967 167.029 100.495 166.742 96.1904 167.65C95.1381 163.81 95.3094 159.738 96.6804 156C97.9104 155.95 101.86 156.51 110.29 163.47C112.91 165.697 115.756 167.645 118.78 169.28C126 173.1 130.15 172 131.89 171.1H132V171.11Z" fill="black"/>
</g>
<g opacity="0.1">
<path d="M113.73 178.35C114.07 177.56 115.27 177.35 116.41 177.83C117.55 178.31 118.2 179.36 117.86 180.14C117.52 180.92 116.31 181.14 115.18 180.66C114.05 180.18 113.39 179.13 113.73 178.35Z" fill="black"/>
<path d="M119.18 177C119.37 176.56 120.08 176.44 120.76 176.74C121.44 177.04 121.84 177.64 121.65 178.08C121.46 178.52 120.75 178.63 120.06 178.34C119.37 178.05 119 177.42 119.18 177Z" fill="black"/>
<path d="M104.26 153.36C104.55 152.69 105.59 152.5 106.59 152.93C107.59 153.36 108.16 154.26 107.87 154.93C107.58 155.6 106.53 155.79 105.53 155.35C104.53 154.91 104 154 104.26 153.36Z" fill="black"/>
<path d="M107.8 152.69C107.917 152.508 108.1 152.378 108.311 152.328C108.521 152.278 108.743 152.311 108.93 152.42C109.042 152.435 109.148 152.476 109.241 152.54C109.334 152.603 109.411 152.687 109.466 152.786C109.521 152.884 109.553 152.993 109.559 153.106C109.565 153.218 109.544 153.33 109.5 153.434C109.455 153.537 109.387 153.629 109.3 153.701C109.214 153.774 109.113 153.825 109.003 153.852C108.894 153.879 108.78 153.88 108.67 153.855C108.56 153.831 108.457 153.781 108.37 153.71C108.163 153.645 107.988 153.503 107.882 153.313C107.776 153.124 107.747 152.901 107.8 152.69Z" fill="black"/>
<path d="M108.37 154.48C108.445 154.368 108.561 154.289 108.693 154.259C108.825 154.229 108.963 154.251 109.08 154.32C109.38 154.46 109.55 154.73 109.46 154.95C109.381 155.059 109.265 155.134 109.134 155.162C109.002 155.19 108.866 155.168 108.75 155.1C108.45 155 108.28 154.69 108.37 154.48Z" fill="black"/>
<path d="M120.38 154.52C120.424 154.183 120.573 153.867 120.805 153.619C121.037 153.37 121.341 153.2 121.675 153.133C122.009 153.066 122.355 153.105 122.665 153.245C122.975 153.384 123.234 153.617 123.405 153.912C123.576 154.206 123.651 154.546 123.619 154.885C123.587 155.224 123.449 155.544 123.226 155.801C123.003 156.058 122.705 156.238 122.373 156.317C122.042 156.395 121.695 156.369 121.38 156.24C121.021 156.141 120.715 155.906 120.528 155.584C120.341 155.263 120.288 154.88 120.38 154.52Z" fill="black"/>
<path d="M119.91 157.14C119.997 156.966 120.148 156.832 120.331 156.766C120.515 156.7 120.716 156.707 120.895 156.785C121.073 156.863 121.214 157.007 121.29 157.187C121.365 157.366 121.369 157.568 121.3 157.75C121.213 157.924 121.062 158.058 120.879 158.124C120.695 158.19 120.494 158.183 120.315 158.105C120.137 158.027 119.996 157.883 119.92 157.703C119.845 157.524 119.841 157.322 119.91 157.14Z" fill="black"/>
</g>
<path d="M192.682 212.408C191.75 211.811 146.778 205.975 119.783 244.288C94.9716 279.512 98.3952 329.945 103.089 329.703C108.835 329.402 116.345 302.46 140.408 281.364C148.945 273.883 166.084 273.274 166.084 273.274L192.682 212.408Z" fill="#2C92F8"/>
<path opacity="0.1" d="M166.1 273.259C161.047 273.543 156.044 274.415 151.193 275.859C153.291 261.022 157.215 233.344 159.773 215.406C177.402 210.03 192.198 212.068 192.721 212.364L166.1 273.259Z" fill="black"/>
<path d="M281.34 268.278C282.279 268.863 306.955 306.916 284.03 347.795C262.962 385.384 215.99 404.052 214.183 399.714C211.975 394.402 233.049 375.999 241.689 345.188C244.748 334.264 237.914 318.531 237.914 318.531L281.34 268.278Z" fill="#2C92F8"/>
<path opacity="0.1" d="M292.857 299.542L242.038 333.451C241.248 328.334 239.851 323.329 237.876 318.543L281.302 268.29C281.875 268.613 290.216 281.177 292.857 299.542Z" fill="black"/>
<path d="M206.043 348.021L153.479 314.896C153.479 314.896 156.623 254.992 192.742 204.044C210.804 178.61 234.353 156.418 256.513 139.664C287.014 116.508 314.662 103.897 320.763 107.72C326.864 111.543 327.364 141.98 319.7 179.486C314.109 206.631 304.25 237.501 289.105 264.772C258.733 319.384 206.043 348.021 206.043 348.021Z" fill="#C7C7C7"/>
<path d="M276.685 247.413C272.908 253.411 267.438 258.155 260.965 261.044C254.492 263.933 247.308 264.837 240.321 263.642C233.334 262.447 226.859 259.206 221.714 254.33C216.569 249.454 212.987 243.161 211.419 236.249C209.852 229.336 210.37 222.113 212.908 215.495C215.446 208.877 219.89 203.16 225.678 199.068C231.466 194.976 238.338 192.693 245.424 192.507C252.51 192.322 259.491 194.242 265.486 198.025C273.513 203.095 279.201 211.143 281.301 220.402C283.401 229.662 281.74 239.376 276.685 247.413Z" fill="#A6A6A6"/>
<path d="M277.553 243.648C273.775 249.643 268.303 254.383 261.831 257.269C255.359 260.154 248.176 261.056 241.191 259.859C234.206 258.663 227.733 255.422 222.59 250.546C217.448 245.671 213.866 239.38 212.298 232.469C210.731 225.558 211.248 218.337 213.784 211.72C216.321 205.103 220.762 199.387 226.547 195.294C232.332 191.201 239.201 188.915 246.285 188.726C253.369 188.537 260.35 190.453 266.345 194.232C274.382 199.3 280.078 207.353 282.179 216.619C284.281 225.886 282.617 235.608 277.553 243.648Z" fill="#2C92F8"/>
<path d="M268.269 237.776C265.654 241.939 261.862 245.233 257.374 247.24C252.886 249.247 247.904 249.879 243.057 249.053C238.21 248.228 233.717 245.984 230.146 242.605C226.576 239.225 224.087 234.862 222.997 230.068C221.906 225.274 222.262 220.265 224.02 215.673C225.777 211.081 228.857 207.114 232.87 204.274C236.882 201.433 241.648 199.846 246.562 199.715C251.477 199.583 256.32 200.912 260.479 203.534C266.049 207.045 269.998 212.623 271.459 219.043C272.919 225.463 271.772 232.201 268.269 237.776Z" fill="white"/>
<path d="M268.279 237.773C266.643 240.382 264.535 242.664 262.064 244.502L242.498 248.957C239.476 248.371 236.59 247.225 233.99 245.578C232.086 244.387 230.356 242.939 228.849 241.274L271.011 231.67C270.384 233.82 269.465 235.873 268.279 237.773Z" fill="#EBEBEB" fill-opacity="0.14"/>
<path d="M263.411 205.683L224.496 214.547C224.983 213.428 225.554 212.347 226.203 211.314C229.713 205.742 235.291 201.792 241.712 200.331C248.133 198.87 254.871 200.019 260.445 203.524C261.487 204.167 262.478 204.889 263.411 205.683Z" fill="#EBEBEB" fill-opacity="0.14"/>
<path d="M272.058 225.94L225.489 236.534C225.119 235.886 224.786 235.217 224.491 234.532L272.085 223.73C272.108 224.436 272.093 225.185 272.058 225.94Z" fill="#EBEBEB" fill-opacity="0.14"/>
<path d="M319.7 179.486L256.504 139.635C287.014 116.508 314.662 103.897 320.763 107.72C326.864 111.543 327.402 141.968 319.7 179.486Z" fill="#2C92F8"/>
<path d="M271.502 139.985C271.282 140.335 270.964 140.613 270.586 140.782C270.209 140.951 269.789 141.005 269.382 140.936C268.974 140.867 268.595 140.678 268.295 140.394C267.994 140.109 267.785 139.742 267.693 139.339C267.601 138.935 267.631 138.514 267.779 138.128C267.927 137.741 268.186 137.407 268.524 137.169C268.862 136.93 269.263 136.797 269.677 136.786C270.09 136.775 270.498 136.887 270.847 137.108C271.315 137.404 271.646 137.872 271.769 138.411C271.891 138.95 271.796 139.516 271.502 139.985Z" fill="white"/>
<path d="M282.742 147.075C282.598 147.312 282.408 147.519 282.184 147.682C281.959 147.846 281.704 147.963 281.434 148.027C281.164 148.09 280.883 148.1 280.609 148.054C280.335 148.008 280.073 147.908 279.838 147.76C279.603 147.611 279.4 147.418 279.241 147.19C279.082 146.962 278.97 146.705 278.911 146.434C278.852 146.162 278.849 145.882 278.9 145.609C278.951 145.336 279.056 145.075 279.208 144.843C279.509 144.386 279.978 144.065 280.513 143.95C281.048 143.834 281.607 143.933 282.07 144.225C282.533 144.518 282.862 144.98 282.988 145.513C283.114 146.045 283.026 146.606 282.742 147.075Z" fill="white"/>
<path d="M293.979 154.155C293.754 154.498 293.433 154.766 293.056 154.928C292.679 155.089 292.263 155.136 291.859 155.062C291.456 154.989 291.083 154.799 290.787 154.515C290.491 154.231 290.285 153.866 290.195 153.466C290.104 153.067 290.134 152.649 290.279 152.265C290.424 151.882 290.679 151.55 291.012 151.31C291.345 151.071 291.741 150.934 292.15 150.918C292.56 150.902 292.965 151.006 293.316 151.219C293.558 151.363 293.767 151.555 293.932 151.783C294.097 152.011 294.214 152.27 294.276 152.545C294.338 152.819 294.344 153.104 294.293 153.38C294.242 153.657 294.135 153.921 293.979 154.155Z" fill="white"/>
<path d="M305.229 161.242C305.005 161.585 304.684 161.855 304.308 162.018C303.932 162.181 303.516 162.229 303.112 162.157C302.708 162.085 302.335 161.896 302.038 161.613C301.741 161.33 301.533 160.966 301.442 160.566C301.35 160.167 301.378 159.749 301.522 159.365C301.666 158.981 301.92 158.648 302.252 158.407C302.584 158.167 302.98 158.029 303.389 158.011C303.799 157.994 304.205 158.097 304.556 158.308C304.797 158.453 305.006 158.645 305.171 158.873C305.336 159.1 305.453 159.358 305.516 159.632C305.579 159.906 305.586 160.19 305.536 160.466C305.487 160.743 305.382 161.007 305.229 161.242Z" fill="white"/>
<path d="M316.517 168.317C316.296 168.666 315.977 168.943 315.6 169.111C315.223 169.279 314.804 169.332 314.397 169.262C313.989 169.192 313.612 169.004 313.312 168.72C313.012 168.436 312.803 168.069 312.711 167.666C312.619 167.263 312.649 166.842 312.796 166.457C312.944 166.071 313.202 165.737 313.539 165.498C313.876 165.259 314.276 165.125 314.689 165.113C315.102 165.101 315.509 165.212 315.859 165.431C316.092 165.577 316.294 165.768 316.453 165.992C316.612 166.216 316.726 166.469 316.787 166.738C316.848 167.006 316.855 167.283 316.809 167.554C316.763 167.825 316.663 168.084 316.517 168.317Z" fill="white"/>
<path d="M164.162 310.366C163.861 310.824 163.392 311.145 162.857 311.26C162.322 311.376 161.763 311.277 161.3 310.984C160.837 310.692 160.507 310.23 160.382 309.697C160.256 309.164 160.344 308.604 160.628 308.135C160.772 307.898 160.961 307.691 161.186 307.527C161.411 307.364 161.666 307.247 161.936 307.183C162.206 307.119 162.487 307.11 162.761 307.156C163.035 307.202 163.297 307.302 163.532 307.45C163.767 307.598 163.97 307.792 164.129 308.02C164.288 308.247 164.4 308.504 164.459 308.776C164.517 309.048 164.521 309.328 164.47 309.601C164.419 309.874 164.314 310.134 164.162 310.366Z" fill="#A6A6A6"/>
<path d="M175.45 317.441C175.225 317.785 174.905 318.055 174.529 318.217C174.152 318.38 173.736 318.428 173.333 318.356C172.929 318.284 172.555 318.095 172.258 317.812C171.961 317.53 171.754 317.166 171.662 316.766C171.571 316.366 171.599 315.948 171.743 315.564C171.887 315.18 172.141 314.847 172.473 314.607C172.805 314.366 173.2 314.228 173.61 314.211C174.02 314.193 174.426 314.297 174.777 314.508C175.018 314.653 175.227 314.845 175.392 315.072C175.557 315.3 175.674 315.558 175.737 315.832C175.8 316.106 175.806 316.389 175.757 316.666C175.708 316.942 175.603 317.206 175.45 317.441Z" fill="#A6A6A6"/>
<path d="M186.696 324.55C186.475 324.9 186.156 325.176 185.779 325.344C185.402 325.513 184.983 325.565 184.576 325.496C184.169 325.426 183.791 325.237 183.491 324.953C183.191 324.669 182.982 324.303 182.89 323.9C182.799 323.497 182.828 323.076 182.976 322.69C183.123 322.304 183.381 321.97 183.718 321.731C184.055 321.492 184.455 321.358 184.868 321.346C185.281 321.334 185.688 321.445 186.038 321.665C186.271 321.811 186.473 322.001 186.632 322.225C186.791 322.45 186.905 322.703 186.966 322.971C187.027 323.239 187.035 323.517 186.988 323.788C186.942 324.059 186.843 324.318 186.696 324.55Z" fill="#A6A6A6"/>
<path d="M197.927 331.612C197.702 331.955 197.382 332.225 197.006 332.388C196.629 332.55 196.213 332.599 195.81 332.527C195.406 332.455 195.032 332.265 194.735 331.983C194.438 331.7 194.231 331.336 194.14 330.936C194.048 330.536 194.076 330.119 194.22 329.735C194.364 329.351 194.618 329.018 194.95 328.777C195.282 328.536 195.677 328.399 196.087 328.381C196.497 328.363 196.903 328.467 197.254 328.678C197.495 328.823 197.704 329.015 197.869 329.242C198.034 329.47 198.151 329.728 198.214 330.002C198.277 330.276 198.284 330.56 198.234 330.836C198.185 331.113 198.08 331.376 197.927 331.612Z" fill="#A6A6A6"/>
<path d="M209.164 338.692C208.938 339.035 208.617 339.303 208.24 339.465C207.863 339.626 207.447 339.673 207.044 339.6C206.64 339.526 206.267 339.336 205.971 339.052C205.675 338.768 205.469 338.404 205.379 338.004C205.289 337.604 205.318 337.186 205.464 336.803C205.609 336.419 205.864 336.087 206.196 335.847C206.529 335.608 206.925 335.471 207.335 335.455C207.745 335.439 208.15 335.543 208.501 335.756C208.742 335.9 208.952 336.092 209.117 336.32C209.282 336.548 209.399 336.807 209.461 337.082C209.523 337.357 209.528 337.641 209.477 337.918C209.426 338.194 209.32 338.458 209.164 338.692Z" fill="#A6A6A6"/>
<path opacity="0.2" d="M318.184 107.054C292.25 117.322 251.358 147.862 214.959 201.017C188.056 240.287 177.436 297.524 173.534 327.534L153.479 314.896C153.479 314.896 156.623 254.992 192.742 204.044C210.804 178.61 234.353 156.418 256.513 139.664C283.846 118.9 308.88 106.61 318.184 107.054Z" fill="white"/>
<path d="M191.243 360.778L148.501 333.837L156.45 316.77L203.207 346.241L191.243 360.778Z" fill="#2C92F8"/>
<path opacity="0.1" d="M203.207 346.241L197.375 353.321L153.41 323.295L156.453 316.78L203.207 346.241Z" fill="black"/>
<path d="M320.762 184.552L306.221 188.084L303.799 203.757L299.649 188.457L284.81 186.548L299.238 182.159L301.763 167.346L305.933 181.78L320.762 184.552Z" fill="#FCFCFC"/>
<path d="M300.688 133.054L292.559 135.038L291.209 143.799L288.89 135.24L280.596 134.173L288.66 131.716L290.068 123.441L292.402 131.512L300.688 133.054Z" fill="#FCFCFC"/>
<path d="M287.231 315.029L279.108 317.001L277.758 325.761L275.433 317.215L267.139 316.148L275.203 313.691L276.621 305.412L278.945 313.487L287.231 315.029Z" fill="#FCFCFC"/>
<path d="M123.413 289.319L115.281 291.294L113.931 300.054L111.615 291.505L103.321 290.438L111.385 287.981L112.793 279.706L115.124 287.768L123.413 289.319Z" fill="#FCFCFC"/>
<path opacity="0.6" d="M181.81 354.734C170.429 369.024 161.592 385.47 156.962 403.253C152.113 421.188 152.137 440.091 157.031 458.014C159.63 467.061 163.549 475.676 168.662 483.58C173.894 491.623 180.259 498.87 187.561 505.095C195.022 511.423 203.264 516.768 212.084 521.001C221.059 525.302 230.453 528.666 240.117 531.041C230.109 529.799 220.257 527.524 210.718 524.252C201.056 520.915 191.865 516.347 183.37 510.662C165.769 498.904 152.038 482.205 143.902 462.664C135.705 442.904 133.425 420.692 136.451 399.284C139.477 377.875 147.556 357.159 159 338.708L181.81 354.734Z" fill="#2C92F8"/>
<path d="M164.079 384.676L158.725 387.516L159.343 393.906L156.188 388.316L150.169 389.048L155.399 385.88L154.905 379.818L157.984 385.066L164.079 384.676Z" fill="white"/>
<path d="M178.511 503.459L175.521 505.051L175.87 508.621L174.1 505.499L170.738 505.908L173.661 504.138L173.391 500.753L175.11 503.681L178.511 503.459Z" fill="white"/>
<path d="M167.647 474.936L164.654 476.518L165.006 480.098L163.243 476.963L159.874 477.385L162.797 475.614L162.524 472.219L164.247 475.158L167.647 474.936Z" fill="white"/>
<path d="M153.995 367.314L151.005 368.906L151.344 372.479L149.584 369.354L146.221 369.763L149.145 367.993L148.865 364.61L150.585 367.539L153.995 367.314Z" fill="white"/>
<path d="M188.311 508.34C188.126 508.459 187.985 508.635 187.91 508.841C187.836 509.047 187.831 509.273 187.897 509.482C187.963 509.691 188.096 509.873 188.276 510C188.455 510.126 188.671 510.189 188.891 510.181C189.075 510.062 189.216 509.886 189.291 509.68C189.365 509.473 189.37 509.248 189.304 509.039C189.238 508.829 189.105 508.647 188.926 508.521C188.746 508.395 188.53 508.331 188.311 508.34Z" fill="white"/>
<path d="M169.665 357.449C169.48 357.567 169.339 357.743 169.264 357.95C169.19 358.156 169.185 358.382 169.251 358.591C169.317 358.8 169.45 358.982 169.63 359.108C169.809 359.235 170.025 359.298 170.245 359.29C170.429 359.171 170.57 358.995 170.645 358.789C170.719 358.582 170.724 358.357 170.658 358.148C170.592 357.938 170.459 357.756 170.28 357.63C170.1 357.504 169.884 357.44 169.665 357.449Z" fill="white"/>
<path d="M145.964 455.199C145.779 455.318 145.639 455.494 145.564 455.7C145.489 455.907 145.484 456.132 145.55 456.341C145.616 456.551 145.749 456.733 145.929 456.859C146.108 456.985 146.325 457.049 146.544 457.04C146.729 456.921 146.869 456.745 146.944 456.539C147.019 456.333 147.024 456.107 146.958 455.898C146.892 455.689 146.759 455.507 146.579 455.38C146.399 455.254 146.183 455.19 145.964 455.199Z" fill="white"/>
<path d="M185.159 504.059C185.005 504.129 184.882 504.253 184.814 504.406C184.745 504.56 184.735 504.734 184.785 504.895C184.836 505.056 184.944 505.193 185.089 505.279C185.233 505.366 185.405 505.397 185.57 505.366C185.724 505.296 185.847 505.173 185.915 505.019C185.984 504.865 185.994 504.691 185.943 504.53C185.893 504.369 185.785 504.233 185.64 504.146C185.496 504.059 185.324 504.028 185.159 504.059Z" fill="white"/>
<path d="M135.491 423.124C135.319 423.178 135.175 423.298 135.092 423.458C135.009 423.618 134.992 423.805 135.047 423.977C135.101 424.149 135.221 424.292 135.381 424.376C135.541 424.459 135.728 424.475 135.9 424.421C136.072 424.367 136.215 424.247 136.298 424.087C136.382 423.927 136.398 423.74 136.344 423.568C136.29 423.396 136.169 423.253 136.009 423.169C135.849 423.086 135.663 423.07 135.491 423.124Z" fill="white"/>
<path d="M163.113 487.666C162.677 487.84 162.322 488.172 162.121 488.597C161.919 489.021 161.886 489.506 162.027 489.954C162.168 490.402 162.473 490.78 162.882 491.012C163.29 491.244 163.771 491.313 164.228 491.205C164.665 491.031 165.019 490.699 165.221 490.275C165.422 489.85 165.456 489.366 165.315 488.918C165.174 488.47 164.868 488.092 164.46 487.86C164.051 487.627 163.57 487.558 163.113 487.666Z" fill="white"/>
<path d="M141.94 414.508C141.472 414.655 141.082 414.983 140.855 415.418C140.628 415.853 140.584 416.36 140.731 416.828C140.879 417.296 141.206 417.686 141.641 417.913C142.076 418.14 142.584 418.184 143.052 418.037C143.52 417.889 143.91 417.562 144.137 417.127C144.363 416.692 144.408 416.184 144.26 415.716C144.113 415.248 143.785 414.858 143.35 414.631C142.915 414.405 142.408 414.36 141.94 414.508Z" fill="white"/>
<path d="M365.437 568.978C356.976 566.735 356.161 567.084 352.901 575.307C352.897 575.313 352.889 575.317 352.88 575.318C352.87 575.32 352.859 575.318 352.849 575.315C352.839 575.312 352.829 575.306 352.822 575.299C352.816 575.292 352.812 575.285 352.811 575.278C355.096 566.731 354.65 565.965 346.521 562.72C346.511 562.715 346.504 562.709 346.499 562.701C346.494 562.694 346.493 562.687 346.495 562.68C346.497 562.673 346.503 562.668 346.511 562.665C346.519 562.662 346.529 562.661 346.54 562.663C355.001 564.907 355.815 564.557 359.078 556.335C359.083 556.329 359.09 556.325 359.1 556.324C359.109 556.322 359.12 556.324 359.13 556.327C359.141 556.33 359.15 556.336 359.157 556.343C359.164 556.35 359.168 556.357 359.168 556.364C356.881 564.91 357.326 565.676 365.456 568.921C365.465 568.926 365.473 568.932 365.478 568.94C365.483 568.947 365.484 568.955 365.482 568.961C365.48 568.968 365.474 568.973 365.466 568.976C365.458 568.979 365.448 568.98 365.437 568.978Z" fill="white"/>
<path d="M354.459 51.3367C345.998 49.0933 345.183 49.4425 341.923 57.6662C341.919 57.6718 341.911 57.6756 341.902 57.6769C341.892 57.6783 341.881 57.6772 341.871 57.6738C341.861 57.6703 341.851 57.6648 341.844 57.658C341.838 57.6512 341.834 57.6436 341.833 57.6364C344.118 49.0902 343.672 48.3239 335.543 45.0791C335.533 45.0742 335.526 45.0675 335.521 45.0602C335.516 45.0529 335.515 45.0454 335.517 45.0388C335.519 45.0322 335.525 45.027 335.533 45.0239C335.541 45.0209 335.551 45.0202 335.562 45.022C344.023 47.2654 344.837 46.9162 348.1 38.6934C348.105 38.6878 348.112 38.684 348.122 38.6826C348.131 38.6812 348.142 38.6823 348.152 38.6858C348.163 38.6892 348.172 38.6948 348.179 38.7016C348.186 38.7083 348.19 38.7159 348.19 38.7232C345.903 47.2685 346.348 48.0348 354.478 51.2796C354.487 51.2845 354.495 51.2911 354.5 51.2984C354.505 51.3057 354.506 51.3133 354.504 51.3199C354.502 51.3265 354.496 51.3317 354.488 51.3348C354.48 51.3378 354.47 51.3385 354.459 51.3367Z" fill="white"/>
</svg>
