<svg width="520" height="522" viewBox="0 0 520 522" fill="none" xmlns="http://www.w3.org/2000/svg">
<path d="M288 372.71C298.864 372.71 307.67 363.903 307.67 353.04C307.67 342.177 298.864 333.37 288 333.37C277.137 333.37 268.33 342.177 268.33 353.04C268.33 363.903 277.137 372.71 288 372.71Z" fill="#EBEBEB" fill-opacity="0.14"/>
<path d="M295.16 341.37C295.207 342.315 294.951 343.25 294.43 344.04C293.901 344.852 293.161 345.505 292.29 345.93C291.394 346.381 290.358 346.468 289.4 346.17C288.489 345.887 287.708 345.288 287.2 344.48C287.903 344.984 288.709 345.326 289.56 345.48C289.96 345.555 290.37 345.555 290.77 345.48C291.168 345.422 291.554 345.297 291.91 345.11C292.1 345.02 292.28 344.92 292.46 344.82C292.64 344.72 292.82 344.59 292.98 344.46C293.312 344.205 293.617 343.917 293.89 343.6C294.451 342.944 294.882 342.187 295.16 341.37Z" fill="#C7C7C7"/>
<path d="M288.08 342.5C287.996 341.845 288.14 341.18 288.49 340.62C288.847 340.04 289.36 339.572 289.97 339.27C290.611 338.952 291.35 338.898 292.03 339.12C292.663 339.338 293.188 339.788 293.5 340.38C293.002 340.072 292.448 339.865 291.87 339.77C291.348 339.712 290.821 339.806 290.35 340.04C289.317 340.554 288.509 341.429 288.08 342.5Z" fill="#C7C7C7"/>
<path d="M288 362.28C288.242 362.88 288.259 363.548 288.05 364.16C287.836 364.791 287.44 365.345 286.91 365.75C286.638 365.962 286.326 366.118 285.993 366.207C285.66 366.297 285.312 366.318 284.97 366.27C284.328 366.185 283.739 365.864 283.32 365.37C283.861 365.549 284.431 365.627 285 365.6C285.506 365.565 285.99 365.38 286.39 365.07C286.799 364.747 287.138 364.346 287.39 363.89C287.688 363.394 287.894 362.849 288 362.28Z" fill="#C7C7C7"/>
<path d="M283.92 364.52C283.813 364.319 283.745 364.1 283.723 363.873C283.701 363.646 283.724 363.418 283.79 363.2C283.922 362.741 284.199 362.337 284.58 362.05C284.777 361.895 285.005 361.783 285.247 361.721C285.49 361.659 285.743 361.649 285.99 361.69C286.215 361.731 286.429 361.817 286.62 361.942C286.81 362.067 286.974 362.23 287.1 362.42C286.722 362.345 286.334 362.328 285.95 362.37C285.64 362.41 285.345 362.534 285.1 362.73C284.524 363.183 284.11 363.811 283.92 364.52Z" fill="#C7C7C7"/>
<path d="M280.91 344.59C281.084 344.751 281.223 344.946 281.319 345.163C281.415 345.379 281.467 345.613 281.47 345.85C281.474 346.107 281.426 346.363 281.33 346.601C281.234 346.84 281.091 347.057 280.91 347.24C280.725 347.428 280.499 347.571 280.249 347.656C279.999 347.741 279.732 347.767 279.47 347.73C279 347.686 278.561 347.477 278.23 347.14C278.642 347.152 279.054 347.125 279.46 347.06C279.777 347.01 280.07 346.863 280.3 346.64C280.537 346.4 280.709 346.104 280.8 345.78C280.902 345.392 280.939 344.99 280.91 344.59Z" fill="#C7C7C7"/>
<path d="M278.47 346.5C278.327 346.402 278.209 346.273 278.124 346.122C278.039 345.971 277.99 345.803 277.98 345.63C277.973 345.445 278.003 345.261 278.071 345.089C278.138 344.917 278.24 344.761 278.37 344.63C278.507 344.49 278.676 344.386 278.863 344.327C279.049 344.268 279.248 344.255 279.44 344.29C279.609 344.313 279.771 344.37 279.917 344.458C280.063 344.545 280.19 344.662 280.29 344.8C280.01 344.833 279.733 344.887 279.46 344.96C279.277 345.006 279.11 345.103 278.98 345.24C278.836 345.381 278.723 345.552 278.65 345.74C278.556 345.984 278.495 346.24 278.47 346.5Z" fill="#C7C7C7"/>
<path d="M294.58 365.32C294.466 365.529 294.311 365.712 294.123 365.858C293.936 366.004 293.72 366.11 293.49 366.17C293.243 366.245 292.984 366.268 292.728 366.239C292.471 366.21 292.224 366.128 292 366C291.772 365.867 291.578 365.683 291.432 365.463C291.286 365.243 291.193 364.992 291.16 364.73C291.098 364.261 291.197 363.785 291.44 363.38C291.523 363.783 291.65 364.175 291.82 364.55C291.939 364.848 292.153 365.098 292.43 365.26C292.717 365.435 293.044 365.531 293.38 365.54C293.79 365.536 294.196 365.461 294.58 365.32Z" fill="#C7C7C7"/>
<path d="M292.13 363.43C292.189 363.267 292.284 363.12 292.409 363C292.534 362.881 292.685 362.792 292.85 362.74C293.032 362.68 293.224 362.66 293.413 362.681C293.603 362.702 293.786 362.763 293.95 362.86C294.125 362.964 294.272 363.11 294.376 363.284C294.481 363.459 294.541 363.657 294.55 363.86C294.568 364.03 294.551 364.201 294.501 364.364C294.451 364.527 294.37 364.679 294.26 364.81C294.153 364.547 294.033 364.29 293.9 364.04C293.808 363.874 293.674 363.736 293.51 363.64C293.336 363.542 293.147 363.474 292.95 363.44C292.679 363.398 292.403 363.395 292.13 363.43Z" fill="#C7C7C7"/>
<path d="M301.32 351.48C301.36 351.958 301.209 352.433 300.9 352.8C300.557 353.188 300.077 353.429 299.56 353.47C299.296 353.485 299.032 353.439 298.787 353.337C298.543 353.235 298.325 353.079 298.15 352.88C297.834 352.529 297.648 352.081 297.62 351.61C297.927 351.894 298.262 352.145 298.62 352.36C298.89 352.536 299.208 352.624 299.53 352.61C299.864 352.587 300.188 352.48 300.47 352.3C300.796 352.074 301.083 351.797 301.32 351.48Z" fill="#C7C7C7"/>
<path d="M298.23 351.29C298.182 351.119 298.175 350.938 298.212 350.764C298.249 350.59 298.327 350.427 298.44 350.29C298.559 350.137 298.71 350.012 298.883 349.923C299.056 349.835 299.246 349.786 299.44 349.78C299.631 349.772 299.822 349.81 299.995 349.89C300.169 349.97 300.322 350.09 300.44 350.24C300.55 350.369 300.632 350.519 300.681 350.68C300.731 350.842 300.748 351.012 300.73 351.18C300.499 351.016 300.255 350.873 300 350.75C299.834 350.663 299.647 350.625 299.46 350.64C299.259 350.65 299.061 350.701 298.88 350.79C298.643 350.929 298.425 351.097 298.23 351.29Z" fill="#C7C7C7"/>
<path d="M275.26 355.94C275.282 356.175 275.256 356.413 275.183 356.638C275.111 356.863 274.994 357.071 274.84 357.25C274.673 357.446 274.469 357.607 274.238 357.722C274.008 357.837 273.757 357.904 273.5 357.92C273.235 357.937 272.971 357.893 272.726 357.79C272.481 357.688 272.264 357.53 272.09 357.33C271.777 356.981 271.591 356.537 271.56 356.07C271.869 356.351 272.204 356.602 272.56 356.82C272.83 356.994 273.149 357.078 273.47 357.06C273.804 357.04 274.127 356.937 274.41 356.76C274.735 356.534 275.022 356.257 275.26 355.94Z" fill="#C7C7C7"/>
<path d="M272.17 355.74C272.124 355.569 272.118 355.388 272.155 355.215C272.191 355.041 272.269 354.878 272.38 354.74C272.501 354.589 272.653 354.465 272.825 354.377C272.998 354.289 273.187 354.239 273.38 354.23C273.571 354.222 273.76 354.258 273.934 354.336C274.108 354.414 274.26 354.532 274.38 354.68C274.489 354.809 274.57 354.959 274.62 355.121C274.67 355.282 274.687 355.452 274.67 355.62C274.437 355.463 274.193 355.323 273.94 355.2C273.775 355.11 273.588 355.068 273.4 355.08C273.203 355.093 273.009 355.144 272.83 355.23C272.588 355.368 272.366 355.54 272.17 355.74Z" fill="#C7C7C7"/>
<g opacity="0.4">
<path d="M68.4204 279.92C68.3881 287.511 69.8386 295.035 72.6904 302.07C75.5804 309 80.1504 315.14 86.0704 319C87.5142 319.957 89.0402 320.783 90.6304 321.47C92.1932 322.115 93.8138 322.611 95.4704 322.95C98.6989 323.616 102.024 323.663 105.27 323.09C111.71 321.98 117.65 318.79 122.91 314.59C123.23 314.32 123.59 314.05 123.91 313.8L124.65 313.09C125.13 312.59 125.65 312.09 126.07 311.56C127.03 310.467 127.903 309.3 128.68 308.07C130.382 305.411 131.838 302.603 133.03 299.68C135.625 293.231 137.754 286.604 139.4 279.85C142.97 265.85 145.81 251.02 149.19 235.96C150.03 232.187 150.927 228.4 151.88 224.6C152.8 220.79 153.82 216.97 154.88 213.12C157.036 205.112 159.804 197.283 163.16 189.7C164.08 187.7 165.09 185.7 166.29 183.63C166.88 182.63 167.55 181.56 168.29 180.54C169.03 179.52 169.75 178.54 170.54 177.65C173.565 174.131 177.07 171.054 180.95 168.51C188.29 163.58 195.83 160.51 203.07 157.39C210.31 154.27 217.45 151.39 224.2 147.94C230.883 144.587 237.166 140.491 242.93 135.73C248.507 131.057 253.263 125.483 257 119.24C260.68 113.05 263.36 106.3 264.13 99.7299C264.551 96.5973 264.507 93.4198 264 90.2999C263.519 87.5105 262.5 84.8411 261 82.4399C259.658 80.3175 257.893 78.4948 255.814 77.0856C253.736 75.6764 251.389 74.7111 248.92 74.2499C246.401 73.7578 243.821 73.6566 241.27 73.9499C238.532 74.289 235.846 74.9606 233.27 75.9499C232.6 76.1999 231.94 76.4799 231.27 76.7599L228.91 77.7599C227.35 78.4599 225.8 79.1899 224.29 79.9699C221.29 81.5199 218.29 83.1899 215.38 85.0599C209.55 88.7499 203.82 93.2199 197.44 98.0599C190.751 103.208 183.692 107.857 176.32 111.97C168.636 116.076 160.576 119.434 152.25 122C151.25 122.34 150.19 122.61 149.16 122.91L146.39 123.7C144.86 124.15 143.31 124.64 141.77 125.17C138.7 126.25 135.66 127.48 132.7 128.85C120.87 134.37 110.53 142.11 103.17 152.17C99.3636 157.299 96.2157 162.886 93.8004 168.8C92.501 171.893 91.4021 175.066 90.5104 178.3C89.5513 181.65 88.7702 185.048 88.1704 188.48C87.5704 191.97 87.1004 195.55 86.8104 199.19C86.6604 200.9 86.5504 203.13 86.4104 205.19C86.2704 207.25 86.0604 209.3 85.8204 211.34C84.8644 219.406 83.344 227.396 81.2704 235.25C79.2704 243.02 76.7904 250.54 74.2704 257.93C73.0004 261.63 71.7304 265.3 70.6004 268.93C69.3835 272.479 68.6502 276.175 68.4204 279.92ZM65.4204 279.92C65.4309 277.875 65.6386 275.835 66.0404 273.83C66.3904 271.83 66.8504 269.94 67.3004 268.04C68.2004 264.23 69.1704 260.47 69.9704 256.69C70.7704 252.91 71.4804 249.14 71.9704 245.35C72.4604 241.56 72.7804 237.76 72.9704 233.97C73.2412 226.457 72.7588 218.936 71.5304 211.52C71.2504 209.68 70.8904 207.86 70.5304 206.05C70.1704 204.24 69.7404 202.56 69.3204 200.41C68.4658 196.268 67.8415 192.081 67.4504 187.87C66.6018 179.117 67.0093 170.288 68.6604 161.65C70.4175 152.622 73.7048 143.96 78.3804 136.04C83.1703 128.096 89.1651 120.944 96.1504 114.84C102.998 108.843 110.624 103.798 118.82 99.8399C122.853 97.8632 127.008 96.1463 131.26 94.6999C133.38 93.9499 135.54 93.2999 137.74 92.6999L143.08 91.2699C149.637 89.4816 156.03 87.1399 162.19 84.2699C168.582 81.2196 174.754 77.7278 180.66 73.8199C187.01 69.8199 193.88 65.1499 201.5 61.0999C205.323 59.0435 209.252 57.1909 213.27 55.5499C215.27 54.7199 217.27 53.9699 219.37 53.2499L222.45 52.2499C223.62 51.8999 224.8 51.5599 225.99 51.2499C230.869 50.0102 235.899 49.4681 240.93 49.6399C246.153 49.8056 251.307 50.8817 256.16 52.8199C261.114 54.8125 265.614 57.7853 269.39 61.5599C273.12 65.2828 276.011 69.7593 277.87 74.6899C279.617 79.3526 280.476 84.3013 280.4 89.2799C280.348 93.9173 279.62 98.5223 278.24 102.95C275.565 111.119 271.487 118.76 266.19 125.53C263.676 128.832 260.94 131.959 258 134.89C255.077 137.768 251.989 140.472 248.75 142.99C235.86 152.99 221.22 159.63 207.99 167.36C201.39 171.18 195.1 175.36 190.33 180.18C188.095 182.429 186.195 184.989 184.69 187.78C184.35 188.447 184.04 189.113 183.76 189.78C183.49 190.43 183.24 191.09 182.99 191.78C182.5 193.22 182.05 194.78 181.64 196.44C180.83 199.73 180.2 203.28 179.64 206.9C179.08 210.52 178.58 214.23 178.07 217.97L176.59 229.31C176.09 233.12 175.59 236.96 174.99 240.82C172.63 256.22 169.63 271.93 163.99 287.57C161.15 295.699 157.357 303.463 152.69 310.7C151.42 312.56 150.1 314.4 148.63 316.2C147.158 318.044 145.561 319.784 143.85 321.41C142.088 323.111 140.195 324.673 138.19 326.08C137.167 326.803 136.106 327.471 135.01 328.08L133.33 328.98C132.79 329.26 132.33 329.46 131.8 329.7C127.741 331.585 123.489 333.027 119.12 334C114.675 334.983 110.112 335.319 105.57 335C101.055 334.678 96.629 333.575 92.4904 331.74C90.469 330.842 88.5342 329.761 86.7104 328.51C84.9352 327.296 83.2629 325.938 81.7104 324.45C75.8379 318.598 71.5056 311.384 69.1004 303.45C66.7317 295.856 65.4918 287.955 65.4204 280V279.92Z" fill="#EBEBEB" fill-opacity="0.14"/>
<path d="M194.32 313.37C198.457 305.476 201.534 297.07 203.47 288.37C205.56 279.7 206.89 270.85 208.19 261.9C208.88 257.43 209.5 252.9 210.32 248.37C211.086 243.711 212.121 239.1 213.42 234.56C214.798 229.667 216.78 224.964 219.32 220.56C222.259 215.539 226.292 211.246 231.12 208C232.41 207.15 233.8 206.44 235.12 205.68C236.44 204.92 237.98 204.44 239.44 203.87C240.9 203.3 242.44 202.97 243.9 202.59C245.36 202.21 246.9 202.04 248.39 201.79C254.134 201.027 259.958 201.104 265.68 202.02C271.292 202.914 276.772 204.492 282 206.72C286.897 208.837 291.609 211.355 296.09 214.25C304.226 219.639 311.96 225.611 319.23 232.12L329.47 241.12C331.14 242.59 332.83 243.99 334.47 245.4L336.96 247.49L339.45 249.49C342.686 252.081 346.05 254.507 349.53 256.76C352.819 258.91 356.285 260.777 359.89 262.34C363.722 263.904 367.684 265.129 371.73 266C375.95 267 380.35 267.74 384.86 268.4C393.86 269.73 403.26 270.57 412.77 271.67L419.92 272.56C422.33 272.91 424.72 273.27 427.14 273.71C432.051 274.532 436.892 275.728 441.62 277.29C446.567 278.889 451.226 281.269 455.42 284.34C459.66 287.52 463.121 291.624 465.54 296.34C466.696 298.617 467.627 301.002 468.32 303.46L469.22 307.09C469.47 308.29 469.63 309.45 469.84 310.64C470.545 315.395 470.816 320.205 470.65 325.01C470.409 329.847 469.699 334.65 468.53 339.35C468.21 340.52 467.97 341.72 467.59 342.87L466.47 346.34C465.61 348.61 464.74 350.89 463.71 353.09C459.583 361.959 454.161 370.166 447.62 377.44C444.4 381.111 440.968 384.591 437.34 387.86C433.76 391.19 429.94 394.22 426.06 397.17C424.06 398.59 422.14 400.08 420.11 401.42L417.11 403.48L414.04 405.48C409.913 408.067 405.7 410.5 401.4 412.78C399.25 413.91 397.08 415 394.91 416.1C392.74 417.2 390.52 418.18 388.31 419.17C386.1 420.16 383.88 421.17 381.63 422.06C379.38 422.95 377.15 423.9 374.87 424.73L361.87 429.59C359.75 430.38 357.67 431.23 355.58 432.05L352.44 433.29L349.33 434.58C332.828 441.398 316.758 449.219 301.21 458C293.4 462.41 285.66 467 277.26 471.64C273.07 473.99 268.63 476.27 263.77 478.44C258.621 480.76 253.264 482.588 247.77 483.9C241.873 485.276 235.823 485.884 229.77 485.71C224.013 485.533 218.291 484.745 212.7 483.36C209.98 482.77 207.45 481.98 204.88 481.23C203.61 480.83 202.39 480.39 201.15 479.98C199.91 479.57 198.69 479.15 197.41 478.62L193.63 477.1L191.75 476.32L189.88 475.41C187.351 474.237 184.89 472.921 182.51 471.47C181.31 470.73 180.11 470.01 178.92 469.24L175.46 466.69L173.76 465.4C173.19 464.96 172.67 464.45 172.12 463.97L168.92 461.05C167.92 460.05 166.92 458.89 165.98 457.82L164.54 456.18C164.08 455.62 163.67 455.02 163.23 454.43C162.38 453.25 161.52 452.08 160.7 450.89C159.88 449.7 159.25 448.39 158.55 447.13C155.916 442.193 154.045 436.887 153 431.39L152.59 429.39C152.48 428.72 152.41 428.06 152.33 427.39C152.17 426.07 152 424.75 151.89 423.39C151.744 420.809 151.727 418.222 151.84 415.64C152.066 410.667 152.715 405.723 153.78 400.86C154.825 396.183 156.134 391.569 157.7 387.04C160.787 378.266 164.417 369.693 168.57 361.37C169.57 359.32 170.57 357.24 171.65 355.22C172.73 353.2 173.65 351.14 174.78 349.13C175.91 347.12 176.92 345.13 178 343.13L181.23 337.13L194.32 313.37ZM196.98 314.73C192.7 322.65 188.72 330.73 185.18 338.98L183.86 342.07L182.62 345.19C181.77 347.26 181.02 349.37 180.26 351.47C178.71 355.66 177.37 359.92 176.13 364.19C173.659 372.622 171.959 381.261 171.05 390C170.608 394.228 170.418 398.479 170.48 402.73C170.569 406.797 170.988 410.85 171.73 414.85C172 416.85 172.61 418.66 173.05 420.52L173.96 423.19C174.12 423.63 174.25 424.07 174.41 424.5L174.98 425.76C176.336 428.994 178.136 432.024 180.33 434.76C180.88 435.42 181.43 436.06 181.94 436.76L183.74 438.56C184.04 438.86 184.32 439.18 184.63 439.46L185.63 440.27C186.3 440.8 186.92 441.37 187.63 441.89L189.78 443.37C190.14 443.62 190.47 443.89 190.85 444.11L192.02 444.78L194.33 446.13L196.82 447.32C200.271 448.956 203.837 450.336 207.49 451.45C208.39 451.77 209.4 452.04 210.4 452.31C211.4 452.58 212.4 452.88 213.4 453.12C215.35 453.55 217.31 454.07 219.19 454.36C222.734 455.054 226.339 455.389 229.95 455.36C233.25 455.31 236.533 454.871 239.73 454.05C246.2 452.4 253.42 448.88 261.25 444.69C265.16 442.62 269.15 440.42 273.25 438.19C277.35 435.96 281.54 433.79 285.75 431.61C302.837 422.897 320.517 415.402 338.66 409.18L342 408L345.41 406.88C347.68 406.14 349.95 405.37 352.23 404.67L365.58 400.6C369.83 399.29 374.04 397.9 378.23 396.47L384.46 394.22C386.52 393.43 388.58 392.65 390.63 391.84C394.68 390.16 398.77 388.51 402.71 386.63L405.71 385.25L408.64 383.8C410.64 382.86 412.49 381.8 414.42 380.8C421.99 376.696 429.143 371.866 435.78 366.38C439.019 363.653 442.064 360.703 444.89 357.55C447.704 354.461 450.218 351.113 452.4 347.55C456.817 340.479 459.613 332.519 460.59 324.24C461.025 320.073 461.005 315.872 460.53 311.71C460.38 310.71 460.28 309.61 460.1 308.59L459.48 305.59C458.962 303.682 458.266 301.827 457.4 300.05C455.675 296.533 453.105 293.499 449.92 291.22C446.519 288.861 442.727 287.124 438.72 286.09C434.46 284.974 430.11 284.238 425.72 283.89C421.26 283.52 416.72 283.39 412.12 283.43C402.94 283.48 393.58 284.05 383.93 284.25C379.09 284.32 374.17 284.25 369.11 283.95C363.86 283.655 358.644 282.913 353.52 281.73C342.61 279.06 333.21 274.17 324.7 268.73C307.8 257.79 294.49 244.73 280.97 235.12C274.24 230.33 267.58 226.51 260.72 224.41C257.271 223.352 253.703 222.734 250.1 222.57C246.826 222.28 243.53 222.762 240.477 223.978C237.424 225.193 234.698 227.109 232.52 229.57C229.803 232.514 227.474 235.794 225.59 239.33C223.546 243.113 221.72 247.009 220.12 251C218.51 255.11 216.98 259.32 215.59 263.58C212.73 272.1 210.22 280.81 207.35 289.42C204.629 298.137 201.167 306.604 197 314.73H196.98Z" fill="#EBEBEB" fill-opacity="0.14"/>
<path d="M472.72 109.88C471.464 112.572 470.024 115.175 468.41 117.67C467.67 118.87 466.89 120 466.11 121.14C465.33 122.28 464.51 123.35 463.69 124.4C462.07 126.54 460.37 128.51 458.69 130.48C451.83 138.23 444.36 144.88 437.04 151.48L434.45 153.83L433.31 154.83L432.2 156C431.45 156.75 430.79 157.61 430.09 158.43C429.39 159.25 428.77 160.19 428.09 161.11C427.41 162.03 426.83 162.97 426.25 163.97C425.67 164.97 425.08 165.97 424.53 166.97C423.46 168.97 422.37 171.14 421.42 173.32C417.42 182.06 414.42 191.45 409.81 200.86C407.396 205.867 404.199 210.458 400.34 214.46C398.229 216.577 395.88 218.443 393.34 220.02C392.047 220.812 390.712 221.533 389.34 222.18C388.65 222.5 387.96 222.84 387.26 223.12L385.14 223.91C382.322 224.884 379.424 225.614 376.48 226.09C375 226.36 373.4 226.44 371.83 226.58C370.26 226.72 368.73 226.58 367.16 226.58C365.59 226.58 364.16 226.31 362.57 226.14C361.821 226.051 361.077 225.924 360.34 225.76L358.12 225.31L357.01 225.07L355.94 224.76L353.8 224.12C352.385 223.714 350.996 223.223 349.64 222.65C344.335 220.53 339.318 217.748 334.71 214.37C330.27 211.077 326.172 207.345 322.48 203.23C318.882 199.151 315.705 194.719 313 190C312.33 188.82 311.69 187.63 311.06 186.45C310.43 185.27 309.9 184 309.33 182.78C308.76 181.56 308.24 180.32 307.76 179.06C307.28 177.8 306.76 176.57 306.36 175.27C304.637 170.201 303.326 165 302.44 159.72C301.541 154.534 301.059 149.283 301 144.02C300.902 138.878 301.29 133.739 302.16 128.67C303.021 123.665 304.611 118.813 306.88 114.27C309.278 109.664 312.699 105.669 316.88 102.59C321.139 99.5398 325.796 97.087 330.72 95.2999C340.552 91.7434 350.721 89.2034 361.07 87.7199C366.18 86.9399 371.26 86.4199 376.29 86.0999C376.778 86.078 377.263 86.0145 377.74 85.9099L378.91 85.6999C379.71 85.4599 380.47 85.3899 381.26 85.1099L382.42 84.7799C382.81 84.6399 383.2 84.4799 383.59 84.3699C384.37 84.1599 385.19 83.7499 385.98 83.4999C389.588 82.0291 393.102 80.3358 396.5 78.4299L402.43 75.0999L405.6 73.3099L409 71.5199C411.26 70.2799 413.79 69.0899 416.39 67.9099C419.214 66.6766 422.113 65.6245 425.07 64.7599C428.406 63.7833 431.835 63.1599 435.3 62.8999C439.084 62.6104 442.889 62.8391 446.61 63.5799L448.03 63.8499L449.41 64.2199C450.32 64.4799 451.25 64.7299 452.16 65.0199C453.906 65.6342 455.613 66.3555 457.27 67.1799L459.68 68.4299L461.89 69.7999C463.319 70.7264 464.697 71.7278 466.02 72.7999C466.37 73.0599 466.64 73.2599 467.02 73.5899C467.4 73.9199 468.02 74.4699 468.53 74.9299C469.57 75.8666 470.523 76.894 471.38 77.9999C471.59 78.2699 471.82 78.5499 472.03 78.8399L472.64 79.7699C473.03 80.3999 473.4 81.0199 473.77 81.6599C474.433 82.9493 474.997 84.2863 475.46 85.6599C475.66 86.3399 475.84 87.0099 476.01 87.6599C476.1 87.9999 476.18 88.3499 476.24 88.6599L476.4 89.6599C476.49 90.2999 476.56 90.9499 476.63 91.5999C476.7 92.2499 476.68 92.8099 476.7 93.4199C476.72 94.0299 476.7 94.6299 476.7 95.2099L476.56 96.8499C476.5 97.3799 476.46 97.9599 476.37 98.4599L476.08 99.9999C475.347 103.412 474.22 106.728 472.72 109.88Z" fill="#EBEBEB" fill-opacity="0.14"/>
<path d="M142.88 374.35C143.373 377.209 143.577 380.11 143.49 383.01C143.271 388.299 142.363 393.536 140.79 398.59C139.43 403.518 137.695 408.336 135.6 413C133.472 417.686 130.786 422.098 127.6 426.14C124.272 430.345 120.398 434.088 116.08 437.27C111.24 440.661 105.676 442.876 99.8302 443.74C96.7312 444.203 93.5855 444.267 90.4702 443.93C87.4611 443.594 84.5207 442.801 81.7502 441.58C79.2925 440.476 76.9924 439.05 74.9102 437.34C73.0475 435.782 71.2809 434.112 69.6202 432.34C68.7606 431.412 67.9874 430.408 67.3102 429.34C66.6728 428.219 66.1276 427.049 65.6802 425.84C64.8413 423.342 64.2583 420.766 63.9402 418.15C63.1948 412.712 63.1343 407.203 63.7602 401.75C64.3547 396.514 66.0593 391.465 68.7602 386.94C71.3735 382.651 74.8217 378.931 78.9002 376C83.1097 373.145 87.6409 370.795 92.4002 369C97.1402 367.12 101.73 365.35 106.09 363.29C110.45 361.23 114.67 358.94 119.98 357.29C121.398 356.841 122.854 356.527 124.33 356.35C126.051 356.118 127.797 356.145 129.51 356.43C131.809 356.873 133.952 357.907 135.73 359.43C136.172 359.817 136.593 360.228 136.99 360.66C137.36 361.08 137.73 361.51 138.08 361.96C138.694 362.791 139.245 363.667 139.73 364.58C140.18 365.416 140.58 366.278 140.93 367.16C141.23 367.96 141.57 368.84 141.78 369.61L142.13 370.82L142.42 371.99C142.61 372.84 142.74 373.58 142.88 374.35Z" fill="#EBEBEB" fill-opacity="0.14"/>
</g>
<g opacity="0.4">
<path d="M425.35 206.48C448.86 188.22 472.51 191.77 472.51 191.77C472.51 191.77 472.62 215.69 451.16 236.32C433.05 253.73 415.86 252.74 409.93 245.9C404 239.06 405.51 221.88 425.35 206.48Z" fill="#EBEBEB" fill-opacity="0.14"/>
<path d="M422.74 218.29C437.64 206.71 452.63 208.97 452.63 208.97C452.63 208.97 452.7 224.12 439.1 237.21C427.62 248.21 416.71 247.62 412.96 243.28C409.21 238.94 410.16 228.05 422.74 218.29Z" fill="white"/>
</g>
<path d="M433.53 224.54L431.75 223.12C431.629 223.024 431.527 222.904 431.452 222.768C431.376 222.633 431.329 222.484 431.311 222.329C431.293 222.175 431.306 222.019 431.349 221.87C431.392 221.721 431.464 221.581 431.56 221.46C431.657 221.339 431.777 221.238 431.913 221.164C432.049 221.09 432.199 221.043 432.353 221.026C432.507 221.009 432.663 221.023 432.812 221.067C432.961 221.11 433.099 221.183 433.22 221.28L435 222.7C435.121 222.796 435.221 222.915 435.296 223.05C435.37 223.186 435.417 223.334 435.433 223.487C435.45 223.641 435.436 223.796 435.393 223.944C435.35 224.092 435.277 224.23 435.18 224.35C435.085 224.471 434.966 224.572 434.831 224.648C434.697 224.723 434.548 224.771 434.395 224.788C434.241 224.806 434.086 224.793 433.938 224.751C433.789 224.708 433.651 224.636 433.53 224.54Z" fill="#EBEBEB" fill-opacity="0.14"/>
<path d="M413.46 242.85L412.22 240.94C412.05 240.679 411.99 240.36 412.054 240.055C412.117 239.749 412.3 239.481 412.56 239.31C412.69 239.224 412.836 239.165 412.988 239.135C413.141 239.106 413.299 239.107 413.451 239.139C413.603 239.17 413.748 239.232 413.877 239.319C414.005 239.407 414.115 239.519 414.2 239.65L415.44 241.56C415.61 241.823 415.668 242.142 415.602 242.447C415.537 242.753 415.353 243.02 415.09 243.19C414.829 243.36 414.51 243.42 414.205 243.356C413.9 243.293 413.632 243.111 413.46 242.85Z" fill="#EBEBEB" fill-opacity="0.14"/>
<path d="M425.18 220.91H423.95C423.795 220.905 423.643 220.869 423.502 220.805C423.36 220.741 423.233 220.649 423.127 220.536C423.022 220.423 422.939 220.29 422.885 220.145C422.83 219.999 422.805 219.845 422.81 219.69C422.815 219.535 422.851 219.382 422.915 219.241C422.979 219.1 423.071 218.973 423.184 218.867C423.297 218.761 423.43 218.679 423.576 218.624C423.721 218.57 423.875 218.545 424.03 218.55H425.25C425.405 218.554 425.557 218.588 425.698 218.651C425.839 218.714 425.967 218.805 426.073 218.917C426.179 219.03 426.261 219.162 426.316 219.307C426.37 219.451 426.396 219.605 426.39 219.76C426.386 219.915 426.352 220.068 426.289 220.209C426.226 220.351 426.136 220.479 426.024 220.586C425.911 220.692 425.779 220.776 425.634 220.832C425.489 220.887 425.335 220.914 425.18 220.91Z" fill="#EBEBEB" fill-opacity="0.14"/>
<path d="M436.5 235.7V234.48C436.504 234.325 436.539 234.173 436.602 234.032C436.665 233.891 436.755 233.764 436.868 233.658C436.98 233.552 437.112 233.469 437.257 233.414C437.402 233.36 437.556 233.335 437.71 233.34C437.865 233.344 438.018 233.378 438.16 233.441C438.301 233.504 438.429 233.594 438.536 233.707C438.643 233.819 438.726 233.951 438.782 234.096C438.838 234.241 438.864 234.395 438.86 234.55V235.78C438.856 235.934 438.822 236.087 438.759 236.228C438.696 236.369 438.605 236.496 438.493 236.602C438.38 236.708 438.248 236.791 438.103 236.845C437.959 236.9 437.805 236.925 437.65 236.92C437.494 236.916 437.341 236.881 437.198 236.818C437.056 236.754 436.928 236.663 436.821 236.55C436.714 236.436 436.631 236.303 436.575 236.157C436.52 236.011 436.495 235.856 436.5 235.7Z" fill="#EBEBEB" fill-opacity="0.14"/>
<path d="M410.43 236.06L410.29 234.85C410.256 234.545 410.34 234.238 410.527 233.994C410.713 233.75 410.987 233.587 411.29 233.54C411.603 233.506 411.917 233.598 412.162 233.795C412.407 233.991 412.565 234.277 412.6 234.59L412.73 235.8C412.767 236.104 412.683 236.411 412.496 236.654C412.309 236.898 412.034 237.058 411.73 237.1C411.576 237.118 411.421 237.105 411.272 237.063C411.123 237.02 410.984 236.948 410.863 236.852C410.742 236.755 410.642 236.635 410.567 236.499C410.493 236.363 410.446 236.214 410.43 236.06Z" fill="#EBEBEB" fill-opacity="0.14"/>
<path d="M430.28 246.72L429.14 247.17C428.996 247.227 428.842 247.254 428.686 247.251C428.531 247.248 428.378 247.214 428.236 247.152C428.094 247.09 427.966 247 427.858 246.888C427.751 246.776 427.667 246.644 427.61 246.5C427.554 246.355 427.526 246.201 427.529 246.046C427.532 245.891 427.566 245.738 427.628 245.596C427.69 245.454 427.78 245.325 427.892 245.218C428.004 245.111 428.136 245.026 428.28 244.97L429.42 244.53C429.711 244.415 430.035 244.42 430.322 244.544C430.608 244.667 430.834 244.9 430.95 245.19C431.008 245.334 431.037 245.489 431.034 245.644C431.032 245.8 430.999 245.953 430.936 246.096C430.874 246.238 430.784 246.367 430.671 246.474C430.558 246.581 430.426 246.665 430.28 246.72Z" fill="#EBEBEB" fill-opacity="0.14"/>
<path d="M426.182 246.832C433.652 245.998 439.032 239.267 438.198 231.796C437.364 224.326 430.632 218.946 423.162 219.78C415.692 220.614 410.312 227.346 411.146 234.816C411.98 242.287 418.712 247.666 426.182 246.832Z" fill="#EBEBEB" fill-opacity="0.14"/>
<path d="M418.84 225.86C418.876 226.515 419.125 227.14 419.55 227.64C419.974 228.159 420.53 228.553 421.16 228.78C421.81 229.018 422.526 228.996 423.16 228.72C423.763 228.453 424.252 227.982 424.54 227.39C424.1 227.801 423.574 228.108 423 228.29C422.731 228.369 422.45 228.399 422.17 228.38C421.89 228.371 421.613 228.317 421.35 228.22L420.95 228.06C420.82 227.99 420.69 227.93 420.57 227.85C420.323 227.7 420.092 227.526 419.88 227.33C419.439 226.915 419.085 226.415 418.84 225.86Z" fill="#C7C7C7"/>
<path d="M423.79 226.1C423.797 225.64 423.646 225.191 423.36 224.83C423.072 224.458 422.683 224.177 422.24 224.02C421.797 223.85 421.305 223.86 420.868 224.047C420.431 224.233 420.084 224.582 419.9 225.02C420.22 224.769 420.588 224.585 420.98 224.48C421.332 224.394 421.701 224.415 422.04 224.54C422.799 224.822 423.424 225.379 423.79 226.1Z" fill="#C7C7C7"/>
<path d="M429.42 234.87C429.297 235.302 429.336 235.765 429.53 236.17C429.717 236.59 430.032 236.94 430.43 237.17C430.632 237.297 430.858 237.381 431.093 237.417C431.329 237.453 431.57 237.441 431.8 237.38C432.238 237.272 432.619 237.004 432.87 236.63C432.511 236.796 432.125 236.897 431.73 236.93C431.378 236.94 431.03 236.846 430.73 236.66C430.414 236.478 430.138 236.233 429.92 235.94C429.689 235.617 429.52 235.254 429.42 234.87Z" fill="#C7C7C7"/>
<path d="M432.39 236.09C432.452 235.946 432.484 235.791 432.484 235.635C432.484 235.478 432.452 235.324 432.39 235.18C432.266 234.874 432.045 234.617 431.76 234.45C431.612 234.359 431.447 234.299 431.275 234.275C431.103 234.251 430.928 234.263 430.76 234.31C430.608 234.355 430.467 234.43 430.345 234.532C430.223 234.633 430.122 234.759 430.05 234.9C430.306 234.817 430.572 234.773 430.84 234.77C431.056 234.781 431.266 234.846 431.45 234.96C431.878 235.224 432.208 235.621 432.39 236.09Z" fill="#C7C7C7"/>
<path d="M433.93 231.32C433.823 231.444 433.742 231.589 433.692 231.745C433.643 231.902 433.625 232.067 433.64 232.23C433.656 232.407 433.708 232.579 433.792 232.735C433.877 232.891 433.991 233.029 434.13 233.14C434.269 233.25 434.431 233.328 434.604 233.368C434.777 233.408 434.957 233.409 435.13 233.37C435.447 233.301 435.729 233.124 435.93 232.87C435.651 232.893 435.37 232.893 435.09 232.87C434.863 232.866 434.645 232.785 434.47 232.64C434.291 232.494 434.154 232.305 434.07 232.09C433.982 231.843 433.935 231.583 433.93 231.32Z" fill="#C7C7C7"/>
<path d="M435.75 232.44C435.843 232.365 435.917 232.268 435.964 232.159C436.011 232.049 436.03 231.929 436.02 231.81C436.015 231.678 435.981 231.548 435.921 231.431C435.86 231.313 435.775 231.211 435.67 231.13C435.566 231.043 435.442 230.983 435.31 230.956C435.178 230.928 435.04 230.933 434.91 230.97C434.796 230.999 434.689 231.052 434.597 231.124C434.504 231.196 434.427 231.287 434.37 231.39C434.564 231.394 434.758 231.41 434.95 231.44C435.078 231.459 435.198 231.511 435.3 231.59C435.41 231.678 435.502 231.787 435.57 231.91C435.653 232.078 435.713 232.256 435.75 232.44Z" fill="#C7C7C7"/>
<path d="M414.94 229.39C414.943 229.555 414.979 229.718 415.046 229.87C415.113 230.021 415.21 230.157 415.33 230.27C415.464 230.394 415.622 230.489 415.794 230.55C415.966 230.61 416.149 230.634 416.33 230.62C416.513 230.612 416.691 230.562 416.85 230.473C417.01 230.385 417.147 230.26 417.25 230.11C417.437 229.845 417.529 229.524 417.51 229.2C417.328 229.414 417.128 229.612 416.91 229.79C416.735 229.927 416.523 230.011 416.3 230.03C416.069 230.042 415.838 229.993 415.63 229.89C415.375 229.762 415.142 229.593 414.94 229.39Z" fill="#C7C7C7"/>
<path d="M417.05 229C417.066 228.882 417.055 228.762 417.017 228.649C416.978 228.536 416.915 228.434 416.83 228.35C416.738 228.256 416.628 228.182 416.505 228.134C416.383 228.085 416.252 228.064 416.12 228.07C415.994 228.077 415.871 228.112 415.759 228.171C415.648 228.231 415.551 228.314 415.474 228.414C415.398 228.515 415.345 228.632 415.318 228.755C415.292 228.879 415.292 229.007 415.32 229.13C415.5 228.99 415.64 228.87 415.78 228.78C415.894 228.714 416.02 228.673 416.15 228.66C416.29 228.654 416.43 228.678 416.56 228.73C416.735 228.797 416.9 228.887 417.05 229Z" fill="#C7C7C7"/>
<path d="M423.56 237.73C423.049 238.03 422.461 238.172 421.869 238.138C421.277 238.104 420.709 237.895 420.236 237.539C419.763 237.182 419.406 236.693 419.21 236.134C419.014 235.574 418.988 234.969 419.136 234.395C419.284 233.821 419.598 233.304 420.04 232.909C420.481 232.513 421.03 232.257 421.616 232.173C422.203 232.089 422.801 232.181 423.336 232.436C423.871 232.692 424.317 233.101 424.62 233.61C424.822 233.95 424.955 234.326 425.011 234.718C425.067 235.109 425.045 235.507 424.947 235.89C424.848 236.273 424.675 236.633 424.437 236.949C424.199 237.264 423.901 237.53 423.56 237.73Z" fill="#DBDBDB"/>
<path d="M420.47 233.88C420.1 234.098 419.787 234.4 419.556 234.761C419.325 235.122 419.183 235.533 419.14 235.96C419.004 235.475 418.992 234.964 419.105 234.474C419.219 233.983 419.454 233.529 419.788 233.153C420.123 232.778 420.547 232.492 421.022 232.323C421.496 232.154 422.005 232.107 422.502 232.187C422.999 232.266 423.468 232.469 423.866 232.778C424.264 233.086 424.578 233.49 424.779 233.951C424.98 234.413 425.061 234.917 425.016 235.419C424.971 235.92 424.8 236.402 424.52 236.82C424.626 236.308 424.583 235.776 424.396 235.288C424.208 234.8 423.885 234.376 423.464 234.066C423.042 233.756 422.541 233.574 422.019 233.541C421.497 233.508 420.977 233.626 420.52 233.88H420.47Z" fill="#C7C7C7"/>
<path d="M418 236.1C418.077 236.896 418.394 237.649 418.91 238.26C419.443 238.886 420.133 239.359 420.91 239.63C421.694 239.94 422.566 239.94 423.35 239.63C424.066 239.285 424.647 238.712 425 238C424.477 238.533 423.831 238.931 423.12 239.16C422.95 239.214 422.776 239.254 422.6 239.28C422.424 239.3 422.246 239.3 422.07 239.28C421.728 239.269 421.39 239.202 421.07 239.08L420.57 238.88C420.41 238.79 420.25 238.72 420.1 238.62C419.787 238.432 419.496 238.21 419.23 237.96C418.702 237.427 418.284 236.795 418 236.1Z" fill="#C7C7C7"/>
<path d="M414.81 237.6C414.671 237.649 414.524 237.67 414.376 237.663C414.229 237.655 414.084 237.618 413.951 237.555C413.818 237.491 413.698 237.402 413.6 237.292C413.501 237.182 413.425 237.054 413.375 236.915C413.326 236.776 413.305 236.628 413.313 236.481C413.32 236.333 413.357 236.189 413.421 236.056C413.484 235.922 413.574 235.803 413.683 235.704C413.793 235.605 413.921 235.529 414.06 235.48C414.342 235.386 414.648 235.406 414.915 235.535C415.182 235.664 415.389 235.892 415.49 236.17C415.59 236.45 415.574 236.758 415.446 237.026C415.319 237.294 415.09 237.5 414.81 237.6Z" fill="#DBDBDB"/>
<path d="M414 236C413.849 236.053 413.713 236.142 413.604 236.258C413.494 236.375 413.414 236.516 413.37 236.67C413.345 236.422 413.405 236.172 413.539 235.961C413.673 235.751 413.875 235.592 414.11 235.51C414.392 235.416 414.698 235.436 414.965 235.565C415.232 235.694 415.438 235.922 415.54 236.2C415.611 236.4 415.623 236.617 415.575 236.824C415.528 237.031 415.422 237.221 415.27 237.37C415.365 237.132 415.365 236.868 415.27 236.63C415.229 236.505 415.163 236.39 415.076 236.29C414.99 236.191 414.884 236.11 414.766 236.051C414.648 235.992 414.52 235.958 414.388 235.949C414.257 235.94 414.125 235.958 414 236Z" fill="#C7C7C7"/>
<path d="M412.87 236.61C412.825 236.909 412.878 237.214 413.02 237.48C413.171 237.753 413.392 237.981 413.66 238.14C413.936 238.308 414.266 238.361 414.58 238.29C414.878 238.221 415.141 238.047 415.32 237.8C415.081 237.94 414.815 238.028 414.54 238.06C414.284 238.077 414.029 238.014 413.81 237.88C413.576 237.743 413.371 237.56 413.209 237.342C413.048 237.123 412.932 236.874 412.87 236.61Z" fill="#C7C7C7"/>
<path d="M423.29 244C422.978 244.053 422.657 244.012 422.368 243.883C422.079 243.753 421.835 243.541 421.667 243.273C421.498 243.005 421.413 242.692 421.423 242.376C421.432 242.059 421.535 241.753 421.718 241.495C421.902 241.237 422.158 241.039 422.454 240.927C422.75 240.814 423.073 240.792 423.382 240.864C423.69 240.935 423.971 241.096 424.188 241.327C424.405 241.558 424.548 241.848 424.6 242.16C424.636 242.367 424.63 242.579 424.584 242.784C424.537 242.988 424.45 243.182 424.329 243.353C424.207 243.524 424.052 243.669 423.874 243.78C423.696 243.891 423.497 243.966 423.29 244Z" fill="#DBDBDB"/>
<path d="M422.49 241.49C422.266 241.528 422.054 241.618 421.872 241.754C421.689 241.889 421.541 242.066 421.44 242.27C421.465 241.878 421.635 241.509 421.915 241.234C422.196 240.959 422.569 240.798 422.962 240.782C423.355 240.766 423.739 240.896 424.042 241.146C424.344 241.397 424.543 241.751 424.6 242.14C424.65 242.439 424.615 242.745 424.498 243.025C424.381 243.304 424.188 243.545 423.94 243.72C424.13 243.423 424.208 243.069 424.16 242.72C424.134 242.529 424.069 242.344 423.97 242.178C423.871 242.013 423.74 241.868 423.584 241.753C423.429 241.639 423.252 241.556 423.064 241.511C422.876 241.466 422.681 241.459 422.49 241.49Z" fill="#C7C7C7"/>
<path d="M420.83 242.11C420.722 242.519 420.739 242.951 420.88 243.35C421.017 243.758 421.263 244.121 421.59 244.4C421.927 244.688 422.357 244.845 422.8 244.84C423.228 244.822 423.636 244.659 423.96 244.38C423.601 244.548 423.206 244.627 422.81 244.61C422.44 244.575 422.09 244.425 421.81 244.18C421.515 243.93 421.276 243.62 421.11 243.27C420.936 242.907 420.841 242.512 420.83 242.11Z" fill="#C7C7C7"/>
<path d="M428.65 227.86C428.946 228.323 429.376 228.686 429.883 228.899C430.39 229.112 430.95 229.166 431.488 229.054C432.027 228.941 432.518 228.668 432.897 228.269C433.276 227.871 433.525 227.367 433.611 226.823C433.697 226.28 433.615 225.724 433.377 225.228C433.139 224.732 432.756 224.321 432.278 224.048C431.801 223.775 431.251 223.654 430.703 223.701C430.155 223.748 429.635 223.96 429.21 224.31C428.667 224.708 428.304 225.304 428.199 225.97C428.094 226.635 428.256 227.314 428.65 227.86Z" fill="#DBDBDB"/>
<path d="M432.37 225.52C432.592 225.797 432.74 226.126 432.799 226.476C432.859 226.826 432.828 227.185 432.71 227.52C433.072 227.093 433.278 226.555 433.295 225.996C433.311 225.436 433.137 224.888 432.8 224.44C432.338 223.953 431.702 223.667 431.03 223.645C430.358 223.622 429.705 223.865 429.21 224.32C428.826 224.624 428.53 225.025 428.354 225.483C428.178 225.94 428.128 226.437 428.21 226.92C428.332 226.33 428.654 225.8 429.12 225.42C429.566 225.005 430.157 224.783 430.766 224.801C431.375 224.82 431.951 225.078 432.37 225.52Z" fill="#C7C7C7"/>
<path d="M427.57 226.15C427.265 226.773 427.218 227.492 427.44 228.15C427.556 228.486 427.744 228.793 427.99 229.05C428.226 229.319 428.517 229.534 428.843 229.681C429.169 229.828 429.523 229.902 429.88 229.9C430.219 229.907 430.557 229.86 430.88 229.76C431.518 229.566 432.101 229.223 432.58 228.76C432.001 229.001 431.398 229.178 430.78 229.29C430.206 229.392 429.614 229.333 429.07 229.12C428.814 228.996 428.578 228.834 428.37 228.64C428.153 228.45 427.977 228.219 427.85 227.96C427.596 227.393 427.499 226.767 427.57 226.15Z" fill="#C7C7C7"/>
<path d="M53.5452 215.346C49.6027 216.293 48.9096 217.061 48.0497 221.425C47.1938 217.061 46.5008 216.293 42.5542 215.346C46.4967 214.399 47.1898 213.631 48.0497 209.267C48.9096 213.631 49.6027 214.399 53.5452 215.346Z" fill="white"/>
<path d="M271.527 333.299C268.16 333.62 267.904 333.977 267.707 339.346C267.706 339.35 267.704 339.354 267.7 339.356C267.697 339.359 267.693 339.36 267.689 339.36C267.684 339.36 267.68 339.359 267.677 339.356C267.674 339.354 267.671 339.35 267.67 339.346C267.472 333.977 267.216 333.62 263.849 333.299C263.845 333.298 263.842 333.296 263.839 333.293C263.836 333.289 263.835 333.285 263.835 333.281C263.835 333.277 263.836 333.273 263.839 333.269C263.842 333.266 263.845 333.264 263.849 333.263C267.216 332.942 267.472 332.585 267.67 327.216C267.671 327.212 267.674 327.209 267.677 327.206C267.68 327.203 267.684 327.202 267.689 327.202C267.693 327.202 267.697 327.203 267.7 327.206C267.704 327.209 267.706 327.212 267.707 327.216C267.904 332.585 268.16 332.942 271.527 333.263C271.531 333.264 271.535 333.266 271.537 333.269C271.54 333.273 271.541 333.277 271.541 333.281C271.541 333.285 271.54 333.289 271.537 333.293C271.535 333.296 271.531 333.298 271.527 333.299Z" fill="white"/>
<path d="M464.844 234.817C461.477 235.138 461.221 235.495 461.024 240.864C461.023 240.868 461.021 240.871 461.017 240.874C461.014 240.877 461.01 240.878 461.006 240.878C461.001 240.878 460.997 240.877 460.994 240.874C460.991 240.871 460.988 240.868 460.987 240.864C460.789 235.495 460.533 235.138 457.166 234.817C457.162 234.816 457.158 234.814 457.156 234.811C457.153 234.807 457.152 234.803 457.152 234.799C457.152 234.795 457.153 234.791 457.156 234.787C457.158 234.784 457.162 234.782 457.166 234.781C460.533 234.46 460.789 234.103 460.987 228.734C460.988 228.73 460.991 228.726 460.994 228.724C460.997 228.721 461.001 228.72 461.006 228.72C461.01 228.72 461.014 228.721 461.017 228.724C461.021 228.726 461.023 228.73 461.024 228.734C461.221 234.103 461.477 234.46 464.844 234.781C464.848 234.782 464.852 234.784 464.854 234.787C464.857 234.791 464.858 234.795 464.858 234.799C464.858 234.803 464.857 234.807 464.854 234.811C464.852 234.814 464.848 234.816 464.844 234.817Z" fill="white"/>
<path d="M462.412 59.7379C459.045 60.0585 458.79 60.4156 458.592 65.7843C458.591 65.7884 458.589 65.7921 458.586 65.7947C458.582 65.7973 458.578 65.7987 458.574 65.7987C458.57 65.7987 458.566 65.7973 458.562 65.7947C458.559 65.7921 458.557 65.7884 458.556 65.7843C458.357 60.4156 458.101 60.0585 454.735 59.7379C454.731 59.7369 454.727 59.7345 454.724 59.7312C454.722 59.7279 454.72 59.7238 454.72 59.7196C454.72 59.7154 454.722 59.7113 454.724 59.708C454.727 59.7046 454.731 59.7023 454.735 59.7013C458.101 59.3807 458.357 59.0236 458.556 53.6548C458.557 53.6507 458.559 53.6471 458.562 53.6445C458.566 53.6419 458.57 53.6404 458.574 53.6404C458.578 53.6404 458.582 53.6419 458.586 53.6445C458.589 53.6471 458.591 53.6507 458.592 53.6548C458.79 59.0236 459.045 59.3807 462.412 59.7013C462.416 59.7023 462.42 59.7046 462.423 59.708C462.425 59.7113 462.427 59.7154 462.427 59.7196C462.427 59.7238 462.425 59.7279 462.423 59.7312C462.42 59.7345 462.416 59.7369 462.412 59.7379Z" fill="white"/>
<path d="M216.394 288.314C211.083 288.634 210.679 288.991 210.368 294.36C210.366 294.364 210.362 294.368 210.357 294.371C210.352 294.373 210.346 294.375 210.339 294.375C210.332 294.375 210.326 294.373 210.321 294.371C210.315 294.368 210.312 294.364 210.31 294.36C209.997 288.991 209.593 288.634 204.282 288.314C204.276 288.313 204.27 288.31 204.266 288.307C204.262 288.304 204.259 288.3 204.259 288.295C204.259 288.291 204.262 288.287 204.266 288.284C204.27 288.281 204.276 288.278 204.282 288.277C209.593 287.957 209.997 287.599 210.31 282.231C210.312 282.227 210.315 282.223 210.321 282.22C210.326 282.218 210.332 282.216 210.339 282.216C210.346 282.216 210.352 282.218 210.357 282.22C210.362 282.223 210.366 282.227 210.368 282.231C210.679 287.599 211.083 287.957 216.394 288.277C216.401 288.278 216.406 288.281 216.411 288.284C216.415 288.287 216.417 288.291 216.417 288.295C216.417 288.3 216.415 288.304 216.411 288.307C216.406 288.31 216.401 288.313 216.394 288.314Z" fill="white"/>
<path d="M12.1349 48.7954C6.82345 49.116 6.41982 49.4732 6.10845 54.8419C6.10689 54.846 6.1032 54.8496 6.09797 54.8523C6.09274 54.8549 6.08627 54.8563 6.07962 54.8563C6.07296 54.8563 6.0665 54.8549 6.06127 54.8523C6.05604 54.8496 6.05235 54.846 6.05079 54.8419C5.73777 49.4732 5.33414 49.116 0.022715 48.7954C0.0162422 48.7944 0.0104801 48.7921 0.00635999 48.7888C0.00223989 48.7855 0 48.7814 0 48.7771C0 48.7729 0.00223989 48.7688 0.00635999 48.7655C0.0104801 48.7622 0.0162422 48.7599 0.022715 48.7589C5.33414 48.4383 5.73777 48.0811 6.05079 42.7124C6.05235 42.7083 6.05604 42.7046 6.06127 42.702C6.0665 42.6994 6.07296 42.698 6.07962 42.698C6.08627 42.698 6.09274 42.6994 6.09797 42.702C6.1032 42.7046 6.10689 42.7083 6.10845 42.7124C6.41982 48.0811 6.82345 48.4383 12.1349 48.7589C12.1413 48.7599 12.1471 48.7622 12.1512 48.7655C12.1553 48.7688 12.1576 48.7729 12.1576 48.7771C12.1576 48.7814 12.1553 48.7855 12.1512 48.7888C12.1471 48.7921 12.1413 48.7944 12.1349 48.7954Z" fill="white"/>
<path d="M396.337 212.932C391.026 213.253 390.622 213.61 390.311 218.979C390.309 218.983 390.305 218.987 390.3 218.989C390.295 218.992 390.288 218.993 390.282 218.993C390.275 218.993 390.269 218.992 390.263 218.989C390.258 218.987 390.254 218.983 390.253 218.979C389.94 213.61 389.536 213.253 384.225 212.932C384.218 212.931 384.213 212.929 384.209 212.926C384.204 212.922 384.202 212.918 384.202 212.914C384.202 212.91 384.204 212.906 384.209 212.902C384.213 212.899 384.218 212.897 384.225 212.896C389.536 212.575 389.94 212.218 390.253 206.849C390.254 206.845 390.258 206.842 390.263 206.839C390.269 206.836 390.275 206.835 390.282 206.835C390.288 206.835 390.295 206.836 390.3 206.839C390.305 206.842 390.309 206.845 390.311 206.849C390.622 212.218 391.026 212.575 396.337 212.896C396.343 212.897 396.349 212.899 396.353 212.902C396.357 212.906 396.36 212.91 396.36 212.914C396.36 212.918 396.357 212.922 396.353 212.926C396.349 212.929 396.343 212.931 396.337 212.932Z" fill="white"/>
<path d="M155.603 414.76C150.291 415.08 149.888 415.438 149.576 420.806C149.575 420.81 149.571 420.814 149.566 420.817C149.561 420.819 149.554 420.821 149.547 420.821C149.541 420.821 149.534 420.819 149.529 420.817C149.524 420.814 149.52 420.81 149.519 420.806C149.206 415.438 148.802 415.08 143.49 414.76C143.484 414.759 143.478 414.757 143.474 414.753C143.47 414.75 143.468 414.746 143.468 414.742C143.468 414.737 143.47 414.733 143.474 414.73C143.478 414.727 143.484 414.724 143.49 414.723C148.802 414.403 149.206 414.046 149.519 408.677C149.52 408.673 149.524 408.669 149.529 408.667C149.534 408.664 149.541 408.662 149.547 408.662C149.554 408.662 149.561 408.664 149.566 408.667C149.571 408.669 149.575 408.673 149.576 408.677C149.888 414.046 150.291 414.403 155.603 414.723C155.609 414.724 155.615 414.727 155.619 414.73C155.623 414.733 155.625 414.737 155.625 414.742C155.625 414.746 155.623 414.75 155.619 414.753C155.615 414.757 155.609 414.759 155.603 414.76Z" fill="white"/>
<path d="M144.66 135.119C139.349 135.44 138.945 135.797 138.634 141.166C138.632 141.17 138.629 141.173 138.623 141.176C138.618 141.179 138.612 141.18 138.605 141.18C138.598 141.18 138.592 141.179 138.587 141.176C138.581 141.173 138.578 141.17 138.576 141.166C138.263 135.797 137.86 135.44 132.548 135.119C132.542 135.118 132.536 135.116 132.532 135.113C132.528 135.109 132.525 135.105 132.525 135.101C132.525 135.097 132.528 135.093 132.532 135.089C132.536 135.086 132.542 135.084 132.548 135.083C137.86 134.762 138.263 134.405 138.576 129.036C138.578 129.032 138.581 129.028 138.587 129.026C138.592 129.023 138.598 129.022 138.605 129.022C138.612 129.022 138.618 129.023 138.623 129.026C138.629 129.028 138.632 129.032 138.634 129.036C138.945 134.405 139.349 134.762 144.66 135.083C144.667 135.084 144.672 135.086 144.677 135.089C144.681 135.093 144.683 135.097 144.683 135.101C144.683 135.105 144.681 135.109 144.677 135.113C144.672 135.116 144.667 135.118 144.66 135.119Z" fill="white"/>
<path d="M506.977 152.141C501.666 152.461 501.262 152.819 500.951 158.187C500.949 158.191 500.945 158.195 500.94 158.198C500.935 158.2 500.929 158.202 500.922 158.202C500.915 158.202 500.909 158.2 500.904 158.198C500.898 158.195 500.895 158.191 500.893 158.187C500.58 152.819 500.176 152.461 494.865 152.141C494.859 152.14 494.853 152.138 494.849 152.134C494.845 152.131 494.842 152.127 494.842 152.123C494.842 152.118 494.845 152.114 494.849 152.111C494.853 152.108 494.859 152.105 494.865 152.104C500.176 151.784 500.58 151.427 500.893 146.058C500.895 146.054 500.898 146.05 500.904 146.047C500.909 146.045 500.915 146.043 500.922 146.043C500.929 146.043 500.935 146.045 500.94 146.047C500.945 146.05 500.949 146.054 500.951 146.058C501.262 151.427 501.666 151.784 506.977 152.104C506.984 152.105 506.989 152.108 506.994 152.111C506.998 152.114 507 152.118 507 152.123C507 152.127 506.998 152.131 506.994 152.134C506.989 152.138 506.984 152.14 506.977 152.141Z" fill="white"/>
<path d="M499.682 408.681C494.371 409.001 493.967 409.359 493.656 414.727C493.654 414.731 493.651 414.735 493.645 414.738C493.64 414.74 493.634 414.742 493.627 414.742C493.62 414.742 493.614 414.74 493.609 414.738C493.603 414.735 493.6 414.731 493.598 414.727C493.285 409.359 492.882 409.001 487.57 408.681C487.564 408.68 487.558 408.677 487.554 408.674C487.55 408.671 487.547 408.667 487.547 408.663C487.547 408.658 487.55 408.654 487.554 408.651C487.558 408.648 487.564 408.645 487.57 408.644C492.882 408.324 493.285 407.966 493.598 402.598C493.6 402.594 493.603 402.59 493.609 402.587C493.614 402.585 493.62 402.583 493.627 402.583C493.634 402.583 493.64 402.585 493.645 402.587C493.651 402.59 493.654 402.594 493.656 402.598C493.967 407.966 494.371 408.324 499.682 408.644C499.689 408.645 499.694 408.648 499.699 408.651C499.703 408.654 499.705 408.658 499.705 408.663C499.705 408.667 499.703 408.671 499.699 408.674C499.694 408.677 499.689 408.68 499.682 408.681Z" fill="white"/>
<path d="M158.56 11.5006C153.696 12.6683 152.841 13.6162 151.78 19C150.724 13.6162 149.869 12.6683 145 11.5006C149.864 10.3317 150.719 9.38503 151.78 4C152.841 9.38503 153.696 10.3317 158.56 11.5006Z" fill="white"/>
<path d="M262.971 441.523C256.418 441.918 255.92 442.359 255.536 448.982C255.534 448.987 255.53 448.992 255.523 448.995C255.517 448.998 255.509 449 255.501 449C255.492 449 255.484 448.998 255.478 448.995C255.471 448.992 255.467 448.987 255.465 448.982C255.079 442.359 254.581 441.918 248.028 441.523C248.02 441.521 248.013 441.518 248.008 441.514C248.003 441.51 248 441.505 248 441.5C248 441.495 248.003 441.49 248.008 441.486C248.013 441.482 248.02 441.479 248.028 441.477C254.581 441.082 255.079 440.641 255.465 434.018C255.467 434.013 255.471 434.008 255.478 434.005C255.484 434.002 255.492 434 255.501 434C255.509 434 255.517 434.002 255.523 434.005C255.53 434.008 255.534 434.013 255.536 434.018C255.92 440.641 256.418 441.082 262.971 441.477C262.979 441.479 262.986 441.482 262.991 441.486C262.996 441.49 262.999 441.495 262.999 441.5C262.999 441.505 262.996 441.51 262.991 441.514C262.986 441.518 262.979 441.521 262.971 441.523Z" fill="white"/>
<path d="M433.971 111.523C427.418 111.918 426.92 112.359 426.536 118.982C426.534 118.987 426.53 118.992 426.523 118.995C426.517 118.998 426.509 119 426.501 119C426.492 119 426.484 118.998 426.478 118.995C426.471 118.992 426.467 118.987 426.465 118.982C426.079 112.359 425.581 111.918 419.028 111.523C419.02 111.521 419.013 111.518 419.008 111.514C419.003 111.51 419 111.505 419 111.5C419 111.495 419.003 111.49 419.008 111.486C419.013 111.482 419.02 111.479 419.028 111.477C425.581 111.082 426.079 110.641 426.465 104.018C426.467 104.013 426.471 104.008 426.478 104.005C426.484 104.002 426.492 104 426.501 104C426.509 104 426.517 104.002 426.523 104.005C426.53 104.008 426.534 104.013 426.536 104.018C426.92 110.641 427.418 111.082 433.971 111.477C433.979 111.479 433.986 111.482 433.991 111.486C433.996 111.49 433.999 111.495 433.999 111.5C433.999 111.505 433.996 111.51 433.991 111.514C433.986 111.518 433.979 111.521 433.971 111.523Z" fill="white"/>
<path d="M86.1302 360.67L93.8302 352.97C94.3575 352.446 94.7759 351.823 95.0615 351.136C95.347 350.45 95.4941 349.713 95.4941 348.97C95.4941 348.227 95.347 347.49 95.0615 346.804C94.7759 346.117 94.3575 345.494 93.8302 344.97C93.3054 344.444 92.6819 344.026 91.9955 343.742C91.3091 343.457 90.5733 343.31 89.8302 343.31C89.0871 343.31 88.3512 343.457 87.6649 343.742C86.9785 344.026 86.355 344.444 85.8302 344.97L78.1302 352.67C77.6029 353.194 77.1844 353.817 76.8989 354.504C76.6133 355.19 76.4663 355.927 76.4663 356.67C76.4663 357.414 76.6133 358.15 76.8989 358.836C77.1844 359.523 77.6029 360.146 78.1302 360.67C78.655 361.196 79.2785 361.614 79.9649 361.898C80.6512 362.183 81.3871 362.33 82.1302 362.33C82.8733 362.33 83.6091 362.183 84.2955 361.898C84.9819 361.614 85.6053 361.196 86.1302 360.67Z" fill="#EBEBEB" fill-opacity="0.14"/>
<path d="M191.31 437L196.2 427.27C196.871 425.932 196.984 424.382 196.513 422.961C196.043 421.539 195.027 420.363 193.69 419.69C193.028 419.356 192.306 419.156 191.566 419.102C190.826 419.048 190.083 419.14 189.379 419.373C188.675 419.606 188.024 419.976 187.463 420.461C186.902 420.946 186.442 421.537 186.11 422.2L181.22 431.93C180.886 432.592 180.686 433.314 180.632 434.054C180.577 434.793 180.669 435.537 180.903 436.241C181.136 436.945 181.505 437.596 181.991 438.157C182.476 438.718 183.067 439.178 183.73 439.51C184.392 439.844 185.114 440.043 185.854 440.098C186.593 440.152 187.336 440.06 188.04 439.827C188.745 439.594 189.396 439.224 189.957 438.739C190.518 438.254 190.978 437.663 191.31 437Z" fill="#EBEBEB" fill-opacity="0.14"/>
<path d="M123.89 338.93L129.68 338.1C131.162 337.887 132.5 337.094 133.398 335.896C134.296 334.698 134.682 333.192 134.47 331.71C134.366 330.976 134.118 330.269 133.74 329.63C133.363 328.992 132.863 328.434 132.269 327.989C131.675 327.544 131 327.221 130.281 327.037C129.562 326.854 128.814 326.814 128.08 326.92L122.29 327.75C121.556 327.854 120.849 328.102 120.211 328.48C119.572 328.858 119.014 329.358 118.57 329.951C118.125 330.545 117.801 331.22 117.618 331.939C117.434 332.658 117.394 333.406 117.5 334.14C117.713 335.622 118.506 336.959 119.704 337.857C120.902 338.756 122.408 339.141 123.89 338.93Z" fill="#EBEBEB" fill-opacity="0.14"/>
<path d="M77.9301 415.34L77.1001 409.55C76.9959 408.816 76.7478 408.109 76.3701 407.47C75.9924 406.832 75.4924 406.274 74.8988 405.829C74.3053 405.384 73.6297 405.061 72.911 404.877C72.1922 404.694 71.4443 404.654 70.7101 404.76C69.9769 404.864 69.2715 405.112 68.6342 405.489C67.997 405.866 67.4404 406.366 66.9964 406.958C66.5524 407.551 66.2296 408.225 66.0466 408.943C65.8637 409.66 65.824 410.407 65.9301 411.14L66.7501 416.94C66.9655 418.421 67.7587 419.756 68.9562 420.654C70.1538 421.552 71.6581 421.939 73.1401 421.73C74.6223 421.517 75.9593 420.724 76.8575 419.526C77.7556 418.328 78.1414 416.822 77.9301 415.34Z" fill="#EBEBEB" fill-opacity="0.14"/>
<path d="M202.11 406.62V393.8C202.11 392.607 201.143 391.64 199.95 391.64H192.98C191.787 391.64 190.82 392.607 190.82 393.8V406.62C190.82 407.813 191.787 408.78 192.98 408.78H199.95C201.143 408.78 202.11 407.813 202.11 406.62Z" fill="#EBEBEB" fill-opacity="0.14"/>
<path d="M113.41 464.42L119.06 465.93C119.776 466.122 120.524 466.171 121.259 466.073C121.994 465.976 122.703 465.735 123.345 465.363C123.986 464.992 124.549 464.497 124.999 463.908C125.45 463.319 125.78 462.647 125.97 461.93C126.162 461.213 126.211 460.465 126.114 459.729C126.017 458.993 125.775 458.284 125.404 457.641C125.032 456.999 124.538 456.435 123.949 455.984C123.36 455.532 122.687 455.202 121.97 455.01L116.32 453.5C115.603 453.308 114.855 453.259 114.119 453.356C113.383 453.453 112.674 453.695 112.031 454.066C111.389 454.438 110.825 454.932 110.374 455.521C109.922 456.11 109.592 456.783 109.4 457.5C109.018 458.949 109.226 460.491 109.977 461.787C110.729 463.084 111.963 464.031 113.41 464.42Z" fill="#EBEBEB" fill-opacity="0.14"/>
<path d="M132.97 462.9C168.946 462.9 198.11 433.736 198.11 397.76C198.11 361.784 168.946 332.62 132.97 332.62C96.9942 332.62 67.8301 361.784 67.8301 397.76C67.8301 433.736 96.9942 462.9 132.97 462.9Z" fill="#EBEBEB" fill-opacity="0.14"/>
<path d="M156.67 359.12C156.834 362.249 155.989 365.347 154.26 367.96C152.514 370.652 150.066 372.817 147.18 374.22C144.213 375.71 140.786 376 137.61 375.03C134.601 374.076 132.024 372.094 130.33 369.43C132.646 371.144 135.313 372.323 138.14 372.88C139.463 373.115 140.817 373.115 142.14 372.88C143.46 372.676 144.739 372.264 145.93 371.66C146.54 371.36 147.16 371.03 147.76 370.66C148.36 370.29 148.92 369.91 149.45 369.47C150.551 368.636 151.557 367.683 152.45 366.63C154.331 364.425 155.765 361.874 156.67 359.12Z" fill="#C7C7C7"/>
<path d="M133.25 362.87C132.961 360.698 133.442 358.494 134.61 356.64C135.781 354.713 137.482 353.165 139.51 352.18C140.555 351.654 141.694 351.34 142.861 351.256C144.028 351.172 145.2 351.32 146.31 351.69C148.406 352.402 150.149 353.891 151.18 355.85C149.531 354.831 147.695 354.151 145.78 353.85C144.062 353.647 142.322 353.957 140.78 354.74C137.351 356.426 134.668 359.322 133.25 362.87Z" fill="#C7C7C7"/>
<path d="M111.19 407.61C111.993 409.592 112.05 411.799 111.35 413.82C110.665 415.92 109.352 417.759 107.59 419.09C106.691 419.792 105.661 420.306 104.56 420.603C103.459 420.901 102.31 420.974 101.18 420.82C99.0529 420.526 97.1087 419.458 95.7202 417.82C97.5117 418.412 99.3951 418.676 101.28 418.6C102.949 418.479 104.544 417.863 105.86 416.83C107.258 415.774 108.434 414.452 109.32 412.94C110.251 411.287 110.884 409.483 111.19 407.61Z" fill="#C7C7C7"/>
<path d="M97.6999 415C97.3404 414.339 97.1164 413.613 97.0408 412.864C96.9653 412.116 97.0397 411.36 97.2599 410.64C97.694 409.118 98.6141 407.78 99.8799 406.83C100.528 406.318 101.278 405.948 102.079 405.744C102.88 405.541 103.715 405.509 104.53 405.65C105.277 405.779 105.99 406.058 106.626 406.47C107.262 406.883 107.808 407.42 108.23 408.05C106.979 407.805 105.698 407.748 104.43 407.88C103.397 408.03 102.422 408.448 101.6 409.09C99.6874 410.579 98.3171 412.656 97.6999 415Z" fill="#C7C7C7"/>
<path d="M87.83 393.11C88.4052 393.648 88.8664 394.296 89.1859 395.016C89.5055 395.736 89.6769 396.513 89.69 397.3C89.7048 398.151 89.5487 398.997 89.2309 399.787C88.9131 400.577 88.4402 401.296 87.84 401.9C87.2235 402.52 86.4726 402.989 85.6453 403.272C84.8181 403.555 83.9368 403.643 83.07 403.53C81.5164 403.356 80.0711 402.65 78.98 401.53C80.3242 401.581 81.6703 401.504 83 401.3C84.0556 401.143 85.0332 400.652 85.79 399.9C86.5687 399.11 87.1362 398.137 87.44 397.07C87.7895 395.781 87.9213 394.442 87.83 393.11Z" fill="#C7C7C7"/>
<path d="M79.7601 399.44C79.2864 399.117 78.8938 398.689 78.6128 398.19C78.3318 397.69 78.17 397.132 78.1401 396.56C78.0994 395.931 78.1935 395.301 78.4159 394.711C78.6384 394.121 78.9841 393.585 79.4301 393.14C79.8898 392.677 80.4543 392.332 81.0757 392.133C81.6971 391.935 82.3572 391.889 83.0001 392C83.5538 392.083 84.0856 392.275 84.5645 392.565C85.0435 392.855 85.46 393.238 85.7901 393.69C84.866 393.815 83.9508 393.999 83.0501 394.24C82.4466 394.392 81.8965 394.706 81.4601 395.15C80.9926 395.624 80.6223 396.184 80.3701 396.8C80.0423 397.647 79.8369 398.535 79.7601 399.44Z" fill="#C7C7C7"/>
<path d="M177.09 373.82C177.165 374.604 177.08 375.395 176.839 376.144C176.599 376.894 176.208 377.587 175.69 378.18C175.137 378.826 174.46 379.356 173.699 379.737C172.938 380.118 172.109 380.344 171.26 380.4C170.387 380.453 169.514 380.305 168.708 379.967C167.901 379.629 167.184 379.11 166.61 378.45C165.56 377.297 164.939 375.817 164.85 374.26C165.839 375.19 166.913 376.024 168.06 376.75C168.952 377.325 170 377.608 171.06 377.56C172.164 377.49 173.233 377.146 174.17 376.56C175.286 375.812 176.272 374.886 177.09 373.82Z" fill="#C7C7C7"/>
<path d="M166.85 373.19C166.711 372.633 166.703 372.052 166.826 371.492C166.95 370.931 167.201 370.407 167.56 369.96C167.948 369.464 168.436 369.057 168.993 368.764C169.55 368.471 170.162 368.299 170.79 368.26C171.44 368.214 172.091 368.328 172.687 368.591C173.283 368.854 173.806 369.259 174.21 369.77C174.577 370.197 174.854 370.693 175.026 371.229C175.198 371.765 175.26 372.33 175.21 372.89C174.438 372.361 173.629 371.886 172.79 371.47C172.24 371.182 171.62 371.054 171 371.1C170.337 371.14 169.688 371.31 169.09 371.6C168.272 372.021 167.518 372.556 166.85 373.19Z" fill="#C7C7C7"/>
<path d="M140.57 418.08C143.174 419.259 146.07 419.637 148.889 419.168C151.709 418.698 154.326 417.402 156.408 415.443C158.489 413.484 159.943 410.951 160.583 408.166C161.223 405.38 161.021 402.466 160.004 399.795C158.986 397.124 157.198 394.816 154.866 393.162C152.534 391.509 149.764 390.585 146.906 390.509C144.049 390.432 141.233 391.206 138.816 392.732C136.399 394.258 134.49 396.467 133.33 399.08C131.774 402.56 131.662 406.515 133.02 410.078C134.377 413.64 137.093 416.518 140.57 418.08Z" fill="#DBDBDB"/>
<path d="M153.19 398.11C155.065 398.947 156.714 400.216 158.004 401.814C159.294 403.411 160.187 405.291 160.61 407.3C161.001 404.918 160.786 402.475 159.984 400.198C159.182 397.921 157.82 395.883 156.022 394.271C154.225 392.66 152.05 391.527 149.699 390.978C147.348 390.428 144.897 390.48 142.571 391.129C140.246 391.777 138.121 393.001 136.393 394.687C134.666 396.373 133.39 398.467 132.686 400.777C131.981 403.086 131.87 405.535 132.361 407.899C132.853 410.262 133.933 412.464 135.5 414.3C134.688 411.894 134.594 409.303 135.228 406.844C135.863 404.385 137.199 402.163 139.074 400.45C140.949 398.737 143.282 397.607 145.789 397.197C148.295 396.786 150.867 397.114 153.19 398.14V398.11Z" fill="#C7C7C7"/>
<path d="M166.35 407.32C166.424 411.149 165.314 414.907 163.17 418.08C161 421.329 158.004 423.942 154.49 425.65C150.898 427.464 146.751 427.843 142.89 426.71C139.204 425.578 136.01 423.231 133.83 420.05C136.631 422.278 139.916 423.819 143.42 424.55C144.257 424.689 145.102 424.78 145.95 424.82C146.788 424.829 147.624 424.762 148.45 424.62C150.117 424.369 151.733 423.856 153.24 423.1C154.01 422.71 154.78 422.3 155.52 421.86C156.26 421.42 156.98 420.93 157.64 420.37C159.02 419.317 160.275 418.109 161.38 416.77C163.667 413.994 165.358 410.777 166.35 407.32Z" fill="#C7C7C7"/>
<path d="M182.12 412.8C183.159 413.048 184.247 412.981 185.248 412.61C186.249 412.238 187.116 411.578 187.741 410.712C188.366 409.847 188.72 408.815 188.758 407.748C188.795 406.681 188.516 405.627 187.954 404.72C187.392 403.812 186.573 403.092 185.601 402.65C184.629 402.208 183.548 402.065 182.495 402.239C181.441 402.412 180.463 402.895 179.685 403.625C178.906 404.355 178.361 405.3 178.12 406.34C177.796 407.727 178.035 409.186 178.785 410.397C179.535 411.608 180.734 412.472 182.12 412.8Z" fill="#DBDBDB"/>
<path d="M185.32 404.58C186.066 404.755 186.759 405.104 187.345 405.597C187.93 406.09 188.391 406.715 188.69 407.42C188.665 406.52 188.413 405.64 187.959 404.863C187.504 404.086 186.861 403.436 186.088 402.972C185.316 402.509 184.439 402.248 183.539 402.214C182.64 402.179 181.745 402.371 180.94 402.773C180.134 403.175 179.442 403.774 178.929 404.514C178.415 405.254 178.096 406.111 178.002 407.006C177.907 407.902 178.04 408.807 178.387 409.638C178.735 410.469 179.286 411.198 179.99 411.76C179.379 410.698 179.197 409.442 179.48 408.25C179.769 406.989 180.546 405.895 181.641 405.206C182.736 404.518 184.059 404.293 185.32 404.58Z" fill="#C7C7C7"/>
<path d="M190.79 407C191.165 408.402 191.07 409.888 190.52 411.23C189.973 412.611 189.052 413.813 187.86 414.7C186.641 415.637 185.109 416.07 183.58 415.91C182.126 415.742 180.781 415.057 179.79 413.98C180.995 414.53 182.306 414.809 183.63 414.8C184.858 414.757 186.042 414.327 187.01 413.57C188.046 412.782 188.914 411.795 189.563 410.667C190.212 409.538 190.629 408.292 190.79 407Z" fill="#C7C7C7"/>
<path d="M145.17 447.66C146.682 447.749 148.186 447.387 149.492 446.62C150.798 445.853 151.847 444.716 152.506 443.352C153.166 441.989 153.405 440.46 153.195 438.96C152.984 437.46 152.333 436.057 151.324 434.927C150.315 433.798 148.994 432.993 147.527 432.615C146.061 432.237 144.515 432.303 143.086 432.805C141.657 433.306 140.409 434.221 139.5 435.432C138.591 436.644 138.062 438.098 137.98 439.61C137.923 440.611 138.064 441.613 138.395 442.559C138.726 443.505 139.239 444.377 139.907 445.125C140.575 445.872 141.383 446.481 142.286 446.916C143.189 447.351 144.169 447.604 145.17 447.66Z" fill="#DBDBDB"/>
<path d="M147.63 435.38C148.717 435.437 149.776 435.752 150.718 436.297C151.66 436.843 152.459 437.605 153.05 438.52C152.795 437.265 152.227 436.094 151.4 435.116C150.573 434.138 149.512 433.384 148.316 432.924C147.121 432.465 145.828 432.314 144.559 432.486C143.29 432.658 142.084 433.147 141.054 433.909C140.024 434.67 139.202 435.679 138.665 436.842C138.128 438.005 137.892 439.284 137.981 440.562C138.069 441.84 138.478 443.075 139.17 444.153C139.862 445.231 140.815 446.118 141.94 446.73C140.821 445.393 140.256 443.68 140.36 441.94C140.406 441.032 140.631 440.141 141.021 439.32C141.411 438.499 141.96 437.762 142.635 437.153C143.31 436.544 144.099 436.074 144.956 435.769C145.813 435.465 146.722 435.333 147.63 435.38Z" fill="#C7C7C7"/>
<path d="M155.89 437.44C156.629 439.324 156.779 441.389 156.32 443.36C155.863 445.374 154.879 447.23 153.47 448.74C152.036 450.307 150.066 451.277 147.95 451.46C145.917 451.597 143.897 451.051 142.21 449.91C144.015 450.501 145.934 450.655 147.81 450.36C149.59 450.022 151.212 449.112 152.43 447.77C153.697 446.422 154.662 444.82 155.26 443.07C155.858 441.257 156.073 439.34 155.89 437.44Z" fill="#C7C7C7"/>
<path d="M111.09 373.87C107.64 379.14 100.02 380.26 94.0899 376.37C88.1599 372.48 86.0899 365.05 89.5499 359.78C93.0099 354.51 100.61 353.39 106.55 357.28C112.49 361.17 114.53 368.6 111.09 373.87Z" fill="#DBDBDB"/>
<path d="M92.1503 364.72C91.2559 366.145 90.7357 367.773 90.6378 369.453C90.54 371.133 90.8675 372.81 91.5903 374.33C87.5903 370.23 86.5903 364.24 89.5303 359.77C92.9703 354.51 100.59 353.39 106.53 357.28C108.524 358.51 110.149 360.253 111.237 362.328C112.324 364.402 112.833 366.731 112.71 369.07C111.82 366.333 110.006 363.989 107.58 362.44C102.2 358.92 95.2803 359.93 92.1503 364.72Z" fill="#C7C7C7"/>
<path d="M115.29 365.17C116.176 366.528 116.784 368.049 117.077 369.643C117.371 371.238 117.345 372.875 117 374.46C116.623 376.112 115.889 377.662 114.85 379C113.819 380.355 112.556 381.516 111.12 382.43C109.631 383.265 108 383.818 106.31 384.06C104.676 384.265 103.02 384.217 101.4 383.92C98.2684 383.372 95.311 382.091 92.77 380.18C95.66 381.021 98.6354 381.534 101.64 381.71C104.416 381.913 107.193 381.316 109.64 379.99C110.807 379.28 111.848 378.381 112.72 377.33C113.633 376.3 114.349 375.11 114.83 373.82C115.771 371.033 115.93 368.041 115.29 365.17Z" fill="#C7C7C7"/>
<path d="M413.317 434.469C426.407 422.116 427.005 401.49 414.652 388.399C402.299 375.308 381.672 374.711 368.582 387.064C355.491 399.417 354.894 420.043 367.247 433.134C379.6 446.224 400.226 446.822 413.317 434.469Z" fill="#455A64"/>
<path d="M360.62 422.75C363.436 419.88 366.685 417.47 370.25 415.61C376.46 412.25 393.72 407.74 401.5 402.99C412.44 396.32 413.36 389.99 413.04 386.81C409.95 383.977 406.345 381.764 402.42 380.29C401.87 383.64 399.64 394.13 381.25 402.29C371.75 406.52 362.25 404.97 358.97 404.45C357.747 410.582 358.32 416.936 360.62 422.75Z" fill="#37474F"/>
<path d="M375.31 439.39C381.872 442.966 389.461 444.184 396.812 442.839C404.163 441.494 410.83 437.668 415.7 432C413.782 431.143 411.767 430.522 409.7 430.15C400.79 428.73 391.51 433.69 388.16 435.94C384.427 438.59 379.868 439.814 375.31 439.39Z" fill="#37474F"/>
<path d="M362.94 427.47L363.41 428.23L363.85 428.9C364.19 429.41 364.53 429.9 364.85 430.39C365.17 430.88 365.52 431.25 365.85 431.66L366.24 432.12L366.69 432.63C366.84 432.8 366.99 432.97 367.15 433.13L367.71 433.71L368.27 434.27L368.77 434.74C369.14 435.08 369.52 435.41 369.9 435.74C371.97 436.19 374.66 435.74 378.49 433.82C384.21 431.03 390.12 424.95 401.19 419.93C408.032 416.893 415.578 415.799 423 416.77C424.24 410.153 423.394 403.315 420.58 397.2C418.5 397.29 411.89 398.78 398.58 411.68C394.453 415.802 389.913 419.488 385.03 422.68C373.38 430.03 366.19 428.68 363.14 427.47H362.94Z" fill="#37474F"/>
<path d="M392.49 392C393.19 393.27 395.25 393.48 397.1 392.47C398.95 391.46 399.87 389.6 399.18 388.33C398.49 387.06 396.42 386.86 394.57 387.87C392.72 388.88 391.8 390.68 392.49 392Z" fill="#263238"/>
<path d="M401.89 393.43C402.28 394.14 403.5 394.23 404.61 393.62C405.72 393.01 406.29 391.94 405.9 391.23C405.51 390.52 404.29 390.42 403.18 391.03C402.07 391.64 401.5 392.71 401.89 393.43Z" fill="#263238"/>
<path d="M380.35 435.58C380.95 436.67 382.74 436.83 384.35 435.94C385.96 435.05 386.79 433.46 386.2 432.37C385.61 431.28 383.81 431.13 382.2 432.01C380.59 432.89 379.76 434.5 380.35 435.58Z" fill="#263238"/>
<path d="M386.43 436.16C386.507 436.492 386.687 436.792 386.943 437.017C387.199 437.242 387.52 437.381 387.859 437.415C388.199 437.448 388.54 437.374 388.836 437.203C389.131 437.032 389.365 436.772 389.505 436.461C389.645 436.15 389.684 435.803 389.616 435.469C389.548 435.134 389.377 434.83 389.127 434.598C388.877 434.365 388.561 434.218 388.222 434.175C387.884 434.133 387.54 434.197 387.24 434.36C386.9 434.498 386.626 434.763 386.475 435.098C386.324 435.433 386.308 435.813 386.43 436.16Z" fill="#263238"/>
<path d="M387.12 433.06C387.267 433.235 387.474 433.348 387.701 433.376C387.927 433.404 388.156 433.344 388.34 433.21C388.83 432.94 389.07 432.44 388.88 432.1C388.732 431.924 388.523 431.811 388.295 431.783C388.067 431.755 387.836 431.815 387.65 431.95C387.17 432.22 386.93 432.72 387.12 433.06Z" fill="#263238"/>
<path d="M407.37 431.13C407.9 432.13 409.37 432.31 410.67 431.6C411.97 430.89 412.58 429.53 412.05 428.6C411.52 427.67 410.05 427.42 408.75 428.13C407.45 428.84 406.84 430.16 407.37 431.13Z" fill="#263238"/>
<path d="M406.18 426.78C406.278 427.022 406.448 427.228 406.666 427.372C406.885 427.515 407.141 427.589 407.402 427.584C407.664 427.578 407.917 427.493 408.129 427.341C408.341 427.188 408.501 426.975 408.59 426.729C408.678 426.483 408.689 426.216 408.622 425.964C408.555 425.711 408.413 425.485 408.215 425.315C408.016 425.145 407.771 425.039 407.511 425.011C407.252 424.984 406.99 425.036 406.76 425.16C406.469 425.299 406.245 425.547 406.136 425.85C406.027 426.154 406.043 426.488 406.18 426.78Z" fill="#263238"/>
<path d="M364.89 430.39C385.09 426.113 404.759 419.627 423.54 411.05C438.14 404.19 447.15 397.62 445.93 393.91C444.71 390.2 433.76 390.15 418.33 393.12C418.75 393.77 419.14 394.43 419.52 395.12C419.66 395.38 419.79 395.64 419.93 395.89C428.14 394.84 433.58 395.32 434.32 397.58C435.06 399.84 430.84 403.58 423.39 407.66C413.974 412.605 404.139 416.707 394 419.92C383.91 423.345 373.536 425.872 363 427.47C354.61 428.58 349 428.11 348.28 425.82C347.56 423.53 351.63 419.97 358.82 415.96C358.641 414.867 358.52 413.766 358.46 412.66C343.88 419.5 334.74 426.3 336 430C337.26 433.7 348.67 433.66 364.89 430.39Z" fill="#263238"/>
<path d="M366.73 432.62C376.468 430.533 386.091 427.943 395.56 424.86C404.994 421.841 414.266 418.34 423.34 414.37C443.62 405.37 456.57 396.2 454.88 390.94C453.19 385.68 437.6 385.79 416.24 390.24C416.55 390.63 416.86 391.03 417.16 391.44C435.1 388 447.96 388.19 449.41 392.7C450.86 397.21 440.34 405.04 423.47 412.82C414.259 416.998 404.813 420.637 395.18 423.72C385.516 426.867 375.676 429.445 365.71 431.44C347.56 434.96 334.52 434.79 333.06 430.24C331.6 425.69 341.86 418.11 358.34 410.44C358.34 409.93 358.34 409.44 358.4 408.91C338.54 417.76 325.92 426.81 327.59 432.01C329.26 437.21 345.12 437.16 366.73 432.62Z" fill="#37474F"/>
<path d="M255.958 257.555C266.009 254.123 271.375 243.194 267.944 233.143C264.512 223.092 253.583 217.726 243.532 221.157C233.481 224.589 228.115 235.518 231.547 245.569C234.978 255.62 245.907 260.986 255.958 257.555Z" fill="#EBEBEB" fill-opacity="0.14"/>
<path d="M268.16 244.93C266.369 243.377 264.344 242.114 262.16 241.19C258.35 239.51 247.98 237.67 243.16 235.24C236.41 231.84 235.57 228.17 235.61 226.24C237.289 224.425 239.302 222.951 241.54 221.9C242.02 223.84 243.83 229.9 255.04 233.9C260.83 235.9 266.37 234.58 268.25 234.12C269.26 237.657 269.229 241.41 268.16 244.93Z" fill="#DBDBDB"/>
<path d="M260.31 255.42C256.623 257.842 252.216 258.923 247.826 258.482C243.437 258.042 239.333 256.106 236.2 253C237.29 252.403 238.448 251.943 239.65 251.63C244.82 250.37 250.51 252.84 252.59 254.01C254.912 255.387 257.651 255.887 260.31 255.42Z" fill="#DBDBDB"/>
<path d="M267 247.82L266.76 248.28C266.69 248.43 266.61 248.56 266.53 248.7C266.357 249.02 266.177 249.33 265.99 249.63C265.82 249.9 265.64 250.16 265.46 250.42L265.25 250.71L265 251L264.75 251.32C264.657 251.44 264.557 251.56 264.45 251.68C264.343 251.8 264.243 251.92 264.15 252.04L263.87 252.34C263.67 252.56 263.47 252.77 263.26 252.98C262.07 253.35 260.46 253.19 258.12 252.26C254.62 250.89 250.86 247.59 244.12 245.17C239.964 243.714 235.488 243.427 231.18 244.34C230.137 240.509 230.312 236.448 231.68 232.72C232.9 232.67 236.86 233.23 245.28 240.19C247.906 242.41 250.75 244.356 253.77 246C260.98 249.77 265.14 248.65 266.88 247.78H267V247.82Z" fill="#DBDBDB"/>
<path d="M248.74 255.05C249.08 254.27 250.28 254.05 251.42 254.54C252.56 255.03 253.2 256.07 252.86 256.85C252.52 257.63 251.32 257.85 250.18 257.37C249.04 256.89 248.4 255.84 248.74 255.05Z" fill="#C7C7C7"/>
<path d="M254.18 253.68C254.37 253.24 255.08 253.13 255.77 253.43C256.46 253.73 256.85 254.32 256.66 254.76C256.47 255.2 255.75 255.32 255.07 255.02C254.39 254.72 254 254.13 254.18 253.68Z" fill="#C7C7C7"/>
<path d="M239.27 230.06C239.56 229.4 240.6 229.2 241.6 229.64C242.6 230.08 243.17 230.97 242.87 231.64C242.57 232.31 241.54 232.5 240.54 232.06C239.54 231.62 239 230.73 239.27 230.06Z" fill="#C7C7C7"/>
<path d="M242.81 229.4C242.926 229.216 243.109 229.085 243.32 229.034C243.532 228.984 243.754 229.018 243.94 229.13C244.145 229.193 244.318 229.331 244.424 229.517C244.53 229.703 244.561 229.922 244.51 230.13C244.368 230.27 244.188 230.363 243.992 230.4C243.796 230.436 243.594 230.413 243.411 230.333C243.228 230.254 243.074 230.121 242.967 229.953C242.86 229.785 242.805 229.589 242.81 229.39V229.4Z" fill="#C7C7C7"/>
<path d="M243.38 231.18C243.457 231.069 243.573 230.992 243.705 230.964C243.837 230.937 243.975 230.96 244.09 231.03C244.39 231.16 244.55 231.44 244.46 231.65C244.386 231.764 244.27 231.845 244.138 231.875C244.005 231.905 243.866 231.882 243.75 231.81C243.619 231.773 243.508 231.686 243.439 231.569C243.37 231.452 243.349 231.312 243.38 231.18Z" fill="#C7C7C7"/>
<path d="M255.38 231.23C255.421 230.889 255.568 230.569 255.8 230.316C256.032 230.063 256.338 229.889 256.675 229.819C257.011 229.75 257.361 229.787 257.675 229.927C257.988 230.066 258.251 230.301 258.424 230.597C258.597 230.894 258.673 231.237 258.641 231.579C258.609 231.921 258.47 232.245 258.244 232.503C258.018 232.762 257.717 232.944 257.382 233.022C257.048 233.1 256.697 233.072 256.38 232.94C256.023 232.841 255.719 232.608 255.533 232.288C255.346 231.969 255.291 231.589 255.38 231.23Z" fill="#C7C7C7"/>
<path d="M254.92 233.85C255.008 233.676 255.159 233.542 255.342 233.476C255.525 233.41 255.727 233.417 255.905 233.495C256.083 233.573 256.225 233.717 256.3 233.897C256.376 234.076 256.379 234.278 256.31 234.46C256.223 234.634 256.072 234.768 255.889 234.834C255.706 234.9 255.504 234.893 255.326 234.815C255.147 234.737 255.006 234.593 254.93 234.413C254.855 234.234 254.851 234.032 254.92 233.85Z" fill="#C7C7C7"/>
<path d="M121.898 123.48C131.757 119.532 136.55 108.339 132.602 98.4797C128.655 88.6202 117.462 83.8275 107.602 87.7751C97.7427 91.7226 92.9501 102.915 96.8976 112.775C100.845 122.635 112.038 127.427 121.898 123.48Z" fill="#2C92F8"/>
<path opacity="0.1" d="M121.898 123.48C131.757 119.532 136.55 108.339 132.602 98.4797C128.655 88.6202 117.462 83.8275 107.602 87.7751C97.7427 91.7226 92.9501 102.915 96.8976 112.775C100.845 122.635 112.038 127.427 121.898 123.48Z" fill="black"/>
<g opacity="0.1">
<path d="M133.16 111.22C131.368 109.668 129.343 108.406 127.16 107.48C123.34 105.8 113 104 108.17 101.54C101.42 98.13 100.58 94.46 100.62 92.54C102.301 90.7223 104.318 89.2483 106.56 88.2C107.04 90.14 108.84 96.2 120.05 100.2C125.84 102.2 131.38 100.87 133.26 100.41C134.267 103.948 134.232 107.701 133.16 111.22Z" fill="black"/>
<path d="M125.3 121.71C121.611 124.127 117.204 125.204 112.815 124.762C108.427 124.319 104.323 122.384 101.19 119.28C102.281 118.685 103.439 118.225 104.64 117.91C109.81 116.65 115.51 119.13 117.64 120.29C119.944 121.659 122.659 122.162 125.3 121.71Z" fill="black"/>
<path d="M132 114.11C131.928 114.271 131.848 114.428 131.76 114.58C131.69 114.72 131.62 114.86 131.54 115C131.36 115.31 131.18 115.62 130.99 115.92C130.8 116.22 130.65 116.46 130.46 116.72L130.25 117C130.176 117.111 130.096 117.218 130.01 117.32L129.77 117.64L129.47 118.01L129.16 118.36L128.89 118.67C128.69 118.89 128.48 119.1 128.27 119.3C127.07 119.66 125.47 119.5 123.12 118.58C119.63 117.21 115.86 113.91 109.12 111.48C104.967 110.029 100.495 109.742 96.1904 110.65C95.1381 106.81 95.3094 102.738 96.6804 99C97.9104 98.95 101.86 99.51 110.29 106.47C112.91 108.697 115.756 110.645 118.78 112.28C126 116.1 130.15 115 131.89 114.1H132V114.11Z" fill="black"/>
</g>
<g opacity="0.1">
<path d="M113.73 121.35C114.07 120.56 115.27 120.35 116.41 120.83C117.55 121.31 118.2 122.36 117.86 123.14C117.52 123.92 116.31 124.14 115.18 123.66C114.05 123.18 113.39 122.13 113.73 121.35Z" fill="black"/>
<path d="M119.18 120C119.37 119.56 120.08 119.44 120.76 119.74C121.44 120.04 121.84 120.64 121.65 121.08C121.46 121.52 120.75 121.63 120.06 121.34C119.37 121.05 119 120.42 119.18 120Z" fill="black"/>
<path d="M104.26 96.36C104.55 95.69 105.59 95.5 106.59 95.93C107.59 96.36 108.16 97.26 107.87 97.93C107.58 98.6 106.53 98.79 105.53 98.35C104.53 97.91 104 97 104.26 96.36Z" fill="black"/>
<path d="M107.8 95.69C107.917 95.5081 108.1 95.3784 108.311 95.3281C108.521 95.2778 108.743 95.3107 108.93 95.42C109.042 95.4354 109.148 95.4765 109.241 95.5399C109.334 95.6033 109.411 95.6874 109.466 95.7856C109.521 95.8837 109.553 95.9933 109.559 96.1058C109.565 96.2183 109.544 96.3305 109.5 96.4338C109.455 96.5371 109.387 96.6286 109.3 96.7012C109.214 96.7738 109.113 96.8255 109.003 96.8522C108.894 96.879 108.78 96.88 108.67 96.8554C108.56 96.8307 108.457 96.781 108.37 96.71C108.163 96.6451 107.988 96.5032 107.882 96.3135C107.776 96.1238 107.747 95.9007 107.8 95.69Z" fill="black"/>
<path d="M108.37 97.48C108.445 97.3677 108.561 97.2886 108.693 97.2589C108.825 97.2291 108.963 97.251 109.08 97.32C109.38 97.46 109.55 97.73 109.46 97.95C109.381 98.0587 109.265 98.1343 109.134 98.1621C109.002 98.1898 108.866 98.1677 108.75 98.1C108.45 98 108.28 97.69 108.37 97.48Z" fill="black"/>
<path d="M120.38 97.52C120.424 97.1826 120.573 96.8674 120.805 96.6186C121.037 96.3699 121.341 96.2001 121.675 96.133C122.009 96.0659 122.355 96.1049 122.665 96.2446C122.975 96.3843 123.234 96.6175 123.405 96.9117C123.576 97.2059 123.651 97.5463 123.619 97.8851C123.587 98.2239 123.449 98.5441 123.226 98.8008C123.003 99.0576 122.705 99.238 122.373 99.3168C122.042 99.3955 121.695 99.3687 121.38 99.24C121.021 99.1415 120.715 98.9061 120.528 98.5844C120.341 98.2628 120.288 97.8806 120.38 97.52Z" fill="black"/>
<path d="M119.91 100.14C119.997 99.966 120.148 99.8321 120.331 99.7661C120.515 99.7001 120.716 99.7069 120.895 99.7851C121.073 99.8634 121.214 100.007 121.29 100.187C121.365 100.366 121.369 100.568 121.3 100.75C121.213 100.924 121.062 101.058 120.879 101.124C120.695 101.19 120.494 101.183 120.315 101.105C120.137 101.027 119.996 100.883 119.92 100.703C119.845 100.524 119.841 100.322 119.91 100.14Z" fill="black"/>
</g>
<path d="M253.64 142.84C252.93 141.99 211.79 122.91 174.53 151.34C140.28 177.48 128.39 226.61 132.94 227.79C138.51 229.23 153.77 205.79 183.06 192.9C193.45 188.33 209.98 192.9 209.98 192.9L253.64 142.84Z" fill="#2C92F8"/>
<path opacity="0.1" d="M210 192.89C205.095 191.642 200.061 190.971 195 190.89C201.46 177.37 213.52 152.15 221.35 135.81C239.78 135.98 253.28 142.37 253.69 142.81L210 192.89Z" fill="black"/>
<path d="M321.41 222.77C322.13 223.61 334.23 267.32 300.08 299.42C268.69 328.94 218.28 332.63 217.86 327.95C217.35 322.22 242.98 311 260.48 284.21C266.68 274.71 264.89 257.65 264.89 257.65L321.41 222.77Z" fill="#2C92F8"/>
<path opacity="0.1" d="M323 256.05L264.34 273.12C265.124 268.002 265.295 262.809 264.85 257.65L321.37 222.77C321.82 223.25 326 237.74 323 256.05Z" fill="black"/>
<path d="M225.63 276.2L185.45 228.81C185.45 228.81 206.45 172.62 256.21 134.88C281.08 116.05 310.21 101.96 336.38 92.64C372.43 79.72 402.59 76 407.26 81.48C411.93 86.96 403.26 116.14 384.68 149.61C371.19 173.82 352.51 200.3 329.87 221.76C284.49 264.72 225.63 276.2 225.63 276.2Z" fill="#C7C7C7"/>
<path d="M323.24 201.47C317.835 206.057 311.192 208.937 304.15 209.748C297.108 210.558 289.984 209.261 283.68 206.022C277.375 202.782 272.173 197.745 268.731 191.549C265.29 185.352 263.763 178.274 264.346 171.209C264.928 164.145 267.593 157.412 272.002 151.862C276.412 146.313 282.369 142.196 289.119 140.032C295.869 137.869 303.109 137.756 309.923 139.708C316.737 141.661 322.819 145.59 327.4 151C333.533 158.248 336.539 167.633 335.759 177.095C334.979 186.558 330.477 195.324 323.24 201.47Z" fill="#A6A6A6"/>
<path d="M325.2 198.14C319.795 202.723 313.152 205.599 306.111 206.407C299.071 207.214 291.949 205.915 285.647 202.675C279.345 199.435 274.145 194.399 270.705 188.203C267.264 182.008 265.739 174.931 266.321 167.868C266.902 160.806 269.565 154.074 273.973 148.525C278.381 142.976 284.335 138.859 291.082 136.693C297.83 134.528 305.068 134.413 311.881 136.361C318.695 138.309 324.777 142.235 329.36 147.64C335.502 154.889 338.515 164.281 337.735 173.751C336.955 183.221 332.446 191.993 325.2 198.14Z" fill="#2C92F8"/>
<path d="M318.11 189.75C314.364 192.935 309.758 194.937 304.874 195.503C299.991 196.069 295.049 195.173 290.674 192.93C286.299 190.686 282.688 187.196 280.298 182.899C277.908 178.603 276.846 173.694 277.246 168.794C277.647 163.894 279.492 159.223 282.548 155.371C285.604 151.52 289.733 148.662 294.414 147.158C299.095 145.655 304.117 145.574 308.844 146.925C313.571 148.276 317.791 151 320.97 154.75C325.227 159.773 327.317 166.279 326.781 172.842C326.245 179.404 323.126 185.485 318.11 189.75Z" fill="white"/>
<path d="M318.12 189.75C315.775 191.747 313.079 193.289 310.17 194.3L290.17 192.67C287.464 191.203 285.055 189.243 283.07 186.89C281.612 185.182 280.397 183.281 279.46 181.24L322.56 184.75C321.316 186.612 319.822 188.294 318.12 189.75Z" fill="#EBEBEB" fill-opacity="0.14"/>
<path d="M323.12 157.68L283.34 154.44C284.141 153.519 285.01 152.66 285.94 151.87C290.961 147.61 297.469 145.519 304.032 146.055C310.595 146.591 316.677 149.711 320.94 154.73C321.74 155.657 322.469 156.643 323.12 157.68Z" fill="#EBEBEB" fill-opacity="0.14"/>
<path d="M325.28 179.6L277.68 175.71C277.522 174.98 277.405 174.243 277.33 173.5L325.97 177.5C325.78 178.18 325.54 178.89 325.28 179.6Z" fill="#EBEBEB" fill-opacity="0.14"/>
<path d="M384.68 149.61L336.38 92.61C372.43 79.72 402.59 76 407.26 81.48C411.93 86.96 403.3 116.14 384.68 149.61Z" fill="#2C92F8"/>
<path d="M350.58 97.45C350.265 97.7184 349.877 97.8873 349.467 97.9354C349.056 97.9834 348.64 97.9084 348.271 97.7199C347.903 97.5314 347.599 97.2378 347.398 96.8763C347.197 96.5149 347.107 96.1018 347.141 95.6895C347.174 95.2771 347.33 94.884 347.587 94.56C347.844 94.236 348.192 93.9956 348.586 93.8693C348.98 93.743 349.402 93.7364 349.8 93.8505C350.198 93.9645 350.553 94.1941 350.82 94.51C351.177 94.9321 351.352 95.4785 351.307 96.0295C351.262 96.5806 351 97.0913 350.58 97.45Z" fill="white"/>
<path d="M359.17 107.59C358.961 107.773 358.718 107.914 358.455 108.002C358.192 108.09 357.913 108.125 357.636 108.105C357.359 108.085 357.089 108.009 356.841 107.883C356.594 107.757 356.374 107.583 356.194 107.371C356.015 107.159 355.88 106.913 355.796 106.648C355.713 106.383 355.683 106.104 355.709 105.828C355.734 105.551 355.815 105.282 355.946 105.037C356.076 104.792 356.255 104.575 356.47 104.4C356.894 104.054 357.438 103.889 357.983 103.94C358.528 103.99 359.031 104.253 359.385 104.67C359.739 105.088 359.914 105.628 359.874 106.174C359.834 106.72 359.581 107.228 359.17 107.59Z" fill="white"/>
<path d="M367.76 117.72C367.442 117.979 367.055 118.139 366.647 118.179C366.239 118.22 365.828 118.14 365.465 117.948C365.103 117.757 364.804 117.463 364.607 117.104C364.41 116.744 364.323 116.335 364.357 115.926C364.391 115.517 364.545 115.128 364.799 114.806C365.053 114.484 365.395 114.244 365.785 114.115C366.174 113.986 366.593 113.975 366.988 114.083C367.384 114.19 367.739 114.412 368.01 114.72C368.197 114.93 368.339 115.177 368.428 115.444C368.517 115.711 368.551 115.993 368.527 116.274C368.504 116.554 368.424 116.827 368.292 117.075C368.16 117.324 367.979 117.543 367.76 117.72Z" fill="white"/>
<path d="M376.36 127.86C376.043 128.12 375.657 128.281 375.249 128.323C374.841 128.365 374.429 128.286 374.066 128.096C373.703 127.906 373.403 127.614 373.205 127.255C373.007 126.896 372.918 126.486 372.951 126.078C372.984 125.669 373.136 125.279 373.389 124.956C373.642 124.633 373.984 124.392 374.373 124.262C374.762 124.132 375.18 124.119 375.576 124.226C375.973 124.332 376.329 124.553 376.6 124.86C376.786 125.07 376.928 125.316 377.017 125.583C377.106 125.849 377.14 126.131 377.118 126.411C377.095 126.691 377.017 126.964 376.886 127.213C376.756 127.462 376.577 127.682 376.36 127.86Z" fill="white"/>
<path d="M385 138C384.685 138.267 384.298 138.435 383.887 138.482C383.477 138.529 383.062 138.453 382.694 138.264C382.327 138.076 382.023 137.782 381.823 137.421C381.622 137.06 381.532 136.648 381.566 136.236C381.599 135.824 381.754 135.431 382.011 135.108C382.267 134.784 382.614 134.543 383.007 134.416C383.4 134.289 383.822 134.282 384.22 134.395C384.617 134.507 384.972 134.736 385.24 135.05C385.418 135.259 385.554 135.502 385.638 135.763C385.722 136.025 385.754 136.301 385.732 136.575C385.71 136.849 385.634 137.116 385.508 137.36C385.382 137.605 385.21 137.822 385 138Z" fill="white"/>
<path d="M197 227.7C196.576 228.046 196.032 228.211 195.487 228.16C194.942 228.11 194.439 227.847 194.085 227.43C193.731 227.012 193.556 226.472 193.596 225.926C193.636 225.38 193.889 224.872 194.3 224.51C194.509 224.327 194.752 224.187 195.015 224.098C195.278 224.01 195.557 223.975 195.834 223.995C196.111 224.015 196.381 224.091 196.629 224.217C196.876 224.343 197.096 224.517 197.276 224.729C197.455 224.941 197.59 225.187 197.674 225.452C197.757 225.717 197.787 225.996 197.761 226.272C197.736 226.549 197.655 226.818 197.524 227.063C197.394 227.308 197.215 227.525 197 227.7Z" fill="#A6A6A6"/>
<path d="M205.64 237.84C205.323 238.1 204.936 238.261 204.528 238.303C204.121 238.345 203.709 238.266 203.346 238.076C202.982 237.886 202.683 237.594 202.485 237.235C202.286 236.876 202.198 236.466 202.231 236.058C202.263 235.649 202.416 235.259 202.669 234.936C202.921 234.613 203.264 234.372 203.653 234.242C204.042 234.112 204.46 234.099 204.856 234.206C205.252 234.312 205.608 234.533 205.88 234.84C206.066 235.05 206.208 235.296 206.297 235.563C206.386 235.829 206.42 236.111 206.397 236.391C206.375 236.671 206.296 236.944 206.166 237.193C206.036 237.442 205.857 237.662 205.64 237.84Z" fill="#A6A6A6"/>
<path d="M214.23 248C213.915 248.267 213.528 248.435 213.117 248.482C212.707 248.529 212.292 248.453 211.924 248.264C211.557 248.076 211.253 247.782 211.053 247.421C210.852 247.06 210.762 246.648 210.796 246.236C210.829 245.824 210.984 245.431 211.241 245.108C211.497 244.784 211.844 244.543 212.237 244.416C212.63 244.289 213.052 244.282 213.45 244.395C213.847 244.507 214.202 244.736 214.47 245.05C214.648 245.259 214.784 245.502 214.868 245.763C214.952 246.025 214.984 246.301 214.962 246.575C214.94 246.849 214.864 247.116 214.738 247.36C214.612 247.605 214.44 247.822 214.23 248Z" fill="#A6A6A6"/>
<path d="M222.82 258.11C222.503 258.37 222.117 258.531 221.709 258.573C221.301 258.615 220.889 258.536 220.526 258.346C220.163 258.156 219.863 257.864 219.665 257.505C219.467 257.146 219.378 256.736 219.411 256.328C219.444 255.919 219.596 255.529 219.849 255.206C220.102 254.883 220.444 254.642 220.833 254.512C221.222 254.382 221.64 254.369 222.036 254.476C222.432 254.582 222.788 254.803 223.06 255.11C223.246 255.32 223.388 255.566 223.477 255.833C223.566 256.099 223.6 256.381 223.578 256.661C223.555 256.941 223.477 257.214 223.346 257.463C223.216 257.712 223.037 257.932 222.82 258.11Z" fill="#A6A6A6"/>
<path d="M231.41 268.24C231.092 268.499 230.705 268.659 230.297 268.699C229.889 268.74 229.478 268.66 229.115 268.468C228.753 268.277 228.454 267.983 228.257 267.624C228.06 267.264 227.973 266.855 228.007 266.446C228.041 266.037 228.195 265.648 228.449 265.326C228.702 265.004 229.045 264.763 229.435 264.635C229.824 264.506 230.243 264.495 230.638 264.603C231.034 264.71 231.389 264.932 231.66 265.24C231.847 265.45 231.989 265.697 232.078 265.964C232.167 266.231 232.201 266.513 232.177 266.793C232.154 267.074 232.074 267.347 231.942 267.595C231.81 267.844 231.629 268.063 231.41 268.24Z" fill="#A6A6A6"/>
<path opacity="0.2" d="M405 80.07C377.18 82.07 329 98.91 278.31 138.67C240.85 168.04 213.52 219.44 200.78 246.89L185.45 228.81C185.45 228.81 206.45 172.62 256.21 134.88C281.08 116.05 310.21 101.96 336.38 92.64C368.69 81.05 396.26 76.85 405 80.07Z" fill="white"/>
<path d="M207.68 283.92L175.01 245.38L187.72 231.49L223.46 273.65L207.68 283.92Z" fill="#2C92F8"/>
<path opacity="0.1" d="M223.46 273.65L215.77 278.65L182.86 236.8L187.72 231.5L223.46 273.65Z" fill="black"/>
<path d="M384.17 154.76L369.24 153.76L362.22 167.98L362.86 152.14L349.28 145.86L364.36 146.01L371.22 132.64L370.86 147.66L384.17 154.76Z" fill="#FCFCFC"/>
<path d="M380.5 99.61L372.15 99.06L368.23 107.01L368.59 98.15L361 94.64L369.43 94.72L373.26 87.25L373.06 95.65L380.5 99.61Z" fill="#FCFCFC"/>
<path d="M312.98 269.13L304.64 268.57L300.72 276.52L301.07 267.67L293.48 264.16L301.91 264.24L305.75 256.77L305.54 265.17L312.98 269.13Z" fill="#FCFCFC"/>
<path d="M164.46 195.38L156.11 194.82L152.19 202.77L152.55 193.92L144.96 190.41L153.39 190.49L157.22 183.02L157.02 191.41L164.46 195.38Z" fill="#FCFCFC"/>
<path opacity="0.6" d="M200.5 275.32C185.35 285.53 171.98 298.56 162.22 314.13C152.206 329.778 146.548 347.815 145.83 366.38C145.59 375.79 146.739 385.185 149.24 394.26C151.813 403.504 155.707 412.328 160.8 420.46C166.015 428.737 172.269 436.312 179.41 443C186.677 449.799 194.626 455.831 203.13 461C193.958 456.808 185.245 451.678 177.13 445.69C168.918 439.604 161.524 432.485 155.13 424.51C141.876 408.006 133.797 387.952 131.91 366.87C130.03 345.56 134.53 323.69 143.85 304.18C153.17 284.67 167.1 267.34 183.56 253.18L200.5 275.32Z" fill="#2C92F8"/>
<path d="M174.59 298.55L168.63 299.65L167.3 305.93L165.97 299.65L160.01 298.54L165.95 297.09L167.3 291.16L168.66 297.09L174.59 298.55Z" fill="white"/>
<path d="M152.66 416.18L149.33 416.8L148.59 420.31L147.84 416.8L144.51 416.18L147.83 415.37L148.59 412.06L149.35 415.37L152.66 416.18Z" fill="white"/>
<path d="M150.87 385.71L147.54 386.32L146.8 389.84L146.06 386.32L142.72 385.71L146.04 384.9L146.8 381.58L147.56 384.9L150.87 385.71Z" fill="white"/>
<path d="M170.19 278.96L166.86 279.58L166.11 283.09L165.37 279.58L162.04 278.96L165.36 278.15L166.11 274.84L166.87 278.15L170.19 278.96Z" fill="white"/>
<path d="M160.54 423.78C160.328 423.838 160.141 423.963 160.008 424.138C159.874 424.312 159.802 424.525 159.802 424.745C159.802 424.965 159.874 425.178 160.008 425.352C160.141 425.527 160.328 425.652 160.54 425.71C160.752 425.652 160.939 425.527 161.072 425.352C161.206 425.178 161.278 424.965 161.278 424.745C161.278 424.525 161.206 424.312 161.072 424.138C160.939 423.963 160.752 423.838 160.54 423.78Z" fill="white"/>
<path d="M188.1 274.26C187.888 274.318 187.701 274.443 187.568 274.618C187.435 274.792 187.362 275.005 187.362 275.225C187.362 275.445 187.435 275.658 187.568 275.832C187.701 276.007 187.888 276.132 188.1 276.19C188.312 276.132 188.499 276.007 188.632 275.832C188.766 275.658 188.838 275.445 188.838 275.225C188.838 275.005 188.766 274.792 188.632 274.618C188.499 274.443 188.312 274.318 188.1 274.26Z" fill="white"/>
<path d="M136.12 360.37C135.908 360.428 135.721 360.553 135.588 360.728C135.455 360.902 135.382 361.115 135.382 361.335C135.382 361.555 135.455 361.768 135.588 361.942C135.721 362.117 135.908 362.242 136.12 362.3C136.332 362.242 136.519 362.117 136.652 361.942C136.786 361.768 136.858 361.555 136.858 361.335C136.858 361.115 136.786 360.902 136.652 360.728C136.519 360.553 136.332 360.428 136.12 360.37Z" fill="white"/>
<path d="M158.82 418.75C158.653 418.77 158.498 418.851 158.387 418.977C158.275 419.104 158.213 419.266 158.213 419.435C158.213 419.604 158.275 419.766 158.387 419.893C158.498 420.019 158.653 420.1 158.82 420.12C158.987 420.1 159.142 420.019 159.253 419.893C159.365 419.766 159.427 419.604 159.427 419.435C159.427 419.266 159.365 419.104 159.253 418.977C159.142 418.851 158.987 418.77 158.82 418.75Z" fill="white"/>
<path d="M135.77 326.63C135.589 326.63 135.417 326.702 135.289 326.829C135.161 326.957 135.09 327.13 135.09 327.31C135.09 327.49 135.161 327.663 135.289 327.791C135.417 327.918 135.589 327.99 135.77 327.99C135.95 327.99 136.123 327.918 136.251 327.791C136.378 327.663 136.45 327.49 136.45 327.31C136.45 327.13 136.378 326.957 136.251 326.829C136.123 326.702 135.95 326.63 135.77 326.63Z" fill="white"/>
<path d="M142.72 396.49C142.251 396.524 141.813 396.735 141.494 397.079C141.174 397.423 140.996 397.875 140.996 398.345C140.996 398.815 141.174 399.267 141.494 399.611C141.813 399.955 142.251 400.166 142.72 400.2C143.188 400.166 143.626 399.955 143.946 399.611C144.266 399.267 144.444 398.815 144.444 398.345C144.444 397.875 144.266 397.423 143.946 397.079C143.626 396.735 143.188 396.524 142.72 396.49Z" fill="white"/>
<path d="M144.51 320.35C144.019 320.35 143.548 320.545 143.202 320.892C142.855 321.239 142.66 321.709 142.66 322.2C142.66 322.691 142.855 323.161 143.202 323.508C143.548 323.855 144.019 324.05 144.51 324.05C145 324.05 145.471 323.855 145.818 323.508C146.165 323.161 146.36 322.691 146.36 322.2C146.36 321.709 146.165 321.239 145.818 320.892C145.471 320.545 145 320.35 144.51 320.35Z" fill="white"/>
<path d="M365.437 511.978C356.976 509.735 356.161 510.084 352.901 518.307C352.897 518.313 352.889 518.317 352.88 518.318C352.87 518.32 352.859 518.318 352.849 518.315C352.839 518.312 352.829 518.306 352.822 518.299C352.816 518.292 352.812 518.285 352.811 518.278C355.096 509.731 354.65 508.965 346.521 505.72C346.511 505.715 346.504 505.709 346.499 505.701C346.494 505.694 346.493 505.687 346.495 505.68C346.497 505.673 346.503 505.668 346.511 505.665C346.519 505.662 346.529 505.661 346.54 505.663C355.001 507.907 355.815 507.557 359.078 499.335C359.083 499.329 359.09 499.325 359.1 499.324C359.109 499.322 359.12 499.324 359.13 499.327C359.141 499.33 359.15 499.336 359.157 499.343C359.164 499.35 359.168 499.357 359.168 499.364C356.881 507.91 357.326 508.676 365.456 511.921C365.465 511.926 365.473 511.932 365.478 511.94C365.483 511.947 365.484 511.955 365.482 511.961C365.48 511.968 365.474 511.973 365.466 511.976C365.458 511.979 365.448 511.98 365.437 511.978Z" fill="white"/>
<path d="M354.459 -5.6633C345.998 -7.90671 345.183 -7.55747 341.923 0.666166C341.919 0.67177 341.911 0.67556 341.902 0.676936C341.892 0.678314 341.881 0.677191 341.871 0.673751C341.861 0.670312 341.851 0.664756 341.844 0.657974C341.838 0.651194 341.834 0.643589 341.833 0.636376C344.118 -7.90984 343.672 -8.67615 335.543 -11.9209C335.533 -11.9258 335.526 -11.9325 335.521 -11.9398C335.516 -11.9471 335.515 -11.9546 335.517 -11.9612C335.519 -11.9678 335.525 -11.973 335.533 -11.9761C335.541 -11.9791 335.551 -11.9798 335.562 -11.978C344.023 -9.73461 344.837 -10.0838 348.1 -18.3066C348.105 -18.3122 348.112 -18.316 348.122 -18.3174C348.131 -18.3188 348.142 -18.3177 348.152 -18.3142C348.163 -18.3108 348.172 -18.3052 348.179 -18.2984C348.186 -18.2917 348.19 -18.2841 348.19 -18.2768C345.903 -9.73147 346.348 -8.96517 354.478 -5.72038C354.487 -5.71549 354.495 -5.70886 354.5 -5.70156C354.505 -5.69425 354.506 -5.6867 354.504 -5.6801C354.502 -5.67351 354.496 -5.66827 354.488 -5.66522C354.48 -5.66218 354.47 -5.6615 354.459 -5.6633Z" fill="white"/>
</svg>
