<svg width="45" height="45" viewBox="0 0 45 45" fill="none" xmlns="http://www.w3.org/2000/svg">
<g id="search(2) 1">
<path id="Vector" d="M29.0644 26.2519H27.5808L27.0534 25.7456C28.9545 23.5406 29.9996 20.7257 29.9981 17.8144C29.9987 16.214 29.684 14.6291 29.0719 13.1503C28.4599 11.6716 27.5626 10.3279 26.4312 9.19594C25.2998 8.06401 23.9565 7.16605 22.478 6.55335C20.9995 5.94064 19.4148 5.62518 17.8144 5.625C16.2135 5.62463 14.6283 5.93967 13.1493 6.55211C11.6702 7.16455 10.3263 8.0624 9.19436 9.19436C8.0624 10.3263 7.16455 11.6702 6.55211 13.1493C5.93967 14.6283 5.62463 16.2135 5.625 17.8144C5.62518 19.4148 5.94064 20.9995 6.55335 22.478C7.16605 23.9565 8.06401 25.2998 9.19594 26.4312C10.3279 27.5626 11.6716 28.4599 13.1503 29.0719C14.6291 29.684 16.214 29.9987 17.8144 29.9981C20.7257 29.9996 23.5406 28.9545 25.7456 27.0534L26.2519 27.5808V29.0644L35.6231 38.4188L38.4188 35.6231L29.0644 26.2519ZM17.8144 26.2519C13.1456 26.2519 9.37688 22.4831 9.37688 17.8144C9.37688 13.1456 13.1456 9.37688 17.8144 9.37688C22.4831 9.37688 26.2519 13.1456 26.2519 17.8144C26.2519 22.4831 22.4831 26.2519 17.8144 26.2519Z" fill="white" fill-opacity="0.47"/>
</g>
</svg>
